<?xml version="1.0" encoding="utf-8"?>
<!-- Generator: Adobe Illustrator 23.0.3, SVG Export Plug-In . SVG Version: 6.00 Build 0)  -->
<svg version="1.0" id="Layer_1" xmlns="http://www.w3.org/2000/svg" xmlns:xlink="http://www.w3.org/1999/xlink" x="0px" y="0px"
	 viewBox="0 0 23.5 23.5" enable-background="new 0 0 23.5 23.5" xml:space="preserve">
<title>JACK</title>
<g id="New_Symbol">
	<g>
		<path id="path7255_2_" fill="#CCCCCC" d="M11.75,23.25c6.34868-0.00626,11.49374-5.15132,11.5-11.5
			c0-6.35127-5.14873-11.5-11.5-11.5s-11.5,5.14873-11.5,11.5S5.39873,23.25,11.75,23.25"/>
		<rect x="20.33572" y="9.10625" fill="#A4A4A4" width="2.68928" height="1.394"/>
		<rect x="20.33572" y="12.99988" fill="#A4A4A4" width="2.68928" height="1.394"/>
		<rect x="0.42942" y="9.10625" fill="#A4A4A4" width="2.68928" height="1.394"/>
		<rect x="0.42942" y="12.99988" fill="#A4A4A4" width="2.68928" height="1.394"/>
		<path id="path7261_2_" fill="#CCCCCC" stroke="#5B5B5B" stroke-width="1.2" d="M11.75,20.33578
			c4.73971-0.00502,8.58074-3.84607,8.58572-8.58578c-0.00002-4.74177-3.84399-8.58571-8.58576-8.5857
			c-4.74177,0.00001-8.58573,3.84399-8.58572,8.58576C3.16425,16.49183,7.00823,20.33579,11.75,20.33578"/>
		<path id="path7265_2_" fill="#1C1C1C" d="M17.917,11.75c-0.00102-3.4055-2.7615-6.16593-6.167-6.16688
			c-0.00004,0-0.00008,0-0.00012,0C8.34394,5.58319,5.58293,8.3443,5.583,11.75024s2.76118,6.16695,6.16712,6.16688
			C15.15606,17.91705,17.91707,15.15594,17.917,11.75"/>
		<rect x="20.33572" y="10.50025" fill="#5B5B5B" width="2.68928" height="2.49962"/>
		<rect x="0.38386" y="10.50025" fill="#5B5B5B" width="2.7804" height="2.49962"/>
		<path id="path7255-2_2_" fill="none" stroke="#313131" stroke-width="0.5" d="M11.75,23.25
			c6.34868-0.00626,11.49374-5.15132,11.5-11.5c0-6.35127-5.14873-11.5-11.5-11.5s-11.5,5.14873-11.5,11.5
			S5.39873,23.25,11.75,23.25"/>
	</g>
</g>
</svg>
