<svg id="Layer_1" data-name="Layer 1" xmlns="http://www.w3.org/2000/svg" width="13" height="20" viewBox="0 0 13 20">
  <title>switch2_1</title>
  <rect width="13" height="20" rx="1.44331" style="fill: #1c1c1c"/>
  <g>
    <g>
      <path d="M1.38055.5H11.61981a.88037.88037,0,0,1,.88037.88037V8.61963A.88037.88037,0,0,1,11.61981,9.5H1.381a.88086.88086,0,0,1-.88086-.88086V1.38037A.88037.88037,0,0,1,1.38055.5Z" style="fill: #494949"/>
      <path d="M11.61959,1A.38084.38084,0,0,1,12,1.38041V8.61959A.38084.38084,0,0,1,11.61959,9H1.38041A.38084.38084,0,0,1,1,8.61959V1.38041A.38084.38084,0,0,1,1.38041,1H11.61959m0-1H1.38041A1.38041,1.38041,0,0,0,0,1.38041V8.61959A1.38041,1.38041,0,0,0,1.38041,10H11.61959A1.38041,1.38041,0,0,0,13,8.61959V1.38041A1.38041,1.38041,0,0,0,11.61959,0Z" transform="translate(0)" style="fill: #1c1c1c"/>
    </g>
    <line x1="0.60103" y1="2.78812" x2="12.13442" y2="2.78812" style="fill: #494949;stroke: #1c1c1c;stroke-miterlimit: 10"/>
    <line x1="0.60103" y1="5" x2="12.13442" y2="5" style="fill: #494949;stroke: #1c1c1c;stroke-miterlimit: 10"/>
    <line x1="0.60103" y1="7.21188" x2="12.13442" y2="7.21188" style="fill: #494949;stroke: #1c1c1c;stroke-miterlimit: 10"/>
  </g>
</svg>
