<svg id="Layer_1" data-name="Layer 1" xmlns="http://www.w3.org/2000/svg" width="13" height="20" viewBox="0 0 13 20">
  <title>switch2_2</title>
  <rect width="13" height="20" rx="1.44331" style="fill: #1c1c1c"/>
  <g>
    <g>
      <path d="M1.38055,10.5H11.61981a.88037.88037,0,0,1,.88037.88037v7.23877a.88086.88086,0,0,1-.88086.88086H1.381a.88086.88086,0,0,1-.88086-.88086V11.38037A.88037.88037,0,0,1,1.38055,10.5Z" style="fill: #494949"/>
      <path d="M11.61959,11A.38084.38084,0,0,1,12,11.38041v7.23918A.38084.38084,0,0,1,11.61959,19H1.38041A.38084.38084,0,0,1,1,18.61959V11.38041A.38084.38084,0,0,1,1.38041,11H11.61959m0-1H1.38041A1.38041,1.38041,0,0,0,0,11.38041v7.23918A1.38041,1.38041,0,0,0,1.38041,20H11.61959A1.38041,1.38041,0,0,0,13,18.61959V11.38041A1.38041,1.38041,0,0,0,11.61959,10Z" transform="translate(0)" style="fill: #1c1c1c"/>
    </g>
    <line x1="0.60103" y1="12.78812" x2="12.13442" y2="12.78812" style="fill: #494949;stroke: #1c1c1c;stroke-miterlimit: 10"/>
    <line x1="0.60103" y1="15" x2="12.13442" y2="15" style="fill: #494949;stroke: #1c1c1c;stroke-miterlimit: 10"/>
    <line x1="0.60103" y1="17.21188" x2="12.13442" y2="17.21188" style="fill: #494949;stroke: #1c1c1c;stroke-miterlimit: 10"/>
  </g>
</svg>
