<svg id="Layer_1" data-name="Layer 1" xmlns="http://www.w3.org/2000/svg" width="30" height="13" viewBox="0 0 30 13">
  <title>switch3_2</title>
  <rect x="8.5" y="-8.5" width="13" height="30" rx="1.44331" transform="translate(8.5 21.5) rotate(-90)" style="fill: #1c1c1c"/>
  <g>
    <g>
      <path d="M11.42256.5h7.15527a.88037.88037,0,0,1,.88037.88037V11.61967a.88037.88037,0,0,1-.88037.88037H11.423a.88086.88086,0,0,1-.88086-.88086V1.38041A.88037.88037,0,0,1,11.42256.5Z" style="fill: #5b5b5b"/>
      <path d="M18.57758,1a.38084.38084,0,0,1,.3804.38041V11.61959A.38084.38084,0,0,1,18.57758,12H11.42242a.38084.38084,0,0,1-.3804-.38041V1.38041A.38084.38084,0,0,1,11.42242,1h7.15516m0-1H11.42242A1.38041,1.38041,0,0,0,10.042,1.38041V11.61959A1.38041,1.38041,0,0,0,11.42242,13h7.15516a1.38041,1.38041,0,0,0,1.3804-1.38041V1.38041A1.38041,1.38041,0,0,0,18.57758,0Z" transform="translate(0 0)" style="fill: #1c1c1c"/>
    </g>
    <line x1="12.80671" y1="12.39897" x2="12.80671" y2="0.86558" style="fill: #5b5b5b;stroke: #1c1c1c;stroke-miterlimit: 10"/>
    <line x1="15" y1="12.39897" x2="15" y2="0.86558" style="fill: #5b5b5b;stroke: #1c1c1c;stroke-miterlimit: 10"/>
    <line x1="17.19329" y1="12.39897" x2="17.19329" y2="0.86558" style="fill: #5b5b5b;stroke: #1c1c1c;stroke-miterlimit: 10"/>
  </g>
</svg>
