<svg id="Layer_1" data-name="Layer 1" xmlns="http://www.w3.org/2000/svg" width="30" height="13" viewBox="0 0 30 13">
  <title>switch3_3</title>
  <rect x="8.5" y="-8.5" width="13" height="30" rx="1.44331" transform="translate(8.5 21.5) rotate(-90)" style="fill: #1c1c1c"/>
  <g>
    <g>
      <path d="M21.46507.5h7.15479a.88037.88037,0,0,1,.88037.88037V11.61918a.88086.88086,0,0,1-.88086.88086h-7.1543a.88086.88086,0,0,1-.88086-.88086V1.3809A.88086.88086,0,0,1,21.46507.5Z" style="fill: #5b5b5b"/>
      <path d="M28.6196,1A.38084.38084,0,0,1,29,1.38041V11.61959A.38084.38084,0,0,1,28.6196,12H21.46444a.38084.38084,0,0,1-.3804-.38041V1.38041A.38084.38084,0,0,1,21.46444,1H28.6196m0-1H21.46444A1.38041,1.38041,0,0,0,20.084,1.38041V11.61959A1.38041,1.38041,0,0,0,21.46444,13H28.6196A1.38041,1.38041,0,0,0,30,11.61959V1.38041A1.38041,1.38041,0,0,0,28.6196,0Z" transform="translate(0 0)" style="fill: #1c1c1c"/>
    </g>
    <line x1="22.84873" y1="12.39897" x2="22.84873" y2="0.86558" style="fill: #5b5b5b;stroke: #1c1c1c;stroke-miterlimit: 10"/>
    <line x1="25.04202" y1="12.39897" x2="25.04202" y2="0.86558" style="fill: #5b5b5b;stroke: #1c1c1c;stroke-miterlimit: 10"/>
    <line x1="27.23531" y1="12.39897" x2="27.23531" y2="0.86558" style="fill: #5b5b5b;stroke: #1c1c1c;stroke-miterlimit: 10"/>
  </g>
</svg>
