<svg id="Layer_1" data-name="Layer 1" xmlns="http://www.w3.org/2000/svg" width="30" height="13" viewBox="0 0 30 13">
  <title>switch3_1</title>
  <rect x="8.5" y="-8.5" width="13" height="30" rx="1.44331" transform="translate(8.5 21.5) rotate(-90)" style="fill: #1c1c1c"/>
  <g>
    <g>
      <path d="M1.381.5H8.53582a.88037.88037,0,0,1,.88037.88037V11.61918A.88086.88086,0,0,1,8.53533,12.5H1.381a.88086.88086,0,0,1-.88086-.88086V1.3809A.88086.88086,0,0,1,1.381.5Z" style="fill: #5b5b5b"/>
      <path d="M8.53556,1a.38084.38084,0,0,1,.3804.38041V11.61959A.38084.38084,0,0,1,8.53556,12H1.3804A.38084.38084,0,0,1,1,11.61959V1.38041A.38084.38084,0,0,1,1.3804,1H8.53556m0-1H1.3804A1.38041,1.38041,0,0,0,0,1.38041V11.61959A1.38041,1.38041,0,0,0,1.3804,13H8.53556A1.38041,1.38041,0,0,0,9.916,11.61959V1.38041A1.38041,1.38041,0,0,0,8.53556,0Z" transform="translate(0 0)" style="fill: #1c1c1c"/>
    </g>
    <line x1="2.76469" y1="12.39897" x2="2.76469" y2="0.86558" style="fill: #5b5b5b;stroke: #1c1c1c;stroke-miterlimit: 10"/>
    <line x1="4.95798" y1="12.39897" x2="4.95798" y2="0.86558" style="fill: #5b5b5b;stroke: #1c1c1c;stroke-miterlimit: 10"/>
    <line x1="7.15127" y1="12.39897" x2="7.15127" y2="0.86558" style="fill: #5b5b5b;stroke: #1c1c1c;stroke-miterlimit: 10"/>
  </g>
</svg>
