<?xml version="1.0" encoding="utf-8"?>
<!-- Generator: Adobe Illustrator 23.0.3, SVG Export Plug-In . SVG Version: 6.00 Build 0)  -->
<svg version="1.0" id="Layer_1" xmlns="http://www.w3.org/2000/svg" xmlns:xlink="http://www.w3.org/1999/xlink" x="0px" y="0px"
	 width="60px" height="380px" viewBox="0 0 60 380" enable-background="new 0 0 60 380" xml:space="preserve">
<title>repelzen_BG</title>
<g id="export_bg">
	<g id="path33453">
		<path fill="#313131" d="M0,0h60v380H0V0z"/>
	</g>
</g>
<g id="EXPORT">
	<g>
		<g>
			<path fill="#313131" d="M26.47368,104.28673c-8.92453,1.9474-14.58061,10.76083-12.63321,19.68536
				c0.99648,4.56665,3.87867,8.49846,7.93376,10.82301"/>
			<path fill="#098EB7" d="M21.77441,135.29492c-0.08739,0.00006-0.17325-0.02283-0.249-0.06641
				c-8.16436-4.68005-10.98895-15.0925-6.3089-23.25686c2.39488-4.17787,6.44577-7.1473,11.1507-8.17381
				c0.26496-0.06172,0.52978,0.10303,0.59151,0.36798c0.00115,0.00493,0.00222,0.00987,0.00322,0.01483
				c0.05864,0.26965-0.11225,0.53581-0.38183,0.59473c-8.65454,1.88823-14.13972,10.43483-12.25149,19.08936
				c0.96632,4.42908,3.76179,8.24237,7.69485,10.49658c0.23947,0.13751,0.32212,0.44312,0.1846,0.68259
				c-0.08916,0.15527-0.25455,0.25101-0.4336,0.25101H21.77441z"/>
		</g>
		<g>
			<path fill="#313131" d="M38.19023,134.81546c7.93579-4.52284,10.70253-14.62256,6.17969-22.55835
				c-2.47002-4.33391-6.76421-7.32146-11.68652-8.13054"/>
			<path fill="#098EB7" d="M38.19043,135.31543c-0.27605,0.00027-0.50005-0.22328-0.50033-0.49933
				c-0.00018-0.17975,0.09616-0.34575,0.25233-0.43475c7.69604-4.38579,10.37954-14.18004,5.99376-21.87608
				c-2.39513-4.2029-6.55926-7.10027-11.33262-7.88515c-0.27225-0.04397-0.45732-0.30032-0.41336-0.57257
				c0.00009-0.00055,0.00018-0.0011,0.00027-0.00165c0.04831-0.26982,0.30199-0.45264,0.57324-0.41309
				c9.28582,1.5257,15.57664,10.29018,14.05094,19.576c-0.83326,5.0714-3.91107,9.49577-8.37613,12.0407
				C38.36307,135.29294,38.27749,135.31567,38.19043,135.31543z"/>
		</g>
	</g>
	<g>
		<g>
			<path fill="#AFAFAF" d="M42.0625,83.31689c-0.18487,0.00014-0.35469-0.10186-0.44141-0.26513l-0.97265-1.82617
				c-0.1303-0.24347-0.03856-0.54646,0.20491-0.67677c0.24347-0.13029,0.54647-0.03855,0.67677,0.20492
				c0.00038,0.0007,0.00076,0.00141,0.00113,0.00212l0.97266,1.82617c0.12991,0.24346,0.03785,0.54613-0.20561,0.67603
				C42.22574,83.29678,42.14474,83.31699,42.0625,83.31689z"/>
			<path fill="#AFAFAF" d="M45.25293,81.27051c-0.15194,0.00011-0.29568-0.06889-0.39063-0.1875l-1.29394-1.61524
				c-0.17259-0.21574-0.13761-0.53053,0.07813-0.70313s0.53054-0.13761,0.70313,0.07813l1.29394,1.61523
				c0.17226,0.21565,0.1373,0.53008-0.07812,0.70263C45.477,81.2321,45.36663,81.27091,45.25293,81.27051z"/>
			<path fill="#AFAFAF" d="M48.04,78.68311c-0.12249,0.00029-0.24075-0.04476-0.332-0.12647l-1.5459-1.37549
				c-0.2063-0.18337-0.22488-0.49927-0.04151-0.70557c0.18338-0.2063,0.49927-0.22488,0.70557-0.0415l1.5459,1.37549
				c0.20655,0.18292,0.2257,0.49864,0.04278,0.70518c-0.095,0.10728-0.23149,0.16859-0.37478,0.16836H48.04z"/>
			<path fill="#AFAFAF" d="M50.39551,75.65186c-0.09597,0.00021-0.18994-0.02744-0.27051-0.07959l-1.73926-1.1211
				c-0.23152-0.15043-0.29726-0.46006-0.14683-0.69158c0.14948-0.23006,0.45645-0.29666,0.68783-0.14924l1.73926,1.1211
				c0.23219,0.14948,0.29923,0.45888,0.14975,0.69107c-0.092,0.14291-0.2503,0.22929-0.42027,0.22934H50.39551z"/>
			<path fill="#AFAFAF" d="M52.29,72.271c-0.07144,0.0002-0.14207-0.01514-0.207-0.04493l-1.88281-0.85888
				c-0.25283-0.11105-0.36776-0.40604-0.25671-0.65887c0.11105-0.25282,0.40603-0.36776,0.65886-0.25671
				c0.00399,0.00175,0.00796,0.00356,0.0119,0.00542l1.88281,0.85889c0.25137,0.11422,0.36256,0.41058,0.24834,0.66196
				c-0.08114,0.17857-0.2592,0.2932-0.45534,0.29312H52.29z"/>
			<path fill="#AFAFAF" d="M53.69336,68.63037c-0.04795,0.00014-0.09566-0.00677-0.1416-0.02051l-1.9834-0.5874
				c-0.26567-0.07533-0.41997-0.35176-0.34464-0.61743s0.35176-0.41997,0.61743-0.34464
				c0.00348,0.00098,0.00695,0.00201,0.01041,0.00307l1.9834,0.5874c0.26482,0.07828,0.41604,0.35641,0.33776,0.62122
				c-0.06279,0.21242-0.25785,0.35822-0.47936,0.35827L53.69336,68.63037z"/>
			<path fill="#AFAFAF" d="M54.57617,64.81836c-0.02482-0.00008-0.0496-0.00188-0.07417-0.00536l-2.04687-0.30322
				c-0.27277-0.04022-0.46129-0.29395-0.42107-0.56673c0.00006-0.00038,0.00011-0.00077,0.00017-0.00115
				c0.04405-0.27079,0.29542-0.45747,0.56738-0.42138l2.04688,0.30322c0.27315,0.04072,0.46157,0.29516,0.42086,0.56831
				c-0.03644,0.24445-0.24598,0.42561-0.49313,0.42632L54.57617,64.81836z"/>
			<path fill="#AFAFAF" d="M54.89941,60.92383L54.89941,60.92383l-2.06836-0.001c-0.27614,0-0.5-0.22386-0.5-0.5
				s0.22386-0.5,0.5-0.5l0,0l2.06836,0.001c0.27614,0,0.5,0.22386,0.5,0.5S55.17555,60.92383,54.89941,60.92383z"/>
			<path fill="#AFAFAF" d="M52.56543,57.33057c-0.27618-0.00059-0.49958-0.22495-0.49899-0.50112
				c0.00052-0.24372,0.17666-0.45156,0.41699-0.49205l2.04-0.34179c0.27255-0.04476,0.52977,0.1399,0.57453,0.41245
				c0.04451,0.27102-0.13787,0.52721-0.40853,0.57387l-2.04,0.3418C52.62167,57.32839,52.59357,57.33068,52.56543,57.33057z"/>
			<path fill="#AFAFAF" d="M51.72754,53.91846c-0.27606-0.00003-0.49982-0.22385-0.49979-0.49992
				c0.00003-0.21353,0.1357-0.40347,0.33768-0.47274l1.957-0.67236c0.26104-0.08953,0.54523,0.0495,0.63476,0.31055
				c0.08953,0.26104-0.0495,0.54523-0.31054,0.63476l0,0l-1.957,0.67236C51.83751,53.90919,51.78272,53.91843,51.72754,53.91846z"/>
			<path fill="#AFAFAF" d="M50.36328,50.73291c-0.27631-0.00039-0.49998-0.22469-0.4996-0.501
				c0.00026-0.18388,0.10137-0.3528,0.26331-0.43991l1.82325-0.97656c0.24371-0.13016,0.54678-0.03812,0.67694,0.20559
				c0.12989,0.2432,0.03852,0.54565-0.2043,0.67625l-1.82324,0.97656C50.52692,50.71266,50.44573,50.73295,50.36328,50.73291z"/>
			<path fill="#AFAFAF" d="M48.51855,47.81982c-0.27604,0.00013-0.49992-0.22354-0.50004-0.49958
				c-0.00008-0.15668,0.07333-0.30433,0.19829-0.39885l1.64843-1.24951c0.21991-0.16685,0.53343-0.12384,0.70028,0.09607
				s0.12384,0.53343-0.09607,0.70028c-0.00023,0.00018-0.00046,0.00035-0.00069,0.00053l-1.64844,1.24951
				C48.73357,47.78427,48.62755,47.81995,48.51855,47.81982z"/>
			<path fill="#AFAFAF" d="M46.23926,45.22559c-0.27614,0.00002-0.50001-0.22383-0.50003-0.49997
				c0-0.12976,0.05043-0.25444,0.14065-0.34769l1.43848-1.4873c0.19201-0.19848,0.50855-0.20372,0.70703-0.01172
				c0.19847,0.19201,0.20372,0.50855,0.01172,0.70703l-1.43848,1.4873C46.50464,45.17092,46.37482,45.22596,46.23926,45.22559z"/>
			<path fill="#AFAFAF" d="M43.5752,42.99707c-0.27634-0.00026-0.50015-0.22448-0.49989-0.50082
				c0.0001-0.10324,0.03212-0.20393,0.09169-0.28825l1.19629-1.6875c0.16038-0.22492,0.47273-0.27724,0.69765-0.11686
				c0.22388,0.15964,0.27693,0.47006,0.11876,0.69498l-1.19629,1.6875C43.88969,42.91858,43.73746,42.99724,43.5752,42.99707z"/>
			<path fill="#AFAFAF" d="M40.57324,41.18213c-0.27621,0.00005-0.50016-0.22382-0.50021-0.50003
				c-0.00001-0.0778,0.01812-0.15454,0.05297-0.2241l0.92773-1.84912c0.12479-0.24651,0.42578-0.34519,0.67229-0.22041
				c0.24509,0.12407,0.3443,0.42255,0.22224,0.66865l-0.92773,1.84912C40.93553,41.07532,40.76249,41.18206,40.57324,41.18213z"/>
			<path fill="#AFAFAF" d="M37.28125,39.82764c-0.05203-0.00006-0.10374-0.00814-0.15332-0.02393
				c-0.26277-0.08484-0.40705-0.3666-0.32227-0.62939l0.63477-1.96924c0.08416-0.26283,0.36544-0.40767,0.62827-0.32351
				s0.40767,0.36544,0.32352,0.62827c-0.0002,0.00063-0.0004,0.00126-0.00061,0.00189L37.75684,39.481
				C37.69025,39.68745,37.49818,39.82745,37.28125,39.82764z"/>
			<path fill="#AFAFAF" d="M33.74805,38.97949c-0.0265,0.00007-0.05296-0.00205-0.0791-0.00635
				c-0.27272-0.04308-0.45894-0.29902-0.416-0.57177l0.32324-2.04346c0.04385-0.2728,0.30053-0.4584,0.57333-0.41455
				c0.27181,0.04369,0.45724,0.29877,0.41495,0.5708l-0.32324,2.04346C34.2026,38.80019,33.99368,38.9789,33.74805,38.97949z"/>
			<path fill="#AFAFAF" d="M30.0166,38.68457L30.0166,38.68457c-0.27623-0.00024-0.50003-0.22425-0.5-0.50049l0.002-2.06885
				c0.00006-0.27593,0.22379-0.49957,0.49973-0.49951c0.00009,0,0.00018,0,0.00027,0l0,0
				c0.27623,0.00024,0.50003,0.22425,0.5,0.50049l-0.002,2.06885c-0.00005,0.27592-0.22377,0.49956-0.49969,0.49951
				C30.01681,38.68457,30.0167,38.68457,30.0166,38.68457z"/>
			<path fill="#AFAFAF" d="M26.28418,38.97412c-0.24578-0.00063-0.45475-0.1796-0.49316-0.42236l-0.32032-2.044
				c-0.04288-0.27291,0.1436-0.5289,0.4165-0.57177c0.27291-0.04288,0.5289,0.1436,0.57178,0.4165l0,0l0.32032,2.04394
				c0.04287,0.27287-0.14358,0.52882-0.41644,0.57169c-0.00019,0.00003-0.00037,0.00006-0.00056,0.00009
				C26.33644,38.97213,26.31033,38.9741,26.28418,38.97412z"/>
			<path fill="#AFAFAF" d="M22.749,39.81787c-0.21735-0.00007-0.40985-0.14031-0.47656-0.34717l-0.63183-1.97021
				c-0.08361-0.26345,0.06218-0.5448,0.32563-0.62841c0.26232-0.08325,0.54264,0.06093,0.62749,0.32274l0.63184,1.97022
				c0.08397,0.26352-0.06157,0.54521-0.32509,0.62919C22.8515,39.80983,22.80041,39.81781,22.749,39.81787z"/>
			<path fill="#AFAFAF" d="M19.45508,41.168c-0.18937-0.00007-0.36248-0.10704-0.44727-0.27637L18.083,39.041
				c-0.12284-0.24735-0.0219-0.54745,0.22545-0.67029c0.2464-0.12237,0.54537-0.02271,0.66908,0.22302l0.9248,1.85059
				c0.12351,0.24698,0.02341,0.54733-0.22357,0.67083c-0.06945,0.03473-0.14604,0.05281-0.22369,0.0528L19.45508,41.168z"/>
			<path fill="#AFAFAF" d="M16.4502,42.979c-0.16232-0.00003-0.31453-0.07886-0.40821-0.21142l-1.19433-1.68945
				c-0.15938-0.22544-0.10582-0.5374,0.11963-0.69677c0.22544-0.15937,0.5374-0.10582,0.69677,0.11963l0,0l1.19434,1.68945
				c0.15953,0.22521,0.10628,0.53711-0.11893,0.69663C16.65491,42.94696,16.55382,42.97909,16.4502,42.979z"/>
			<path fill="#AFAFAF" d="M13.78223,45.2041c-0.13587,0.00001-0.26592-0.05515-0.36035-0.15283L11.98633,43.562
				c-0.19085-0.19987-0.18353-0.51661,0.01634-0.70745c0.19861-0.18965,0.51296-0.18379,0.70436,0.01313l1.43555,1.48925
				c0.19146,0.19937,0.18505,0.51621-0.01432,0.70767C14.0352,45.15395,13.91124,45.20393,13.78223,45.2041z"/>
			<path fill="#AFAFAF" d="M11.5,47.79541c-0.10935,0.00006-0.21571-0.03578-0.30273-0.102l-1.64649-1.252
				c-0.21978-0.16719-0.26241-0.4809-0.09521-0.70068s0.4809-0.26241,0.70068-0.09521l0,0l1.64648,1.252
				c0.21989,0.16685,0.26289,0.48038,0.09603,0.70027c-0.09463,0.1247-0.24222,0.19787-0.39876,0.19768V47.79541z"/>
			<path fill="#AFAFAF" d="M9.65137,50.70557C9.56885,50.70566,9.48762,50.68519,9.415,50.646l-1.82227-0.979
				c-0.24324-0.13052-0.33462-0.43352-0.2041-0.67676s0.43352-0.33462,0.67676-0.2041l1.82227,0.979
				c0.24331,0.13044,0.33482,0.43342,0.20439,0.67673c-0.08707,0.16242-0.25644,0.26376-0.44072,0.2637
				C9.65133,50.70557,9.65137,50.70557,9.65137,50.70557z"/>
			<path fill="#AFAFAF" d="M8.28223,53.88867c-0.0555-0.00003-0.11061-0.00927-0.16309-0.02734l-1.956-0.67481
				c-0.26085-0.09063-0.39883-0.37556-0.3082-0.63641c0.09036-0.26005,0.37393-0.39814,0.63437-0.3089l1.956,0.67481
				c0.26104,0.09008,0.39962,0.37472,0.30954,0.63575C8.68528,53.75338,8.4955,53.88866,8.28223,53.88867z"/>
			<path fill="#AFAFAF" d="M7.43945,57.29932c-0.02814-0.00009-0.05622-0.00238-0.084-0.00684l-2.04-0.34473
				c-0.2724-0.04614-0.45595-0.3042-0.41016-0.57666c0.05133-0.26884,0.30539-0.44948,0.57618-0.40966l2.04,0.34472
				c0.27237,0.04548,0.4563,0.30315,0.41082,0.57552c-0.04022,0.24089-0.24859,0.41748-0.49282,0.41765
				C7.43947,57.29932,7.43945,57.29932,7.43945,57.29932z"/>
			<path fill="#AFAFAF" d="M7.169,60.89111L7.169,60.89111l-2.06934-0.002c-0.27614,0-0.5-0.22386-0.5-0.5s0.22386-0.5,0.5-0.5l0,0
				l2.06934,0.002c0.27614,0,0.5,0.22386,0.5,0.5S7.44514,60.89111,7.169,60.89111z"/>
			<path fill="#AFAFAF" d="M5.41113,64.78711c-0.2762-0.0005-0.4997-0.22482-0.49919-0.50102
				c0.00045-0.24834,0.18307-0.45873,0.42888-0.4941l2.04785-0.293c0.27362-0.03816,0.52637,0.15271,0.56454,0.42633
				c0.03793,0.27191-0.15039,0.52357-0.42196,0.5639l-2.04785,0.293C5.45945,64.78551,5.4353,64.78715,5.41113,64.78711z"/>
			<path fill="#AFAFAF" d="M6.27148,68.60742c-0.27614,0.00016-0.50013-0.22357-0.50029-0.49971
				c-0.00013-0.22295,0.14737-0.41905,0.36162-0.48076l1.98731-0.57373c0.26526-0.07693,0.54265,0.07575,0.61958,0.341
				c0.07692,0.26526-0.07575,0.54266-0.34101,0.61958c-0.00041,0.00012-0.00082,0.00024-0.00123,0.00036l-1.9873,0.57373
				C6.36507,68.60083,6.31839,68.60741,6.27148,68.60742z"/>
			<path fill="#AFAFAF" d="M7.64746,72.25928c-0.27614,0.00013-0.5001-0.22363-0.50023-0.49976
				c-0.00009-0.19736,0.11592-0.37631,0.29613-0.45679L9.333,70.459c0.25214-0.11272,0.54793,0.00031,0.66065,0.25245
				c0.11272,0.25214-0.0003,0.54792-0.25245,0.66064l0,0l-1.88965,0.84375C7.78736,72.24461,7.7178,72.25941,7.64746,72.25928z"/>
			<path fill="#AFAFAF" d="M9.51465,75.65381c-0.27618-0.00012-0.49996-0.22411-0.49983-0.50028
				c0.00008-0.17117,0.0877-0.33041,0.23225-0.42208l1.74707-1.1084c0.23434-0.14607,0.54273-0.07452,0.68881,0.15984
				c0.14456,0.23192,0.07613,0.53694-0.15365,0.68488l-1.74707,1.1084C9.70226,75.62702,9.60942,75.65396,9.51465,75.65381z"/>
			<path fill="#AFAFAF" d="M11.84668,78.69775c-0.27602,0.00028-0.5-0.22324-0.50029-0.49925
				c-0.00015-0.14408,0.06189-0.28122,0.17021-0.37623l1.55469-1.36573c0.20738-0.1823,0.52328-0.16196,0.70558,0.04542
				c0.1823,0.20738,0.16196,0.52328-0.04542,0.70558l-1.55469,1.36572C12.0856,78.65363,11.96821,78.69791,11.84668,78.69775z"/>
			<path fill="#AFAFAF" d="M14.62012,81.29688c-0.11414,0.00028-0.22488-0.03887-0.31348-0.11084
				c-0.21489-0.17329-0.24897-0.48784-0.07617-0.70313l1.29883-1.61133c0.17413-0.2146,0.48927-0.24741,0.70387-0.07327
				c0.21357,0.17329,0.24725,0.48646,0.07542,0.7012l-1.29882,1.61133C14.91465,81.22852,14.77144,81.2969,14.62012,81.29688z"/>
			<path fill="#AFAFAF" d="M17.80957,83.34961c-0.27595,0.00033-0.49991-0.22311-0.50024-0.49906
				c-0.0001-0.08224,0.02011-0.16324,0.05883-0.2358l0.97266-1.82618c0.12933-0.24398,0.43196-0.33692,0.67595-0.2076
				c0.24398,0.12933,0.33693,0.43197,0.20759,0.67595c-0.00024,0.00046-0.00049,0.00092-0.00073,0.00137L18.251,83.08447
				C18.16428,83.24775,17.99445,83.34975,17.80957,83.34961z"/>
		</g>
		<path fill="#AFAFAF" d="M41.30664,81.28809c-0.27605,0.00027-0.50005-0.2233-0.50032-0.49936
			C40.80615,80.609,40.90249,80.443,41.05864,80.354c10.71631-6.10725,14.45269-19.74544,8.34544-30.46174
			s-19.74544-14.45269-30.46174-8.34544S4.48965,61.29226,10.5969,72.00857c1.97373,3.46328,4.83843,6.33518,8.29674,8.3176
			c0.23947,0.13752,0.32211,0.44312,0.1846,0.68259c-0.13752,0.23946-0.44313,0.32211-0.68259,0.18459
			C7.21622,74.7842,3.34915,60.52585,9.7583,49.34642s20.6675-15.0465,31.84693-8.63736s15.0465,20.6675,8.63736,31.84693
			c-2.07083,3.61212-5.07048,6.60432-8.68775,8.66616C41.47934,81.26561,41.39373,81.28835,41.30664,81.28809z"/>
	</g>
	<path fill="#AFAFAF" d="M44.72618,308.07162h0.54765c6.20005,0,11.22618,5.02615,11.22617,11.2262l0,0v17.55444l0,0h-23l0,0
		v-17.55444c-0.00001-6.20004,5.02612-11.2262,11.22617-11.2262H44.72618z"/>
	<g>
		<g>
			<path fill="#10A687" d="M17.97559,199.6377c-0.10629-0.23904-0.33829-0.39774-0.59961-0.41016
				c-0.26033-0.00293-0.47662,0.20001-0.49024,0.46001c0,0.40918,0.54,0.58984,1.08985,0.83887
				c0.54882,0.25,1.0791,0.58984,1.0791,1.33008c-0.01126,0.86685-0.72312,1.56044-1.58997,1.54918
				c-0.00647-0.00008-0.01294-0.0002-0.01941-0.00037c-0.70339,0.01332-1.34427-0.40221-1.61914-1.0498l0.76953-0.34961
				c0.13464,0.35426,0.47071,0.59145,0.84961,0.59961c0.36992,0.02162,0.68732-0.26074,0.70894-0.63066
				c0.00056-0.00949,0.00091-0.019,0.00106-0.02852c-0.00144-0.21968-0.13022-0.41856-0.33007-0.50977l-0.87989-0.46973
				c-0.51953-0.28027-0.89941-0.53999-0.89941-1.17969c0.00332-0.75412,0.61734-1.36276,1.37146-1.35944
				c0.00281,0.00002,0.00562,0.00003,0.00842,0.00006c0.55091-0.00381,1.05235,0.31732,1.2793,0.81934L17.97559,199.6377z"/>
			<path fill="#10A687" d="M17.44531,203.55518c-0.76685,0.01718-1.46563-0.43808-1.75976-1.14648
				c-0.02742-0.07399,0.00657-0.15665,0.07812-0.18994l0.76953-0.34961c0.07182-0.03201,0.15619-0.00381,0.19434,0.06494
				c0.2041,0.375,0.40527,0.52148,0.71777,0.52148c0.28658,0.02168,0.53649-0.19305,0.55818-0.47963
				c0.00075-0.00987,0.00121-0.01976,0.00139-0.02965c0-0.16455-0.05664-0.24756-0.26269-0.38477l-0.86719-0.4624
				c-0.53613-0.28906-0.97949-0.58691-0.97949-1.312c0.00669-0.83897,0.69129-1.51418,1.53027-1.50928
				c0.60854-0.0051,1.16288,0.34901,1.41406,0.90332c0.03502,0.07243,0.00711,0.15961-0.06347,0.19824l-0.72949,0.39063
				c-0.07365,0.03925-0.16516,0.01135-0.20441-0.06229c-0.0009-0.00168-0.00176-0.00339-0.00259-0.0051
				c-0.08148-0.18675-0.26052-0.31227-0.46386-0.3252c-0.17749-0.00288-0.32649,0.13304-0.33985,0.31006
				c0,0.26172,0.3711,0.4248,0.80176,0.61377l0.19922,0.08838c0.66301,0.18875,1.13251,0.77835,1.168,1.4668
				c-0.0069,0.94542-0.77891,1.70624-1.72433,1.69934C17.46898,203.55571,17.45715,203.55551,17.44531,203.55518z
				 M16.02344,202.43065c0.28639,0.5153,0.83237,0.83199,1.42187,0.82471c0.78093,0.02451,1.43387-0.58868,1.45838-1.36963
				c0.00031-0.00977,0.00051-0.01953,0.00062-0.0293c0-0.61572-0.39551-0.92236-0.99121-1.19336l-0.19629-0.08742
				c-0.50391-0.22119-0.98145-0.43066-0.98145-0.88818c0.01337-0.34314,0.29725-0.61339,0.64063-0.60986
				c0.26383,0.00668,0.50806,0.14081,0.65527,0.35986l0.46973-0.25101c-0.34772-0.58904-1.1071-0.78465-1.69613-0.43694
				c-0.36845,0.21751-0.59854,0.60979-0.60856,1.03752c0,0.563,0.32422,0.78027,0.82031,1.04785l0.87891,0.46924
				c0.24744,0.11891,0.40629,0.36758,0.41015,0.64209c-0.00406,0.45151-0.37337,0.81424-0.82488,0.81017
				c-0.01183-0.00011-0.02365-0.00046-0.03547-0.00108c-0.38474,0.00243-0.73768-0.21321-0.91113-0.55664L16.02344,202.43065z"/>
		</g>
		<g>
			<path fill="#10A687" d="M21.46289,203.24512h-0.89941v-3.83789h-0.49024v-0.83887h0.49024v-1.78906h0.89941v1.78906h0.87891
				v0.83887h-0.87891V203.24512z"/>
			<path fill="#10A687" d="M21.46289,203.395h-0.89941c-0.08284,0.00021-0.15018-0.06677-0.15039-0.14961
				c0-0.00009,0-0.0002,0-0.00029v-3.688h-0.33985c-0.08284,0.00021-0.15018-0.06677-0.15039-0.14961c0-0.00009,0-0.0002,0-0.00029
				v-0.83887c0.00005-0.08284,0.06726-0.14996,0.1501-0.1499c0.0001,0,0.0002,0,0.00029,0h0.33985v-1.63913
				c0.00005-0.08284,0.06724-0.14996,0.15008-0.14992c0.0001,0,0.00021,0,0.00031,0h0.89941
				c0.08284-0.00021,0.15018,0.06677,0.15039,0.14961c0,0.00011,0,0.0002,0,0.00031v1.63916h0.72852
				c0.08284-0.00021,0.15018,0.06677,0.15039,0.14961c0,0.00009,0,0.0002,0,0.00029v0.83887
				c-0.00005,0.08284-0.06726,0.14996-0.1501,0.1499c-0.0001,0-0.0002,0-0.00029,0h-0.72852v3.688
				c-0.00007,0.08284-0.06729,0.14995-0.15013,0.14987C21.46307,203.395,21.46298,203.395,21.46289,203.395z M20.71389,203.0952
				h0.59863v-3.688c0.00005-0.08284,0.06724-0.14996,0.15008-0.14992c0.0001,0,0.00021,0,0.00031,0h0.72852v-0.53906h-0.72852
				c-0.08284,0.00021-0.15018-0.06677-0.15039-0.14961c0-0.00009,0-0.0002,0-0.00029v-1.63911h-0.59863v1.63916
				c-0.00005,0.08284-0.06726,0.14996-0.1501,0.1499c-0.0001,0-0.0002,0-0.00029,0h-0.33985v0.53906h0.33985
				c0.08284-0.00021,0.15018,0.06677,0.15039,0.14961c0,0.00011,0,0.0002,0,0.00031V203.0952z"/>
		</g>
		<g>
			<path fill="#10A687" d="M27.71777,203.24512h-0.89941v-0.72949h-0.01953c-0.34596,0.54524-0.9432,0.87965-1.58887,0.88963
				c-1.37545-0.14635-2.37184-1.38-2.22549-2.75545c0.12365-1.16217,1.03465-2.08432,2.19522-2.22209
				c0.66251,0.00591,1.2749,0.35385,1.61914,0.91994h0.01953v-0.7793h0.89941L27.71777,203.24512z M26.86816,200.90625
				c0.07979-0.84358-0.5394-1.59213-1.38299-1.67192c-0.04507-0.00426-0.0903-0.00653-0.13556-0.00679
				c-0.93279-0.09938-1.76952,0.57623-1.8689,1.50902c-0.09938,0.9328,0.57624,1.76953,1.50902,1.86891
				c0.93279,0.09937,1.76952-0.57625,1.8689-1.50903C26.86536,201.03326,26.86854,200.96977,26.86816,200.90625z"/>
			<path fill="#10A687" d="M25.21,203.55518c-1.36557-0.0417-2.43877-1.18253-2.39706-2.5481
				c0.00133-0.04343,0.0038-0.08682,0.00741-0.13013c-0.08654-1.34685,0.93515-2.50885,2.282-2.59538
				c0.02577-0.00165,0.05157-0.0029,0.07738-0.00374c0.56746-0.00092,1.10855,0.23946,1.48828,0.66113v-0.37061
				c0.00005-0.08284,0.06726-0.14996,0.1501-0.1499c0.0001,0,0.0002,0,0.00029,0h0.89941
				c0.08284-0.00021,0.15018,0.06677,0.15039,0.14961c0,0.00009,0,0.0002,0,0.00029v4.67676
				c-0.00005,0.08284-0.06726,0.14996-0.1501,0.1499c-0.0001,0-0.0002,0-0.00029,0H26.8184
				c-0.08284,0.00021-0.15018-0.06677-0.15039-0.14961c0-0.00009,0-0.0002,0-0.00029v-0.33057
				C26.29094,203.31972,25.76348,203.55148,25.21,203.55518z M25.17973,198.57764c-1.29071,0.16399-2.20411,1.34325-2.04012,2.63396
				c0.13682,1.07692,0.99181,1.9209,2.07039,2.04378c0.59575-0.01117,1.14606-0.3208,1.46484-0.82422
				c0.06336-0.06967,0.1712-0.07478,0.24087-0.01141c0.02777,0.02524,0.04642,0.05894,0.05308,0.09589v0.57957h0.59863v-4.377
				h-0.59863v0.62939c-0.00005,0.08284-0.06726,0.14996-0.1501,0.1499c-0.0001,0-0.0002,0-0.00029,0
				c-0.05586,0.00043-0.10894-0.02432-0.14453-0.06738c-0.31724-0.52332-0.88225-0.84567-1.49418-0.85248H25.17973z
				 M25.34965,202.75537c-1.01558-0.12279-1.73932-1.04562-1.61653-2.0612c0.10238-0.84677,0.76976-1.51414,1.61653-1.61653
				c1.01558,0.09859,1.75895,1.00179,1.66037,2.01736C26.92468,201.97423,26.22888,202.67003,25.34965,202.75537z
				 M25.34965,199.37744c-0.85-0.10027-1.62034,0.50752-1.7206,1.35753c-0.10026,0.84999,0.50752,1.62033,1.35752,1.7206
				c0.85,0.10025,1.62034-0.50752,1.7206-1.35753c0.00751-0.06364,0.01106-0.1277,0.01064-0.19179
				c0.07963-0.76057-0.47239-1.44168-1.23296-1.52132c-0.04493-0.0047-0.09007-0.0072-0.13524-0.00749H25.34965z"/>
		</g>
		<g>
			<path fill="#10A687" d="M33.7627,203.15527c0,1.60938-0.46,2.76855-2.27832,2.76855
				c-1.14699,0.09666-2.15518-0.75479-2.25186-1.90178c-0.00609-0.07228-0.00841-0.14484-0.00693-0.21736H30.125
				c-0.03068,0.70099,0.51271,1.29413,1.21371,1.3248c0.06195,0.00272,0.12402,0.00089,0.18571-0.00546
				c1.10938,0,1.33887-0.75977,1.33887-1.71875v-0.88963h-0.01953c-0.34789,0.54369-0.94449,0.87753-1.58984,0.88963
				c-1.37578-0.14734-2.37163-1.38208-2.22428-2.75786c0.12397-1.15752,1.02892-2.07713,2.18428-2.21968
				c0.67136,0.00229,1.29138,0.35966,1.62988,0.93945h0.01953v-0.79883h0.89942L33.7627,203.15527z M32.91309,200.90628
				c0.07948-0.84393-0.54025-1.5925-1.38418-1.67198c-0.04467-0.00421-0.08951-0.00645-0.13438-0.00673
				c-0.93279-0.09937-1.76952,0.57625-1.86889,1.50903c-0.09937,0.93279,0.57624,1.76952,1.50903,1.8689
				c0.93279,0.09937,1.76952-0.57625,1.86889-1.50903C32.91029,201.03329,32.91348,200.9698,32.91309,200.90628z"/>
			<path fill="#10A687" d="M31.48438,206.07373c-1.23233,0.09474-2.30813-0.82745-2.40287-2.05978
				c-0.00529-0.0688-0.00739-0.13782-0.00631-0.20682c-0.00012-0.04034,0.01567-0.07912,0.04394-0.10791
				c0.02806-0.02852,0.06643-0.04454,0.10645-0.04443H30.125c0.08284-0.00021,0.15018,0.06677,0.15039,0.14961
				c0,0.00009,0,0.0002,0,0.00029c-0.02927,0.61986,0.44948,1.14607,1.06933,1.17534
				c0.05995,0.00284,0.12003,0.00085,0.17967-0.00591c0.84473,0,1.18848-0.45459,1.18848-1.56885v-0.49072
				c-0.37746,0.40521-0.90523,0.63695-1.459,0.64063c-1.45849-0.14648-2.52208-1.44757-2.3756-2.90607
				c0.12464-1.24103,1.0966-2.22783,2.3356-2.37128c0.57314-0.00249,1.11948,0.24239,1.499,0.67188v-0.38135
				c0.00005-0.08284,0.06725-0.14996,0.1501-0.1499c0.0001,0,0.00019,0,0.00029,0h0.89942
				c0.08284-0.00021,0.15017,0.06677,0.15039,0.14961c0,0.00009,0,0.0002,0,0.00029v4.58691
				C33.91309,204.4082,33.66113,206.07373,31.48438,206.07373z M29.38281,203.95459
				c0.05541,1.06322,0.96224,1.88022,2.02546,1.82481c0.0254-0.00133,0.05078-0.00314,0.07611-0.00548
				c1.49218,0,2.12792-0.7832,2.12792-2.61865v-4.437h-0.59863v0.64893c-0.00005,0.08284-0.06725,0.14996-0.1501,0.1499
				c-0.0001,0-0.00019,0-0.00029,0c-0.05656,0.00037-0.11017-0.02518-0.14551-0.06934
				c-0.30965-0.53809-0.88308-0.86986-1.5039-0.87012c-1.29036,0.17038-2.19828,1.35455-2.0279,2.6449
				c0.14151,1.07169,0.99396,1.90968,2.0679,2.03284c0.59608-0.01091,1.1468-0.32057,1.46582-0.82422
				c0.06326-0.0697,0.17103-0.07492,0.24073-0.01166c0.02787,0.02528,0.04658,0.0591,0.05322,0.09613v0.88963
				c0,0.87012-0.16992,1.86865-1.48926,1.86865c-0.77637,0.07425-1.46593-0.49493-1.54017-1.2713
				c-0.00153-0.01599-0.00279-0.032-0.00377-0.04803H29.38281z M31.39453,202.75537
				c-1.01558-0.12279-1.73932-1.04562-1.61653-2.0612c0.10238-0.84677,0.76976-1.51414,1.61653-1.61653
				c1.01558,0.09859,1.75895,1.00179,1.66037,2.01736C32.96956,201.97423,32.27376,202.67003,31.39453,202.75537z
				 M31.39453,199.37744c-0.85-0.10025-1.62033,0.50754-1.72059,1.35754c-0.10025,0.84999,0.50754,1.62033,1.35754,1.72058
				s1.62033-0.50754,1.72058-1.35754c0.00751-0.06364,0.01106-0.12769,0.01064-0.19177
				c0.07962-0.76057-0.4724-1.4417-1.23298-1.52132C31.48481,199.38023,31.43969,199.37773,31.39453,199.37744z"/>
		</g>
		<g>
			<path fill="#10A687" d="M35.96973,201.05664c-0.04342,0.81149,0.57924,1.50455,1.39074,1.54796
				c0.00615,0.00032,0.01229,0.00063,0.01844,0.00087c0.60518,0.00018,1.15366-0.35616,1.39941-0.90918l0.75977,0.42969
				c-0.42905,0.79637-1.2644,1.28909-2.16895,1.2793c-1.25554,0.01813-2.28806-0.985-2.30618-2.24054
				c-0.00105-0.07291,0.0014-0.1458,0.00735-0.21846c-0.1567-1.22475,0.70911-2.34462,1.93386-2.50133
				c0.11453-0.01465,0.23002-0.02042,0.34544-0.01723c1.48828,0,2.18848,1.09961,2.18848,2.48926v0.13965L35.96973,201.05664z
				 M38.63867,200.37695c-0.0499-0.67072-0.61667-1.18468-1.28906-1.16895c-0.67461-0.00128-1.24471,0.49976-1.33008,1.16895
				H38.63867z"/>
			<path fill="#10A687" d="M37.36914,203.55518c-1.33831,0.01817-2.43795-1.052-2.45612-2.39032
				c-0.00099-0.07292,0.00131-0.14584,0.0069-0.21857c-0.16423-1.29985,0.75637-2.48674,2.05623-2.65097
				c0.12383-0.01564,0.24871-0.02148,0.37346-0.01749c1.44238,0,2.33887,1.01123,2.33887,2.63916v0.13965
				c-0.00005,0.08284-0.06725,0.14996-0.1501,0.1499c-0.0001,0-0.00019,0-0.00029,0h-3.40918
				c0.02481,0.67964,0.57033,1.22473,1.25,1.24899c0.55288-0.00018,1.05269-0.32916,1.27148-0.83691
				c0.04189-0.06955,0.13163-0.09296,0.20215-0.05273l0.75976,0.42969c0.07125,0.04028,0.09692,0.13034,0.05762,0.20213
				C39.21572,203.04344,38.32905,203.56657,37.36914,203.55518z M37.34961,198.57764
				c-1.14481-0.0419-2.10683,0.85219-2.14872,1.99701c-0.00455,0.12422,0.00208,0.24861,0.01981,0.37164
				c-0.10803,1.16248,0.74676,2.19243,1.90924,2.30046c0.07951,0.00739,0.15937,0.01027,0.2392,0.00862
				c0.79702,0.00986,1.5413-0.39728,1.96289-1.07373l-0.50293-0.28418c-0.40795,0.78198-1.37259,1.08519-2.15457,0.67725
				c-0.55963-0.29196-0.89479-0.88614-0.85519-1.51611c-0.00002-0.04019,0.01576-0.07877,0.04394-0.10742
				c0.02817-0.02837,0.06647-0.04436,0.10645-0.04443h3.418C39.38477,199.44824,38.62305,198.57764,37.34961,198.57764z
				 M38.63867,200.52686h-2.61914c-0.044,0.00014-0.08582-0.01917-0.11426-0.05273
				c-0.02842-0.03369-0.04088-0.07802-0.03418-0.12158c0.10042-0.74016,0.73158-1.29274,1.47852-1.29443
				c0.74555-0.01418,1.37428,0.55241,1.4375,1.29541c0.01306,0.08163-0.04254,0.1584-0.12418,0.17146
				C38.65491,200.52626,38.64679,200.52689,38.63867,200.52686z M36.20703,200.22705h2.24707
				c-0.10806-0.51961-0.57404-0.88629-1.10449-0.86914c-0.53453-0.00481-1.00456,0.35272-1.14261,0.86914H36.20703z"/>
		</g>
		<g>
			<path fill="#10A687" d="M42.68555,199.6377c-0.10629-0.23904-0.33829-0.39775-0.59961-0.41016
				c-0.26033-0.00293-0.47662,0.20001-0.49024,0.46001c0,0.40918,0.54,0.58984,1.08985,0.83887
				c0.54883,0.25,1.0791,0.58984,1.0791,1.33008c-0.01126,0.86685-0.72312,1.56044-1.58997,1.54918
				c-0.00647-0.00008-0.01294-0.0002-0.01941-0.00037c-0.70339,0.01332-1.34427-0.40221-1.61914-1.0498l0.76953-0.34961
				c0.13464,0.35426,0.47071,0.59145,0.84961,0.59961c0.36992,0.02162,0.68732-0.26074,0.70894-0.63066
				c0.00056-0.00949,0.00091-0.019,0.00106-0.02852c-0.00144-0.21968-0.13022-0.41856-0.33007-0.50977l-0.87989-0.46973
				c-0.51953-0.28027-0.89941-0.53999-0.89941-1.17969c0.00332-0.75412,0.61734-1.36276,1.37146-1.35944
				c0.00281,0.00002,0.00562,0.00003,0.00842,0.00006c0.55091-0.00381,1.05235,0.31732,1.2793,0.81934L42.68555,199.6377z"/>
			<path fill="#10A687" d="M42.15527,203.55518c-0.76685,0.01718-1.46563-0.43808-1.75976-1.14648
				c-0.02742-0.07399,0.00657-0.15665,0.07812-0.18994l0.76953-0.34961c0.0718-0.03235,0.15641-0.00407,0.19434,0.06494
				c0.2041,0.375,0.40527,0.52148,0.71777,0.52148c0.28658,0.02168,0.53649-0.19305,0.55817-0.47963
				c0.00075-0.00987,0.00121-0.01976,0.0014-0.02965c0-0.16455-0.05664-0.24756-0.26269-0.38477l-0.86719-0.4624
				c-0.53613-0.28906-0.97949-0.58691-0.97949-1.312c0.00669-0.83897,0.69129-1.51418,1.53027-1.50928
				c0.60854-0.0051,1.16288,0.34901,1.41406,0.90332c0.03502,0.07243,0.00711,0.15961-0.06347,0.19824l-0.72949,0.39063
				c-0.07365,0.03925-0.16516,0.01135-0.20441-0.06229c-0.0009-0.00168-0.00176-0.00339-0.00259-0.0051
				c-0.08148-0.18675-0.26052-0.31227-0.46386-0.3252c-0.17749-0.0029-0.32649,0.13304-0.33985,0.31006
				c0,0.26172,0.3711,0.4248,0.80176,0.61377l0.19922,0.08838c0.66301,0.18875,1.13251,0.77835,1.168,1.4668
				c-0.0069,0.94542-0.77891,1.70624-1.72433,1.69934C42.17894,203.55571,42.1671,203.55551,42.15527,203.55518z M40.7334,202.43065
				c0.2864,0.5153,0.83237,0.83197,1.42187,0.82471c0.78093,0.02451,1.43387-0.58868,1.45839-1.36963
				c0.00031-0.00977,0.00051-0.01953,0.00061-0.0293c0-0.61572-0.39551-0.92236-0.99121-1.19336l-0.19629-0.08742
				c-0.50391-0.22119-0.98145-0.43066-0.98145-0.88818c0.01337-0.34314,0.29725-0.61339,0.64063-0.60986
				c0.26383,0.00668,0.50806,0.14081,0.65527,0.35986l0.46973-0.25101c-0.34772-0.58904-1.1071-0.78465-1.69613-0.43694
				c-0.36845,0.2175-0.59854,0.60979-0.60856,1.03752c0,0.563,0.32422,0.78027,0.82031,1.04785l0.87891,0.46924
				c0.24744,0.11891,0.4063,0.36758,0.41016,0.64209c-0.00407,0.45151-0.37339,0.81424-0.8249,0.81017
				c-0.01183-0.00011-0.02365-0.00046-0.03546-0.00108c-0.38474,0.00243-0.73768-0.21321-0.91113-0.55664L40.7334,202.43065z"/>
		</g>
	</g>
	<g>
		<path fill="#10A687" d="M17.17969,165.66406v0.85938H12.3125l3.29785-4.04785c0.36518-0.36391,0.60058-0.83778,0.66992-1.34863
			c-0.02609-0.79948-0.67958-1.4353-1.47949-1.43945c-0.7694,0.00978-1.40121,0.61095-1.44922,1.37891h-0.93945
			c0.0399-1.27617,1.1068-2.27837,2.38297-2.23846c0.0019,0.00006,0.0038,0.00012,0.0057,0.00018
			c1.27108-0.04228,2.33576,0.95386,2.37803,2.22495c0.00037,0.01128,0.00067,0.02255,0.00088,0.03383
			c-0.00577,0.56474-0.20305,1.11081-0.55957,1.54883l-2.47949,3.02832L17.17969,165.66406z"/>
		<path fill="#10A687" d="M17.17969,166.67334H12.3125c-0.08265,0.00031-0.1499-0.06644-0.15021-0.14908
			c-0.00013-0.03484,0.01189-0.06863,0.034-0.09555l3.29785-4.04785c0.34322-0.33728,0.56652-0.77771,0.63574-1.25391
			c-0.02896-0.71519-0.61336-1.2822-1.3291-1.28955c-0.69126,0.00774-1.25886,0.54868-1.2998,1.23877
			c-0.00486,0.0789-0.07037,0.14035-0.14942,0.14014h-0.93945c-0.04253,0.00012-0.08307-0.01802-0.11133-0.0498
			c-0.02871-0.03172-0.04256-0.07416-0.03808-0.1167c0.04769-1.355,1.18297-2.4158,2.53808-2.37158
			c1.34961-0.04662,2.48147,1.00966,2.52809,2.35927c0.00057,0.01648,0.00097,0.03294,0.00121,0.04942
			c-0.00671,0.59917-0.21598,1.17844-0.59375,1.64355l-2.2793,2.78369h2.72266c0.08284-0.00021,0.15018,0.06677,0.15039,0.14961
			c0,0.00009,0,0.0002,0,0.00029v0.85938c-0.00005,0.08284-0.06726,0.14996-0.1501,0.1499
			C17.17989,166.67334,17.17979,166.67334,17.17969,166.67334z M12.62793,166.37354h4.40137V165.814h-2.88867
			c-0.08288,0.00005-0.15011-0.06711-0.15016-0.14998c-0.00002-0.03468,0.01197-0.0683,0.03394-0.09514l2.4795-3.02832
			c0.33428-0.4113,0.51946-0.92365,0.52539-1.45361c-0.02064-1.186-0.99883-2.13074-2.18484-2.11009
			c-0.01456,0.00026-0.02913,0.00066-0.04368,0.00121c-1.13884-0.05183-2.11629,0.80289-2.2168,1.93848h0.63282
			c0.11646-0.78696,0.78851-1.37198,1.584-1.37891c0.88408,0.00093,1.6067,0.70558,1.62988,1.58936
			c-0.06734,0.54613-0.31515,1.05412-0.7041,1.44336L12.62793,166.37354z"/>
	</g>
	<g>
		<path fill="#10A687" d="M46.33008,159.28809l-2.00879,2.71777l0.01953,0.02051c0.22897-0.11691,0.48218-0.17845,0.73926-0.17969
			c1.24356,0.06995,2.20775,1.11319,2.17969,2.3584c-0.0014,1.37025-1.11334,2.47992-2.48359,2.47853
			c-0.00189,0-0.00378-0.00002-0.00567-0.00002c-1.34538-0.00349-2.45028-1.0641-2.50879-2.4082
			c0.04788-0.73511,0.33612-1.43408,0.82031-1.98926l2.56836-3.45799L46.33008,159.28809z M46.35938,164.30469
			c-0.0074-0.88319-0.71561-1.60048-1.59864-1.61914c-0.85874,0.0309-1.55231,0.71135-1.59961,1.56934
			c0.00603,0.88348,0.72712,1.59479,1.6106,1.58876C45.62735,165.83781,46.3269,165.15971,46.35938,164.30469z"/>
		<path fill="#10A687" d="M44.77051,166.8335c-1.42598-0.009-2.59495-1.13354-2.65918-2.55811
			c0.04892-0.76732,0.34765-1.49753,0.85058-2.0791l2.56836-3.45752c0.04767-0.06451,0.13781-0.07983,0.20411-0.03467
			l0.67968,0.46001c0.03391,0.02266,0.0569,0.05838,0.06348,0.09863c0.00674,0.04024-0.00275,0.0815-0.02637,0.11475
			l-1.74512,2.35986c0.12285-0.0269,0.24824-0.04048,0.374-0.04053c1.3273,0.06821,2.35971,1.17958,2.33008,2.5083
			C47.40517,165.65906,46.22446,166.83475,44.77051,166.8335z M45.68551,159.0327l-2.4834,3.34277
			c-0.46145,0.53146-0.73858,1.19795-0.79,1.8999c0.05951,1.2606,1.09639,2.25349,2.3584,2.2583
			c1.28838,0.00159,2.3348-1.04024,2.33887-2.32861c0.02874-1.16255-0.86847-2.13899-2.0293-2.2085
			c-0.23376,0.00096-0.46398,0.05717-0.67188,0.16406c-0.05895,0.02972-0.13042,0.01721-0.17578-0.03076
			c-0.0559-0.05659-0.06892-0.14279-0.03222-0.21338l1.916-2.5918L45.68551,159.0327z M44.7607,165.99364
			c-0.9581-0.00967-1.73415-0.78075-1.75-1.73877c0.04356-0.94273,0.80665-1.69241,1.75-1.71924
			c0.96583,0.0188,1.74118,0.80302,1.749,1.769c-0.0403,0.93887-0.80926,1.68147-1.74897,1.68903L44.7607,165.99364z
			 M44.7607,162.83543c-0.77606,0.03043-1.40269,0.64418-1.44922,1.41943c0.00564,0.80045,0.6591,1.44476,1.45955,1.43912
			c0.77315-0.00545,1.4059-0.61681,1.43792-1.38931c-0.00526-0.80109-0.64727-1.45242-1.44821-1.46922L44.7607,162.83543z"/>
	</g>
	<g>
		<path fill="#10A687" d="M32.40918,164.60449v0.81934H31.5498v1.09961h-0.89941v-1.09961h-3.71777l4.61718-6.75583v5.93652
			L32.40918,164.60449z M30.65039,161.49609h-0.02051l-2.11816,3.1084h2.13867V161.49609z"/>
		<path fill="#10A687" d="M31.5498,166.67334h-0.89941c-0.08284,0.00021-0.15018-0.06677-0.15039-0.14961
			c0-0.00009,0-0.0002,0-0.00029v-0.94971h-3.56738c-0.0828,0.00008-0.14998-0.06699-0.15005-0.14978
			c-0.00003-0.03018,0.00905-0.05966,0.02605-0.08459l4.61719-6.75586c0.03666-0.05482,0.10509-0.0789,0.168-0.0591
			c0.06319,0.01923,0.1064,0.0775,0.10645,0.14355v5.78662h0.709c0.08284-0.00021,0.15017,0.06677,0.15039,0.14961
			c0,0.00009,0,0.0002,0,0.00029v0.81934c-0.00005,0.08284-0.06725,0.14996-0.1501,0.1499c-0.0001,0-0.00019,0-0.00029,0h-0.709
			v0.94971c-0.00005,0.08284-0.06724,0.14996-0.15008,0.14992C31.55005,166.67334,31.54992,166.67334,31.5498,166.67334z
			 M30.8008,166.37354h0.59863v-0.94971c0.00005-0.08284,0.06726-0.14996,0.1501-0.1499c0.0001,0,0.0002,0,0.00029,0h0.709v-0.51955
			h-0.709c-0.08284,0.00021-0.15018-0.06677-0.15039-0.14961c0-0.00009,0-0.0002,0-0.00029v-5.45117l-4.18261,6.12061h3.43359
			c0.08284-0.00021,0.15018,0.06677,0.15039,0.14961c0,0.00009,0,0.0002,0,0.00029L30.8008,166.37354z M30.65041,164.75438h-2.13869
			c-0.08269,0.00029-0.14995-0.06651-0.15023-0.1492c-0.0001-0.0304,0.00904-0.0601,0.02623-0.08517l2.11816-3.1084
			c0.06378-0.06985,0.17211-0.07478,0.24196-0.011c0.02759,0.02519,0.04619,0.05873,0.05296,0.09547v3.1084
			c-0.00005,0.08284-0.06724,0.14996-0.15008,0.14992c-0.00011,0-0.00022,0-0.00033,0L30.65041,164.75438z M28.79592,164.45457H30.5
			v-2.50195L28.79592,164.45457z"/>
	</g>
	<g>
		<g>
			<path fill="#313131" d="M42.99316,317.85059c0.00568,1.37991-1.10836,2.50314-2.48826,2.50882
				c-1.37991,0.00568-2.50314-1.10837-2.50882-2.48825c-0.00568-1.37991,1.10836-2.50314,2.48826-2.50882
				c0.00327-0.00003,0.00654-0.00003,0.00982-0.00003c1.35832-0.02176,2.47709,1.06174,2.49886,2.42004
				C42.99338,317.80511,42.99343,317.82785,42.99316,317.85059z M38.89551,317.85059
				c0.0163,0.88318,0.74546,1.58591,1.62864,1.56961c0.88317-0.0163,1.5859-0.74548,1.5696-1.62863
				c-0.01609-0.87186-0.7276-1.57016-1.59961-1.56989C39.60484,316.23462,38.89177,316.96121,38.89551,317.85059z"/>
			<path fill="#313131" d="M40.49414,320.48877c-1.45703-0.0062-2.63317-1.19235-2.62699-2.64938
				c0.00619-1.45703,1.19236-2.63318,2.64939-2.62698c1.45266,0.00616,2.62701,1.18552,2.62701,2.63818
				c0.01293,1.44415-1.14732,2.62537-2.59148,2.63831C40.53276,320.48907,40.51345,320.48901,40.49414,320.48877z
				 M40.49414,315.51221c-1.29145,0.00565-2.3338,1.05716-2.32815,2.3486s1.05716,2.3338,2.34861,2.32816
				c1.28746-0.00565,2.32817-1.0509,2.32817-2.33838c0.01123-1.28027-1.01755-2.32727-2.29783-2.3385
				C40.52801,315.51193,40.51107,315.51199,40.49414,315.51221z M40.49414,319.62939
				c-0.98238,0.01602-1.79175-0.76736-1.80776-1.74976c-0.01602-0.98239,0.76738-1.79175,1.74976-1.80777
				s1.79174,0.76736,1.80776,1.74976c0.00016,0.00964,0.00024,0.01932,0.00024,0.02896
				C42.25104,318.82462,41.46815,319.62039,40.49414,319.62939z M40.49414,316.37158
				c-0.81683-0.01663-1.49248,0.63208-1.50909,1.44891c-0.01662,0.81683,0.63208,1.49246,1.44891,1.50909
				s1.49247-0.63208,1.50909-1.44891c0.0002-0.01004,0.00031-0.02005,0.00031-0.03009
				C41.9509,317.04227,41.30246,316.38049,40.49414,316.37158z"/>
		</g>
		<g>
			<path fill="#313131" d="M45.1709,315.50201v2.58887c0,0.74899,0.18945,1.40918,1.0791,1.40918s1.0791-0.66016,1.0791-1.40918
				v-2.58887h0.89942v2.68848c0,1.2793-0.59961,2.14844-1.97852,2.14844s-1.97852-0.86914-1.97852-2.14844v-2.68848H45.1709z"/>
			<path fill="#313131" d="M46.25,320.48877c-1.373,0-2.12891-0.81641-2.12891-2.29834v-2.68842
				c0.00005-0.08286,0.06725-0.14996,0.1501-0.1499c0.0001,0,0.00019,0,0.00029,0h0.89942
				c0.08284-0.00021,0.15017,0.06677,0.15039,0.1496c0,0.00012,0,0.00021,0,0.00031v2.58887
				c0,0.88281,0.27734,1.25928,0.92871,1.25928s0.92871-0.37646,0.92871-1.25928v-2.58887
				c0.00005-0.08286,0.06725-0.14996,0.1501-0.1499c0.0001,0,0.00019,0,0.00029,0h0.89942
				c0.08284-0.00021,0.15017,0.06677,0.15039,0.1496c0,0.00012,0,0.00021,0,0.00031v2.68848
				C48.37891,319.67236,47.62305,320.48877,46.25,320.48877z M44.42188,315.65186v2.53857c0,0.91162,0.3164,1.99854,1.82812,1.99854
				s1.82813-1.08691,1.82813-1.99854v-2.53857h-0.59864v2.439c0,0.38574,0,1.55908-1.22949,1.55908
				s-1.22949-1.17334-1.22949-1.55908v-2.439H44.42188z"/>
		</g>
		<g>
			<path fill="#313131" d="M50.95605,320.17969h-0.89941v-3.83789h-0.49023v-0.83978h0.49023v-1.78906h0.89941v1.78906H51.835
				v0.83984h-0.87891L50.95605,320.17969z"/>
			<path fill="#313131" d="M50.95605,320.32959h-0.89941c-0.08284,0.00021-0.15017-0.06677-0.15039-0.1496
				c0-0.00012,0-0.00021,0-0.00031v-3.68799h-0.33984c-0.08284,0.00021-0.15017-0.06677-0.15039-0.1496
				c0-0.00012,0-0.00021,0-0.00031v-0.83978c0.00005-0.08286,0.06725-0.14996,0.1501-0.1499c0.0001,0,0.00019,0,0.00029,0h0.33984
				v-1.63916c0.00005-0.08286,0.06725-0.14996,0.1501-0.1499c0.0001,0,0.00019,0,0.00029,0h0.89941
				c0.08284-0.00021,0.15018,0.06677,0.1504,0.1496c0,0.00009,0,0.00021,0,0.00031v1.63916H51.835
				c0.08284-0.00021,0.15017,0.06677,0.15039,0.1496c0,0.00012,0,0.00021,0,0.00031v0.83984
				c-0.00005,0.08286-0.06725,0.14996-0.1501,0.1499c-0.0001,0-0.00019,0-0.00029,0h-0.72851v3.68799
				c-0.00009,0.08286-0.06731,0.14993-0.15016,0.14984C50.95624,320.32959,50.95614,320.32959,50.95605,320.32959z
				 M50.20705,320.02979h0.59863v-3.68799c0.00005-0.08286,0.06725-0.14996,0.1501-0.1499c0.0001,0,0.00019,0,0.00029,0h0.72852
				v-0.54001h-0.72852c-0.08284,0.00021-0.15017-0.06677-0.15039-0.1496c0-0.00012,0-0.00021,0-0.00031v-1.63916H50.207v1.63919
				c-0.00005,0.08286-0.06725,0.14996-0.1501,0.1499c-0.0001,0-0.00019,0-0.00029,0H49.7168v0.54001h0.33984
				c0.08284-0.00021,0.15017,0.06677,0.15039,0.1496c0,0.00012,0,0.00021,0,0.00031L50.20705,320.02979z"/>
		</g>
	</g>
	<path fill="#AFAFAF" d="M45,284.63184c-0.27599,0.00015-0.49984-0.22345-0.5-0.49945c0-0.00018,0-0.00037,0-0.00055v-19.98383
		c0-0.27615,0.22386-0.5,0.5-0.5s0.5,0.22385,0.5,0.5v19.98389c0.00012,0.276-0.22351,0.49982-0.4995,0.49994
		C45.00033,284.63184,45.00017,284.63184,45,284.63184z"/>
	<g>
		<g>
			<path fill="#AFAFAF" d="M38.58105,226.25391c-0.10671-0.23856-0.33856-0.39677-0.5996-0.40918
				c-0.26012-0.00339-0.47651,0.19922-0.49024,0.459c0,0.41016,0.54,0.58984,1.08984,0.83984
				c0.54883,0.25,1.07911,0.58984,1.07911,1.32912c-0.01126,0.86685-0.72312,1.56044-1.58997,1.54918
				c-0.00647-0.00008-0.01294-0.0002-0.01941-0.00037c-0.7031,0.01332-1.34383-0.40172-1.61914-1.04881l0.76953-0.34961
				c0.13464,0.35426,0.47071,0.59145,0.84961,0.59961c0.37003,0.02151,0.68743-0.26102,0.70894-0.63104
				c0.00056-0.00969,0.00092-0.01939,0.00106-0.02911c-0.00171-0.2196-0.1304-0.41835-0.33008-0.50977l-0.87988-0.46973
				c-0.51953-0.2793-0.89941-0.53906-0.89941-1.17871c0.00332-0.75412,0.61734-1.36276,1.37146-1.35944
				c0.00281,0.00002,0.00562,0.00003,0.00842,0.00006c0.55103-0.00424,1.05267,0.31705,1.2793,0.81934L38.58105,226.25391z"/>
			<path fill="#AFAFAF" d="M38.05078,230.22168c-0.7873,0.0173-1.50442-0.45062-1.80566-1.17822
				c-0.03791-0.09842,0.00748-0.20932,0.10351-0.25293l0.76953-0.34961c0.09559-0.04329,0.20839-0.00562,0.25879,0.08643
				c0.19629,0.36084,0.37891,0.49512,0.67383,0.49512c0.2603,0.02051,0.48793-0.17387,0.50845-0.43417
				c0.00068-0.00859,0.00112-0.01721,0.00132-0.02583c0-0.146-0.04688-0.21387-0.24121-0.34375l-0.86231-0.45947
				c-0.53027-0.28467-1.00586-0.60254-1.00586-1.355c0.01749-0.87866,0.74396-1.57677,1.62262-1.55928
				c0.61198,0.01219,1.16272,0.37431,1.41644,0.93135c0.04726,0.09682,0.00925,0.21367-0.08593,0.26416l-0.7295,0.38965
				c-0.09745,0.05199-0.21861,0.01514-0.2706-0.08232c-0.00132-0.00249-0.00259-0.00499-0.00381-0.00752
				c-0.07345-0.16904-0.23505-0.28299-0.41894-0.29541c-0.14918-0.00208-0.27515,0.11034-0.29,0.25879
				c0,0.229,0.35547,0.38525,0.76757,0.56689l0.20508,0.09082c0.68144,0.1953,1.16262,0.80316,1.19629,1.51123
				c-0.0064,0.97273-0.80016,1.75612-1.7729,1.74971C38.07525,230.22223,38.06301,230.22202,38.05078,230.22168z
				 M36.69824,229.07129c0.28676,0.47131,0.80088,0.75639,1.35254,0.75c0.75361,0.02434,1.38426-0.56685,1.4086-1.32047
				c0.0003-0.00938,0.00051-0.01877,0.00062-0.02817c0-0.58838-0.38476-0.88428-0.96191-1.147l-0.2002-0.08936
				c-0.51758-0.22754-1.00683-0.44287-1.00683-0.93262c0.01369-0.37044,0.31976-0.66266,0.69043-0.65918
				c0.26445,0.00615,0.51143,0.13342,0.66992,0.34521l0.38379-0.20508c-0.3583-0.54987-1.09452-0.70515-1.64438-0.34685
				c-0.32795,0.21368-0.52962,0.57516-0.53922,0.96648c0,0.49268,0.24512,0.70752,0.794,1.00244l0.8789,0.46973
				c0.26392,0.12727,0.43302,0.39302,0.43653,0.686c-0.00318,0.47891-0.39399,0.86458-0.8729,0.8614
				c-0.01242-0.00009-0.02485-0.00044-0.03726-0.00105c-0.38601,0.00174-0.74248-0.20642-0.93066-0.54346L36.69824,229.07129z"/>
		</g>
		<g>
			<path fill="#AFAFAF" d="M40.28906,225.18457h1.04981l1.5791,2.96875l1.46875-2.96875h1.00976L41.6084,232.541h-1.01953
				l1.83886-3.47852L40.28906,225.18457z"/>
			<path fill="#AFAFAF" d="M41.6084,232.74121h-1.01953c-0.11075-0.00052-0.20011-0.09071-0.19959-0.20146
				c0.00015-0.03204,0.00798-0.0636,0.02283-0.092l1.78809-3.3833l-2.08594-3.7832
				c-0.05333-0.09694-0.01797-0.21875,0.07896-0.27206c0.02937-0.01616,0.06232-0.02469,0.09584-0.02481h1.04981
				c0.07405,0.00012,0.14202,0.04105,0.17676,0.10645l1.3955,2.62451l1.2959-2.61963
				c0.03408-0.06805,0.10358-0.1111,0.17969-0.11131h1.00976c0.11056,0.00009,0.20012,0.08978,0.20004,0.20035
				c-0.00002,0.03189-0.00767,0.06332-0.0223,0.09166l-3.78809,7.35645C41.75188,232.69942,41.68327,232.74126,41.6084,232.74121z
				 M40.9209,232.34082h0.56543l3.582-6.95605h-0.55762l-1.41308,2.85742c-0.03362,0.06711-0.10172,0.11-0.17676,0.11133H42.918
				c-0.07405-0.00012-0.14202-0.04105-0.17676-0.10645l-1.52246-2.8623h-0.59082l1.97461,3.58105
				c0.03285,0.05887,0.0336,0.13039,0.002,0.18994L40.9209,232.34082z"/>
		</g>
		<g>
			<path fill="#AFAFAF" d="M47.24316,225.77441h0.01954c0.26552-0.43468,0.73034-0.7083,1.23925-0.72949
				c0.57133-0.00418,1.09509,0.31758,1.34961,0.8291c0.30142-0.50948,0.84752-0.82402,1.43946-0.8291
				c1.22949,0,1.54882,0.959,1.54882,2.01855v2.79881h-0.89941v-2.64844c0-0.59961-0.08008-1.36914-0.86914-1.36914
				c-0.96,0-1.0293,0.99899-1.0293,1.71875v2.29881H49.1416v-2.47852c0-0.61035-0.0293-1.53906-0.85937-1.53906
				c-0.959,0-1.03907,0.98924-1.03907,1.71875v2.29881h-0.89941v-4.67773h0.89941V225.77441z"/>
			<path fill="#AFAFAF" d="M52.83984,230.0625h-0.89941c-0.1105-0.00015-0.20005-0.08969-0.2002-0.2002v-2.64844
				c0-0.83057-0.19335-1.16895-0.66894-1.16895c-0.58887,0-0.8291,0.43994-0.8291,1.51855v2.29881
				c-0.00015,0.1105-0.08969,0.20004-0.2002,0.2002H49.1416c-0.1105-0.00015-0.20005-0.08969-0.20019-0.2002v-2.47852
				c0-0.82666-0.11036-1.33887-0.65918-1.33887c-0.59571,0-0.83887,0.43994-0.83887,1.51855v2.29881
				c-0.00015,0.1105-0.08969,0.20004-0.2002,0.2002h-0.89941c-0.1105-0.00015-0.20005-0.08969-0.2002-0.2002v-4.67773
				c0.00015-0.1105,0.08969-0.20004,0.2002-0.2002h0.89941c0.1105,0.00014,0.20005,0.08969,0.2002,0.2002v0.07813
				c0.29216-0.26041,0.66734-0.40855,1.05859-0.418c0.53516-0.0112,1.04161,0.24147,1.3545,0.67578
				c0.35713-0.4232,0.88085-0.66992,1.43457-0.67578c0.79785,0,1.749,0.38525,1.749,2.21875v2.79881
				C53.03991,229.97275,52.95037,230.06235,52.83984,230.0625z M52.14063,229.66211h0.499v-2.59863
				c0-1.62988-0.76953-1.81836-1.34863-1.81836c-0.52068,0.00508-1.00092,0.28168-1.26661,0.72949
				c-0.03584,0.06154-0.10163,0.09946-0.17285,0.09961l0,0c-0.0713-0.00032-0.13709-0.03841-0.17285-0.1001
				c-0.2178-0.45055-0.67636-0.73462-1.17676-0.729c-0.44047,0.02057-0.84177,0.25912-1.07031,0.63623
				c-0.07896,0.09373-0.21896,0.1057-0.31269,0.02673c-0.04045-0.03407-0.06739-0.08148-0.07598-0.13367v-0.38963h-0.499v4.27734
				h0.499v-2.09863c0-0.52492,0-1.91895,1.23926-1.91895c1.05957,0,1.05957,1.21875,1.05957,1.73926v2.27832h0.5v-2.09863
				c0-0.52492,0-1.91895,1.22949-1.91895c1.06934,0,1.06934,1.18115,1.06934,1.56934L52.14063,229.66211z"/>
		</g>
	</g>
	<path fill="#AFAFAF" d="M15,284.63184c-0.27599,0.00015-0.49985-0.22345-0.5-0.49945c0-0.00018,0-0.00037,0-0.00055v-19.98383
		c0-0.27615,0.22386-0.5,0.5-0.5s0.5,0.22385,0.5,0.5v19.98389c0.00012,0.276-0.22351,0.49982-0.4995,0.49994
		C15.00033,284.63184,15.00017,284.63184,15,284.63184z"/>
	<g>
		<g>
			<path fill="#AFAFAF" d="M8.98047,222.09668c-0.18608-0.10071-0.38952-0.16531-0.59961-0.19043
				c-0.63965,0-0.63965,0.80957-0.63965,1.26953v2.00879h1.23926v0.83984H7.74121v3.83789H6.8418v-3.83789H6.43164v-0.83984H6.8418
				v-2.27832c0-1.01953,0.34961-1.83984,1.50879-1.83984c0.21572-0.00076,0.42957,0.04002,0.62988,0.12012V222.09668z"/>
			<path fill="#AFAFAF" d="M7.74121,230.0625H6.8418c-0.1105-0.00015-0.20005-0.08969-0.2002-0.2002v-3.6377h-0.21
				c-0.1105-0.00015-0.20004-0.08969-0.20019-0.2002v-0.83984c0.00015-0.1105,0.08969-0.20004,0.20019-0.2002h0.21v-2.07813
				c0-1.686,0.92969-2.03999,1.709-2.03999c0.24116-0.00058,0.48019,0.04517,0.7041,0.13477
				c0.07603,0.03021,0.12595,0.10373,0.126,0.18555v0.91016c0.00038,0.11017-0.08862,0.19977-0.19879,0.20015
				c-0.02842,0.00011-0.05654-0.00587-0.08246-0.01753l-0.042-0.01855c-0.14845-0.07928-0.30981-0.13153-0.47656-0.1543
				c-0.36621,0-0.43945,0.40918-0.43945,1.06934v1.80859h1.03903c0.1105,0.00015,0.20004,0.08969,0.20019,0.2002v0.83984
				c-0.00015,0.1105-0.08969,0.20004-0.20019,0.2002H7.94141v3.6377C7.94123,229.97284,7.8517,230.06235,7.74121,230.0625z
				 M7.04199,229.66211h0.499v-3.6377c0.00015-0.1105,0.08969-0.20004,0.20019-0.2002h1.03909v-0.43945H7.74121
				c-0.1105-0.00015-0.20004-0.08969-0.20019-0.2002v-2.00879c0-0.47701,0-1.46973,0.83984-1.46973
				c0.1373,0.00534,0.27255,0.03511,0.39941,0.08791v-0.46535c-0.13942-0.04156-0.28419-0.06245-0.42968-0.062
				c-0.56153,0-1.3086,0.16992-1.3086,1.63965v2.27832c-0.00015,0.1105-0.08969,0.20004-0.20019,0.2002h-0.21v0.43945h0.21
				c0.1105,0.00015,0.20004,0.08969,0.20019,0.2002L7.04199,229.66211z"/>
		</g>
		<g>
			<path fill="#AFAFAF" d="M14.48633,227.5332c0.00568,1.3799-1.10836,2.50314-2.48826,2.50882s-2.50314-1.10835-2.50882-2.48827
				c-0.00568-1.3799,1.10836-2.50314,2.48826-2.50882c0.00327-0.00002,0.00655-0.00002,0.00982-0.00002
				c1.35833-0.02176,2.4771,1.06175,2.49885,2.42007C14.48655,227.48773,14.4866,227.51047,14.48633,227.5332z M10.38867,227.5332
				c0.0163,0.88316,0.74547,1.58591,1.62863,1.5696c0.88317-0.0163,1.5859-0.74545,1.5696-1.62863
				c-0.01609-0.87186-0.7276-1.57013-1.59961-1.56987C11.098,225.91725,10.38494,226.64381,10.38867,227.5332z"/>
			<path fill="#AFAFAF" d="M11.9873,230.22168c-1.48481-0.00592-2.68368-1.21439-2.67776-2.6992
				c0.00592-1.4848,1.21439-2.68367,2.6992-2.67775c1.48062,0.00591,2.67778,1.20784,2.67778,2.68848
				c0.01305,1.47182-1.16952,2.67554-2.64134,2.6886C12.02589,230.22197,12.00659,230.22192,11.9873,230.22168z M11.9873,225.24512
				c-1.26367,0.00592-2.28329,1.03513-2.27736,2.2988c0.00592,1.26369,1.03513,2.28329,2.29881,2.27737
				c1.25949-0.00591,2.27739-1.02858,2.27739-2.28809c0.01113-1.25261-0.9953-2.27708-2.24792-2.28821
				C12.02124,225.24484,12.00427,225.24489,11.9873,225.24512z M11.9873,229.3623c-1.01019,0.01631-1.84232-0.78938-1.85863-1.79958
				c-0.01631-1.01018,0.78939-1.84232,1.79957-1.85863s1.84232,0.78938,1.85863,1.79958
				c0.00016,0.00984,0.00024,0.01968,0.00024,0.02953C13.79428,228.53493,12.98901,229.3533,11.9873,229.3623z M11.9873,226.10449
				c-0.78905-0.01634-1.44194,0.61006-1.45827,1.39911s0.61007,1.44194,1.39911,1.45828
				c0.78905,0.01633,1.44194-0.61008,1.45827-1.39912c0.0002-0.00984,0.00031-0.0197,0.00031-0.02956
				C13.39433,226.75243,12.76807,226.11305,11.9873,226.10449z"/>
		</g>
		<g>
			<path fill="#AFAFAF" d="M16.74414,229.8623h-0.90039v-8.67578h0.90039V229.8623z"/>
			<path fill="#AFAFAF" d="M16.74414,230.0625h-0.90039c-0.1105-0.00015-0.20005-0.08969-0.2002-0.2002v-8.67578
				c0.00015-0.1105,0.0897-0.20004,0.2002-0.2002h0.90039c0.1105,0.00015,0.20005,0.08969,0.2002,0.2002v8.67578
				C16.94419,229.97281,16.85464,230.06235,16.74414,230.0625z M16.04395,229.66211h0.5v-8.27539h-0.5V229.66211z"/>
		</g>
		<g>
			<path fill="#AFAFAF" d="M22.00977,229.13281h-0.01954c-0.34805,0.54289-0.9441,0.87627-1.58886,0.88867
				c-1.37551-0.14641-2.37189-1.38016-2.22549-2.75566c0.1233-1.15849,1.02913-2.07899,2.18549-2.2209
				c0.66564,0.0029,1.28218,0.35072,1.6289,0.91895h0.01954v-4.77734h0.89941v8.67578h-0.89941L22.00977,229.13281z
				 M22.06055,227.52344c-0.10387-0.82816-0.85944-1.41531-1.6876-1.31145c-0.82816,0.10388-1.41532,0.85945-1.31144,1.68761
				c0.09388,0.74844,0.72527,1.31308,1.47951,1.32306c0.84775-0.00368,1.53201-0.69389,1.52833-1.54164
				C22.06912,227.62837,22.06618,227.57578,22.06055,227.52344z"/>
			<path fill="#AFAFAF" d="M20.40137,230.22168c-1.48597-0.14569-2.57248-1.46843-2.42678-2.95439
				c0.12447-1.26947,1.11931-2.27922,2.38678-2.42256c0.54159-0.00276,1.06225,0.20895,1.44824,0.58887v-4.24707
				c0.00014-0.1105,0.08969-0.20006,0.2002-0.2002h0.89941c0.1105,0.00015,0.20005,0.08969,0.2002,0.2002v8.67578
				c-0.00015,0.1105-0.08969,0.20004-0.2002,0.2002h-0.89941c-0.1105-0.00015-0.20005-0.08969-0.2002-0.2002v-0.21143
				C21.4308,230.01476,20.92663,230.21912,20.40137,230.22168z M20.36137,225.24512
				c-1.26229,0.1694-2.14825,1.33002-1.97885,2.59232c0.14025,1.04507,0.97148,1.86189,2.01885,1.98386
				c0.57892-0.01154,1.11355-0.31239,1.42383-0.80128c0.08196-0.09135,0.22245-0.09897,0.31381-0.01701
				c0.03778,0.03389,0.06282,0.0797,0.07095,0.12981v0.5293h0.499v-8.27539H22.21v4.57715
				c-0.00014,0.1105-0.08969,0.20004-0.20019,0.2002c-0.07269,0.00037-0.1415-0.03278-0.18653-0.08984
				c-0.30974-0.51204-0.86352-0.8261-1.46195-0.82909H20.36137z M20.54106,229.42285
				c-1.04335-0.12289-1.78954-1.06833-1.66664-2.11168c0.10298-0.87427,0.79238-1.56366,1.66664-1.66664
				c1.04335,0.09814,1.8096,1.02351,1.71145,2.06686C22.16714,228.6189,21.44856,229.33748,20.54106,229.42285z M20.54106,226.04492
				c-0.82223-0.09956-1.56949,0.48627-1.66906,1.30849c-0.09957,0.82224,0.48626,1.56949,1.30849,1.66907
				c0.82223,0.09956,1.56949-0.48627,1.66906-1.3085c0.00766-0.06322,0.01128-0.12686,0.01084-0.19054
				c0.07053-0.74283-0.47447-1.40218-1.21729-1.4727c-0.03395-0.00323-0.068-0.00517-0.10209-0.00581H20.54106z"/>
		</g>
	</g>
	<g>
		<g>
			<path fill="#AFAFAF" d="M12.50684,313.25684c-0.00584,0.34222-0.28799,0.6149-0.6302,0.60907
				c-0.33399-0.00571-0.60337-0.27509-0.60906-0.60907c-0.0055-0.34222,0.26745-0.62408,0.60966-0.62961
				c0.34221-0.00549,0.62409,0.26746,0.6296,0.60968C12.50695,313.24356,12.50695,313.25018,12.50684,313.25684z
				 M12.33691,320.07324H11.4375v-4.67773h0.89941V320.07324z"/>
			<path fill="#AFAFAF" d="M12.33691,320.27344H11.4375c-0.1105-0.00015-0.20004-0.08969-0.2002-0.2002v-4.67773
				c0.00016-0.1105,0.0897-0.20004,0.2002-0.2002h0.89941c0.1105,0.00015,0.20005,0.08969,0.2002,0.2002v4.67773
				C12.53696,320.18375,12.44741,320.27328,12.33691,320.27344z M11.6377,319.87305h0.499v-4.27734h-0.499V319.87305z
				 M11.8877,314.06641c-0.44983,0.00235-0.81673-0.35974-0.82032-0.80957c-0.00569-0.45279,0.35674-0.82443,0.80951-0.83014
				s0.82444,0.35675,0.83014,0.80951c0.00009,0.00687,0.00009,0.01376,0,0.02063
				C12.7039,313.70645,12.33733,314.06866,11.8877,314.06641z M11.8877,312.82715c-0.23446,0.00305-0.42225,0.19522-0.41993,0.42969
				c0.00566,0.23166,0.19803,0.41486,0.42967,0.40921c0.22369-0.00546,0.40374-0.18552,0.4092-0.40921
				C12.30942,313.02258,12.12196,312.83029,11.8877,312.82715z"/>
		</g>
		<g>
			<path fill="#AFAFAF" d="M15.1748,316.02539h0.01954c0.29719-0.49124,0.83525-0.78506,1.40918-0.76953
				c1.31933,0,1.65918,0.88965,1.65918,2.02832v2.78906h-0.89942v-2.67871c0-0.7998-0.11035-1.33887-1.0293-1.33887
				c-1.15918,0-1.15918,1.01855-1.15918,1.86816v2.14941h-0.89941v-4.67773h0.89941L15.1748,316.02539z"/>
			<path fill="#AFAFAF" d="M18.2627,320.27344h-0.89942c-0.1105-0.00015-0.20004-0.08969-0.20019-0.2002v-2.67871
				c0-0.84033-0.125-1.13867-0.82911-1.13867c-0.89257,0-0.959,0.66016-0.959,1.668v2.14941
				c-0.00015,0.1105-0.0897,0.20004-0.2002,0.2002h-0.89941c-0.1105-0.00015-0.20004-0.08969-0.20019-0.2002v-4.67773
				c0.00015-0.1105,0.08969-0.20004,0.20019-0.2002h0.89941c0.1105,0.00015,0.20005,0.08969,0.2002,0.2002v0.1001
				c0.3438-0.2887,0.7796-0.44479,1.22852-0.44c1.251,0,1.85937,0.729,1.85937,2.22852v2.78906
				C18.46274,320.18372,18.3732,320.27328,18.2627,320.27344z M17.56348,319.87305h0.499v-2.58887
				c0-1.28174-0.43652-1.82813-1.459-1.82813c-0.5016-0.01639-0.97321,0.23843-1.23438,0.66699
				c-0.07458,0.09717-0.21381,0.11545-0.31097,0.04089c-0.0443-0.03403-0.07415-0.0835-0.08356-0.13855v-0.42969h-0.499v4.27734
				h0.499v-1.94922c0-0.82373,0-2.06836,1.35937-2.06836c1.13477,0,1.2295,0.76025,1.2295,1.53906L17.56348,319.87305z"/>
		</g>
	</g>
	<g>
		<g>
			<path fill="#AFAFAF" d="M10.49121,144.06738c-0.10629-0.23906-0.33829-0.39775-0.59961-0.41016
				c-0.26033-0.00293-0.47662,0.20001-0.49023,0.46001c0,0.40918,0.54,0.58984,1.08984,0.83887
				c0.54883,0.25,1.0791,0.58984,1.0791,1.33008c-0.01125,0.86685-0.7231,1.56046-1.58996,1.54919
				c-0.00647-0.00008-0.01294-0.0002-0.01941-0.00037c-0.70339,0.01332-1.34427-0.40221-1.61914-1.0498l0.76953-0.34961
				c0.13464,0.35426,0.47071,0.59145,0.84961,0.59961c0.36995,0.02159,0.68736-0.26082,0.70895-0.63078
				c0.00055-0.00945,0.0009-0.01892,0.00105-0.0284c-0.00145-0.21968-0.13023-0.41856-0.33008-0.50977l-0.87988-0.46973
				c-0.51953-0.28027-0.89942-0.53999-0.89942-1.17969c0.00332-0.75412,0.61734-1.36276,1.37146-1.35944
				c0.00281,0.00002,0.00562,0.00003,0.00844,0.00006c0.55091-0.00381,1.05234,0.31732,1.27929,0.81934L10.49121,144.06738z"/>
			<path fill="#AFAFAF" d="M9.96094,148.03516c-0.78768,0.01688-1.50502-0.45131-1.80664-1.17915
				c-0.03704-0.09866,0.00861-0.20918,0.10449-0.25293l0.76953-0.34961c0.09555-0.04411,0.20893-0.00626,0.25879,0.08643
				c0.19629,0.36084,0.37891,0.49512,0.67383,0.49512c0.26019,0.02061,0.48783-0.17361,0.50844-0.43381
				c0.00066-0.00839,0.0011-0.01678,0.00132-0.02519c0-0.147-0.04687-0.21436-0.24023-0.34328l-0.86328-0.46001
				c-0.55078-0.29688-1.00586-0.60352-1.00586-1.356c0.01755-0.87872,0.74412-1.57684,1.62285-1.5593
				c0.61178,0.01221,1.16237,0.37411,1.41621,0.93088c0.04711,0.09674,0.00963,0.21342-0.085,0.26465l-0.72949,0.39063
				c-0.04841,0.02562-0.10513,0.03055-0.15723,0.01367c-0.05187-0.01692-0.09457-0.05432-0.11816-0.10352
				c-0.07321-0.16939-0.23485-0.28375-0.41895-0.29639c-0.14944-0.00182-0.27542,0.11102-0.29,0.25977
				c0,0.229,0.35742,0.38623,0.77149,0.56787l0.20019,0.08887c0.68208,0.19516,1.16376,0.80354,1.19727,1.51221
				c-0.0064,0.97275-0.80016,1.75612-1.7729,1.74973C9.98538,148.03571,9.97316,148.03549,9.96094,148.03516z M8.6084,146.88379
				c0.28631,0.47191,0.8006,0.75748,1.35254,0.75101c0.75361,0.02432,1.38424-0.56689,1.40856-1.3205
				c0.0003-0.00938,0.00051-0.01875,0.00062-0.02814c0-0.58936-0.38477-0.88525-0.96192-1.14799l-0.19531-0.08691
				c-0.52051-0.228-1.01172-0.44385-1.01172-0.93408c0.01344-0.3707,0.31951-0.66335,0.69043-0.66016
				c0.26458,0.00613,0.51163,0.13362,0.66992,0.3457l0.38379-0.20506c-0.35791-0.54997-1.09389-0.70567-1.64387-0.34778
				c-0.32829,0.21364-0.53019,0.57535-0.53972,0.96692c0,0.49219,0.24512,0.70752,0.79394,1.00391l0.87891,0.46924
				c0.26448,0.12665,0.43383,0.39278,0.43652,0.686c-0.00343,0.47864-0.39423,0.86388-0.87287,0.86044
				c-0.01243-0.00009-0.02486-0.00044-0.03728-0.00107c-0.38601,0.00174-0.74249-0.20642-0.93067-0.54346L8.6084,146.88379z"/>
		</g>
		<g>
			<path fill="#AFAFAF" d="M12.19922,142.99805H13.249l1.57911,2.96777l1.46875-2.96777h1.00976l-3.78809,7.35547H12.499
				l1.83887-3.47852L12.19922,142.99805z"/>
			<path fill="#AFAFAF" d="M13.51855,150.55371H12.499c-0.11075-0.00052-0.2001-0.09073-0.19958-0.20148
				c0.00015-0.03204,0.00798-0.06358,0.02283-0.09198l1.78808-3.3833l-2.08594-3.78223
				c-0.05332-0.09694-0.01796-0.21875,0.07898-0.27208c0.02936-0.01614,0.06231-0.02467,0.09583-0.0248h1.0498
				c0.07406,0.00012,0.14202,0.04105,0.17676,0.10645l1.39551,2.62354l1.2959-2.61865
				c0.03408-0.06805,0.10358-0.11111,0.17969-0.11133h1.00976c0.11056,0.00008,0.20012,0.08978,0.20004,0.20035
				c-0.00002,0.03189-0.00767,0.06332-0.0223,0.09166l-3.78809,7.35547C13.66203,150.51192,13.59342,150.55376,13.51855,150.55371z
				 M12.83105,150.15332h0.56543l3.582-6.95508H16.4209l-1.41309,2.85645c-0.03382,0.06693-0.10179,0.10974-0.17676,0.11133
				c-0.0734-0.00494-0.14008-0.04445-0.17968-0.10645l-1.52246-2.86133h-0.59082l1.97461,3.58008
				c0.03283,0.05888,0.03357,0.1304,0.00195,0.18994L12.83105,150.15332z"/>
		</g>
		<g>
			<path fill="#AFAFAF" d="M19.15332,143.58691h0.01953c0.26583-0.43437,0.73046-0.70787,1.23926-0.72949
				c0.57148-0.00377,1.0952,0.31833,1.34961,0.83008c0.301-0.51003,0.84725-0.82503,1.43945-0.83008
				c1.22949,0,1.54883,0.96001,1.54883,2.01953v2.79785h-0.89941v-2.64844c0-0.59961-0.08008-1.36914-0.86914-1.36914
				c-0.96,0-1.0293,0.99899-1.0293,1.71875v2.29881h-0.90039v-2.47852c0-0.60938-0.0293-1.53906-0.85938-1.53906
				c-0.959,0-1.03906,0.98924-1.03906,1.71875v2.29881H18.2539v-4.67676h0.89941L19.15332,143.58691z"/>
			<path fill="#AFAFAF" d="M24.75,147.875h-0.89941c-0.1105-0.00015-0.20005-0.08969-0.2002-0.2002v-2.64844
				c0-0.83057-0.19336-1.16895-0.66894-1.16895c-0.58887,0-0.82911,0.43994-0.82911,1.51855v2.29881
				c-0.00014,0.1105-0.08969,0.20004-0.20019,0.2002h-0.90039c-0.1105-0.00015-0.20005-0.08969-0.2002-0.2002v-2.47852
				c0-0.82666-0.11035-1.33887-0.65918-1.33887c-0.5957,0-0.83886,0.43994-0.83886,1.51855v2.29881
				c-0.00015,0.1105-0.08969,0.20004-0.2002,0.2002h-0.89941c-0.1105-0.00015-0.20005-0.08969-0.2002-0.2002v-4.67676
				c0.00015-0.1105,0.08969-0.20004,0.2002-0.2002h0.89941c0.1105,0.00015,0.20004,0.08969,0.2002,0.2002v0.07764
				c0.292-0.26073,0.66724-0.40906,1.05859-0.41846c0.5353-0.01083,1.04172,0.24219,1.35449,0.67674
				c0.35662-0.42398,0.88057-0.67116,1.43457-0.67674c0.79785,0,1.749,0.38525,1.749,2.21973v2.79785
				C24.95004,147.78528,24.86051,147.87483,24.75,147.875z M24.05078,147.47461h0.499V144.877
				c0-1.63086-0.76953-1.81934-1.34863-1.81934c-0.52088,0.00526-1.00117,0.28226-1.2666,0.73047
				c-0.03566,0.06172-0.10157,0.0997-0.17285,0.09961l0,0c-0.0713-0.00031-0.13709-0.03841-0.17285-0.1001
				c-0.21792-0.45056-0.67628-0.73491-1.17676-0.73c-0.44053,0.0208-0.8418,0.25952-1.07031,0.63672
				c-0.07969,0.09351-0.2201,0.10469-0.3136,0.02499c-0.03982-0.03394-0.0664-0.08083-0.07507-0.13243v-0.38867h-0.499v4.27637
				h0.499v-2.09862c0-0.5249,0-1.91895,1.23925-1.91895c1.05957,0,1.05957,1.21875,1.05957,1.73926v2.27832h0.5v-2.09863
				c0-0.5249,0-1.91895,1.2295-1.91895c1.06933,0,1.06933,1.18115,1.06933,1.56934L24.05078,147.47461z"/>
		</g>
		<g>
			<path fill="#AFAFAF" d="M27.31738,143.58691h0.01953c0.26583-0.43437,0.73046-0.70787,1.23926-0.72949
				c0.57148-0.00378,1.0952,0.31833,1.34961,0.83008c0.301-0.51003,0.84725-0.82503,1.43945-0.83008
				c1.2295,0,1.54883,0.96001,1.54883,2.01953v2.79785h-0.89941v-2.64844c0-0.59961-0.08008-1.36914-0.86914-1.36914
				c-0.96,0-1.0293,0.99899-1.0293,1.71875v2.29881h-0.90039v-2.47852c0-0.60938-0.0293-1.53906-0.85937-1.53906
				c-0.959,0-1.03907,0.98924-1.03907,1.71875v2.29881H26.418v-4.67676h0.89941L27.31738,143.58691z"/>
			<path fill="#AFAFAF" d="M32.91406,147.875h-0.89941c-0.1105-0.00015-0.20005-0.08969-0.2002-0.2002v-2.64844
				c0-0.83057-0.19336-1.16895-0.66894-1.16895c-0.58887,0-0.8291,0.43994-0.8291,1.51855v2.29881
				c-0.00015,0.1105-0.08969,0.20004-0.2002,0.2002h-0.90039c-0.1105-0.00015-0.20004-0.08969-0.20019-0.2002v-2.47852
				c0-0.82666-0.11036-1.33887-0.65918-1.33887c-0.59571,0-0.83887,0.43994-0.83887,1.51855v2.29881
				c-0.00015,0.1105-0.08969,0.20004-0.2002,0.2002H26.418c-0.1105-0.00015-0.20005-0.08969-0.2002-0.2002v-4.67676
				c0.00016-0.1105,0.0897-0.20004,0.2002-0.2002h0.89941c0.1105,0.00015,0.20004,0.08969,0.2002,0.2002v0.07764
				c0.292-0.26073,0.66724-0.40906,1.05859-0.41846c0.5353-0.01083,1.04172,0.24219,1.35449,0.67674
				c0.35662-0.42398,0.88057-0.67114,1.43457-0.67674c0.79786,0,1.749,0.38525,1.749,2.21973v2.79785
				C33.11412,147.78529,33.02457,147.87485,32.91406,147.875z M32.21484,147.47461h0.499V144.877
				c0-1.63086-0.76953-1.81934-1.34864-1.81934c-0.52088,0.00526-1.00117,0.28226-1.2666,0.73047
				c-0.03566,0.06172-0.10157,0.0997-0.17285,0.09961l0,0c-0.0713-0.00032-0.13709-0.03841-0.17285-0.1001
				c-0.21792-0.45056-0.67628-0.73491-1.17676-0.73c-0.44053,0.02081-0.8418,0.25952-1.07031,0.63672
				c-0.0796,0.09352-0.21994,0.10483-0.31347,0.02522c-0.03992-0.03397-0.06656-0.08096-0.0752-0.13266v-0.38867h-0.499v4.27637
				h0.499v-2.09862c0-0.5249,0-1.91895,1.23926-1.91895c1.05957,0,1.05957,1.21875,1.05957,1.73926v2.27832h0.5v-2.09863
				c0-0.5249,0-1.91895,1.22949-1.91895c1.06933,0,1.06933,1.18115,1.06933,1.56934L32.21484,147.47461z"/>
		</g>
		<g>
			<path fill="#AFAFAF" d="M35.15039,145.48633c-0.0434,0.81151,0.57927,1.50456,1.39078,1.54796
				c0.00613,0.00034,0.01226,0.00063,0.0184,0.00087c0.60517,0.0002,1.15366-0.35612,1.39943-0.90915l0.75977,0.42969
				c-0.42906,0.7964-1.26443,1.28911-2.169,1.2793c-1.25554,0.01813-2.28806-0.985-2.30618-2.24055
				c-0.00105-0.07289,0.0014-0.14578,0.00735-0.21844c-0.1567-1.22475,0.70911-2.34462,1.93386-2.50133
				c0.11452-0.01465,0.23001-0.02042,0.34543-0.01723c1.48828,0,2.18848,1.09961,2.18848,2.48926v0.13965L35.15039,145.48633z
				 M37.81934,144.80664c-0.0499-0.67073-0.61668-1.18468-1.28907-1.16895c-0.67461-0.00127-1.2447,0.49976-1.33007,1.16895
				H37.81934z"/>
			<path fill="#AFAFAF" d="M36.5498,148.03516c-1.36452,0.01949-2.48647-1.07089-2.50595-2.43541
				c-0.00106-0.07466,0.00126-0.14932,0.00695-0.22377c-0.16655-1.32527,0.77278-2.53464,2.09806-2.70119
				c0.12648-0.0159,0.25402-0.02177,0.38143-0.01756c1.47364,0,2.38868,1.03076,2.38868,2.68945v0.13965
				c-0.00015,0.1105-0.08969,0.20004-0.2002,0.2002h-3.35256c0.04512,0.63187,0.56022,1.12759,1.19336,1.14844
				c0.53505-0.00159,1.01792-0.32115,1.22852-0.813c0.05613-0.09236,0.17544-0.12349,0.26953-0.07031l0.75976,0.42969
				c0.0947,0.05394,0.12896,0.17365,0.07715,0.26953C38.43185,147.51305,37.52822,148.04654,36.5498,148.03516z M36.53027,143.05762
				c-1.11951-0.03966-2.0592,0.83575-2.09886,1.95526c-0.0043,0.12138,0.00231,0.2429,0.01976,0.3631
				c-0.1063,1.13644,0.72879,2.14391,1.86524,2.25021c0.07757,0.00725,0.15549,0.01012,0.23339,0.00858
				c0.76113,0.00946,1.47457-0.36972,1.89258-1.00586l-0.417-0.23537c-0.29655,0.52887-0.85956,0.8522-1.46582,0.8418
				c-0.92051-0.03114-1.64148-0.80261-1.61033-1.72313c0.00026-0.00781,0.00058-0.01564,0.00096-0.02345
				c-0.00011-0.05336,0.02055-0.10468,0.05761-0.14307c0.0377-0.03806,0.08902-0.05949,0.14258-0.05957h3.36816
				C38.49805,143.88916,37.75781,143.05762,36.53027,143.05762z M37.81934,145.00684H35.2002
				c-0.1107-0.00029-0.20021-0.09026-0.19992-0.20096c0.00003-0.01071,0.00091-0.02139,0.00265-0.03195
				c0.10406-0.76431,0.75597-1.33475,1.52734-1.33643c0.77052-0.01518,1.42065,0.57004,1.48633,1.33789
				c0.00968,0.05771-0.00678,0.11674-0.04492,0.16113C37.93358,144.98106,37.87794,145.00674,37.81934,145.00684z
				 M35.45703,144.60645h2.11133c-0.12003-0.46991-0.5536-0.79091-1.03809-0.76855c-0.48708-0.00528-0.9214,0.30573-1.07327,0.76855
				H35.45703z"/>
		</g>
		<g>
			<path fill="#AFAFAF" d="M41.0166,147.6748h-0.89941v-3.83789H39.627v-0.83887h0.49024V141.209h0.89941v1.78906h0.87891v0.83887
				H41.0166V147.6748z"/>
			<path fill="#AFAFAF" d="M41.0166,147.875h-0.89941c-0.1105-0.00015-0.20005-0.08969-0.2002-0.2002v-3.6377h-0.29
				c-0.1105-0.00015-0.20005-0.08969-0.20019-0.2002v-0.83887c0.00015-0.1105,0.08969-0.20004,0.20019-0.2002h0.29V141.209
				c0.00015-0.1105,0.08969-0.20004,0.2002-0.2002h0.89941c0.1105,0.00015,0.20005,0.08969,0.2002,0.2002v1.58887h0.67871
				c0.1105,0.00015,0.20004,0.08969,0.20019,0.2002v0.83887c-0.00014,0.1105-0.08969,0.20004-0.20019,0.2002H41.2168v3.6377
				C41.21664,147.78532,41.1271,147.87485,41.0166,147.875z M40.31738,147.47461h0.499v-3.6377
				c0.00014-0.1105,0.08969-0.20004,0.20019-0.2002h0.67871v-0.43848H41.0166c-0.1105-0.00015-0.20005-0.08969-0.20019-0.2002
				v-1.58887h-0.499v1.58887c-0.00014,0.1105-0.08969,0.20004-0.20019,0.2002h-0.29v0.43848h0.29
				c0.1105,0.00015,0.20005,0.08969,0.20019,0.2002L40.31738,147.47461z"/>
		</g>
		<g>
			<path fill="#AFAFAF" d="M43.84375,143.75684H43.874c0.19046-0.54234,0.7045-0.90375,1.2793-0.89941
				c0.26323,0.00551,0.51953,0.08542,0.73926,0.23047l-0.41016,0.81934c-0.15186-0.13132-0.34827-0.19948-0.54883-0.19043
				c-0.96972,0-1.08984,0.90039-1.08984,1.65918v2.29881h-0.89941v-4.67674h0.89941L43.84375,143.75684z"/>
			<path fill="#AFAFAF" d="M43.84375,147.875h-0.89941c-0.1105-0.00015-0.20005-0.08969-0.2002-0.2002v-4.67676
				c0.00015-0.1105,0.08969-0.20004,0.2002-0.2002h0.89941c0.1105,0.00015,0.20004,0.08969,0.2002,0.2002v0.12451
				c0.28934-0.30211,0.69108-0.47063,1.10937-0.46533c0.30129,0.00591,0.59479,0.09679,0.84668,0.26221
				c0.08655,0.05479,0.11739,0.16634,0.07129,0.25781l-0.41016,0.81934c-0.0274,0.05582-0.07952,0.09544-0.14062,0.10693
				c-0.06066,0.01096-0.12303-0.00589-0.16992-0.0459c-0.11563-0.09895-0.26506-0.14934-0.417-0.14063
				c-0.63183,0-0.88964,0.42236-0.88964,1.459v2.29881C44.04379,147.78531,43.95425,147.87485,43.84375,147.875z
				 M43.14453,147.47461h0.499v-2.0986c0-0.46001,0-1.85938,1.29-1.85938c0.1625-0.0031,0.32354,0.03114,0.47071,0.1001
				l0.22363-0.44678c-0.14816-0.07147-0.31012-0.1098-0.47461-0.1123c-0.49294-0.0041-0.93333,0.30731-1.09375,0.77344
				c-0.07031,0.1792-0.416,0.11816-0.416-0.0742v-0.55859h-0.499L43.14453,147.47461z"/>
		</g>
		<g>
			<path fill="#AFAFAF" d="M46.541,142.99805h1.0498l1.5791,2.96777l1.46875-2.96777h1.00977l-3.78809,7.35547h-1.01951
				l1.83887-3.47852L46.541,142.99805z"/>
			<path fill="#AFAFAF" d="M47.86035,150.55371h-1.01953c-0.11075-0.00052-0.20011-0.09071-0.19959-0.20146
				c0.00015-0.03204,0.00798-0.0636,0.02283-0.092l1.78809-3.3833l-2.08594-3.78223
				c-0.05332-0.09694-0.01796-0.21875,0.07898-0.27208c0.02937-0.01614,0.06231-0.02467,0.09583-0.0248h1.0498
				c0.07405,0.00012,0.14202,0.04105,0.17676,0.10645l1.39551,2.62354l1.29589-2.61865
				c0.03408-0.06805,0.10358-0.11111,0.17969-0.11133h1.00977c0.11056,0.00008,0.20012,0.08977,0.20004,0.20033
				c-0.00002,0.03189-0.00767,0.06332-0.0223,0.09167l-3.78808,7.35547C48.00385,150.51192,47.93523,150.55376,47.86035,150.55371z
				 M47.17285,150.15332h0.56543l3.582-6.95508H50.7627l-1.41309,2.85645c-0.03382,0.06693-0.1018,0.10974-0.17676,0.11133h-0.00293
				c-0.07405-0.00012-0.14202-0.04105-0.17676-0.10645l-1.52246-2.86133h-0.59082l1.97461,3.58008
				c0.03285,0.05887,0.03361,0.13039,0.002,0.18994L47.17285,150.15332z"/>
		</g>
	</g>
	<g>
		<g>
			<path fill="#AFAFAF" d="M23.98047,87.93359c-0.18613-0.1004-0.38958-0.16468-0.59961-0.18945
				c-0.63965,0-0.63965,0.80957-0.63965,1.26856v2.00976h1.23926v0.83887h-1.23926v3.83789H21.8418v-3.83789h-0.41016v-0.83887
				h0.41016v-2.2793c0-1.01953,0.34961-1.83886,1.50879-1.83886c0.21572-0.00076,0.42957,0.04002,0.62988,0.12011V87.93359z"/>
			<path fill="#AFAFAF" d="M22.74121,95.89941H21.8418c-0.1105-0.00015-0.20004-0.08968-0.2002-0.20019v-3.6377h-0.21
				c-0.1105-0.00015-0.20004-0.08969-0.20019-0.20019v-0.83887c0.00015-0.1105,0.08969-0.20004,0.20019-0.20019h0.21v-2.07912
				c0-1.68505,0.92969-2.03906,1.709-2.03906c0.24117-0.00057,0.48019,0.04518,0.7041,0.13477
				c0.07603,0.03022,0.12595,0.10373,0.126,0.18554v0.90918c0.00038,0.11016-0.08862,0.19978-0.19879,0.20015
				c-0.02842,0.0001-0.05654-0.00588-0.08246-0.01753l-0.03711-0.0166c-0.15007-0.07973-0.31306-0.13229-0.48144-0.15527
				c-0.36621,0-0.43945,0.40869-0.43945,1.06836v1.80957h1.03906c0.1105,0.00015,0.20004,0.08969,0.20019,0.20019v0.83887
				c-0.00015,0.1105-0.08969,0.20004-0.20019,0.20019h-1.0391v3.6377C22.94126,95.80971,22.85172,95.89925,22.74121,95.89941z
				 M22.042,95.499h0.499v-3.63767c0.00015-0.1105,0.08969-0.20005,0.20019-0.2002h1.03906v-0.43847h-1.03904
				c-0.1105-0.00015-0.20004-0.0897-0.20019-0.2002V89.0127c0-0.47657,0-1.46875,0.83984-1.46875
				c0.13722,0.00522,0.27243,0.03465,0.39941,0.08691V87.1665c-0.13942-0.04157-0.28419-0.06246-0.42968-0.062
				c-0.56153,0-1.3086,0.16992-1.3086,1.63867v2.2793c-0.00015,0.1105-0.08969,0.20005-0.20019,0.2002h-0.21v0.43847h0.21
				c0.1105,0.00015,0.20004,0.0897,0.20019,0.2002L22.042,95.499z"/>
		</g>
		<g>
			<path fill="#AFAFAF" d="M29.48633,93.37109c0.00514,1.3799-1.10933,2.50269-2.48923,2.50784
				c-1.3799,0.00513-2.5027-1.10934-2.50783-2.48923c-0.00514-1.37991,1.10933-2.5027,2.48923-2.50784
				c0.00294-0.00001,0.00589-0.00002,0.00883-0.00002c1.35832-0.02176,2.4771,1.06174,2.49887,2.42007
				C29.48656,93.32497,29.48661,93.34803,29.48633,93.37109z M25.38867,93.37109c0.01683,0.88317,0.74642,1.58548,1.62959,1.56865
				s1.58548-0.74642,1.56865-1.62959c-0.01661-0.87148-0.72797-1.56921-1.59961-1.56894
				C26.09776,91.75451,25.38474,92.48147,25.38867,93.37109z"/>
			<path fill="#AFAFAF" d="M26.9873,96.05957c-1.48508-0.00565-2.6844-1.21412-2.67876-2.6992
				c0.00565-1.48508,1.21412-2.6844,2.6992-2.67876c1.48129,0.00563,2.67906,1.20818,2.67878,2.68948
				c0.01305,1.47182-1.16952,2.67554-2.64134,2.68859C27.02589,96.05986,27.00659,96.05982,26.9873,96.05957z M26.9873,91.08203
				c-1.26395,0.00565-2.284,1.03486-2.27835,2.29881s1.03486,2.284,2.29881,2.27835c1.25976-0.00563,2.2781-1.02832,2.27837-2.28809
				c0.01139-1.2529-0.99505-2.27781-2.24795-2.2892c-0.01696-0.00015-0.03392-0.00012-0.05088,0.00011
				C26.9873,91.08201,26.9873,91.08203,26.9873,91.08203z M26.9873,95.2002c-1.01046,0.01659-1.84304-0.78911-1.85962-1.79956
				c-0.01658-1.01046,0.78911-1.84304,1.79956-1.85963s1.84304,0.78911,1.85962,1.79956
				c0.00017,0.01018,0.00025,0.02035,0.00025,0.03052C28.79428,94.37282,27.98901,95.19119,26.9873,95.2002z M26.9873,91.94141
				c-0.78932-0.01662-1.44267,0.60978-1.45928,1.3991s0.60978,1.44267,1.3991,1.45928
				c0.78932,0.01662,1.44267-0.60978,1.45928-1.3991c0.00021-0.00986,0.00031-0.01973,0.00032-0.0296
				C28.39459,92.59005,27.76833,91.95025,26.9873,91.94141z"/>
		</g>
		<g>
			<path fill="#AFAFAF" d="M31.74414,95.69922h-0.90039v-8.67481h0.90039V95.69922z"/>
			<path fill="#AFAFAF" d="M31.74414,95.89941h-0.90039c-0.1105-0.00015-0.20004-0.08968-0.2002-0.20019v-8.67481
				c0.00016-0.1105,0.0897-0.20004,0.2002-0.20019h0.90039c0.1105,0.00015,0.20004,0.08968,0.2002,0.20019v8.67481
				C31.94418,95.80972,31.85464,95.89925,31.74414,95.89941z M31.044,95.499h0.5v-8.27439h-0.5V95.499z"/>
		</g>
		<g>
			<path fill="#AFAFAF" d="M37.00977,94.96973h-0.01954c-0.34765,0.54346-0.94384,0.87728-1.58886,0.88965
				c-1.37578-0.14671-2.37213-1.38094-2.22541-2.75671c0.12353-1.15835,1.0292-2.0787,2.18541-2.22083
				c0.66579,0.00328,1.2823,0.35146,1.6289,0.91992h0.01954V87.0244h0.89941v8.67481h-0.89941L37.00977,94.96973z
				 M37.06055,93.36034c-0.10388-0.82816-0.85945-1.41531-1.68761-1.31143s-1.41531,0.85945-1.31143,1.68761
				c0.09388,0.74844,0.72525,1.31306,1.47949,1.32305c0.84775-0.00367,1.53201-0.69388,1.52835-1.54163
				C37.06912,93.4653,37.06618,93.4127,37.06055,93.36034z"/>
			<path fill="#AFAFAF" d="M35.40137,96.05957c-1.48624-0.14583-2.57286-1.46888-2.42704-2.95512
				c0.12457-1.26956,1.11947-2.27937,2.38704-2.42281c0.54166-0.00262,1.06233,0.20927,1.44824,0.58936v-4.2466
				c0.00015-0.1105,0.08969-0.20004,0.2002-0.20019h0.89941c0.1105,0.00015,0.20004,0.08968,0.2002,0.20019v8.67481
				c-0.00016,0.1105-0.0897,0.20004-0.2002,0.20019h-0.89941c-0.1105-0.00014-0.20005-0.08968-0.2002-0.20019v-0.21045
				C36.4308,95.85265,35.92663,96.05701,35.40137,96.05957z M35.36137,91.08203c-1.26256,0.16969-2.1485,1.33076-1.97881,2.59332
				c0.14045,1.04495,0.97156,1.86166,2.01881,1.98383c0.57911-0.01128,1.11391-0.31242,1.42383-0.80176
				c0.08164-0.09147,0.22198-0.09943,0.31345-0.01779c0.03799,0.03391,0.06316,0.07984,0.07131,0.1301V95.499h0.499v-8.27439H37.21
				v4.57715c-0.00015,0.1105-0.08969,0.20004-0.20019,0.20019c-0.07269,0.00036-0.1415-0.03278-0.18653-0.08984
				c-0.30943-0.51249-0.8633-0.82698-1.46195-0.8301L35.36137,91.08203z M35.54106,95.25977
				c-1.04335-0.12289-1.78954-1.06832-1.66664-2.11168c0.10298-0.87427,0.79238-1.56367,1.66664-1.66664
				c1.04335,0.09814,1.8096,1.02351,1.71145,2.06687C37.16715,94.45583,36.44856,95.17441,35.54106,95.25977z M35.54106,91.88184
				c-0.82223-0.09957-1.56949,0.48626-1.66906,1.30849s0.48626,1.56949,1.30849,1.66906s1.56949-0.48626,1.66906-1.30849
				c0.00766-0.06322,0.01128-0.12687,0.01084-0.19055c0.07055-0.74279-0.4744-1.40215-1.2172-1.47269
				c-0.03398-0.00323-0.06807-0.00517-0.10219-0.00581C35.541,91.88185,35.54106,91.88185,35.54106,91.88184z"/>
		</g>
	</g>
	<path fill="#AFAFAF" d="M7.865,0.00062h44.27l0,0v5.40259c0,3.91436-3.17322,7.08758-7.08758,7.08758l0,0h-30.0948
		c-3.91436,0.00002-7.0876-3.17318-7.08762-7.08754c0-0.00001,0-0.00003,0-0.00004V0.00062L7.865,0.00062z"/>
	<g>
		<g>
			<path fill="#313131" d="M15.00293,9.01074h-1.35449l-1.39356-2.31543h-0.01562v2.31543h-1.11914V3.26953h1.51562
				c1.13379,0,1.918,0.50195,1.918,1.72852c0.05572,0.74688-0.44205,1.42261-1.17187,1.59082L15.00293,9.01074z M12.23926,5.91113
				h0.14453c0.61719,0,1.05078-0.18261,1.05078-0.88281c0-0.708-0.44922-0.84473-1.043-0.84473h-0.15234L12.23926,5.91113z"/>
			<path fill="#313131" d="M15.00293,9.16064h-1.35449c-0.05277,0.00009-0.10171-0.02753-0.12891-0.07275l-1.12988-1.87842v1.80127
				c-0.00005,0.08284-0.06726,0.14996-0.1501,0.1499c-0.0001,0-0.00019,0-0.00029,0h-1.11914
				c-0.08284,0.00022-0.15017-0.06677-0.15039-0.14961c0-0.0001,0-0.00019,0-0.00029V3.26953
				c0.00006-0.08284,0.06726-0.14996,0.1501-0.1499c0.0001,0,0.00019,0,0.00029,0h1.51562c1.334,0,2.06836,0.667,2.06836,1.87842
				c0.03643,0.73433-0.39688,1.41095-1.0791,1.68506l1.50293,2.24414c0.03043,0.04627,0.03306,0.1055,0.00684,0.15429
				C15.10905,9.13047,15.0582,9.16097,15.00293,9.16064z M13.7334,8.86084h0.98828l-1.46484-2.18848
				c-0.04595-0.0691-0.02718-0.16237,0.04193-0.20832c0.0177-0.01177,0.03769-0.01965,0.05865-0.02312
				c0.65393-0.16142,1.09593-0.77117,1.0459-1.44287c0-1.04737-0.59473-1.57862-1.76758-1.57862h-1.36523v5.44141h0.81836V6.69531
				c0.00006-0.08284,0.06726-0.14996,0.1501-0.1499c0.0001,0,0.00019,0,0.00029,0c0.05707-0.00037,0.11084,0.02669,0.14453,0.07275
				L13.7334,8.86084z M12.38379,6.061h-0.14453c-0.08284,0.00022-0.15017-0.06677-0.15039-0.14961c0-0.0001,0-0.0002,0-0.0003
				v-1.7275c0.00006-0.08284,0.06726-0.14996,0.1501-0.1499c0.0001,0,0.00019,0,0.00029,0h0.15234
				c0.55567,0,1.19336,0.11279,1.19336,0.99463C13.585,6.061,12.68066,6.061,12.38379,6.061z M12.38965,4.33346v1.42777
				c0.64355-0.00146,0.89453-0.207,0.89453-0.73291c0-0.51269-0.2334-0.69482-0.89258-0.69482L12.38965,4.33346z"/>
		</g>
		<g>
			<path fill="#313131" d="M18.01465,4.24414v1.26367h1.78223v0.97461h-1.78223v1.55371h1.85058v0.97461h-2.96972V3.26953h2.96972
				v0.97461H18.01465z"/>
			<path fill="#313131" d="M19.86523,9.16064h-2.96972c-0.08284,0.00022-0.15018-0.06677-0.15039-0.14961
				c0-0.0001,0-0.00019,0-0.00029V3.26953c0.00006-0.08284,0.06726-0.14996,0.1501-0.1499c0.0001,0,0.00019,0,0.00029,0h2.96972
				c0.08284-0.00022,0.15018,0.06676,0.1504,0.1496c0,0.0001,0,0.0002,0,0.0003v0.97461
				c-0.00006,0.08284-0.06726,0.14996-0.1501,0.1499c-0.0001,0-0.0002,0-0.0003,0H18.165v0.96387h1.63184
				c0.08284-0.00022,0.15018,0.06677,0.15039,0.14961c0,0.0001,0,0.00019,0,0.00029v0.97461
				c-0.00006,0.08284-0.06726,0.14996-0.1501,0.1499c-0.0001,0-0.00019,0-0.00029,0H18.165v1.25391h1.70019
				c0.08284-0.00022,0.15018,0.06676,0.1504,0.1496c0,0.0001,0,0.0002,0,0.0003v0.97461
				c-0.00006,0.08284-0.06726,0.14995-0.1501,0.1499C19.8654,9.16064,19.86532,9.16064,19.86523,9.16064z M17.0459,8.86084h2.66894
				V8.186h-1.70019c-0.08284,0.00022-0.15018-0.06677-0.15039-0.14961c0-0.0001,0-0.0002,0-0.0003V6.48242
				c0.00006-0.08284,0.06726-0.14996,0.1501-0.1499c0.0001,0,0.00019,0,0.00029,0h1.63183V5.65771h-1.63183
				c-0.08284,0.00022-0.15018-0.06677-0.15039-0.14961c0-0.0001,0-0.00019,0-0.00029V4.24414
				c0.00006-0.08284,0.06726-0.14996,0.1501-0.1499c0.0001,0,0.00019,0,0.00029,0h1.70019V3.41943H17.0459V8.86084z"/>
		</g>
		<g>
			<path fill="#313131" d="M27.25586,4.24414v1.26367h1.62207v0.97461h-1.62207v2.52832h-1.11914V3.26953h2.84766v0.97461H27.25586z
				"/>
			<path fill="#313131" d="M27.25586,9.16064h-1.11914c-0.08284,0.00022-0.15018-0.06677-0.15039-0.14961
				c0-0.0001,0-0.00019,0-0.00029V3.26953c0.00006-0.08284,0.06726-0.14996,0.1501-0.1499c0.0001,0,0.00019,0,0.00029,0h2.84766
				c0.08284-0.00022,0.15018,0.06677,0.15039,0.14961c0,0.0001,0,0.00019,0,0.00029v0.97461
				c-0.00006,0.08284-0.06726,0.14996-0.1501,0.1499c-0.0001,0-0.00019,0-0.00029,0h-1.57813v0.96387h1.47168
				c0.08284-0.00022,0.15018,0.06677,0.15039,0.14961c0,0.0001,0,0.00019,0,0.00029v0.97461
				c-0.00006,0.08284-0.06726,0.14996-0.1501,0.1499c-0.0001,0-0.00019,0-0.00029,0h-1.47168v2.37842
				c-0.00006,0.08284-0.06726,0.14995-0.1501,0.1499C27.25605,9.16064,27.25596,9.16064,27.25586,9.16064z M26.28711,8.86084
				h0.81836V6.48242c0.00006-0.08284,0.06726-0.14996,0.1501-0.1499c0.0001,0,0.00019,0,0.00029,0h1.47168V5.65771h-1.47168
				c-0.08284,0.00022-0.15018-0.06677-0.15039-0.14961c0-0.0001,0-0.00019,0-0.00029V4.24414
				c0.00006-0.08284,0.06726-0.14996,0.1501-0.1499c0.0001,0,0.00019,0,0.00029,0H28.834V3.41943h-2.54689V8.86084z"/>
		</g>
		<g>
			<path fill="#313131" d="M33.75488,9.16309c-1.55702,0.01621-2.83237-1.23286-2.84858-2.78988
				c-0.00084-0.08021,0.00175-0.16042,0.00776-0.2404c-0.094-1.56867,1.10146-2.91654,2.67013-3.01054
				c1.56867-0.094,2.91654,1.10146,3.01054,2.67013c0.00679,0.11337,0.00679,0.22704,0,0.3404
				c0.11667,1.55261-1.0474,2.90583-2.60001,3.0225C33.91492,9.16131,33.8349,9.1639,33.75488,9.16309z"/>
			<path fill="#313131" d="M33.75488,9.313c-1.63258,0.02395-2.97545-1.28011-2.9994-2.91268
				c-0.00131-0.08924,0.00142-0.1785,0.00819-0.2675C30.66981,4.48109,31.9327,3.066,33.58444,2.97214
				c1.65173-0.09386,3.06682,1.16904,3.16068,2.82077c0.00644,0.11321,0.00644,0.2267,0,0.33992
				c0.1242,1.62761-1.09457,3.04773-2.72218,3.17193C33.93376,9.31155,33.84431,9.31431,33.75488,9.313z M33.75488,3.2671
				c-1.46999-0.02008-2.67793,1.1553-2.69802,2.62529c-0.00109,0.08022,0.00144,0.16044,0.00759,0.24043
				c-0.1017,1.48562,1.02018,2.77239,2.5058,2.87409c1.48561,0.1017,2.77239-1.02018,2.87409-2.5058
				c0.0084-0.12262,0.0084-0.24567,0-0.36829c0.11312-1.46536-0.98309-2.74497-2.44845-2.85808
				C33.91571,3.26855,33.83529,3.266,33.75488,3.2671z"/>
		</g>
		<g>
			<path fill="#313131" d="M39.78906,8.03613h1.584v0.97461h-2.70314V3.26953h1.11914V8.03613z"/>
			<path fill="#313131" d="M41.37305,9.16064h-2.70313c-0.08284,0.00022-0.15017-0.06677-0.15039-0.14961
				c0-0.0001,0-0.00019,0-0.00029V3.26953c0.00005-0.08284,0.06726-0.14996,0.1501-0.1499c0.0001,0,0.00019,0,0.00029,0h1.11914
				c0.08284-0.00022,0.15017,0.06677,0.15039,0.14961c0,0.0001,0,0.00019,0,0.00029v4.6167h1.4336
				c0.08284-0.00022,0.15017,0.06677,0.15039,0.14961c0,0.0001,0,0.00019,0,0.00029v0.97461
				c-0.00006,0.08284-0.06726,0.14995-0.1501,0.1499C41.37325,9.16064,41.37315,9.16064,41.37305,9.16064z M38.82031,8.86084
				h2.40235V8.186h-1.4336c-0.08284,0.00022-0.15017-0.06677-0.15039-0.14961c0-0.0001,0-0.0002,0-0.0003V3.41943h-0.81836V8.86084z
				"/>
		</g>
		<g>
			<path fill="#313131" d="M43.25684,3.26953h1.59863c1.50172-0.03119,2.7444,1.16092,2.77559,2.66264
				c0.00149,0.07179,0.00014,0.14361-0.00406,0.21529c0.06876,1.51121-1.10058,2.79202-2.61179,2.86077
				c-0.05547,0.00252-0.11101,0.00336-0.16653,0.00251h-1.59184V3.26953z M44.376,8.03613h0.18261
				c0.92492,0.12961,1.77977-0.51512,1.90938-1.44003c0.02121-0.15137,0.0218-0.30492,0.00176-0.45645
				c0.12284-0.92506-0.52748-1.77455-1.45254-1.89739c-0.15224-0.02022-0.30653-0.01958-0.4586,0.00188H44.376V8.03613z"/>
			<path fill="#313131" d="M44.84863,9.16064h-1.59179c-0.08284,0.00022-0.15017-0.06677-0.15039-0.14961
				c0-0.0001,0-0.00019,0-0.00029V3.26953c0.00005-0.08284,0.06726-0.14996,0.1501-0.1499c0.0001,0,0.00019,0,0.00029,0h1.59863
				c1.58982-0.02581,2.89955,1.24206,2.92536,2.83188c0.00106,0.06534-0.0001,0.13069-0.00349,0.19595
				c0.07713,1.58545-1.14559,2.93324-2.73104,3.01037C44.98046,9.16103,44.91453,9.16197,44.84863,9.16064z M43.40723,8.86084
				h1.4414c1.42663,0.02631,2.60447-1.10888,2.63078-2.53551c0.00109-0.05931,0.00014-0.11863-0.00285-0.17787
				c0.09319-1.41085-0.97498-2.63011-2.38583-2.7233c-0.0783-0.00517-0.15681-0.00674-0.23526-0.0047h-1.44824V8.86084z
				 M44.55859,8.18604H44.376c-0.08284,0.00022-0.15017-0.06677-0.15039-0.14961c0-0.0001,0-0.0002,0-0.0003v-3.792
				c0.00005-0.08284,0.06726-0.14996,0.1501-0.1499c0.0001,0,0.00019,0,0.00029,0h0.18261
				c1.00524-0.13231,1.9274,0.57534,2.05971,1.58058c0.0203,0.15424,0.02091,0.31044,0.00182,0.46483
				c0.12463,1.00649-0.59025,1.92345-1.59674,2.04808c-0.15438,0.01912-0.31057,0.01854-0.46481-0.00172V8.18604z M44.52637,7.88623
				h0.03222c0.84114,0.13027,1.62863-0.44601,1.75889-1.28715c0.02357-0.15219,0.0242-0.30705,0.00186-0.45943
				c0.12313-0.84205-0.45967-1.62449-1.30172-1.74763c-0.15225-0.02226-0.30698-0.0216-0.45903,0.00198h-0.03222V7.88623z"/>
		</g>
		<circle fill="#CC4C4C" cx="22.83872" cy="5.91113" r="1.15602"/>
	</g>
	<g>
		<g>
			<g>
				<path fill="#CC4C4C" d="M13.90159,372.71753h-1.35635l-1.39539-2.31754h-0.01561v2.3175H10.014v-5.74792h1.51736
					c1.13582,0,1.92036,0.50299,1.92036,1.73056c0.0558,0.74802-0.44288,1.42474-1.17388,1.59299L13.90159,372.71753z
					 M11.13424,369.61499h0.14539c0.61768,0,1.05191-0.18301,1.05191-0.88455c0-0.70892-0.44984-0.84601-1.0441-0.84601h-0.1532
					V369.61499z"/>
				<path fill="#CC4C4C" d="M13.90137,372.918h-1.35645c-0.07008-0.00009-0.13497-0.03699-0.1709-0.09717l-1.04-1.72705v1.62399
					c-0.00015,0.1105-0.08969,0.20004-0.20019,0.2002h-1.12016c-0.1105-0.00015-0.20004-0.08969-0.20019-0.2002v-5.74799
					c0.00015-0.1105,0.08969-0.20004,0.20019-0.2002h1.51758c1.36816,0,2.12109,0.68555,2.12109,1.93066
					c0.03289,0.73264-0.38422,1.41132-1.05273,1.71289l1.46777,2.19336c0.0617,0.09149,0.03756,0.21567-0.05392,0.27737
					c-0.03311,0.02231-0.07215,0.03421-0.11208,0.03415L13.90137,372.918z M12.6582,372.51761h0.86817l-1.41407-2.11331
					c-0.03815-0.05624-0.04479-0.12814-0.01757-0.19043c0.02702-0.06223,0.08355-0.10663,0.15039-0.11816
					c0.63109-0.15729,1.05657-0.74701,1.00683-1.39551c0-1.01563-0.5791-1.53027-1.7207-1.53027h-1.31738v5.34766h0.71972v-2.11768
					c0.00015-0.1105,0.0897-0.20004,0.2002-0.2002c0.07436-0.00021,0.14407,0.03613,0.18652,0.09717L12.6582,372.51761z
					 M11.2793,369.81546h-0.14551c-0.1105-0.00015-0.20005-0.08969-0.2002-0.2002v-1.73099
					c0.00016-0.1105,0.0897-0.20004,0.2002-0.2002h0.15332c0.33984,0,1.24414,0,1.24414,1.04639
					c0.02365,0.58487-0.4313,1.07816-1.01616,1.10181c-0.07898,0.0032-0.15807-0.00244-0.23579-0.01685V369.81546z
					 M11.33398,368.08447v1.33008c0.58008-0.01074,0.79688-0.19971,0.79688-0.68408c0-0.47119-0.20215-0.6377-0.79686-0.646
					H11.33398z"/>
			</g>
			<g>
				<path fill="#CC4C4C" d="M16.909,367.9454v1.26511h1.78375v0.9758H16.909v1.55542h1.853v0.9758h-2.97322v-5.74792H18.762v0.9758
					H16.909z"/>
				<path fill="#CC4C4C" d="M18.76172,372.918h-2.97266c-0.1105-0.00015-0.20004-0.08969-0.20019-0.2002v-5.74799
					c0.00015-0.1105,0.08969-0.20004,0.20019-0.2002h2.97266c0.1105,0.00015,0.20004,0.08969,0.20019,0.2002v0.97559
					c-0.00015,0.1105-0.08969,0.20004-0.20019,0.2002h-1.65234v0.86475h1.583c0.1105,0.00015,0.20004,0.08969,0.2002,0.2002v0.97607
					c-0.00015,0.1105-0.08969,0.20004-0.2002,0.2002h-1.583v1.15479h1.65234c0.1105,0.00015,0.20004,0.08969,0.20019,0.2002v0.97607
					C18.96173,372.82834,18.8722,372.91785,18.76172,372.918z M15.98926,372.51761h2.57226v-0.57568h-1.65234
					c-0.1105-0.00015-0.20005-0.08969-0.2002-0.2002v-1.55518c0.00015-0.1105,0.08969-0.20004,0.2002-0.2002h1.583v-0.57568h-1.583
					c-0.1105-0.00015-0.20005-0.08969-0.2002-0.2002v-1.26514c0.00015-0.1105,0.08969-0.20004,0.2002-0.2002h1.65234v-0.5752
					h-2.57226V372.51761z"/>
			</g>
			<g>
				<path fill="#D8BB44" d="M22.151,372.71753h-1.12026v-5.74792h1.52419c1.20511,0,1.98965,0.4801,1.98965,1.78375
					c0.11013,0.89337-0.5248,1.70688-1.41817,1.81699c-0.13896,0.01715-0.27954,0.0163-0.41828-0.0025H22.151V372.71753z
					 M22.151,369.63791h0.22932c0.66256,0,1.02165-0.1449,1.02165-0.89236c0-0.73917-0.4274-0.84601-1.05288-0.84601H22.151
					V369.63791z"/>
				<path fill="#D8BB44" d="M22.15137,372.86768h-1.1211c-0.08284,0.00021-0.15018-0.06677-0.15039-0.1496
					c0-0.00012,0-0.00021,0-0.00031v-5.74799c0.00005-0.08286,0.06726-0.14996,0.1501-0.1499c0.0001,0,0.0002,0,0.00029,0h1.52442
					c1.41992,0,2.14062,0.65039,2.14062,1.93359c0.10768,0.97852-0.59829,1.85907-1.57681,1.96674
					c-0.13647,0.01501-0.27421,0.01422-0.41049-0.00238h-0.40625v2c-0.00009,0.08286-0.06732,0.14993-0.15016,0.14984
					C22.15152,372.86768,22.15145,372.86768,22.15137,372.86768z M21.18066,372.56787H22.001v-2
					c0.00005-0.08286,0.06726-0.14996,0.1501-0.1499c0.0001,0,0.0002,0,0.00029,0H22.708
					c0.8117,0.11826,1.56558-0.44388,1.68384-1.25558c0.01975-0.13556,0.02065-0.27316,0.00268-0.40897
					c0-1.11475-0.584-1.63379-1.83984-1.63379h-1.374L21.18066,372.56787z M22.37988,369.7876h-0.22851
					c-0.08284,0.00021-0.15018-0.06677-0.15039-0.1496c0-0.00012,0-0.00021,0-0.00031v-1.73828
					c0.00005-0.08286,0.06726-0.14996,0.1501-0.1499c0.0001,0,0.0002,0,0.00029,0h0.19726c0.582,0,1.2041,0.07666,1.2041,0.99609
					C23.55273,369.61035,23.084,369.7876,22.37988,369.7876z M22.30176,369.48779h0.07812c0.61524,0,0.87207-0.103,0.87207-0.74219
					c0-0.5957-0.27832-0.69629-0.90332-0.69629h-0.04687V369.48779z"/>
			</g>
			<g>
				<path fill="#D8BB44" d="M27.69737,367.9454v1.26511h1.78375v0.9758h-1.78375v1.55542h1.853v0.9758h-2.97321v-5.74792h2.97324
					v0.9758H27.69737z"/>
				<path fill="#D8BB44" d="M29.55078,372.86768h-2.97363c-0.08284,0.00021-0.15018-0.06677-0.15039-0.1496
					c0-0.00012,0-0.00021,0-0.00031v-5.74799c0.00005-0.08286,0.06726-0.14996,0.1501-0.1499c0.0001,0,0.0002,0,0.00029,0h2.97363
					c0.08284-0.00021,0.15018,0.06677,0.15039,0.1496c0,0.00012,0,0.00021,0,0.00031v0.97559
					c-0.00005,0.08286-0.06726,0.14996-0.1501,0.1499c-0.0001,0-0.0002,0-0.00029,0h-1.70312v0.96533h1.63379
					c0.08284-0.00021,0.15018,0.06677,0.15039,0.1496c0,0.00012,0,0.00021,0,0.00031v0.97607
					c-0.00005,0.08286-0.06726,0.14996-0.1501,0.1499c-0.0001,0-0.0002,0-0.00029,0h-1.63379v1.25537h1.70312
					c0.08284-0.00021,0.15018,0.06677,0.15039,0.1496c0,0.00012,0,0.00021,0,0.00031v0.97607
					c-0.00009,0.08286-0.06732,0.14993-0.15016,0.14984C29.55093,372.86768,29.55086,372.86768,29.55078,372.86768z
					 M26.72754,372.56787h2.67285v-0.67627h-1.70312c-0.08284,0.00021-0.15018-0.06677-0.15039-0.1496
					c0-0.00012,0-0.00021,0-0.00031v-1.55518c0.00005-0.08286,0.06726-0.14996,0.1501-0.1499c0.0001,0,0.0002,0,0.00029,0h1.63378
					v-0.67627h-1.63378c-0.08284,0.00021-0.15018-0.06677-0.15039-0.1496c0-0.00012,0-0.00021,0-0.00031v-1.26514
					c0.00005-0.08286,0.06726-0.14996,0.1501-0.1499c0.0001,0,0.0002,0,0.00029,0h1.70312v-0.67578h-2.67285V372.56787z"/>
			</g>
			<g>
				<path fill="#10A687" d="M32.93933,371.74173H34.525v0.9758h-2.70588v-5.74792h1.12021V371.74173z"/>
				<path fill="#10A687" d="M34.52539,372.86768h-2.70605c-0.08284,0.00021-0.15018-0.06677-0.15039-0.1496
					c0-0.00012,0-0.00021,0-0.00031v-5.74799c0.00005-0.08286,0.06726-0.14996,0.1501-0.1499c0.0001,0,0.0002,0,0.00029,0h1.12011
					c0.08284-0.00021,0.15017,0.06677,0.15039,0.1496c0,0.00012,0,0.00021,0,0.00031v4.62207h1.43555
					c0.08284-0.00021,0.15017,0.06677,0.15039,0.1496c0,0.00012,0,0.00021,0,0.00031v0.97607
					c-0.00009,0.08286-0.06731,0.14993-0.15016,0.14984C34.52555,372.86768,34.52547,372.86768,34.52539,372.86768z
					 M31.96973,372.56787H34.375v-0.67627h-1.43555c-0.08284,0.00021-0.15017-0.06677-0.15039-0.1496c0-0.00012,0-0.00021,0-0.00031
					v-4.62207h-0.81933L31.96973,372.56787z"/>
			</g>
			<g>
				<path fill="#10A687" d="M40.20315,371.74173v0.9758H36.0326l2.53121-4.77213H36.421v-0.9758h3.91879l-2.52341,4.77213H40.20315z
					"/>
				<path fill="#10A687" d="M40.20313,372.86768h-4.1709c-0.05277,0.00009-0.10171-0.02753-0.12891-0.07275
					c-0.02661-0.0452-0.02809-0.10092-0.00391-0.14746l2.415-4.55225H36.4209c-0.08284,0.00021-0.15017-0.06677-0.15039-0.1496
					c0-0.00012,0-0.00021,0-0.00031v-0.97559c0.00005-0.08286,0.06725-0.14996,0.1501-0.1499c0.0001,0,0.00019,0,0.00029,0h3.91894
					c0.05264-0.00006,0.1015,0.02731,0.12891,0.07227c0.02661,0.04538,0.02808,0.10123,0.00391,0.14795l-2.40723,4.55176h2.1377
					c0.08284-0.00021,0.15017,0.06677,0.15039,0.1496c0,0.00012,0,0.00021,0,0.00031v0.97607
					c-0.00005,0.08286-0.06725,0.14996-0.1501,0.1499C40.20332,372.86768,40.20323,372.86768,40.20313,372.86768z
					 M36.28125,372.56787h3.77148v-0.67627h-2.23632c-0.05264,0.00006-0.10151-0.02731-0.12891-0.07227
					c-0.02663-0.04538-0.02811-0.10129-0.00391-0.14801l2.40723-4.55176h-3.51953v0.67578h1.99219
					c0.05276-0.00009,0.1017,0.02753,0.1289,0.07275c0.0266,0.0452,0.02808,0.10092,0.00391,0.14746L36.28125,372.56787z"/>
			</g>
			<g>
				<path fill="#098EB7" d="M43.43107,367.9454v1.26511h1.78376v0.9758h-1.78376v1.55542h1.853v0.9758h-2.97321v-5.74792h2.97325
					v0.9758H43.43107z"/>
				<path fill="#098EB7" d="M45.28418,372.86768h-2.97363c-0.08284,0.00021-0.15017-0.06677-0.15039-0.1496
					c0-0.00012,0-0.00021,0-0.00031v-5.74799c0.00005-0.08286,0.06725-0.14996,0.1501-0.1499c0.0001,0,0.00019,0,0.00029,0h2.97363
					c0.08284-0.00021,0.15017,0.06677,0.15039,0.1496c0,0.00012,0,0.00021,0,0.00031v0.97559
					c-0.00005,0.08286-0.06725,0.14996-0.1501,0.1499c-0.0001,0-0.00019,0-0.00029,0h-1.70313v0.96533h1.63379
					c0.08284-0.00021,0.15017,0.06677,0.15039,0.1496c0,0.00012,0,0.00021,0,0.00031v0.97607
					c-0.00005,0.08286-0.06725,0.14996-0.1501,0.1499c-0.0001,0-0.00019,0-0.00029,0h-1.63379v1.25537h1.70313
					c0.08284-0.00021,0.15017,0.06677,0.15039,0.1496c0,0.00012,0,0.00021,0,0.00031v0.97607
					c-0.00009,0.08286-0.06731,0.14993-0.15016,0.14984C45.28434,372.86768,45.28426,372.86768,45.28418,372.86768z
					 M42.46094,372.56787h2.67285v-0.67627h-1.70313c-0.08284,0.00021-0.15017-0.06677-0.15039-0.1496
					c0-0.00012,0-0.00021,0-0.00031v-1.55518c0.00005-0.08286,0.06725-0.14996,0.1501-0.1499c0.0001,0,0.00019,0,0.00029,0h1.63379
					v-0.67627h-1.63379c-0.08284,0.00021-0.15017-0.06677-0.15039-0.1496c0-0.00012,0-0.00021,0-0.00031v-1.26514
					c0.00005-0.08286,0.06725-0.14996,0.1501-0.1499c0.0001,0,0.00019,0,0.00029,0h1.70313v-0.67578h-2.67285V372.56787z"/>
			</g>
			<g>
				<path fill="#098EB7" d="M47.55283,366.81689h0.808l3.02691,4.01785h0.01464v-3.86511h1.12118v5.86209h-0.80795l-3.02692-4.01736
					H48.673v3.90317h-1.12017V366.81689z"/>
				<path fill="#098EB7" d="M52.52344,372.98145h-0.80762c-0.04715,0-0.09159-0.02203-0.12012-0.05957l-2.77246-3.67969v3.47559
					c-0.00005,0.08286-0.06725,0.14996-0.1501,0.1499c-0.0001,0-0.00019,0-0.00029,0h-1.12012
					c-0.08284,0.00021-0.15017-0.06677-0.15039-0.1496c0-0.00012,0-0.00021,0-0.00031v-5.90088
					c0.00005-0.08286,0.06725-0.14996,0.1501-0.1499c0.0001,0,0.00019,0,0.00029,0h0.80762
					c0.04715-0.00003,0.0916,0.02203,0.12012,0.05957l2.77148,3.67969v-3.43652c0.00005-0.08286,0.06725-0.14996,0.1501-0.1499
					c0.0001,0,0.00019,0,0.00029,0h1.1211c0.08284-0.00021,0.15017,0.06677,0.15039,0.1496c0,0.00012,0,0.00021,0,0.00031v5.86182
					c-0.00005,0.08286-0.06725,0.14996-0.1501,0.1499C52.52364,372.98145,52.52354,372.98145,52.52344,372.98145z
					 M51.79102,372.68164h0.582v-5.56201H51.5527v3.71536c-0.00005,0.08286-0.06725,0.14996-0.1501,0.1499
					c-0.0001,0-0.00019,0-0.00029,0c-0.05135,0.00021-0.10035-0.02145-0.13476-0.05957l-2.98242-3.9585h-0.582v5.60107h0.81933
					v-3.75342c0.00005-0.08286,0.06725-0.14996,0.1501-0.1499c0.0001,0,0.00019,0,0.00029,0
					c0.05163-0.00021,0.10094,0.02142,0.13574,0.05957L51.79102,372.68164z"/>
			</g>
		</g>
		<g>
			<rect x="9.87485" y="364.82104" fill="#E6E6E6" width="42.88704" height="0.89929"/>
			<path fill="#E6E6E6" d="M52.76172,365.87012H9.875c-0.08284,0.00021-0.15017-0.06677-0.15039-0.1496
				c0-0.00012,0-0.00021,0-0.00031v-0.89941c0.00005-0.08286,0.06725-0.14996,0.1501-0.1499c0.0001,0,0.0002,0,0.00029,0h42.88672
				c0.08284-0.00021,0.15017,0.06677,0.15039,0.1496c0,0.00012,0,0.00021,0,0.00031v0.89941
				c-0.00005,0.08286-0.06725,0.14996-0.1501,0.1499C52.76191,365.87012,52.76182,365.87012,52.76172,365.87012z
				 M10.02539,365.57031h42.58594v-0.59961H10.02539V365.57031z"/>
		</g>
		<g>
			<rect x="10.01403" y="374.27966" fill="#E6E6E6" width="42.88704" height="0.89929"/>
			<path fill="#E6E6E6" d="M52.90137,375.3291h-42.8877c-0.08284,0.00021-0.15017-0.06677-0.15039-0.1496
				c0-0.00012,0-0.00021,0-0.00031v-0.89941c0.00005-0.08286,0.06725-0.14996,0.1501-0.1499c0.0001,0,0.0002,0,0.00029,0h42.8877
				c0.08284-0.00021,0.15017,0.06677,0.15039,0.1496c0,0.00012,0,0.00021,0,0.00031v0.89941
				c-0.00005,0.08286-0.06725,0.14996-0.1501,0.1499C52.90157,375.3291,52.90147,375.3291,52.90137,375.3291z M10.16406,375.0293
				H52.751v-0.59961H10.16406V375.0293z"/>
		</g>
	</g>
	<g>
		<g>
			<path fill="#313131" d="M43.41549,237.36279c-5.80185,0.87474-9.79606,6.28719-8.92132,12.08902
				c0.48371,3.20828,2.40696,6.01965,5.22183,7.63318"/>
			<path fill="#098EB7" d="M39.71582,257.58499c-0.08739,0.00006-0.17326-0.02283-0.249-0.06641
				c-5.32997-3.05528-7.17396-9.85287-4.11867-15.18285c1.68953-2.9474,4.63332-4.96115,7.99267-5.46754
				c0.27222-0.03694,0.5243,0.14973,0.56836,0.4209c0.04081,0.27286-0.14711,0.52721-0.41992,0.56836
				c-5.52864,0.83362-9.33472,5.99124-8.5011,11.51988c0.46101,3.05746,2.29399,5.7366,4.97668,7.27406
				c0.23947,0.13751,0.32212,0.44312,0.1846,0.68259c-0.08916,0.15527-0.25455,0.25101-0.43361,0.25101H39.71582z"/>
		</g>
		<g>
			<path fill="#313131" d="M50.26114,257.09811c5.09768-2.90532,6.87493-9.39304,3.9696-14.49072
				c-1.59678-2.80171-4.37968-4.72652-7.56461-5.23207"/>
			<path fill="#098EB7" d="M50.26074,257.59814c-0.27605,0.00027-0.50005-0.22327-0.50033-0.49933
				c-0.00018-0.17975,0.09616-0.34573,0.25233-0.43475c4.85796-2.76753,6.5526-8.94922,3.78507-13.80717
				c-1.52151-2.67079-4.17407-4.50563-7.20988-4.98726c-0.2728-0.04384-0.4584-0.30054-0.41455-0.57333
				c0.04369-0.2718,0.29877-0.45724,0.5708-0.41495c6.06757,0.96254,10.20602,6.66156,9.24348,12.72913
				c-0.52911,3.33534-2.54475,6.24973-5.47883,7.92175C50.43338,257.57565,50.34779,257.59839,50.26074,257.59814z"/>
		</g>
	</g>
	<g>
		<path fill="#AFAFAF" d="M9.71582,257.58499c-0.08739,0.00006-0.17325-0.02283-0.249-0.06641
			c-5.32997-3.05528-7.17396-9.85287-4.11867-15.18285c1.68953-2.9474,4.63332-4.96115,7.99267-5.46754
			c0.27333-0.03995,0.5273,0.14925,0.56725,0.42258c0.03973,0.27187-0.14726,0.52487-0.41881,0.56668
			c-5.52864,0.83362-9.33472,5.99124-8.5011,11.51988c0.46101,3.05746,2.29399,5.7366,4.97668,7.27406
			c0.23947,0.13751,0.32212,0.44312,0.1846,0.68259c-0.08916,0.15527-0.25455,0.25101-0.4336,0.25101H9.71582z"/>
		<path fill="#AFAFAF" d="M20.26074,257.59814c-0.27605,0.00027-0.50006-0.22327-0.50033-0.49933
			c-0.00018-0.17975,0.09617-0.34576,0.25233-0.43475c4.85796-2.76753,6.5526-8.94922,3.78507-13.80717
			c-1.52151-2.67079-4.17407-4.50563-7.20988-4.98726c-0.2728-0.04384-0.4584-0.30054-0.41455-0.57333
			c0.04369-0.2718,0.29877-0.45724,0.5708-0.41495c6.06757,0.96254,10.20602,6.66156,9.24348,12.72913
			c-0.5291,3.33534-2.54475,6.24973-5.47883,7.92175C20.43338,257.57565,20.3478,257.59839,20.26074,257.59814z"/>
	</g>
</g>
<path fill="#AFAFAF" d="M33.75488,4.37159C32.87005,4.4082,32.18244,5.15517,32.21905,6.04
	c0.00065,0.01565,0.00152,0.03129,0.00263,0.04692c0,0.84034,0.40137,1.82178,1.5332,1.82178
	c1.13086,0,1.53223-0.98144,1.53223-1.82178c0.06263-0.88328-0.60264-1.6501-1.48592-1.71273
	C33.78577,4.3731,33.77033,4.37223,33.75488,4.37159z"/>
</svg>
