<?xml version="1.0" encoding="utf-8"?>
<!-- Generator: Adobe Illustrator 23.0.3, SVG Export Plug-In . SVG Version: 6.00 Build 0)  -->
<svg version="1.0" id="Layer_1" xmlns="http://www.w3.org/2000/svg" xmlns:xlink="http://www.w3.org/1999/xlink" x="0px" y="0px"
	 width="60px" height="380px" viewBox="0 0 60 380" enable-background="new 0 0 60 380" xml:space="preserve">
<g>
	<path id="path33453_13_" fill="#313131" d="M0,0h60v380H0V0z"/>
	<g>
		<g>
			<g>
				<path fill="#AFAFAF" stroke="#AFAFAF" stroke-width="0.4" stroke-linejoin="round" stroke-miterlimit="10" d="M9.2915,19.21476
					l-0.77441,1.70117H7.60791l3.24121-7.07617l3.24121,7.07617h-0.90918l-0.77441-1.70117H9.2915z M10.84912,15.69425
					l-1.20605,2.74609h2.41211L10.84912,15.69425z"/>
				<path fill="#AFAFAF" stroke="#AFAFAF" stroke-width="0.4" stroke-linejoin="round" stroke-miterlimit="10" d="
					M15.72607,18.94425c0.00977,0.7207,0.49512,1.39551,1.26953,1.39551c0.62109,0,0.9541-0.31445,1.26074-0.81934l0.68359,0.3877
					c-0.39551,0.72852-1.13379,1.15234-1.95313,1.15234c-1.28711,0-2.07031-0.97266-2.07031-2.21484
					c0-1.29688,0.69336-2.26855,2.05273-2.26855c1.34082,0,1.9707,0.99023,1.9707,2.24121v0.12598H15.72607z M18.13037,18.33195
					c-0.09961-0.62988-0.51367-1.05273-1.16113-1.05273c-0.63086,0-1.09863,0.4502-1.19824,1.05273H18.13037z"/>
				<path fill="#AFAFAF" stroke="#AFAFAF" stroke-width="0.4" stroke-linejoin="round" stroke-miterlimit="10" d="M21.0542,17.40519
					h0.01758c0.33301-0.50391,0.83789-0.82813,1.46777-0.82813c1.21484,0,1.98047,1.05273,1.98047,2.20508
					c0,1.20703-0.7207,2.27832-2.0166,2.27832c-0.59375,0-1.10742-0.32422-1.43164-0.80176H21.0542v3.07031h-0.81055v-6.62598
					h0.81055V17.40519z M23.70947,18.80948c0-0.81934-0.49512-1.5127-1.36816-1.5127c-0.83691,0-1.33203,0.72949-1.33203,1.5127
					c0,0.79199,0.47656,1.53027,1.33203,1.53027C23.22314,20.33976,23.70947,19.63761,23.70947,18.80948z"/>
				<path fill="#AFAFAF" stroke="#AFAFAF" stroke-width="0.4" stroke-linejoin="round" stroke-miterlimit="10" d="
					M26.47217,18.94425c0.00977,0.7207,0.49512,1.39551,1.26953,1.39551c0.62109,0,0.9541-0.31445,1.26074-0.81934l0.68359,0.3877
					c-0.39551,0.72852-1.13379,1.15234-1.95313,1.15234c-1.28711,0-2.07031-0.97266-2.07031-2.21484
					c0-1.29688,0.69336-2.26855,2.05273-2.26855c1.34082,0,1.9707,0.99023,1.9707,2.24121v0.12598H26.47217z M28.87646,18.33195
					c-0.09961-0.62988-0.51367-1.05273-1.16113-1.05273c-0.63086,0-1.09863,0.4502-1.19824,1.05273H28.87646z"/>
				<path fill="#AFAFAF" stroke="#AFAFAF" stroke-width="0.4" stroke-linejoin="round" stroke-miterlimit="10" d="
					M31.89893,20.91593h-0.81055v-7.81445h0.81055V20.91593z"/>
				<path fill="#AFAFAF" stroke="#AFAFAF" stroke-width="0.4" stroke-linejoin="round" stroke-miterlimit="10" d="
					M37.49756,20.16007v0.75586h-4.3125l2.85449-3.45703h-2.36816v-0.75586h3.94336l-2.85352,3.45703H37.49756z"/>
				<path fill="#AFAFAF" stroke="#AFAFAF" stroke-width="0.4" stroke-linejoin="round" stroke-miterlimit="10" d="
					M39.34131,18.94425c0.00977,0.7207,0.49512,1.39551,1.26953,1.39551c0.62109,0,0.9541-0.31445,1.26074-0.81934l0.68359,0.3877
					c-0.39551,0.72852-1.13379,1.15234-1.95313,1.15234c-1.28711,0-2.07031-0.97266-2.07031-2.21484
					c0-1.29688,0.69336-2.26855,2.05273-2.26855c1.34082,0,1.9707,0.99023,1.9707,2.24121v0.12598H39.34131z M41.74561,18.33195
					c-0.09961-0.62988-0.51367-1.05273-1.16113-1.05273c-0.63086,0-1.09863,0.4502-1.19824,1.05273H41.74561z"/>
				<path fill="#AFAFAF" stroke="#AFAFAF" stroke-width="0.4" stroke-linejoin="round" stroke-miterlimit="10" d="
					M44.73291,17.27042h0.01855c0.25195-0.4502,0.75586-0.69336,1.26953-0.69336c1.1875,0,1.49414,0.80078,1.49414,1.82715v2.51172
					h-0.81055v-2.41211c0-0.7207-0.09863-1.20703-0.92676-1.20703c-1.04492,0-1.04492,0.91895-1.04492,1.68359v1.93555h-0.80957
					v-4.21289h0.80957V17.27042z"/>
				<path fill="#AFAFAF" stroke="#AFAFAF" stroke-width="0.4" stroke-linejoin="round" stroke-miterlimit="10" d="
					M50.99756,17.66593c-0.09961-0.20703-0.30664-0.36914-0.54004-0.36914c-0.22559,0-0.44141,0.18066-0.44141,0.41406
					c0,0.36914,0.48633,0.53125,0.98145,0.75684c0.49512,0.22461,0.97168,0.53125,0.97168,1.19727
					c0,0.80078-0.66602,1.39551-1.44922,1.39551c-0.6123,0-1.2334-0.35156-1.45801-0.94531l0.69336-0.31543
					c0.1709,0.31543,0.37793,0.54004,0.76465,0.54004c0.3418,0,0.63965-0.2334,0.63965-0.59375
					c0-0.22559-0.1084-0.33301-0.29785-0.45898l-0.79199-0.42383c-0.46777-0.25195-0.81055-0.48535-0.81055-1.06152
					c0-0.68457,0.55859-1.22461,1.24316-1.22461c0.5127,0,0.92676,0.2793,1.15234,0.73828L50.99756,17.66593z"/>
				<path fill="#AFAFAF" stroke="#AFAFAF" stroke-width="0.4" stroke-linejoin="round" stroke-miterlimit="10" d="
					M13.64697,28.23429h0.01758c0.23438-0.36914,0.65723-0.65723,1.11621-0.65723c0.54883,0,0.94531,0.2793,1.21582,0.74707
					c0.26074-0.4502,0.76465-0.74707,1.2959-0.74707c1.10742,0,1.39551,0.86426,1.39551,1.81836v2.52051h-0.81055v-2.38574
					c0-0.54004-0.07129-1.2334-0.7832-1.2334c-0.86426,0-0.92676,0.90039-0.92676,1.54883v2.07031h-0.81055v-2.23242
					c0-0.54883-0.02734-1.38672-0.77441-1.38672c-0.86426,0-0.93555,0.8916-0.93555,1.54883v2.07031h-0.81055v-4.21289h0.81055
					V28.23429z"/>
				<path fill="#AFAFAF" stroke="#AFAFAF" stroke-width="0.4" stroke-linejoin="round" stroke-miterlimit="10" d="
					M24.56494,29.81827c0,1.26953-0.99023,2.24219-2.25098,2.24219s-2.25098-0.97266-2.25098-2.24219
					s0.99023-2.24121,2.25098-2.24121S24.56494,28.54874,24.56494,29.81827z M20.87354,29.81827
					c0,0.79297,0.63965,1.46777,1.44043,1.46777c0.80176,0,1.44043-0.6748,1.44043-1.46777c0-0.80078-0.63867-1.4668-1.44043-1.4668
					C21.51318,28.35148,20.87354,29.01749,20.87354,29.81827z"/>
				<path fill="#AFAFAF" stroke="#AFAFAF" stroke-width="0.4" stroke-linejoin="round" stroke-miterlimit="10" d="M29.11865,31.2587
					H29.1001c-0.32324,0.47754-0.83691,0.80176-1.43066,0.80176c-1.29688,0-2.0166-1.07129-2.0166-2.27832
					c0-1.15234,0.76465-2.20508,1.98047-2.20508c0.62988,0,1.13379,0.32422,1.4668,0.82813h0.01855v-4.30371h0.81055v7.81445
					h-0.81055V31.2587z M29.16357,29.80948c0-0.81934-0.49512-1.5127-1.36816-1.5127c-0.83789,0-1.33301,0.72949-1.33301,1.5127
					c0,0.79199,0.47754,1.53027,1.33301,1.53027C28.67725,31.33976,29.16357,30.63761,29.16357,29.80948z"/>
				<path fill="#AFAFAF" stroke="#AFAFAF" stroke-width="0.4" stroke-linejoin="round" stroke-miterlimit="10" d="M32.4292,27.70304
					v2.33203c0,0.6748,0.17188,1.26855,0.97266,1.26855s0.97266-0.59375,0.97266-1.26855v-2.33203h0.80957v2.42188
					c0,1.15234-0.54004,1.93555-1.78223,1.93555s-1.78223-0.78321-1.78223-1.93555v-2.42188H32.4292z"/>
				<path fill="#AFAFAF" stroke="#AFAFAF" stroke-width="0.4" stroke-linejoin="round" stroke-miterlimit="10" d="
					M37.78467,31.91593h-0.81055v-7.81445h0.81055V31.91593z"/>
				<path fill="#AFAFAF" stroke="#AFAFAF" stroke-width="0.4" stroke-linejoin="round" stroke-miterlimit="10" d="
					M40.09717,29.94425c0.00977,0.7207,0.49512,1.39551,1.26953,1.39551c0.62109,0,0.9541-0.31445,1.26074-0.81934l0.68359,0.3877
					c-0.39551,0.72852-1.13379,1.15235-1.95313,1.15235c-1.28711,0-2.07031-0.97266-2.07031-2.21485
					c0-1.29688,0.69336-2.26855,2.05273-2.26855c1.34082,0,1.9707,0.99023,1.9707,2.24121v0.12598H40.09717z M42.50146,29.33195
					c-0.09961-0.62988-0.51367-1.05273-1.16113-1.05273c-0.63086,0-1.09863,0.4502-1.19824,1.05273H42.50146z"/>
				<path fill="#AFAFAF" stroke="#AFAFAF" stroke-width="0.4" stroke-linejoin="round" stroke-miterlimit="10" d="
					M46.37061,28.66593c-0.09961-0.20703-0.30664-0.36914-0.54004-0.36914c-0.22559,0-0.44141,0.18066-0.44141,0.41406
					c0,0.36914,0.48633,0.53125,0.98145,0.75684c0.49512,0.22461,0.97168,0.53125,0.97168,1.19727
					c0,0.80078-0.66602,1.39551-1.44922,1.39551c-0.6123,0-1.2334-0.35156-1.45801-0.94531l0.69336-0.31543
					c0.1709,0.31543,0.37793,0.54004,0.76465,0.54004c0.3418,0,0.63965-0.2334,0.63965-0.59375
					c0-0.22559-0.1084-0.33301-0.29785-0.45898l-0.79199-0.42383c-0.46777-0.25195-0.81055-0.48535-0.81055-1.06152
					c0-0.68457,0.55859-1.22461,1.24316-1.22461c0.5127,0,0.92676,0.2793,1.15234,0.73828L46.37061,28.66593z"/>
				<path fill="#AFAFAF" stroke="#AFAFAF" stroke-width="0.4" stroke-linejoin="round" stroke-miterlimit="10" d="M6.76221,50.38761
					h0.02637c0.19824-0.49609,0.6123-0.81055,1.15234-0.81055c0.23438,0,0.46875,0.08105,0.66602,0.20703l-0.36914,0.73828
					c-0.14355-0.12598-0.30566-0.1709-0.49512-0.1709c-0.87305,0-0.98047,0.80957-0.98047,1.49414v2.07031H5.95166v-4.21289h0.81055
					V50.38761z"/>
				<path fill="#AFAFAF" stroke="#AFAFAF" stroke-width="0.4" stroke-linejoin="round" stroke-miterlimit="10" d="
					M10.21729,51.94425c0.00977,0.7207,0.49512,1.39551,1.26953,1.39551c0.62109,0,0.9541-0.31445,1.26074-0.81934l0.68359,0.3877
					c-0.39551,0.72852-1.13379,1.15234-1.95313,1.15234c-1.28711,0-2.07031-0.97266-2.07031-2.21484
					c0-1.29688,0.69336-2.26855,2.05273-2.26855c1.34082,0,1.9707,0.99023,1.9707,2.24121v0.12598H10.21729z M12.62158,51.33195
					c-0.09961-0.62988-0.51367-1.05273-1.16113-1.05273c-0.63086,0-1.09863,0.4502-1.19824,1.05273H12.62158z"/>
				<path fill="#AFAFAF" stroke="#AFAFAF" stroke-width="0.4" stroke-linejoin="round" stroke-miterlimit="10" d="
					M15.94189,47.77628c0,0.30664-0.25195,0.54883-0.55762,0.54883c-0.30664,0-0.55859-0.24219-0.55859-0.54883
					c0-0.31543,0.25195-0.56738,0.55859-0.56738C15.68994,47.2089,15.94189,47.46085,15.94189,47.77628z M15.78955,53.91593H14.979
					v-4.21289h0.81055V53.91593z"/>
				<path fill="#AFAFAF" stroke="#AFAFAF" stroke-width="0.4" stroke-linejoin="round" stroke-miterlimit="10" d="
					M18.54346,50.23429h0.01758c0.23438-0.36914,0.65723-0.65723,1.11621-0.65723c0.54883,0,0.94531,0.2793,1.21582,0.74707
					c0.26074-0.4502,0.76465-0.74707,1.2959-0.74707c1.10742,0,1.39551,0.86426,1.39551,1.81836v2.52051h-0.81055v-2.38574
					c0-0.54004-0.07129-1.2334-0.7832-1.2334c-0.86426,0-0.92676,0.90039-0.92676,1.54883v2.07031h-0.81055v-2.23242
					c0-0.54883-0.02734-1.38672-0.77441-1.38672c-0.86426,0-0.93555,0.8916-0.93555,1.54883v2.07031h-0.81055v-4.21289h0.81055
					V50.23429z"/>
				<path fill="#AFAFAF" stroke="#AFAFAF" stroke-width="0.4" stroke-linejoin="round" stroke-miterlimit="10" d="
					M29.28955,53.91593H28.479v-0.65723h-0.01855c-0.32324,0.47754-0.82813,0.80176-1.43066,0.80176
					c-1.28809,0-2.0166-1.07129-2.0166-2.27832c0-1.15234,0.76465-2.20508,1.98926-2.20508c0.62109,0,1.125,0.32422,1.45801,0.82813
					H28.479v-0.70215h0.81055V53.91593z M28.52393,51.80949c0-0.81934-0.49512-1.5127-1.36816-1.5127
					c-0.83789,0-1.33301,0.72949-1.33301,1.5127c0,0.79199,0.47754,1.53027,1.33301,1.53027
					C28.0376,53.33976,28.52393,52.63761,28.52393,51.80949z"/>
				<path fill="#AFAFAF" stroke="#AFAFAF" stroke-width="0.4" stroke-linejoin="round" stroke-miterlimit="10" d="
					M34.95947,53.83488c0,1.4502-0.41406,2.49414-2.05176,2.49414c-1.1709,0-2.01758-0.7207-2.03516-1.9082h0.81055
					c0,0.75586,0.52148,1.1875,1.25977,1.1875c1,0,1.20703-0.68359,1.20703-1.54785v-0.80176h-0.01855
					c-0.32422,0.47754-0.83691,0.80176-1.43164,0.80176c-1.2959,0-2.0166-1.07129-2.0166-2.27832
					c0-1.15234,0.76563-2.20508,1.98145-2.20508c0.62988,0,1.13379,0.32422,1.4668,0.8457h0.01855v-0.71973h0.80957V53.83488z
					 M34.19482,51.80949c0-0.81934-0.49512-1.5127-1.36816-1.5127c-0.83789,0-1.33301,0.72949-1.33301,1.5127
					c0,0.79199,0.47754,1.53027,1.33301,1.53027C33.7085,53.33976,34.19482,52.63761,34.19482,51.80949z"/>
				<path fill="#AFAFAF" stroke="#AFAFAF" stroke-width="0.4" stroke-linejoin="round" stroke-miterlimit="10" d="
					M37.82959,47.77628c0,0.30664-0.25195,0.54883-0.55762,0.54883c-0.30664,0-0.55859-0.24219-0.55859-0.54883
					c0-0.31543,0.25195-0.56738,0.55859-0.56738C37.57764,47.2089,37.82959,47.46085,37.82959,47.77628z M37.67725,53.91593H36.8667
					v-4.21289h0.81055V53.91593z"/>
				<path fill="#AFAFAF" stroke="#AFAFAF" stroke-width="0.4" stroke-linejoin="round" stroke-miterlimit="10" d="
					M40.45752,50.27042h0.01855c0.25195-0.4502,0.75586-0.69336,1.26953-0.69336c1.1875,0,1.49414,0.80078,1.49414,1.82715v2.51172
					H42.4292v-2.41211c0-0.7207-0.09863-1.20703-0.92676-1.20703c-1.04492,0-1.04492,0.91895-1.04492,1.68359v1.93555h-0.80957
					v-4.21289h0.80957V50.27042z"/>
				<path fill="#AFAFAF" stroke="#AFAFAF" stroke-width="0.4" stroke-linejoin="round" stroke-miterlimit="10" d="
					M45.51514,51.94425c0.00977,0.7207,0.49512,1.39551,1.26953,1.39551c0.62109,0,0.9541-0.31445,1.26074-0.81934l0.68359,0.3877
					c-0.39551,0.72852-1.13379,1.15234-1.95313,1.15234c-1.28711,0-2.07031-0.97266-2.07031-2.21484
					c0-1.29688,0.69336-2.26855,2.05273-2.26855c1.34082,0,1.9707,0.99023,1.9707,2.24121v0.12598H45.51514z M47.91943,51.33195
					c-0.09961-0.62988-0.51367-1.05273-1.16113-1.05273c-0.63086,0-1.09863,0.4502-1.19824,1.05273H47.91943z"/>
				<path fill="#AFAFAF" stroke="#AFAFAF" stroke-width="0.4" stroke-linejoin="round" stroke-miterlimit="10" d="
					M53.23779,53.25871h-0.01855c-0.32324,0.47754-0.83691,0.80176-1.43066,0.80176c-1.29688,0-2.0166-1.07129-2.0166-2.27832
					c0-1.15234,0.76465-2.20508,1.98047-2.20508c0.62988,0,1.13379,0.32422,1.4668,0.82813h0.01855v-4.30371h0.81055v7.81445
					h-0.81055V53.25871z M53.28271,51.80949c0-0.81934-0.49512-1.5127-1.36816-1.5127c-0.83789,0-1.33301,0.72949-1.33301,1.5127
					c0,0.79199,0.47754,1.53027,1.33301,1.53027C52.79639,53.33976,53.28271,52.63761,53.28271,51.80949z"/>
				<path fill="#AFAFAF" stroke="#AFAFAF" stroke-width="0.4" stroke-linejoin="round" stroke-miterlimit="10" d="M9.93408,57.10148
					h0.81055v4.30371h0.01758c0.33301-0.50391,0.83691-0.82813,1.46777-0.82813c1.21484,0,1.98047,1.05273,1.98047,2.20508
					c0,1.20703-0.7207,2.27832-2.0166,2.27832c-0.59473,0-1.10742-0.32422-1.43164-0.80176h-0.01758v0.65723H9.93408V57.10148z
					 M13.3999,62.80949c0-0.81934-0.49512-1.5127-1.36816-1.5127c-0.83691,0-1.33203,0.72949-1.33203,1.5127
					c0,0.79199,0.47656,1.53027,1.33203,1.53027C12.91357,64.33976,13.3999,63.63761,13.3999,62.80949z"/>
				<path fill="#AFAFAF" stroke="#AFAFAF" stroke-width="0.4" stroke-linejoin="round" stroke-miterlimit="10" d="
					M15.00049,60.70304h0.94531l1.42285,2.67383l1.32324-2.67383h0.90918l-3.41211,6.62598H15.271l1.65625-3.13281
					L15.00049,60.70304z"/>
				<path fill="#AFAFAF" stroke="#AFAFAF" stroke-width="0.4" stroke-linejoin="round" stroke-miterlimit="10" d="
					M25.42334,63.38566l1.24219-2.91699l1.2334,2.91699l1.22363-2.68262h0.91895l-2.14258,4.35742l-1.2334-2.81836l-1.24219,2.81836
					l-2.14258-4.35742h0.91797L25.42334,63.38566z"/>
				<path fill="#AFAFAF" stroke="#AFAFAF" stroke-width="0.4" stroke-linejoin="round" stroke-miterlimit="10" d="
					M32.26318,58.77628c0,0.30664-0.25195,0.54883-0.55762,0.54883c-0.30664,0-0.55859-0.24219-0.55859-0.54883
					c0-0.31543,0.25195-0.56738,0.55859-0.56738C32.01123,58.2089,32.26318,58.46085,32.26318,58.77628z M32.11084,64.91593
					h-0.81055v-4.21289h0.81055V64.91593z"/>
				<path fill="#AFAFAF" stroke="#AFAFAF" stroke-width="0.4" stroke-linejoin="round" stroke-miterlimit="10" d="
					M38.03369,67.32902h-0.81055v-3.07031h-0.01855c-0.32324,0.47754-0.83691,0.80176-1.43066,0.80176
					c-1.29688,0-2.0166-1.07129-2.0166-2.27832c0-1.15234,0.76465-2.20508,1.98047-2.20508
					c0.62988,0,1.13379,0.32422,1.4668,0.82813h0.01855v-0.70215h0.81055V67.32902z M37.26807,62.80949
					c0-0.81934-0.49512-1.5127-1.36816-1.5127c-0.83789,0-1.33301,0.72949-1.33301,1.5127
					c0,0.79199,0.47754,1.53027,1.33301,1.53027C36.78174,64.33976,37.26807,63.63761,37.26807,62.80949z"/>
				<path fill="#AFAFAF" stroke="#AFAFAF" stroke-width="0.4" stroke-linejoin="round" stroke-miterlimit="10" d="
					M40.90283,58.77628c0,0.30664-0.25195,0.54883-0.55762,0.54883c-0.30664,0-0.55859-0.24219-0.55859-0.54883
					c0-0.31543,0.25195-0.56738,0.55859-0.56738C40.65088,58.2089,40.90283,58.46085,40.90283,58.77628z M40.75049,64.91593
					h-0.81055v-4.21289h0.81055V64.91593z"/>
				<path fill="#AFAFAF" stroke="#AFAFAF" stroke-width="0.4" stroke-linejoin="round" stroke-miterlimit="10" d="
					M45.86279,64.25871h-0.01855c-0.32324,0.47754-0.83691,0.80176-1.43066,0.80176c-1.29688,0-2.0166-1.07129-2.0166-2.27832
					c0-1.15234,0.76465-2.20508,1.98047-2.20508c0.62988,0,1.13379,0.32422,1.4668,0.82813h0.01855v-4.30371h0.81055v7.81445
					h-0.81055V64.25871z M45.90771,62.80949c0-0.81934-0.49512-1.5127-1.36816-1.5127c-0.83789,0-1.33301,0.72949-1.33301,1.5127
					c0,0.79199,0.47754,1.53027,1.33301,1.53027C45.42139,64.33976,45.90771,63.63761,45.90771,62.80949z"/>
				<path fill="#AFAFAF" stroke="#AFAFAF" stroke-width="0.4" stroke-linejoin="round" stroke-miterlimit="10" d="M19.9751,74.99796
					c-0.51367,0.60352-1.2334,1.0625-2.03516,1.0625c-1.13379,0-2.0791-0.82813-2.0791-1.99902
					c0-0.86426,0.54004-1.33203,1.1875-1.80078l0.42383-0.30566c-0.3877-0.40527-0.74707-0.90918-0.74707-1.48535
					c0-0.93652,0.6748-1.48535,1.56641-1.48535c0.82813,0,1.56641,0.52246,1.56641,1.41309
					c0,0.76563-0.66602,1.27832-1.2334,1.69238l1.41309,1.71094l0.79199-0.91797l0.54004,0.55762L20.5415,74.413l1.21582,1.50293
					H20.7124L19.9751,74.99796z M17.88623,72.62101c-0.46875,0.32422-1.2334,0.7832-1.2334,1.43164s0.6123,1.25098,1.25977,1.25098
					c0.63086,0,1.13477-0.47656,1.55762-0.89941l-1.50293-1.83691L17.88623,72.62101z M18.25537,71.43253
					c0.3418-0.26953,0.80957-0.54883,0.80957-1.04395c0-0.47754-0.3418-0.73828-0.79199-0.73828
					c-0.40527,0-0.75586,0.28809-0.75586,0.7207c0,0.3418,0.20703,0.59375,0.40527,0.8457l0.22461,0.28809L18.25537,71.43253z"/>
				<path fill="#AFAFAF" stroke="#AFAFAF" stroke-width="0.4" stroke-linejoin="round" stroke-miterlimit="10" d="
					M26.86768,72.40519h0.01758c0.33301-0.50391,0.83691-0.82813,1.46777-0.82813c1.21484,0,1.98047,1.05273,1.98047,2.20508
					c0,1.20703-0.7207,2.27832-2.0166,2.27832c-0.59473,0-1.10742-0.32422-1.43164-0.80176h-0.01758v3.07031h-0.81055v-6.62598
					h0.81055V72.40519z M29.52295,73.80949c0-0.81934-0.49512-1.5127-1.36816-1.5127c-0.83691,0-1.33203,0.72949-1.33203,1.5127
					c0,0.79199,0.47656,1.53027,1.33203,1.53027C29.03662,75.33976,29.52295,74.63761,29.52295,73.80949z"/>
				<path fill="#AFAFAF" stroke="#AFAFAF" stroke-width="0.4" stroke-linejoin="round" stroke-miterlimit="10" d="
					M31.12354,71.70304h0.94531l1.42285,2.67383l1.32324-2.67383h0.90918l-3.41211,6.62598h-0.91797l1.65625-3.13281
					L31.12354,71.70304z"/>
				<path fill="#AFAFAF" stroke="#AFAFAF" stroke-width="0.4" stroke-linejoin="round" stroke-miterlimit="10" d="
					M37.31592,73.94425c0.00977,0.7207,0.49512,1.39551,1.26953,1.39551c0.62109,0,0.9541-0.31445,1.26074-0.81934l0.68359,0.3877
					c-0.39551,0.72852-1.13379,1.15234-1.95313,1.15234c-1.28711,0-2.07031-0.97266-2.07031-2.21484
					c0-1.29688,0.69336-2.26855,2.05273-2.26855c1.34082,0,1.9707,0.99023,1.9707,2.24121v0.12598H37.31592z M39.72021,73.33195
					c-0.09961-0.62988-0.51367-1.05273-1.16113-1.05273c-0.63086,0-1.09863,0.4502-1.19824,1.05273H39.72021z"/>
				<path fill="#AFAFAF" stroke="#AFAFAF" stroke-width="0.4" stroke-linejoin="round" stroke-miterlimit="10" d="
					M42.76221,72.38761h0.02637c0.19824-0.49609,0.6123-0.81055,1.15234-0.81055c0.23438,0,0.46875,0.08105,0.66602,0.20703
					l-0.36914,0.73828c-0.14355-0.12598-0.30566-0.1709-0.49512-0.1709c-0.87305,0-0.98047,0.80957-0.98047,1.49414v2.07031
					h-0.81055v-4.21289h0.81055V72.38761z"/>
			</g>
		</g>
		<circle fill="#098EB7" cx="29.95361" cy="39.95402" r="1.15602"/>
	</g>
</g>
<title>repelzen_BG</title>
<g>
	<g>
		<path fill="#AFAFAF" stroke="#AFAFAF" stroke-width="0.4" stroke-linejoin="round" stroke-miterlimit="10" d="M23.77637,361.26474
			h-0.89941v-3.83789h-0.49023v-0.83936h0.49023v-1.78906h0.89941v1.78906h0.87891v0.83936h-0.87891V361.26474z"/>
		<path fill="#AFAFAF" stroke="#AFAFAF" stroke-width="0.4" stroke-linejoin="round" stroke-miterlimit="10" d="M26.60352,357.34677
			h0.03027c0.21973-0.5498,0.67969-0.89941,1.2793-0.89941c0.25977,0,0.51953,0.08984,0.73926,0.22998l-0.41016,0.81934
			c-0.15918-0.13965-0.33984-0.18994-0.54883-0.18994c-0.96973,0-1.08984,0.8999-1.08984,1.65918v2.29883H25.7041v-4.67725h0.89941
			C26.60351,356.58749,26.60351,357.34677,26.60352,357.34677z"/>
		<path fill="#AFAFAF" stroke="#AFAFAF" stroke-width="0.4" stroke-linejoin="round" stroke-miterlimit="10" d="M30.91992,354.44833
			c0,0.33984-0.2793,0.60986-0.61914,0.60986s-0.62012-0.27002-0.62012-0.60986c0-0.34961,0.28027-0.62939,0.62012-0.62939
			S30.91992,354.09872,30.91992,354.44833z M30.75,361.26474h-0.89941v-4.67725H30.75V361.26474z"/>
		<path fill="#AFAFAF" stroke="#AFAFAF" stroke-width="0.4" stroke-linejoin="round" stroke-miterlimit="10" d="M37.06641,361.1749
			c0,1.60889-0.45996,2.76855-2.27832,2.76855c-1.2998,0-2.23926-0.7998-2.25879-2.11914h0.89941
			c0,0.83984,0.5791,1.31934,1.39941,1.31934c1.10938,0,1.33887-0.75928,1.33887-1.71924v-0.88916h-0.01953
			c-0.36035,0.52979-0.92969,0.88916-1.58984,0.88916c-1.43848,0-2.23828-1.18896-2.23828-2.52832
			c0-1.2793,0.84961-2.44873,2.19824-2.44873c0.7002,0,1.25977,0.35986,1.62988,0.93945h0.01953v-0.79932h0.89941v4.5874H37.06641z
			 M36.2168,358.92587c0-0.90918-0.5498-1.67871-1.51855-1.67871c-0.92969,0-1.47949,0.80957-1.47949,1.67871
			c0,0.87988,0.5293,1.69922,1.47949,1.69922C35.67773,360.62509,36.2168,359.84531,36.2168,358.92587z"/>
	</g>
</g>
<path fill="#CC4C4C" d="M41.30566,249.79199h-4.10645c-0.1377,0-0.25,0.1123-0.25,0.25v7.54688h-6.04443v-7.25488
	c0-0.1377-0.11182-0.25-0.25-0.25h-4.10596c-0.13818,0-0.25,0.1123-0.25,0.25v7.25488h-4.82324v-7.54688
	c0-0.1377-0.11182-0.25-0.25-0.25h-4.10596c-0.13818,0-0.25,0.1123-0.25,0.25v12.51074c0,0.1377,0.11182,0.25,0.25,0.25h24.18604
	c0.1377,0,0.25-0.1123,0.25-0.25v-12.51074C41.55566,249.9043,41.44336,249.79199,41.30566,249.79199z"/>
<path fill="#CC4C4C" d="M41.30566,235.53223h-8.7959v-2.09375c0-5.21875-2.72656-7.97754-7.88428-7.97754
	c-5.14648,0-7.75586,2.90137-7.75586,8.62207v6.41309c0,0.1377,0.11182,0.25,0.25,0.25h24.18604c0.1377,0,0.25-0.1123,0.25-0.25
	v-4.71387C41.55566,235.64453,41.44336,235.53223,41.30566,235.53223z M21.28271,235.53223v-0.58301
	c0-2.77246,0.51172-4.18066,3.30957-4.18066c2.96289,0,3.50488,1.36328,3.50488,4.04883v0.71484H21.28271z"/>
<path fill="#D8BB44" d="M41.30566,204.39844h-4.10645c-0.1377,0-0.25,0.1123-0.25,0.25v7.54688h-6.04443v-7.25586
	c0-0.1377-0.11182-0.25-0.25-0.25h-4.10596c-0.13818,0-0.25,0.1123-0.25,0.25v7.25586h-4.82324v-7.54688
	c0-0.1377-0.11182-0.25-0.25-0.25h-4.10596c-0.13818,0-0.25,0.1123-0.25,0.25v12.50977c0,0.1377,0.11182,0.25,0.25,0.25h24.18604
	c0.1377,0,0.25-0.1123,0.25-0.25v-12.50977C41.55566,204.51074,41.44336,204.39844,41.30566,204.39844z"/>
<path fill="#D8BB44" d="M41.30566,183.4668h-4.10645c-0.1377,0-0.25,0.11182-0.25,0.25v6.42188H17.11963
	c-0.13818,0-0.25,0.11182-0.25,0.25v4.71387c0,0.1377,0.11182,0.25,0.25,0.25h24.18604c0.1377,0,0.25-0.1123,0.25-0.25V183.7168
	C41.55566,183.57861,41.44336,183.4668,41.30566,183.4668z"/>
<path fill="#10A687" d="M41.30566,159.57471h-4.10645c-0.1377,0-0.25,0.11182-0.25,0.25v9.62793l-19.71289-10.42383
	c-0.07764-0.04053-0.1709-0.03711-0.24561,0.00684c-0.0752,0.04541-0.12109,0.12646-0.12109,0.21436v16.48877
	c0,0.13818,0.11182,0.25,0.25,0.25h4.10596c0.13818,0,0.25-0.11182,0.25-0.25v-8.60059l19.71289,10.45557
	c0.03711,0.01953,0.07715,0.0293,0.11719,0.0293c0.04492,0,0.08887-0.01221,0.12891-0.03564
	c0.0752-0.04541,0.12109-0.12646,0.12109-0.21436v-17.54834C41.55566,159.68652,41.44336,159.57471,41.30566,159.57471z"/>
<path fill="#10A687" d="M41.30566,138.1958h-4.10645c-0.1377,0-0.25,0.11182-0.25,0.25v7.54688h-6.04443v-7.25537
	c0-0.13818-0.11182-0.25-0.25-0.25h-4.10596c-0.13818,0-0.25,0.11182-0.25,0.25v7.25537h-4.82324v-7.54688
	c0-0.13818-0.11182-0.25-0.25-0.25h-4.10596c-0.13818,0-0.25,0.11182-0.25,0.25v12.51025c0,0.13818,0.11182,0.25,0.25,0.25h24.18604
	c0.1377,0,0.25-0.11182,0.25-0.25V138.4458C41.55566,138.30762,41.44336,138.1958,41.30566,138.1958z"/>
<path fill="#098EB7" d="M41.78516,107.73438H17.11963c-0.13818,0-0.25,0.11182-0.25,0.25v4.71777c0,0.13818,0.11182,0.25,0.25,0.25
	H32.7168l-16.39014,12.34814c-0.0625,0.04736-0.09961,0.12109-0.09961,0.19971v3.3999c0,0.13818,0.11182,0.25,0.25,0.25h24.82861
	c0.1377,0,0.25-0.11182,0.25-0.25v-4.71387c0-0.13818-0.1123-0.25-0.25-0.25H25.54199l16.39355-12.35205
	c0.0625-0.04736,0.09961-0.12109,0.09961-0.19971v-3.3999C42.03516,107.84619,41.92285,107.73438,41.78516,107.73438z"/>
<rect x="8.07932" y="106.98158" fill="#E6E6E6" stroke="#E6E6E6" stroke-width="0.3" stroke-linejoin="round" stroke-miterlimit="10" width="3.78394" height="180.45505"/>
<rect x="47.8782" y="106.39598" fill="#E6E6E6" stroke="#E6E6E6" stroke-width="0.3" stroke-linejoin="round" stroke-miterlimit="10" width="3.78394" height="180.45505"/>
<g>
	<g>
		<path fill="#098EB7" d="M44.49023,348.71494c-0.33008-0.25-0.40039-0.72021-0.15039-1.05029l0,0
			c0.25-0.32959,0.72949-0.3999,1.0498-0.1499l0,0c0.33008,0.25,0.40039,0.72021,0.15039,1.05029l0,0
			c-0.15039,0.19971-0.37012,0.2998-0.60059,0.2998l0,0C44.7793,348.86484,44.62012,348.81503,44.49023,348.71494z
			 M46.2002,346.26474c-0.37012-0.19971-0.51074-0.6499-0.32031-1.02002l0,0c0.2002-0.35986,0.64941-0.5,1.01953-0.31006l0,0
			c0.37012,0.2002,0.51074,0.65039,0.31055,1.02002l0,0c-0.12988,0.25-0.39063,0.39014-0.66016,0.39014l0,0
			C46.42969,346.34482,46.30957,346.3248,46.2002,346.26474z M47.49023,343.56503c-0.39063-0.13037-0.60059-0.56006-0.4707-0.9502
			l0,0l0,0l0,0c0.12988-0.39014,0.56055-0.6001,0.9502-0.47021l0,0c0.38965,0.13037,0.59961,0.56006,0.46973,0.9502l0,0
			c-0.10938,0.31982-0.39941,0.51025-0.70996,0.51025l0,0C47.64941,343.60507,47.56934,343.59482,47.49023,343.56503z
			 M48.33008,340.69492c-0.41016-0.06006-0.69043-0.4502-0.61035-0.85986l0,0l0,0l0,0
			c0.05957-0.41016,0.4502-0.68018,0.86035-0.61035l0,0c0.41016,0.06006,0.67969,0.4502,0.62012,0.86035l0,0
			c-0.07031,0.35986-0.38086,0.62988-0.75,0.62988l0,0C48.41016,340.71494,48.37012,340.70468,48.33008,340.69492z
			 M48.7002,337.73495c-0.41016,0-0.75-0.34033-0.75-0.75l0,0c0-0.02002,0-0.05029,0.00977-0.07031l0,0
			c0,0-0.00977,0-0.00977-0.00977l0,0c0-0.41016,0.33984-0.75,0.75-0.75l0,0c0.41992,0,0.75,0.33984,0.75,0.75l0,0
			c0,0.02002,0,0.02979,0,0.04004l0,0c0,0.02002,0,0.02979,0,0.04004l0,0C49.4502,337.39462,49.12012,337.73495,48.7002,337.73495
			L48.7002,337.73495L48.7002,337.73495z M47.72949,334.04501c0,0,0,0-0.00977,0l0,0
			c-0.05957-0.41016,0.21973-0.79004,0.62988-0.86035l0,0c0.41016-0.05957,0.79004,0.22021,0.86035,0.63037l0,0
			c0.05957,0.3999-0.21973,0.79004-0.62988,0.85986l0,0c-0.04004,0-0.08008,0.00977-0.12012,0.00977l0,0
			C48.09961,334.68466,47.79004,334.41464,47.72949,334.04501z M47.04004,331.26474L47.04004,331.26474L47.04004,331.26474
			c-0.12988-0.38965,0.08008-0.81982,0.47949-0.94971l0,0c0.39063-0.13037,0.82031,0.07959,0.9502,0.47998h-0.00977
			c0.13965,0.38965-0.08008,0.81006-0.46973,0.93994l0,0c-0.08008,0.02979-0.16016,0.04004-0.24023,0.04004l0,0
			C47.43945,331.77499,47.14941,331.58505,47.04004,331.26474z M45.91992,328.63486c0,0,0,0,0-0.00977l0,0
			c-0.19043-0.36035-0.0498-0.81006,0.30957-1.01025l0,0c0.37012-0.18994,0.82031-0.0498,1.02051,0.31982l0,0
			c0.18945,0.36035,0.0498,0.82031-0.32031,1.01025l0,0c-0.11035,0.06006-0.22949,0.08984-0.34961,0.08984l0,0
			C46.30957,329.03476,46.0498,328.88486,45.91992,328.63486z M44.37988,326.20468c-0.24023-0.32959-0.17969-0.7998,0.14941-1.0498
			l0,0c0.33008-0.25,0.80078-0.18018,1.05078,0.1499l0,0c0.25,0.33008,0.18945,0.80029-0.14063,1.05029l0,0
			c-0.13965,0.09961-0.2998,0.1499-0.45996,0.1499l0,0C44.75977,326.50497,44.5293,326.40488,44.37988,326.20468z"/>
	</g>
	<g>
		<path fill="#098EB7" d="M15.80917,348.71494c0.33008-0.25,0.40039-0.72021,0.15039-1.05029l0,0
			c-0.25-0.32959-0.72949-0.3999-1.0498-0.1499l0,0c-0.33008,0.25-0.40039,0.72021-0.15039,1.05029l0,0
			c0.15039,0.19971,0.37012,0.2998,0.60059,0.2998l0,0C15.52011,348.86484,15.67929,348.81503,15.80917,348.71494z
			 M14.09921,346.26474c0.37012-0.19971,0.51074-0.6499,0.32031-1.02002l0,0c-0.2002-0.35986-0.64941-0.5-1.01953-0.31006l0,0
			c-0.37012,0.2002-0.51074,0.65039-0.31055,1.02002l0,0c0.12988,0.25,0.39063,0.39014,0.66016,0.39014l0,0
			C13.86972,346.34482,13.98984,346.3248,14.09921,346.26474z M12.80917,343.56503c0.39063-0.13037,0.60059-0.56006,0.4707-0.9502
			l0,0l0,0l0,0c-0.12988-0.39014-0.56055-0.6001-0.9502-0.47021l0,0c-0.38965,0.13037-0.59961,0.56006-0.46973,0.9502l0,0
			c0.10938,0.31982,0.39941,0.51025,0.70996,0.51025l0,0C12.64999,343.60507,12.73007,343.59482,12.80917,343.56503z
			 M11.96933,340.69492c0.41016-0.06006,0.69043-0.4502,0.61035-0.85986l0,0l0,0l0,0
			c-0.05957-0.41016-0.4502-0.68018-0.86035-0.61035l0,0c-0.41016,0.06006-0.67969,0.4502-0.62012,0.86035l0,0
			c0.07031,0.35986,0.38086,0.62988,0.75,0.62988l0,0C11.88925,340.71494,11.92929,340.70468,11.96933,340.69492z
			 M11.59921,337.73495c0.41016,0,0.75-0.34033,0.75-0.75l0,0c0-0.02002,0-0.05029-0.00977-0.07031l0,0
			c0,0,0.00977,0,0.00977-0.00977l0,0c0-0.41016-0.33984-0.75-0.75-0.75l0,0c-0.41992,0-0.75,0.33984-0.75,0.75l0,0
			c0,0.02002,0,0.02979,0,0.04004l0,0c0,0.02002,0,0.02979,0,0.04004l0,0C10.84921,337.39462,11.17929,337.73495,11.59921,337.73495
			L11.59921,337.73495L11.59921,337.73495z M12.56991,334.04501c0,0,0,0,0.00977,0l0,0
			c0.05957-0.41016-0.21973-0.79004-0.62988-0.86035l0,0c-0.41016-0.05957-0.79004,0.22021-0.86035,0.63037l0,0
			c-0.05957,0.3999,0.21973,0.79004,0.62988,0.85986l0,0c0.04004,0,0.08008,0.00977,0.12012,0.00977l0,0
			C12.1998,334.68466,12.50937,334.41464,12.56991,334.04501z M13.25937,331.26474L13.25937,331.26474L13.25937,331.26474
			c0.12988-0.38965-0.08008-0.81982-0.47949-0.94971l0,0c-0.39063-0.13037-0.82031,0.07959-0.9502,0.47998h0.00977
			c-0.13965,0.38965,0.08008,0.81006,0.46973,0.93994l0,0c0.08008,0.02979,0.16016,0.04004,0.24023,0.04004l0,0
			C12.85995,331.77499,13.14999,331.58505,13.25937,331.26474z M14.37948,328.63486c0,0,0,0,0-0.00977l0,0
			c0.19043-0.36035,0.0498-0.81006-0.30957-1.01025l0,0c-0.37012-0.18994-0.82031-0.0498-1.02051,0.31982l0,0
			c-0.18945,0.36035-0.0498,0.82031,0.32031,1.01025l0,0c0.11035,0.06006,0.22949,0.08984,0.34961,0.08984l0,0
			C13.98984,329.03476,14.2496,328.88486,14.37948,328.63486z M15.91952,326.20468c0.24023-0.32959,0.17969-0.7998-0.14941-1.0498
			l0,0c-0.33008-0.25-0.80078-0.18018-1.05078,0.1499l0,0c-0.25,0.33008-0.18945,0.80029,0.14063,1.05029l0,0
			c0.13965,0.09961,0.2998,0.1499,0.45996,0.1499l0,0C15.53964,326.50497,15.77011,326.40488,15.91952,326.20468z"/>
	</g>
</g>
<g>
	<g>
		<path fill="#CC4C4C" d="M47.87012,351.56503c-0.33008-0.26025-0.39063-0.72998-0.12988-1.05029l0,0
			c0.25-0.33008,0.71973-0.38965,1.0498-0.13965l0,0c0.31934,0.25977,0.37988,0.72998,0.12988,1.0498l0,0
			c-0.15039,0.18994-0.37012,0.2998-0.58984,0.2998l0,0C48.16992,351.7247,48,351.66464,47.87012,351.56503z M49.62988,349.12509
			c-0.36035-0.21045-0.48047-0.67041-0.27051-1.03027l0,0c0.20996-0.3501,0.66992-0.46973,1.03027-0.25977l0,0
			c0.35059,0.19971,0.46973,0.65967,0.27051,1.02002l0,0c-0.14063,0.23975-0.39063,0.36963-0.65039,0.36963l0,0
			C49.87988,349.2247,49.75,349.19492,49.62988,349.12509z M51.05957,346.48495c-0.37988-0.16016-0.55957-0.6001-0.39941-0.97998
			l0,0c0.15918-0.39014,0.59961-0.57031,0.97949-0.41016l0,0c0.37988,0.16992,0.56055,0.6001,0.40039,0.99023l0,0
			c-0.12012,0.27979-0.40039,0.45996-0.69043,0.45996l0,0C51.25,346.54501,51.16016,346.52499,51.05957,346.48495z
			 M52.12988,343.6749c-0.40039-0.10986-0.63965-0.52002-0.53027-0.91992l0,0c0,0,0,0,0.00977,0l0,0
			c0.10059-0.41016,0.52051-0.64014,0.91016-0.53027l0,0c0.40039,0.11035,0.64063,0.52002,0.53027,0.91992l0,0
			c-0.08984,0.33008-0.38965,0.55029-0.71973,0.55029l0,0C52.25977,343.69492,52.2002,343.68466,52.12988,343.6749z
			 M52.81934,340.74472c-0.40918-0.06006-0.69922-0.42969-0.63965-0.83984l0,0c0.0498-0.41016,0.42969-0.7002,0.83984-0.6499l0,0
			c0.41016,0.06006,0.7002,0.42969,0.64063,0.8501l0,0c-0.04004,0.36963-0.37012,0.6499-0.74023,0.6499l0,0
			C52.88965,340.75497,52.85938,340.74472,52.81934,340.74472z M53.12988,337.75497c-0.41992,0-0.75-0.34033-0.75-0.75l0,0
			c0-0.02002,0-0.04004,0-0.05029l0,0c0-0.02002,0-0.02979,0-0.0498l0,0c0-0.41016,0.33008-0.75,0.75-0.75l0,0
			c0.41016,0,0.75,0.33984,0.75,0.75l0,0c0,0.02979,0,0.0498,0,0.06982l0,0c0,0.01025,0,0.02002,0,0.03027l0,0
			C53.87012,337.41464,53.54004,337.75497,53.12988,337.75497L53.12988,337.75497L53.12988,337.75497z M52.18945,334.00497
			c-0.0498-0.41016,0.24023-0.79004,0.65039-0.84033l0,0c0.41016-0.0498,0.78027,0.22998,0.83984,0.65039l0,0
			c0.0498,0.40967-0.24023,0.77979-0.65039,0.83984l0,0c-0.0293,0-0.06934,0-0.09961,0l0,0
			C52.55957,334.65488,52.24023,334.38486,52.18945,334.00497z M51.62988,331.15488L51.62988,331.15488L51.62988,331.15488
			c-0.11035-0.3999,0.12988-0.81006,0.53027-0.91992l0,0c0.39941-0.10986,0.80957,0.12988,0.91992,0.52979l0,0
			c0.09961,0.3999-0.12988,0.81006-0.54004,0.91992l0,0c-0.06055,0.02002-0.12988,0.02002-0.19043,0.02002l0,0
			C52.01953,331.70468,51.71973,331.48495,51.62988,331.15488z M50.68945,328.39462c0,0,0,0,0.01074,0l0,0
			c-0.1709-0.37988,0.01953-0.81982,0.39941-0.97998l0,0c0.37988-0.15967,0.82031,0.02002,0.98047,0.41016l0,0
			c0.16016,0.37988-0.02051,0.81982-0.41016,0.97998l0,0c-0.08984,0.04004-0.19043,0.06006-0.28027,0.06006l0,0
			C51.08984,328.86484,50.80957,328.68466,50.68945,328.39462z M49.41016,325.78476
			c-0.20996-0.3501-0.09082-0.81006,0.26953-1.02002l0,0c0.36035-0.20996,0.82031-0.08984,1.02051,0.27002l0,0
			c0.20996,0.35986,0.08984,0.82031-0.27051,1.03027l0,0c-0.12012,0.06982-0.25,0.09961-0.37012,0.09961l0,0
			C49.7998,326.16464,49.54004,326.02499,49.41016,325.78476z M47.79004,323.37509
			c-0.26074-0.33008-0.19043-0.80029,0.13965-1.06006l0,0c0.32031-0.25,0.79004-0.18994,1.0498,0.13965l0,0
			c0.25,0.33008,0.19043,0.80029-0.13965,1.06006l0,0c-0.13965,0.1001-0.2998,0.1499-0.45996,0.1499l0,0
			C48.16016,323.66464,47.93945,323.56503,47.79004,323.37509z"/>
	</g>
	<g>
		<path fill="#CC4C4C" d="M12.42929,351.56503c0.33008-0.26025,0.39063-0.72998,0.12988-1.05029l0,0
			c-0.25-0.33008-0.71973-0.38965-1.0498-0.13965l0,0c-0.31934,0.25977-0.37988,0.72998-0.12988,1.0498l0,0
			c0.15039,0.18994,0.37012,0.2998,0.58984,0.2998l0,0C12.12948,351.7247,12.29941,351.66464,12.42929,351.56503z
			 M10.66952,349.12509c0.36035-0.21045,0.48047-0.67041,0.27051-1.03027l0,0c-0.20996-0.3501-0.66992-0.46973-1.03027-0.25977l0,0
			c-0.35059,0.19971-0.46973,0.65967-0.27051,1.02002l0,0c0.14063,0.23975,0.39063,0.36963,0.65039,0.36963l0,0
			C10.41952,349.2247,10.54941,349.19492,10.66952,349.12509z M9.23984,346.48495c0.37988-0.16016,0.55957-0.6001,0.39941-0.97998
			l0,0c-0.15918-0.39014-0.59961-0.57031-0.97949-0.41016l0,0c-0.37988,0.16992-0.56055,0.6001-0.40039,0.99023l0,0
			c0.12012,0.27979,0.40039,0.45996,0.69043,0.45996l0,0C9.04941,346.54501,9.13925,346.52499,9.23984,346.48495z M8.16952,343.6749
			c0.40039-0.10986,0.63965-0.52002,0.53027-0.91992l0,0c0,0,0,0-0.00977,0l0,0c-0.10059-0.41016-0.52051-0.64014-0.91016-0.53027
			l0,0c-0.40039,0.11035-0.64063,0.52002-0.53027,0.91992l0,0c0.08984,0.33008,0.38965,0.55029,0.71973,0.55029l0,0
			C8.03964,343.69492,8.09921,343.68466,8.16952,343.6749z M7.48007,340.74472c0.40918-0.06006,0.69922-0.42969,0.63965-0.83984l0,0
			c-0.0498-0.41016-0.42969-0.7002-0.83984-0.6499l0,0c-0.41016,0.06006-0.7002,0.42969-0.64063,0.8501l0,0
			c0.04004,0.36963,0.37012,0.6499,0.74023,0.6499l0,0C7.40976,340.75497,7.44003,340.74472,7.48007,340.74472z M7.16952,337.75497
			c0.41992,0,0.75-0.34033,0.75-0.75l0,0c0-0.02002,0-0.04004,0-0.05029l0,0c0-0.02002,0-0.02979,0-0.0498l0,0
			c0-0.41016-0.33008-0.75-0.75-0.75l0,0c-0.41016,0-0.75,0.33984-0.75,0.75l0,0c0,0.02979,0,0.0498,0,0.06982l0,0
			c0,0.01025,0,0.02002,0,0.03027l0,0C6.42929,337.41464,6.75937,337.75497,7.16952,337.75497L7.16952,337.75497L7.16952,337.75497z
			 M8.10995,334.00497c0.0498-0.41016-0.24023-0.79004-0.65039-0.84033l0,0c-0.41016-0.0498-0.78027,0.22998-0.83984,0.65039l0,0
			c-0.0498,0.40967,0.24023,0.77979,0.65039,0.83984l0,0c0.0293,0,0.06934,0,0.09961,0l0,0
			C7.73984,334.65488,8.05917,334.38486,8.10995,334.00497z M8.66952,331.15488L8.66952,331.15488L8.66952,331.15488
			c0.11035-0.3999-0.12988-0.81006-0.53027-0.91992l0,0c-0.39941-0.10986-0.80957,0.12988-0.91992,0.52979l0,0
			c-0.09961,0.3999,0.12988,0.81006,0.54004,0.91992l0,0c0.06055,0.02002,0.12988,0.02002,0.19043,0.02002l0,0
			C8.27987,331.70468,8.57968,331.48495,8.66952,331.15488z M9.60995,328.39462c0,0,0,0-0.01074,0l0,0
			c0.1709-0.37988-0.01953-0.81982-0.39941-0.97998l0,0c-0.37988-0.15967-0.82031,0.02002-0.98047,0.41016l0,0
			c-0.16016,0.37988,0.02051,0.81982,0.41016,0.97998l0,0c0.08984,0.04004,0.19043,0.06006,0.28027,0.06006l0,0
			C9.20956,328.86484,9.48984,328.68466,9.60995,328.39462z M10.88925,325.78476c0.20996-0.3501,0.09082-0.81006-0.26953-1.02002
			l0,0c-0.36035-0.20996-0.82031-0.08984-1.02051,0.27002l0,0c-0.20996,0.35986-0.08984,0.82031,0.27051,1.03027l0,0
			c0.12012,0.06982,0.25,0.09961,0.37012,0.09961l0,0C10.4996,326.16464,10.75937,326.02499,10.88925,325.78476z
			 M12.50937,323.37509c0.26074-0.33008,0.19043-0.80029-0.13965-1.06006l0,0c-0.32031-0.25-0.79004-0.18994-1.0498,0.13965l0,0
			c-0.25,0.33008-0.19043,0.80029,0.13965,1.06006l0,0c0.13965,0.1001,0.2998,0.1499,0.45996,0.1499l0,0
			C12.13925,323.66464,12.35995,323.56503,12.50937,323.37509z"/>
	</g>
</g>
<g>
	<g>
		<path fill="#D8BB44" d="M51.22949,354.39462c-0.33008-0.25-0.38965-0.71973-0.12988-1.0498l0,0
			c0.25977-0.33008,0.73047-0.37988,1.0498-0.12988l0,0c0.33008,0.25977,0.39063,0.72998,0.12988,1.06006l0,0
			c-0.14941,0.18994-0.36914,0.27979-0.58984,0.27979l0,0C51.5293,354.55478,51.35938,354.50497,51.22949,354.39462z
			 M53.01953,351.9747c-0.34961-0.21973-0.4502-0.67969-0.24023-1.02979l0,0l0,0l0,0c0.2207-0.35986,0.68066-0.45996,1.03027-0.25
			l0,0c0.36035,0.21973,0.46973,0.68994,0.25,1.04004l0,0c-0.13965,0.22998-0.38965,0.3501-0.63965,0.3501l0,0
			C53.29004,352.08505,53.14941,352.05478,53.01953,351.9747z M54.5498,349.36484c-0.37988-0.18018-0.54004-0.62012-0.36035-1l0,0
			c0.18066-0.37012,0.62988-0.52979,1-0.3501l0,0c0.37988,0.18018,0.53027,0.62988,0.35059,1l0,0
			c-0.12988,0.27002-0.39063,0.43018-0.66992,0.43018l0,0C54.75977,349.44492,54.64941,349.41464,54.5498,349.36484z
			 M55.76953,346.60507c-0.38965-0.13037-0.59961-0.56006-0.45996-0.9502l0,0c0.12988-0.39014,0.56055-0.6001,0.9502-0.45996l0,0
			c0.38965,0.14014,0.59961,0.56006,0.45996,0.94971l0,0c-0.11035,0.31006-0.40039,0.51025-0.70996,0.51025l0,0
			C55.92969,346.65488,55.84961,346.63486,55.76953,346.60507z M56.67969,343.73495
			c-0.41016-0.09033-0.66016-0.49023-0.57031-0.8999l0,0c0.10059-0.40039,0.5-0.66016,0.90039-0.56006l0,0
			c0.40039,0.08984,0.66016,0.48975,0.55957,0.88965l0,0c-0.0791,0.3501-0.37988,0.59033-0.72949,0.59033l0,0
			C56.79004,343.75497,56.72949,343.74472,56.67969,343.73495z M57.25977,340.77499
			c-0.41016-0.05029-0.7002-0.41992-0.66016-0.83008l0,0c0.0498-0.41016,0.41992-0.70996,0.83008-0.66016l0,0
			c0.41016,0.05029,0.70996,0.41992,0.66016,0.83008l0,0c-0.04004,0.37988-0.37012,0.66992-0.74023,0.66992l0,0
			C57.31934,340.78476,57.29004,340.77499,57.25977,340.77499z M57.51953,337.76474c-0.41016,0-0.75-0.33008-0.74023-0.75l0,0
			c0-0.02002,0-0.04004,0-0.0498l0,0c0-0.02002,0-0.04004,0-0.06006l0,0c0-0.41016,0.33008-0.75,0.75-0.75l0,0
			c0.41016,0,0.75,0.33984,0.75,0.75l0,0c0,0.02002-0.00977,0.04004-0.00977,0.06006l0,0c0,0.02002,0.00977,0.04004,0.00977,0.06006
			l0,0c-0.00977,0.40967-0.33984,0.73975-0.75,0.73975l0,0H57.51953z M56.62012,333.9747L56.62012,333.9747L56.62012,333.9747
			c-0.05078-0.40967,0.25-0.77979,0.65918-0.83008l0,0c0.41016-0.03955,0.78027,0.26025,0.83008,0.67041l0,0
			c0.04004,0.40967-0.25,0.77979-0.66992,0.82959l0,0c-0.0293,0-0.0498,0-0.08008,0l0,0
			C56.97949,334.64462,56.66016,334.35507,56.62012,333.9747z M56.13965,331.08505
			c-0.08984-0.40039,0.16016-0.81006,0.57031-0.90039l0,0c0.39941-0.08984,0.7998,0.17041,0.88965,0.57031l0,0
			c0.08984,0.40967-0.16016,0.81006-0.57031,0.8999l0,0c-0.0498,0.00977-0.10938,0.02002-0.15918,0.02002l0,0
			C56.5293,331.6749,56.21973,331.43466,56.13965,331.08505z M55.33984,328.25497c-0.13965-0.39014,0.07031-0.81006,0.46973-0.9502
			l0,0c0.39063-0.12988,0.82031,0.08008,0.9502,0.47021l0,0c0.12988,0.38965-0.07031,0.81982-0.46973,0.94971l0,0
			c-0.08008,0.03027-0.16016,0.04004-0.24023,0.04004l0,0C55.74023,328.76474,55.4502,328.5748,55.33984,328.25497z
			 M54.24023,325.54501c0,0,0,0-0.01074,0l0,0c-0.16992-0.38037-0.00977-0.82031,0.36035-1l0,0
			c0.37988-0.18018,0.82031-0.02002,1,0.35986l0,0c0.17969,0.37012,0.01953,0.81982-0.34961,0.98975l0,0
			c-0.11035,0.05029-0.2207,0.08008-0.33008,0.08008l0,0C54.62988,325.9747,54.37012,325.81503,54.24023,325.54501z
			 M52.83984,322.96494c-0.21973-0.35986-0.11035-0.82031,0.24023-1.03027l0,0c0.35938-0.21973,0.81934-0.10986,1.0293,0.24023l0,0
			c0.2207,0.3501,0.11035,0.81006-0.23926,1.02979l0,0c-0.12012,0.08008-0.26074,0.11035-0.39063,0.11035l0,0
			C53.22949,323.31503,52.97949,323.19492,52.83984,322.96494z M51.16016,320.55478c-0.25-0.33008-0.19043-0.7998,0.13965-1.06006
			l0,0c0.32031-0.25,0.79004-0.18994,1.0498,0.14014l0,0c0.25,0.31982,0.19043,0.79004-0.12988,1.0498l0,0
			c-0.13965,0.1001-0.2998,0.16016-0.45996,0.16016l0,0C51.5293,320.84482,51.30957,320.74472,51.16016,320.55478z"/>
	</g>
	<g>
		<path fill="#D8BB44" d="M9.06991,354.39462c0.33008-0.25,0.38965-0.71973,0.12988-1.0498l0,0
			c-0.25977-0.33008-0.73047-0.37988-1.0498-0.12988l0,0c-0.33008,0.25977-0.39063,0.72998-0.12988,1.06006l0,0
			c0.14941,0.18994,0.36914,0.27979,0.58984,0.27979l0,0C8.77011,354.55478,8.94003,354.50497,9.06991,354.39462z M7.27987,351.9747
			c0.34961-0.21973,0.4502-0.67969,0.24023-1.02979l0,0l0,0l0,0c-0.2207-0.35986-0.68066-0.45996-1.03027-0.25l0,0
			c-0.36035,0.21973-0.46973,0.68994-0.25,1.04004l0,0c0.13965,0.22998,0.38965,0.3501,0.63965,0.3501l0,0
			C7.00937,352.08505,7.14999,352.05478,7.27987,351.9747z M5.7496,349.36484c0.37988-0.18018,0.54004-0.62012,0.36035-1l0,0
			c-0.18066-0.37012-0.62988-0.52979-1-0.3501l0,0c-0.37988,0.18018-0.53027,0.62988-0.35059,1l0,0
			c0.12988,0.27002,0.39063,0.43018,0.66992,0.43018l0,0C5.53964,349.44492,5.64999,349.41464,5.7496,349.36484z M4.52987,346.60507
			c0.38965-0.13037,0.59961-0.56006,0.45996-0.9502l0,0c-0.12988-0.39014-0.56055-0.6001-0.9502-0.45996l0,0
			c-0.38965,0.14014-0.59961,0.56006-0.45996,0.94971l0,0c0.11035,0.31006,0.40039,0.51025,0.70996,0.51025l0,0
			C4.36972,346.65488,4.4498,346.63486,4.52987,346.60507z M3.61972,343.73495c0.41016-0.09033,0.66016-0.49023,0.57031-0.8999l0,0
			c-0.10059-0.40039-0.5-0.66016-0.90039-0.56006l0,0c-0.40039,0.08984-0.66016,0.48975-0.55957,0.88965l0,0
			c0.0791,0.3501,0.37988,0.59033,0.72949,0.59033l0,0C3.50937,343.75497,3.56991,343.74472,3.61972,343.73495z M3.03964,340.77499
			c0.41016-0.05029,0.7002-0.41992,0.66016-0.83008l0,0c-0.0498-0.41016-0.41992-0.70996-0.83008-0.66016l0,0
			c-0.41016,0.05029-0.70996,0.41992-0.66016,0.83008l0,0c0.04004,0.37988,0.37012,0.66992,0.74023,0.66992l0,0
			C2.98007,340.78476,3.00937,340.77499,3.03964,340.77499z M2.77987,337.76474c0.41016,0,0.75-0.33008,0.74023-0.75l0,0
			c0-0.02002,0-0.04004,0-0.0498l0,0c0-0.02002,0-0.04004,0-0.06006l0,0c0-0.41016-0.33008-0.75-0.75-0.75l0,0
			c-0.41016,0-0.75,0.33984-0.75,0.75l0,0c0,0.02002,0.00977,0.04004,0.00977,0.06006l0,0
			c0,0.02002-0.00977,0.04004-0.00977,0.06006l0,0c0.00977,0.40967,0.33984,0.73975,0.75,0.73975l0,0H2.77987z M3.67929,333.9747
			L3.67929,333.9747L3.67929,333.9747c0.05078-0.40967-0.25-0.77979-0.65918-0.83008l0,0
			c-0.41016-0.03955-0.78027,0.26025-0.83008,0.67041l0,0c-0.04004,0.40967,0.25,0.77979,0.66992,0.82959l0,0
			c0.0293,0,0.0498,0,0.08008,0l0,0C3.31991,334.64462,3.63925,334.35507,3.67929,333.9747z M4.15976,331.08505
			c0.08984-0.40039-0.16016-0.81006-0.57031-0.90039l0,0c-0.39941-0.08984-0.7998,0.17041-0.88965,0.57031l0,0
			c-0.08984,0.40967,0.16016,0.81006,0.57031,0.8999l0,0c0.0498,0.00977,0.10938,0.02002,0.15918,0.02002l0,0
			C3.77011,331.6749,4.07968,331.43466,4.15976,331.08505z M4.95956,328.25497c0.13965-0.39014-0.07031-0.81006-0.46973-0.9502l0,0
			c-0.39063-0.12988-0.82031,0.08008-0.9502,0.47021l0,0c-0.12988,0.38965,0.07031,0.81982,0.46973,0.94971l0,0
			c0.08008,0.03027,0.16016,0.04004,0.24023,0.04004l0,0C4.55917,328.76474,4.84921,328.5748,4.95956,328.25497z M6.05917,325.54501
			c0,0,0,0,0.01074,0l0,0c0.16992-0.38037,0.00977-0.82031-0.36035-1l0,0c-0.37988-0.18018-0.82031-0.02002-1,0.35986l0,0
			c-0.17969,0.37012-0.01953,0.81982,0.34961,0.98975l0,0c0.11035,0.05029,0.2207,0.08008,0.33008,0.08008l0,0
			C5.66952,325.9747,5.92929,325.81503,6.05917,325.54501z M7.45956,322.96494c0.21973-0.35986,0.11035-0.82031-0.24023-1.03027l0,0
			c-0.35938-0.21973-0.81934-0.10986-1.0293,0.24023l0,0c-0.2207,0.3501-0.11035,0.81006,0.23926,1.02979l0,0
			c0.12012,0.08008,0.26074,0.11035,0.39063,0.11035l0,0C7.06991,323.31503,7.31991,323.19492,7.45956,322.96494z
			 M9.13925,320.55478c0.25-0.33008,0.19043-0.7998-0.13965-1.06006l0,0c-0.32031-0.25-0.79004-0.18994-1.04981,0.14014l0,0
			c-0.25,0.31982-0.19043,0.79004,0.12988,1.0498l0,0c0.13965,0.1001,0.2998,0.16016,0.45996,0.16016l0,0
			C8.77011,320.84482,8.98984,320.74472,9.13925,320.55478z"/>
	</g>
</g>
<g>
	<g>
		<path fill="#10A687" d="M54.7998,357.00497c-0.33008-0.26025-0.38965-0.72998-0.12988-1.06006l0,0
			c0.25-0.31982,0.71973-0.37988,1.0498-0.12988l0,0c0.33008,0.25977,0.38965,0.72998,0.12988,1.0498l0,0
			c-0.14941,0.2002-0.37012,0.2998-0.58984,0.2998l0,0C55.09961,357.16464,54.92969,357.10507,54.7998,357.00497z
			 M56.56934,354.60507c-0.34961-0.22021-0.44922-0.68018-0.22949-1.03027l0,0c0.21973-0.3501,0.68945-0.45996,1.04004-0.22998l0,0
			c0.34961,0.22021,0.4502,0.68018,0.22949,1.03027l0,0c-0.13965,0.22998-0.38965,0.34961-0.63965,0.34961l0,0
			C56.83984,354.7247,56.7002,354.68466,56.56934,354.60507z M58.10938,352.05478c-0.35938-0.18994-0.50977-0.64014-0.31934-1.00977
			l0,0l0,0l0,0c0.18945-0.37012,0.63965-0.51025,1.00977-0.32031l0,0c0.37012,0.18994,0.50977,0.64014,0.33008,1.01025l0,0
			c-0.13965,0.25-0.40039,0.3999-0.67969,0.3999l0,0C58.33984,352.13486,58.21973,352.11484,58.10938,352.05478z
			 M57.84961,322.88486L57.84961,322.88486L57.84961,322.88486c-0.18945-0.37012-0.04004-0.81982,0.33008-1.00977l0,0
			c0.37012-0.19043,0.82031-0.04004,1.00977,0.32959l0,0c0.18066,0.37012,0.03027,0.82031-0.33008,1.01025l0,0
			c-0.10938,0.0498-0.22949,0.08008-0.33984,0.08008l0,0C58.24023,323.29501,57.97949,323.14462,57.84961,322.88486z
			 M56.41016,320.35507c-0.2207-0.3501-0.12012-0.82031,0.23926-1.04004l0,0c0.35059-0.22021,0.81055-0.11035,1.03027,0.23975l0,0
			c0.21973,0.33984,0.11035,0.81006-0.22949,1.03027l0,0c-0.13086,0.07959-0.27051,0.10986-0.40039,0.10986l0,0
			C56.7998,320.69492,56.5498,320.5748,56.41016,320.35507z M54.75,317.96494c0,0,0,0-0.00977,0l0,0
			c-0.25-0.33008-0.19043-0.80029,0.13965-1.05029l0,0c0.33008-0.25,0.7998-0.18994,1.0498,0.14014v-0.00977
			c0.25977,0.33008,0.19043,0.7998-0.13965,1.06006l0,0c-0.12988,0.09961-0.29004,0.1499-0.4502,0.1499l0,0
			C55.10938,318.25497,54.88965,318.15488,54.75,317.96494z"/>
	</g>
	<path fill="#10A687" d="M5.4996,357.00497c0.33008-0.26025,0.38965-0.72998,0.12988-1.06006l0,0
		c-0.25-0.31982-0.71973-0.37988-1.0498-0.12988l0,0c-0.33008,0.25977-0.38965,0.72998-0.12988,1.0498l0,0
		c0.14941,0.2002,0.37012,0.2998,0.58984,0.2998l0,0C5.1998,357.16464,5.36972,357.10507,5.4996,357.00497z M3.73007,354.60507
		c0.34961-0.22021,0.44922-0.68018,0.22949-1.03027l0,0c-0.21973-0.3501-0.68945-0.45996-1.04004-0.22998l0,0
		c-0.34961,0.22021-0.4502,0.68018-0.22949,1.03027l0,0c0.13965,0.22998,0.38965,0.34961,0.63965,0.34961l0,0
		C3.45956,354.7247,3.59921,354.68466,3.73007,354.60507z M2.19003,352.05478c0.35938-0.18994,0.50977-0.64014,0.31934-1.00977l0,0
		l0,0l0,0c-0.18945-0.37012-0.63965-0.51025-1.00977-0.32031l0,0c-0.37012,0.18994-0.50977,0.64014-0.33008,1.01025l0,0
		c0.13965,0.25,0.40039,0.3999,0.67969,0.3999l0,0C1.95956,352.13486,2.07968,352.11484,2.19003,352.05478z M2.4498,322.88486
		L2.4498,322.88486L2.4498,322.88486c0.18945-0.37012,0.04004-0.81982-0.33008-1.00977l0,0
		c-0.37012-0.19043-0.82031-0.04004-1.00977,0.32959l0,0c-0.18066,0.37012-0.03027,0.82031,0.33008,1.01025l0,0
		c0.10938,0.0498,0.22949,0.08008,0.33984,0.08008l0,0C2.05917,323.29501,2.31991,323.14462,2.4498,322.88486z M3.88925,320.35507
		c0.2207-0.3501,0.12012-0.82031-0.23926-1.04004l0,0c-0.35059-0.22021-0.81055-0.11035-1.03027,0.23975l0,0
		c-0.21973,0.33984-0.11035,0.81006,0.22949,1.03027l0,0c0.13086,0.07959,0.27051,0.10986,0.40039,0.10986l0,0
		C3.4996,320.69492,3.7496,320.5748,3.88925,320.35507z M5.54941,317.96494c0,0,0,0,0.00977,0l0,0
		c0.25-0.33008,0.19043-0.80029-0.13965-1.05029l0,0c-0.33008-0.25-0.7998-0.18994-1.0498,0.14014v-0.00977
		c-0.25977,0.33008-0.19043,0.7998,0.13965,1.06006l0,0c0.12988,0.09961,0.29004,0.1499,0.4502,0.1499l0,0
		C5.19003,318.25497,5.40976,318.15488,5.54941,317.96494z"/>
</g>
<path fill="#098EB7" d="M30.4873,322.38306v-35.28247h10.81836c0.1377,0,0.25-0.1123,0.25-0.25v-4.71289
	c0-0.1377-0.1123-0.25-0.25-0.25h-8.96094l9.08984-5.47363c0.0752-0.04492,0.12109-0.12598,0.12109-0.21387v-5.70703
	c0-0.09277-0.05078-0.17676-0.13184-0.2207c-0.08301-0.04395-0.18262-0.03711-0.25684,0.0127l-9.89063,6.62402
	c-0.76563-3.27637-4.05029-4.77344-6.875-4.77344c-4.85693,0-7.53174,2.95898-7.53174,8.33105v6.38379
	c0,0.1377,0.11182,0.25,0.25,0.25h12.3677v35.29736c-7.70801,0.34277-13.87793,6.70264-13.87793,14.49365
	c0,8.00977,6.5166,14.52637,14.52637,14.52637s14.52637-6.5166,14.52637-14.52637
	C44.66211,329.00049,38.33374,322.57227,30.4873,322.38306z M28.00098,281.8877h-6.78174v-0.39453
	c0-2.4873,0.56299-4.14355,3.30957-4.14355c2.43359,0,3.47217,1.24902,3.47217,4.17578V281.8877z M30.13574,350.41797
	c-7.45801,0-13.52637-6.06787-13.52637-13.52637s6.06836-13.52637,13.52637-13.52637s13.52637,6.06787,13.52637,13.52637
	S37.59375,350.41797,30.13574,350.41797z"/>
</svg>
