<?xml version="1.0" encoding="utf-8"?>
<!-- Generator: Adobe Illustrator 23.0.3, SVG Export Plug-In . SVG Version: 6.00 Build 0)  -->
<svg version="1.0" id="Layer_1" xmlns="http://www.w3.org/2000/svg" xmlns:xlink="http://www.w3.org/1999/xlink" x="0px" y="0px"
	 width="60px" height="380px" viewBox="0 0 60 380" enable-background="new 0 0 60 380" xml:space="preserve">
<title>repelzen_BG</title>
<g id="export_bg">
	<g id="path33453">
		<path fill="#313131" d="M0,0h60v380H0V0z"/>
	</g>
</g>
<g id="EXPORT">
	<rect x="16.62843" y="206.00354" fill="#CC4C4C" width="28.50029" height="8.99292"/>
	<rect x="16.0697" y="248.00354" fill="#D8BB44" width="28.50027" height="8.99292"/>
	<rect x="16.0697" y="290.00354" fill="#10A687" width="28.50027" height="8.99292"/>
	<rect x="16.0697" y="332.00354" fill="#098EB7" width="28.50027" height="8.99292"/>
	<g>
		<path fill="#313131" d="M38.19023,134.85168c7.93612-4.52332,10.70275-14.6237,6.17943-22.55981
			s-14.6237-10.70275-22.55982-6.17943s-10.70275,14.6237-6.17943,22.55981c1.46166,2.56447,3.58298,4.69106,6.14382,6.15907"/>
		<path fill="#AFAFAF" d="M38.19043,135.35156c-0.27605,0.00027-0.50005-0.22328-0.50033-0.49933
			c-0.00018-0.17975,0.09616-0.34575,0.25233-0.43475c7.6964-4.38646,10.37965-14.18155,5.99319-21.87795
			s-14.18155-10.37965-21.87795-5.99319c-7.6964,4.38646-10.37965,14.18156-5.99319,21.87795
			c1.41763,2.48735,3.47516,4.54994,5.95902,5.97366c0.23947,0.13751,0.32211,0.44313,0.1846,0.68259
			c-0.13752,0.23947-0.44313,0.32211-0.68259,0.1846l0,0c-8.16468-4.68031-10.98931-15.09325-6.30899-23.25793
			s15.09325-10.98931,23.25793-6.30899s10.98931,15.09325,6.30899,23.25793c-1.5123,2.63817-3.70302,4.82358-6.34484,6.32948
			C38.36311,135.32907,38.27751,135.35182,38.19043,135.35156z"/>
	</g>
	<path fill="#AFAFAF" d="M45,162.17799L45,162.17799c5.7943,0,10.49151,4.6972,10.49151,10.49152l0,0v164.05l0,0h-20.983l0,0
		v-164.05C34.5085,166.87521,39.2057,162.17801,45,162.17799z"/>
	<g>
		<g>
			<path fill="#313131" d="M42.00293,176.13574h-0.89941v-3.83789h-0.49024V171.459h0.49024v-1.78906h0.89941v1.78906h0.87891
				v0.83887h-0.87891V176.13574z"/>
			<path fill="#313131" d="M42.00293,176.28564h-0.89941c-0.08284,0.00021-0.15017-0.06677-0.15039-0.14961
				c0-0.00009,0-0.0002,0-0.00029v-3.688h-0.33985c-0.08284,0.00021-0.15017-0.06677-0.15039-0.14961c0-0.00009,0-0.0002,0-0.00029
				V171.459c0.00005-0.08284,0.06725-0.14996,0.1501-0.1499c0.0001,0,0.00019,0,0.00029,0h0.33985v-1.63916
				c0.00005-0.08284,0.06725-0.14996,0.1501-0.1499c0.0001,0,0.00019,0,0.00029,0h0.89941
				c0.08284-0.00021,0.15017,0.06677,0.15039,0.14961c0,0.00009,0,0.0002,0,0.00029v1.63916h0.72852
				c0.08284-0.00021,0.15017,0.06677,0.15039,0.14961c0,0.00009,0,0.0002,0,0.00029v0.83887
				c-0.00005,0.08284-0.06725,0.14996-0.1501,0.1499c-0.0001,0-0.00019,0-0.00029,0h-0.72852v3.688
				c-0.00007,0.08284-0.06728,0.14995-0.15013,0.14987C42.00311,176.28564,42.00302,176.28564,42.00293,176.28564z
				 M41.25393,175.98584h0.59863v-3.688c0.00005-0.08284,0.06725-0.14996,0.1501-0.1499c0.0001,0,0.00019,0,0.00029,0h0.72852
				v-0.53906h-0.72852c-0.08284,0.00021-0.15017-0.06677-0.15039-0.14961c0-0.00011,0-0.0002,0-0.00031v-1.63916h-0.59863v1.63921
				c-0.00005,0.08284-0.06724,0.14996-0.15008,0.14992c-0.0001,0-0.00021,0-0.00031,0h-0.33985v0.53906h0.33985
				c0.08284-0.00021,0.15017,0.06677,0.15039,0.14961c0,0.00009,0,0.0002,0,0.00029V175.98584z"/>
		</g>
		<g>
			<path fill="#313131" d="M44.83008,172.21777h0.03027c0.19046-0.54234,0.7045-0.90375,1.2793-0.89941
				c0.26323,0.00551,0.51953,0.08542,0.73926,0.23047l-0.41016,0.81934c-0.15186-0.13132-0.34827-0.19948-0.54883-0.19043
				c-0.96972,0-1.08984,0.90041-1.08984,1.65918v2.29883h-0.89942V171.459h0.89942L44.83008,172.21777z"/>
			<path fill="#313131" d="M44.83008,176.28564h-0.89942c-0.08284,0.00021-0.15017-0.06677-0.15039-0.14961
				c0-0.00009,0-0.0002,0-0.00029V171.459c0.00005-0.08284,0.06725-0.14996,0.1501-0.1499c0.0001,0,0.00019,0,0.00029,0h0.89942
				c0.08284-0.00021,0.15017,0.06677,0.15039,0.14961c0,0.00009,0,0.0002,0,0.00029v0.25732
				c0.28151-0.35126,0.70907-0.55333,1.15918-0.54785c0.29185,0.00592,0.57615,0.09392,0.82031,0.25391
				c0.0648,0.04146,0.0876,0.12527,0.05274,0.19385l-0.41016,0.81934c-0.02074,0.0416-0.05978,0.07104-0.10547,0.07959
				c-0.04531,0.00816-0.0919-0.00438-0.127-0.03418c-0.12461-0.10738-0.28596-0.16232-0.4502-0.15332
				c-0.65918,0-0.93945,0.45166-0.93945,1.50928v2.29883c-0.00006,0.08284-0.06727,0.14995-0.15011,0.14989
				C44.83023,176.28564,44.83015,176.28564,44.83008,176.28564z M44.08108,175.98584h0.59864v-2.14893
				c0-0.49461,0-1.80908,1.24023-1.80908c0.17183-0.00497,0.34194,0.03545,0.49317,0.11719l0.26855-0.53711
				c-0.16726-0.0883-0.3529-0.13614-0.542-0.13965c-0.5136-0.00491-0.97271,0.31944-1.13967,0.80518
				c-0.023,0.05693-0.07824,0.09422-0.13965,0.09424c-0.08917,0.00204-0.16622-0.0619-0.18066-0.14992v-0.60889h-0.59864
				L44.08108,175.98584z"/>
		</g>
		<g>
			<path fill="#313131" d="M48.28809,175.71582c0.00054,0.32037-0.25873,0.58052-0.5791,0.58105
				c-0.32037,0.00055-0.58052-0.25873-0.58106-0.5791c-0.00054-0.32036,0.25873-0.58052,0.5791-0.58105
				c0.00033,0,0.00065,0,0.00098,0C48.02644,175.14044,48.28382,175.3974,48.28809,175.71582z"/>
			<path fill="#313131" d="M47.708,176.4458c-0.40302-0.00053-0.72967-0.32698-0.73047-0.73
				c0-0.40343,0.32704-0.73047,0.73047-0.73047c0.40343,0,0.73047,0.32704,0.73047,0.73047
				C48.43767,176.11882,48.11102,176.44527,47.708,176.4458z M47.708,175.28662c-0.23593,0.00285-0.42656,0.19328-0.42969,0.4292
				c-0.00039,0.2373,0.19167,0.43001,0.42898,0.4304s0.43001-0.19167,0.4304-0.42899c0-0.00047,0-0.00095,0-0.00142
				C48.13456,175.4799,47.94392,175.28947,47.708,175.28662z"/>
		</g>
		<g>
			<path fill="#313131" d="M42.99316,183.20215c0.00513,1.3799-1.10934,2.50269-2.48924,2.50783
				c-1.3799,0.00513-2.50269-1.10934-2.50783-2.48924c-0.00513-1.3799,1.10934-2.5027,2.48924-2.50783
				c0.00294-0.00002,0.00588-0.00002,0.00882-0.00002c1.35832-0.02176,2.4771,1.06172,2.49887,2.42004
				C42.99339,183.15601,42.99344,183.17908,42.99316,183.20215z M38.89551,183.20215
				c0.01683,0.88316,0.74642,1.58548,1.62959,1.56865c0.88317-0.01683,1.58548-0.74643,1.56865-1.62959
				c-0.01661-0.87149-0.72797-1.56921-1.59961-1.56894C39.6046,181.58556,38.89159,182.31252,38.89551,183.20215z"/>
			<path fill="#313131" d="M40.49414,185.84033c-1.45729-0.00592-2.63387-1.19209-2.62795-2.64938
				c0.00592-1.45731,1.19209-2.63388,2.64939-2.62796c1.4533,0.00591,2.62823,1.18585,2.62797,2.63916
				c0.01293,1.44417-1.14732,2.62538-2.59148,2.63831C40.53276,185.84062,40.51345,185.84059,40.49414,185.84033z
				 M40.49414,180.86279c-1.29172,0.00537-2.33451,1.05688-2.32913,2.3486c0.00538,1.29173,1.05689,2.33452,2.34861,2.32913
				c1.28773-0.00536,2.32888-1.05064,2.32915-2.33838c0.01147-1.28058-1.01734-2.32799-2.29792-2.33946
				C40.52795,180.86255,40.51104,180.86258,40.49414,180.86279z M40.49414,184.98096
				c-0.98268,0.01633-1.79253-0.76707-1.80885-1.74976c-0.01632-0.98268,0.76707-1.79253,1.74975-1.80885
				c0.98269-0.01633,1.79254,0.76707,1.80886,1.74976c0.00016,0.01001,0.00025,0.02003,0.00024,0.03004
				c0.00693,0.97404-0.77597,1.76985-1.75,1.77885V184.98096z M40.49414,181.72217c-0.8171-0.01689-1.49319,0.63181-1.51009,1.4489
				c-0.0169,0.81711,0.6318,1.49319,1.4489,1.51009c0.8171,0.01689,1.49319-0.63179,1.51009-1.4489
				c0.00021-0.01003,0.00031-0.02007,0.00032-0.03009C41.95116,182.39357,41.30273,181.73135,40.49414,181.72217z"/>
		</g>
		<g>
			<path fill="#313131" d="M45.1709,180.85352v2.58789c0,0.75,0.18945,1.40918,1.0791,1.40918s1.0791-0.65918,1.0791-1.40918
				v-2.58789h0.89942v2.68849c0,1.2793-0.59961,2.14844-1.97852,2.14844s-1.97852-0.86914-1.97852-2.14844v-2.68848
				L45.1709,180.85352z"/>
			<path fill="#313131" d="M46.25,185.84033c-1.373,0-2.12891-0.81641-2.12891-2.29834v-2.68848
				c0.00005-0.08284,0.06724-0.14996,0.15008-0.14992c0.0001,0,0.00021,0,0.00031,0h0.89942
				c0.08284-0.00021,0.15017,0.06677,0.15039,0.14961c0,0.00011,0,0.0002,0,0.00031v2.58789
				c0,0.88281,0.27734,1.25928,0.92871,1.25928s0.92871-0.37646,0.92871-1.25928v-2.58789
				c0.00005-0.08284,0.06724-0.14996,0.15008-0.14992c0.0001,0,0.00021,0,0.00031,0h0.89942
				c0.08284-0.00021,0.15017,0.06677,0.15039,0.14961c0,0.00011,0,0.0002,0,0.00031v2.68849
				C48.37891,185.02393,47.62305,185.84033,46.25,185.84033z M44.42188,181.00342v2.53859c0,0.91162,0.3164,1.99854,1.82812,1.99854
				s1.82813-1.08691,1.82813-1.99854v-2.53857h-0.59864v2.438c0,0.38574,0,1.55908-1.22949,1.55908
				s-1.22949-1.17334-1.22949-1.55908v-2.438L44.42188,181.00342z"/>
		</g>
		<g>
			<path fill="#313131" d="M50.95605,185.53027h-0.89941v-3.83789h-0.49023v-0.83887h0.49023v-1.78906h0.89941v1.78906H51.835
				v0.83887h-0.87891L50.95605,185.53027z"/>
			<path fill="#313131" d="M50.95605,185.68018h-0.89941c-0.08284,0.00021-0.15017-0.06677-0.15039-0.14961
				c0-0.00011,0-0.0002,0-0.00031v-3.688h-0.33984c-0.08284,0.00021-0.15017-0.06677-0.15039-0.14961c0-0.00011,0-0.0002,0-0.00031
				v-0.83887c0.00005-0.08284,0.06724-0.14996,0.15008-0.14992c0.0001,0,0.00021,0,0.00031,0h0.33984v-1.63916
				c0.00005-0.08284,0.06725-0.14996,0.1501-0.1499c0.0001,0,0.00019,0,0.00029,0h0.89941
				c0.08284-0.00021,0.15018,0.06676,0.1504,0.1496c0,0.00011,0,0.0002,0,0.00031v1.63916H51.835
				c0.08284-0.00021,0.15017,0.06677,0.15039,0.14961c0,0.00011,0,0.0002,0,0.00031v0.83887
				c-0.00005,0.08284-0.06724,0.14996-0.15008,0.14992c-0.0001,0-0.00021,0-0.00031,0h-0.72851v3.688
				c-0.00007,0.08287-0.06731,0.14999-0.15018,0.14992C50.95622,185.68018,50.95613,185.68018,50.95605,185.68018z
				 M50.20705,185.38037h0.59863v-3.688c0.00005-0.08284,0.06725-0.14996,0.1501-0.1499c0.0001,0,0.00019,0,0.00029,0h0.72852
				v-0.53906h-0.72852c-0.08284,0.00021-0.15017-0.06677-0.15039-0.14961c0-0.00009,0-0.0002,0-0.00029v-1.63916H50.207v1.63916
				c-0.00005,0.08284-0.06725,0.14996-0.1501,0.1499c-0.0001,0-0.00019,0-0.00029,0H49.7168v0.53906h0.33984
				c0.08284-0.00021,0.15017,0.06677,0.15039,0.14961c0,0.00009,0,0.0002,0,0.00029L50.20705,185.38037z"/>
		</g>
	</g>
	<g>
		<g>
			<path fill="#AFAFAF" d="M42.0625,83.34473c-0.18487,0.00014-0.35469-0.10187-0.44141-0.26514l-0.97265-1.82617
				c-0.1303-0.24347-0.03856-0.54646,0.20491-0.67677c0.24347-0.13029,0.54647-0.03855,0.67677,0.20492
				c0.00038,0.0007,0.00076,0.00141,0.00113,0.00212l0.97266,1.82617c0.1299,0.24348,0.03783,0.54616-0.20565,0.67606
				C42.22571,83.32462,42.14473,83.34483,42.0625,83.34473z"/>
			<path fill="#AFAFAF" d="M45.25293,81.29883c-0.15194,0.00011-0.29568-0.06889-0.39063-0.1875l-1.29394-1.61524
				c-0.17259-0.21574-0.13761-0.53053,0.07813-0.70313s0.53054-0.13761,0.70313,0.07813l1.29394,1.61524
				c0.17226,0.21565,0.1373,0.53008-0.07812,0.70263C45.477,81.26043,45.36663,81.29923,45.25293,81.29883z"/>
			<path fill="#AFAFAF" d="M48.04,78.71143c-0.12249,0.00029-0.24075-0.04476-0.332-0.12647l-1.5459-1.37549
				c-0.2063-0.18337-0.22488-0.49927-0.04151-0.70557c0.18338-0.2063,0.49927-0.22488,0.70557-0.0415l1.5459,1.37549
				c0.20655,0.18292,0.2257,0.49864,0.04278,0.70518c-0.095,0.10728-0.23149,0.16859-0.37478,0.16836H48.04z"/>
			<path fill="#AFAFAF" d="M50.39551,75.68018c-0.09597,0.00021-0.18994-0.02744-0.27051-0.07959l-1.73926-1.1211
				c-0.23152-0.15043-0.29726-0.46006-0.14683-0.69158c0.14948-0.23006,0.45645-0.29666,0.68783-0.14924l1.73926,1.1211
				c0.23219,0.14948,0.29923,0.45888,0.14975,0.69107c-0.092,0.14291-0.2503,0.22929-0.42027,0.22934H50.39551z"/>
			<path fill="#AFAFAF" d="M52.29,72.29932c-0.07144,0.0002-0.14207-0.01514-0.207-0.04493l-1.88281-0.85888
				c-0.25283-0.11105-0.36776-0.40604-0.25671-0.65887c0.11105-0.25282,0.40603-0.36776,0.65886-0.25671
				c0.00399,0.00175,0.00796,0.00356,0.0119,0.00542l1.88281,0.85889c0.25137,0.11422,0.36256,0.41058,0.24834,0.66196
				c-0.08114,0.17857-0.2592,0.2932-0.45534,0.29312H52.29z"/>
			<path fill="#AFAFAF" d="M53.69336,68.65869c-0.04795,0.00014-0.09566-0.00677-0.1416-0.02051l-1.9834-0.58789
				c-0.26482-0.07848-0.41589-0.35677-0.33741-0.62159c0.07847-0.26482,0.35677-0.41589,0.62159-0.33741l1.9834,0.58789
				c0.26475,0.07874,0.41555,0.35718,0.33681,0.62193c-0.06308,0.21214-0.25808,0.35757-0.47939,0.35757V68.65869z"/>
			<path fill="#AFAFAF" d="M54.57617,64.84668c-0.02483-0.00008-0.04963-0.00188-0.07422-0.00537l-2.04687-0.30322
				c-0.27277-0.04022-0.46129-0.29395-0.42107-0.56673c0.00006-0.00038,0.00011-0.00077,0.00017-0.00115
				c0.04404-0.27079,0.29541-0.45749,0.56738-0.42138l2.04688,0.30322c0.27315,0.04072,0.46157,0.29516,0.42086,0.56831
				C55.03286,64.6648,54.82331,64.84596,54.57617,64.84668z"/>
			<path fill="#AFAFAF" d="M54.89941,60.95215L54.89941,60.95215l-2.06836-0.001c-0.27614,0-0.5-0.22386-0.5-0.5
				s0.22386-0.5,0.5-0.5l0,0l2.06836,0.001c0.27614,0,0.5,0.22386,0.5,0.5S55.17555,60.95215,54.89941,60.95215z"/>
			<path fill="#AFAFAF" d="M52.56543,57.35889c-0.27618-0.00059-0.49958-0.22495-0.49899-0.50112
				c0.00052-0.24372,0.17666-0.45156,0.41699-0.49205l2.04-0.34179c0.27255-0.04476,0.52977,0.1399,0.57453,0.41245
				c0.04451,0.27102-0.13787,0.52721-0.40853,0.57387l-2.04,0.3418C52.62167,57.35671,52.59357,57.359,52.56543,57.35889z"/>
			<path fill="#AFAFAF" d="M51.72754,53.94678c-0.27606-0.00003-0.49982-0.22385-0.49979-0.49992
				c0.00003-0.21353,0.1357-0.40347,0.33768-0.47274l1.957-0.67236c0.26104-0.08953,0.54523,0.0495,0.63476,0.31055
				c0.08953,0.26104-0.0495,0.54523-0.31054,0.63476l0,0l-1.957,0.67236C51.83751,53.93751,51.78272,53.94675,51.72754,53.94678z"/>
			<path fill="#AFAFAF" d="M50.36328,50.76123c-0.27631-0.00035-0.50002-0.22463-0.49966-0.50093
				c0.00024-0.18392,0.10136-0.35287,0.26334-0.43999l1.82325-0.97656c0.24371-0.13016,0.54678-0.03812,0.67694,0.20559
				c0.12989,0.2432,0.03852,0.54565-0.2043,0.67625l-1.82324,0.97656C50.52689,50.74096,50.44572,50.76126,50.36328,50.76123z"/>
			<path fill="#AFAFAF" d="M48.51855,47.84814c-0.27604,0.00013-0.49992-0.22354-0.50004-0.49958
				c-0.00008-0.15668,0.07333-0.30433,0.19829-0.39885l1.64843-1.24951c0.21991-0.16685,0.53343-0.12384,0.70028,0.09607
				c0.16685,0.21991,0.12384,0.53343-0.09607,0.70028c-0.00023,0.00018-0.00046,0.00035-0.00069,0.00053l-1.64844,1.24951
				C48.73357,47.81259,48.62755,47.84827,48.51855,47.84814z"/>
			<path fill="#AFAFAF" d="M46.23926,45.25391c-0.27614,0.00002-0.50001-0.22383-0.50003-0.49997
				c0-0.12976,0.05043-0.25444,0.14065-0.34769l1.43848-1.4873c0.19201-0.19848,0.50855-0.20372,0.70703-0.01172
				c0.19847,0.19201,0.20372,0.50855,0.01172,0.70703l0,0l-1.43848,1.4873C46.50465,45.19925,46.37482,45.25428,46.23926,45.25391z"
				/>
			<path fill="#AFAFAF" d="M43.5752,43.02539c-0.27634-0.00026-0.50015-0.22448-0.4999-0.50082
				c0.0001-0.10324,0.03212-0.20392,0.09169-0.28824l1.19629-1.6875c0.16038-0.22492,0.47273-0.27724,0.69765-0.11686
				c0.22388,0.15964,0.27693,0.47006,0.11876,0.69498l-1.19629,1.6875C43.88968,42.9469,43.73745,43.02556,43.5752,43.02539z"/>
			<path fill="#AFAFAF" d="M40.57324,41.21045c-0.27621,0.00006-0.50017-0.2238-0.50023-0.50001
				c-0.00002-0.07781,0.01812-0.15455,0.05297-0.22411l0.92773-1.84912c0.12479-0.24651,0.42578-0.34519,0.67229-0.22041
				c0.24509,0.12407,0.3443,0.42255,0.22224,0.66865l-0.92773,1.84912C40.93551,41.10364,40.76248,41.21037,40.57324,41.21045z"/>
			<path fill="#AFAFAF" d="M37.28125,39.856c-0.05203-0.00006-0.10374-0.00814-0.15332-0.02393
				c-0.26277-0.08484-0.40705-0.3666-0.32227-0.62939l0.63477-1.96924c0.08416-0.26283,0.36544-0.40767,0.62827-0.32351
				c0.26283,0.08416,0.40767,0.36544,0.32352,0.62827c-0.0002,0.00063-0.0004,0.00126-0.00061,0.00189l-0.63476,1.96924
				C37.69027,39.71579,37.49819,39.8558,37.28125,39.856z"/>
			<path fill="#AFAFAF" d="M33.74805,39.00781c-0.0265,0.00007-0.05296-0.00205-0.0791-0.00635
				c-0.27272-0.04308-0.45894-0.29902-0.416-0.57177l0.32324-2.04346c0.04385-0.2728,0.30053-0.4584,0.57333-0.41455
				c0.27181,0.04369,0.45724,0.29877,0.41495,0.5708l-0.32324,2.04346C34.2026,38.82851,33.99368,39.00722,33.74805,39.00781z"/>
			<path fill="#AFAFAF" d="M30.0166,38.71289L30.0166,38.71289c-0.27623-0.00024-0.50003-0.22425-0.5-0.50049l0.002-2.06885
				c0.00006-0.27593,0.22379-0.49957,0.49973-0.49951c0.00009,0,0.00018,0,0.00027,0l0,0
				c0.27623,0.00024,0.50003,0.22425,0.5,0.50049l-0.002,2.06885c-0.00005,0.27592-0.22377,0.49956-0.49969,0.49951
				C30.01681,38.71289,30.0167,38.71289,30.0166,38.71289z"/>
			<path fill="#AFAFAF" d="M26.28418,39.00244c-0.24578-0.00063-0.45475-0.1796-0.49316-0.42236l-0.32032-2.044
				c-0.04288-0.27291,0.1436-0.5289,0.4165-0.57177c0.27291-0.04288,0.5289,0.1436,0.57178,0.4165l0.32032,2.04394
				c0.04287,0.27287-0.14358,0.52882-0.41644,0.57169c-0.00019,0.00003-0.00037,0.00006-0.00056,0.00009
				C26.33644,39.00045,26.31033,39.00242,26.28418,39.00244z"/>
			<path fill="#AFAFAF" d="M22.749,39.8457c-0.21735-0.00007-0.40985-0.1403-0.47656-0.34716l-0.63183-1.96973
				c-0.08361-0.26345,0.06218-0.5448,0.32563-0.62841c0.26232-0.08325,0.54264,0.06093,0.62749,0.32274l0.63184,1.96973
				c0.08397,0.26352-0.06157,0.54521-0.32509,0.62919C22.8515,39.83766,22.80041,39.84564,22.749,39.8457z"/>
			<path fill="#AFAFAF" d="M19.45508,41.19629c-0.18937-0.00007-0.36248-0.10704-0.44727-0.27637l-0.9248-1.85058
				c-0.12418-0.24668-0.02488-0.54733,0.22181-0.67151c0.24668-0.12418,0.54733-0.02488,0.67151,0.22181
				c0.00041,0.00081,0.00081,0.00162,0.00121,0.00243l0.9248,1.85059c0.12351,0.24698,0.02341,0.54733-0.22357,0.67083
				C19.60932,41.17822,19.53273,41.1963,19.45508,41.19629z"/>
			<path fill="#AFAFAF" d="M16.4502,43.00732c-0.16232-0.00003-0.31453-0.07886-0.40821-0.21142l-1.19433-1.68945
				c-0.15938-0.22544-0.10582-0.5374,0.11963-0.69677c0.22544-0.15937,0.5374-0.10582,0.69677,0.11963l0,0l1.19434,1.68945
				c0.15953,0.22521,0.10628,0.53711-0.11893,0.69663C16.65491,42.97528,16.55382,43.00741,16.4502,43.00732z"/>
			<path fill="#AFAFAF" d="M13.78223,45.23242c-0.13587,0.00001-0.26592-0.05515-0.36035-0.15283l-1.43555-1.48926
				c-0.19085-0.19987-0.18353-0.51661,0.01634-0.70745c0.19861-0.18965,0.51296-0.18379,0.70436,0.01313l1.43555,1.48925
				c0.19146,0.19937,0.18505,0.51621-0.01432,0.70767C14.0352,45.18228,13.91124,45.23226,13.78223,45.23242z"/>
			<path fill="#AFAFAF" d="M11.5,47.82373c-0.10935,0.00006-0.21571-0.03578-0.30273-0.102l-1.64649-1.252
				c-0.21978-0.16719-0.26241-0.4809-0.09521-0.70068c0.1672-0.21978,0.4809-0.26241,0.70068-0.09521l1.64648,1.252
				c0.21989,0.16685,0.26289,0.48038,0.09603,0.70027c-0.09463,0.1247-0.24222,0.19787-0.39876,0.19768V47.82373z"/>
			<path fill="#AFAFAF" d="M9.65137,50.73389c-0.0825,0.00008-0.16373-0.02039-0.23633-0.05957l-1.82227-0.9795
				c-0.24324-0.13052-0.33462-0.43352-0.2041-0.67676c0.13052-0.24324,0.43352-0.33462,0.67676-0.2041l1.82227,0.9795
				c0.24331,0.13044,0.33482,0.43342,0.20439,0.67673C10.00502,50.63261,9.83565,50.73395,9.65137,50.73389z"/>
			<path fill="#AFAFAF" d="M8.28223,53.917c-0.0555-0.00003-0.11061-0.00927-0.16309-0.02734l-1.956-0.67481
				c-0.26123-0.08951-0.40045-0.37384-0.31094-0.63507c0.08951-0.26123,0.37384-0.40045,0.63507-0.31094
				c0.00068,0.00023,0.00136,0.00047,0.00204,0.0007l1.956,0.67481c0.26104,0.09008,0.39962,0.37472,0.30954,0.63575
				C8.68528,53.78171,8.4955,53.91699,8.28223,53.917z"/>
			<path fill="#AFAFAF" d="M7.43945,57.32764c-0.02814-0.00009-0.05622-0.00238-0.084-0.00684l-2.04-0.34473
				c-0.2724-0.04614-0.45595-0.3042-0.41016-0.57666c0.05115-0.26896,0.30534-0.44969,0.57618-0.40966l2.04,0.34472
				c0.27237,0.04548,0.4563,0.30315,0.41082,0.57552c-0.04022,0.24089-0.24859,0.41748-0.49282,0.41765H7.43945z"/>
			<path fill="#AFAFAF" d="M7.169,60.91943H7.168L5.09863,60.917c-0.27614-0.00027-0.49978-0.22436-0.4995-0.5005
				c0.00028-0.27614,0.22436-0.49978,0.5005-0.4995h0.001l2.06933,0.00244c0.27614,0.00066,0.49947,0.22505,0.49881,0.50119
				c-0.00066,0.2756-0.2242,0.4987-0.49981,0.49881L7.169,60.91943z"/>
			<path fill="#AFAFAF" d="M5.41113,64.81543c-0.2762-0.0005-0.4997-0.22482-0.49919-0.50102
				c0.00045-0.24834,0.18307-0.45873,0.42888-0.4941l2.04785-0.29345c0.27244-0.03484,0.52327,0.15306,0.56641,0.42431
				c0.03916,0.2733-0.15056,0.52662-0.42383,0.56592L5.4834,64.81055C5.45946,64.81387,5.4353,64.8155,5.41113,64.81543z"/>
			<path fill="#AFAFAF" d="M6.27148,68.63525c-0.27614,0.00014-0.50012-0.22359-0.50026-0.49974
				c-0.00012-0.22293,0.14737-0.41901,0.36159-0.48072l1.98731-0.57325c0.26526-0.07693,0.54265,0.07575,0.61958,0.341
				c0.07692,0.26526-0.07575,0.54266-0.34101,0.61958c-0.00041,0.00012-0.00082,0.00024-0.00123,0.00036l-1.9873,0.57324
				C6.36507,68.62866,6.31839,68.63523,6.27148,68.63525z"/>
			<path fill="#AFAFAF" d="M7.64746,72.2876c-0.27614,0.00013-0.5001-0.22363-0.50023-0.49976
				c-0.00009-0.19736,0.11592-0.37631,0.29613-0.45679L9.333,70.4873c0.25214-0.11272,0.54793,0.00031,0.66065,0.25245
				c0.11272,0.25214-0.0003,0.54792-0.25245,0.66064l-1.88965,0.84375C7.78736,72.27291,7.7178,72.28773,7.64746,72.2876z"/>
			<path fill="#AFAFAF" d="M9.51465,75.68164c-0.27623-0.00031-0.4999-0.22449-0.49959-0.50073
				c0.00019-0.17096,0.0877-0.32997,0.23201-0.42163l1.74707-1.10791c0.23434-0.14607,0.54273-0.07452,0.68881,0.15984
				c0.14456,0.23192,0.07613,0.53694-0.15365,0.68488L9.78223,75.604C9.70226,75.65485,9.60942,75.68179,9.51465,75.68164z"/>
			<path fill="#AFAFAF" d="M11.84668,78.72607c-0.27602,0.00028-0.5-0.22324-0.50029-0.49925
				c-0.00015-0.14408,0.06189-0.28122,0.17021-0.37623l1.55469-1.36621c0.20738-0.1823,0.52328-0.16196,0.70558,0.04542
				s0.16196,0.52328-0.04542,0.70558l-1.55469,1.36621C12.0856,78.68196,11.96821,78.72623,11.84668,78.72607z"/>
			<path fill="#AFAFAF" d="M14.62012,81.32471c-0.11414,0.00028-0.22488-0.03887-0.31348-0.11084
				c-0.21489-0.17329-0.24897-0.48784-0.07617-0.70313l1.29883-1.61083c0.17413-0.2146,0.48927-0.24741,0.70387-0.07327
				c0.21357,0.17329,0.24725,0.48646,0.07542,0.7012l-1.29882,1.61084C14.91465,81.25635,14.77143,81.32473,14.62012,81.32471z"/>
			<path fill="#AFAFAF" d="M17.80957,83.37744c-0.27595,0.00033-0.49991-0.22311-0.50024-0.49906
				c-0.0001-0.08224,0.02011-0.16324,0.05883-0.2358l0.97266-1.82617c0.12895-0.24419,0.43144-0.33759,0.67562-0.20864
				c0.24418,0.12896,0.33759,0.43144,0.20864,0.67563c-0.00048,0.00091-0.00097,0.00182-0.00145,0.00273L18.251,83.1123
				C18.16428,83.27558,17.99445,83.37759,17.80957,83.37744z"/>
		</g>
		<path fill="#AFAFAF" d="M41.30664,81.31641c-0.27605,0.00027-0.50005-0.2233-0.50032-0.49936
			c-0.00017-0.17973,0.09617-0.34573,0.25232-0.43473c10.71631-6.10725,14.45269-19.74544,8.34544-30.46174
			s-19.74544-14.45269-30.46174-8.34544S4.48965,61.32057,10.5969,72.03688c1.97373,3.46328,4.83843,6.33518,8.29674,8.3176
			c0.23947,0.13752,0.32211,0.44312,0.1846,0.68259c-0.13752,0.23946-0.44313,0.32211-0.68259,0.18459l0,0
			c-11.17943-6.40915-15.0465-20.6675-8.63735-31.84693s20.6675-15.0465,31.84693-8.63736s15.0465,20.6675,8.63736,31.84693
			c-2.07083,3.61212-5.07048,6.60432-8.68775,8.66616C41.47934,81.29392,41.39373,81.31667,41.30664,81.31641z"/>
	</g>
	<g>
		<g>
			<path fill="#AFAFAF" d="M20.918,144.06738c-0.10629-0.23906-0.33829-0.39775-0.59961-0.41016
				c-0.26033-0.00293-0.47662,0.20001-0.49023,0.46001c0,0.40918,0.54,0.58984,1.08984,0.83887
				c0.54883,0.25,1.0791,0.58984,1.0791,1.33008c-0.01125,0.86685-0.7231,1.56046-1.58995,1.54919
				c-0.00648-0.00008-0.01296-0.0002-0.01945-0.00037c-0.70339,0.01332-1.34427-0.40221-1.61915-1.0498l0.76954-0.34961
				c0.13464,0.35426,0.47071,0.59145,0.84961,0.59961c0.36995,0.02159,0.68736-0.26082,0.70894-0.63078
				c0.00055-0.00945,0.0009-0.01892,0.00105-0.0284c-0.00145-0.21968-0.13023-0.41856-0.33008-0.50977l-0.87988-0.46973
				c-0.51954-0.28027-0.89942-0.53999-0.89942-1.17969c0.00332-0.75412,0.61734-1.36276,1.37146-1.35944
				c0.00281,0.00002,0.00562,0.00003,0.00842,0.00006c0.55091-0.00381,1.05235,0.31732,1.2793,0.81934L20.918,144.06738z"/>
			<path fill="#AFAFAF" d="M20.3877,148.03516c-0.7877,0.01686-1.50504-0.45134-1.80665-1.1792
				c-0.03704-0.09868,0.00862-0.20918,0.1045-0.25293l0.76953-0.34961c0.09554-0.04428,0.20903-0.00638,0.25879,0.08643
				c0.19629,0.36084,0.3789,0.49512,0.67383,0.49512c0.26019,0.02061,0.48783-0.17361,0.50844-0.43381
				c0.00066-0.00839,0.0011-0.01678,0.00132-0.02519c0-0.147-0.04687-0.21436-0.24023-0.34328l-0.86328-0.46001
				c-0.55079-0.29688-1.00586-0.60352-1.00586-1.356c0.01755-0.87872,0.74412-1.57684,1.62285-1.5593
				c0.61178,0.01221,1.16237,0.37411,1.41621,0.93088c0.0471,0.09674,0.00962,0.21342-0.085,0.26465l-0.72949,0.39063
				c-0.0484,0.02567-0.10513,0.03059-0.15723,0.01367c-0.05187-0.01692-0.09457-0.05432-0.11817-0.10352
				c-0.0732-0.16939-0.23484-0.28375-0.41894-0.29639c-0.14944-0.00182-0.27542,0.11102-0.29,0.25977
				c0,0.229,0.35742,0.38623,0.77148,0.56787L21,144.7738c0.68208,0.19516,1.16376,0.80354,1.19727,1.51221
				c-0.00637,0.97275-0.80011,1.75615-1.77286,1.74977C20.41217,148.03571,20.39993,148.03549,20.3877,148.03516z
				 M19.03516,146.88379c0.28631,0.47191,0.8006,0.75748,1.35254,0.75101c0.75361,0.02431,1.38425-0.56691,1.40856-1.32051
				c0.0003-0.00937,0.00051-0.01875,0.00062-0.02812c0-0.58936-0.38477-0.88525-0.96192-1.14799l-0.19531-0.08691
				c-0.52051-0.228-1.01172-0.44385-1.01172-0.93408c0.01344-0.3707,0.31951-0.66335,0.69043-0.66016
				c0.26458,0.00613,0.51163,0.13362,0.66992,0.3457l0.38379-0.20506c-0.35791-0.54997-1.09389-0.70567-1.64387-0.34778
				c-0.32829,0.21364-0.53019,0.57535-0.53972,0.96692c0,0.49219,0.24511,0.70752,0.79394,1.00391l0.87891,0.46924
				c0.26448,0.12665,0.43383,0.39278,0.43652,0.686c-0.00343,0.47864-0.39423,0.86388-0.87287,0.86044
				c-0.01243-0.00009-0.02486-0.00044-0.03728-0.00107c-0.38601,0.00174-0.74249-0.20642-0.93067-0.54346L19.03516,146.88379z"/>
		</g>
		<g>
			<path fill="#AFAFAF" d="M23.915,145.48633c-0.04342,0.81149,0.57924,1.50455,1.39074,1.54796
				c0.00615,0.00032,0.01229,0.00063,0.01844,0.00087c0.60517,0.00018,1.15365-0.35616,1.39941-0.90918l0.75977,0.42969
				c-0.42905,0.79639-1.2644,1.28909-2.16895,1.2793c-1.25554,0.01813-2.28805-0.985-2.30618-2.24055
				c-0.00105-0.07289,0.0014-0.14578,0.00735-0.21844c-0.1567-1.22475,0.70911-2.34462,1.93386-2.50133
				c0.11453-0.01465,0.23002-0.02042,0.34543-0.01723c1.48828,0,2.18848,1.09961,2.18848,2.48926v0.13965L23.915,145.48633z
				 M26.58394,144.80664c-0.0499-0.67072-0.61667-1.18468-1.28906-1.16895c-0.67461-0.00127-1.2447,0.49976-1.33008,1.16895
				H26.58394z"/>
			<path fill="#AFAFAF" d="M25.31445,148.03516c-1.36451,0.01949-2.48646-1.07088-2.50595-2.43538
				c-0.00107-0.07468,0.00125-0.14935,0.00695-0.2238c-0.16655-1.32527,0.77278-2.53464,2.09805-2.70119
				c0.12648-0.0159,0.25403-0.02177,0.38144-0.01756c1.47363,0,2.38867,1.03076,2.38867,2.68945v0.13965
				c-0.00014,0.1105-0.08969,0.20004-0.20019,0.2002h-3.35256c0.04511,0.63187,0.56022,1.12759,1.19336,1.14844
				c0.53504-0.00159,1.01792-0.32115,1.22851-0.813c0.05605-0.09247,0.17546-0.12361,0.26954-0.07031l0.75976,0.42969
				c0.0947,0.05394,0.12896,0.17365,0.07715,0.26953C27.1965,147.51305,26.29287,148.04654,25.31445,148.03516z M25.29492,143.05762
				c-1.11951-0.03966-2.0592,0.83574-2.09886,1.95525c-0.0043,0.12138,0.00231,0.2429,0.01976,0.36311
				c-0.1066,1.13614,0.728,2.14357,1.86414,2.25017c0.07794,0.00731,0.15623,0.01019,0.23449,0.00862
				c0.76113,0.00946,1.47458-0.36972,1.89258-1.00586l-0.417-0.23537c-0.29655,0.52887-0.85956,0.8522-1.46582,0.8418
				c-0.92051-0.03114-1.64149-0.80263-1.61034-1.72313c0.00027-0.00783,0.00059-0.01564,0.00096-0.02345
				c-0.00011-0.05336,0.02056-0.10468,0.05762-0.14307c0.0377-0.03806,0.08902-0.05949,0.14258-0.05957h3.36817
				C27.2627,143.88916,26.52246,143.05762,25.29492,143.05762z M26.58398,145.00684h-2.61914
				c-0.1107-0.00029-0.2002-0.09027-0.19991-0.20097c0.00003-0.0107,0.00091-0.02138,0.00265-0.03194
				c0.10406-0.76431,0.75597-1.33475,1.52734-1.33643c0.77051-0.01518,1.42065,0.57004,1.48633,1.33789
				c0.00967,0.05771-0.00678,0.11674-0.04492,0.16113c-0.03809,0.04453-0.09373,0.07021-0.15233,0.07031H26.58398z
				 M24.22168,144.60645H26.333c-0.12004-0.46991-0.5536-0.79091-1.03809-0.76855
				C24.80785,143.83263,24.37354,144.14363,24.22168,144.60645z"/>
		</g>
		<g>
			<path fill="#AFAFAF" d="M29.65039,143.627h0.01953c0.2975-0.49091,0.83536-0.78462,1.40918-0.76953
				c1.31934,0,1.65918,0.88965,1.65918,2.0293v2.78809h-0.89941v-2.67871c0-0.79881-0.11035-1.33887-1.0293-1.33887
				c-1.15918,0-1.15918,1.01953-1.15918,1.86914v2.14844H28.751v-4.67674h0.89941L29.65039,143.627z"/>
			<path fill="#AFAFAF" d="M32.73828,147.875h-0.89941c-0.1105-0.00015-0.20005-0.08969-0.2002-0.2002v-2.67871
				c0-0.84033-0.125-1.13867-0.8291-1.13867c-0.89258,0-0.959,0.66064-0.959,1.66895v2.14844
				c-0.00015,0.1105-0.08969,0.20004-0.2002,0.2002H28.751c-0.1105-0.00015-0.20005-0.08969-0.2002-0.2002v-4.67676
				c0.00016-0.1105,0.0897-0.20004,0.2002-0.2002h0.89941c0.1105,0.00015,0.20004,0.08969,0.2002,0.2002v0.09961
				c0.34376-0.28882,0.77955-0.44505,1.22851-0.44043c1.251,0,1.85938,0.72949,1.85938,2.22949v2.78809
				C32.93835,147.78531,32.84879,147.87486,32.73828,147.875z M32.03906,147.47461h0.499v-2.58789
				c0-1.28223-0.43653-1.8291-1.459-1.8291c-0.50167-0.01619-0.97325,0.23882-1.23437,0.66748
				c-0.07493,0.09705-0.21434,0.11499-0.31139,0.04005c-0.04406-0.03401-0.07373-0.08334-0.08314-0.1382v-0.42871h-0.499v4.27637
				h0.499v-1.94824c0-0.82373,0-2.06934,1.35937-2.06934c1.13477,0,1.22949,0.79443,1.22949,1.53906L32.03906,147.47461z"/>
		</g>
		<g>
			<path fill="#AFAFAF" d="M36.35547,144.06738c-0.10629-0.23906-0.33828-0.39775-0.59961-0.41016
				c-0.26033-0.00293-0.47662,0.20001-0.49023,0.46001c0,0.40918,0.54,0.58984,1.08984,0.83887
				c0.54883,0.25,1.0791,0.58984,1.0791,1.33008c-0.01125,0.86685-0.7231,1.56046-1.58995,1.54919
				c-0.00647-0.00008-0.01295-0.0002-0.01942-0.00037c-0.70339,0.01332-1.34427-0.40221-1.61915-1.0498l0.76954-0.34961
				c0.13464,0.35426,0.47071,0.59145,0.84961,0.59961c0.36995,0.02159,0.68736-0.26082,0.70895-0.63078
				c0.00055-0.00945,0.0009-0.01892,0.00105-0.0284c-0.00145-0.21968-0.13022-0.41856-0.33008-0.50977l-0.87988-0.46973
				c-0.51954-0.28027-0.89942-0.53999-0.89942-1.17969c0.00332-0.75412,0.61734-1.36276,1.37146-1.35944
				c0.00281,0.00002,0.00562,0.00003,0.00842,0.00006c0.55091-0.00381,1.05235,0.31732,1.2793,0.81934L36.35547,144.06738z"/>
			<path fill="#AFAFAF" d="M35.8252,148.03516c-0.7877,0.01686-1.50504-0.45134-1.80665-1.1792
				c-0.03704-0.09868,0.00862-0.20918,0.1045-0.25293l0.76953-0.34961c0.09553-0.04445,0.20914-0.0065,0.25879,0.08643
				c0.19629,0.36084,0.3789,0.49512,0.67383,0.49512c0.2602,0.02061,0.48783-0.17361,0.50844-0.43381
				c0.00066-0.00838,0.0011-0.01678,0.00132-0.02519c0-0.147-0.04687-0.21436-0.24023-0.34328l-0.86328-0.46001
				c-0.55079-0.29688-1.00586-0.60352-1.00586-1.356c0.01755-0.87872,0.74413-1.57684,1.62285-1.5593
				c0.61177,0.01222,1.16236,0.37411,1.41621,0.93088c0.0471,0.09674,0.00962,0.21342-0.085,0.26465l-0.72949,0.39063
				c-0.0484,0.02567-0.10513,0.03059-0.15723,0.01367c-0.05187-0.01692-0.09457-0.05432-0.11817-0.10352
				c-0.0732-0.16939-0.23484-0.28375-0.41894-0.29639c-0.14944-0.00182-0.27542,0.11102-0.29,0.25977
				c0,0.229,0.35742,0.38623,0.77148,0.56787l0.2002,0.08887c0.68208,0.19516,1.16376,0.80354,1.19727,1.51221
				c-0.00637,0.97275-0.80011,1.75615-1.77285,1.74977C35.84967,148.03571,35.83743,148.03549,35.8252,148.03516z
				 M34.47266,146.88379c0.28631,0.47191,0.80061,0.75748,1.35254,0.75101c0.75362,0.02431,1.38425-0.56691,1.40856-1.32051
				c0.0003-0.00937,0.00051-0.01875,0.00062-0.02812c0-0.58936-0.38477-0.88525-0.96192-1.14799l-0.19531-0.08691
				c-0.52051-0.228-1.01172-0.44385-1.01172-0.93408c0.01344-0.3707,0.3195-0.66335,0.69043-0.66016
				c0.26458,0.00613,0.51163,0.13362,0.66992,0.3457l0.38379-0.20506c-0.35791-0.54997-1.09389-0.70567-1.64387-0.34778
				c-0.32829,0.21364-0.53019,0.57535-0.53972,0.96692c0,0.49219,0.24511,0.70752,0.79394,1.00391l0.87891,0.46924
				c0.26448,0.12665,0.43383,0.39278,0.43652,0.686c-0.00343,0.47864-0.39423,0.86388-0.87287,0.86044
				c-0.01243-0.00009-0.02486-0.00044-0.03728-0.00107c-0.38602,0.00174-0.74249-0.20642-0.93067-0.54346L34.47266,146.88379z"/>
		</g>
		<g>
			<path fill="#AFAFAF" d="M40.22266,147.25488c0.00054,0.32037-0.25873,0.58052-0.5791,0.58105
				c-0.32037,0.00055-0.58052-0.25873-0.58106-0.5791c-0.00054-0.32036,0.25873-0.58052,0.5791-0.58105
				c0.00033,0,0.00065,0,0.00098,0C39.96101,146.6795,40.2184,146.93646,40.22266,147.25488z"/>
			<path fill="#AFAFAF" d="M39.64258,148.03516c-0.43064-0.00072-0.77957-0.34964-0.78028-0.78027
				c0.00149-0.43094,0.35204-0.77907,0.78297-0.77757c0.42883,0.00148,0.77609,0.34874,0.77758,0.77757
				C40.42214,147.68552,40.07322,148.03444,39.64258,148.03516z M39.64258,146.87598
				c-0.20844,0.00235-0.37699,0.17047-0.37988,0.37891c0,0.20981,0.17008,0.37988,0.37988,0.37988
				c0.2098,0,0.37988-0.17007,0.37988-0.37988c-0.00291-0.20842-0.17146-0.37651-0.37988-0.37888V146.87598z"/>
		</g>
	</g>
	<g>
		<g>
			<path fill="#AFAFAF" d="M14.13086,172.78809c-0.32803-0.40167-0.82028-0.63326-1.33887-0.62988
				c-0.87887,0.03148-1.57158,0.75934-1.55957,1.63869c-0.04387,0.87164,0.62718,1.61383,1.49883,1.6577
				c0.04007,0.00201,0.0802,0.0025,0.12031,0.00146c0.497-0.0071,0.96537-0.23378,1.2793-0.61914v1.14941
				c-0.39596,0.21222-0.83991,0.31883-1.28906,0.30957c-1.37475,0.01077-2.49794-1.09497-2.50871-2.46973
				s1.09497-2.49794,2.46972-2.5087c0.0296-0.00023,0.0592,0.00006,0.08878,0.00089c0.43284-0.0041,0.8595,0.10281,1.23926,0.31055
				L14.13086,172.78809z"/>
			<path fill="#AFAFAF" d="M12.8418,176.49609c-1.4853,0.01088-2.6982-1.18437-2.70908-2.66968
				c-0.01088-1.48531,1.18437-2.6982,2.66968-2.70908c0.02974-0.00021,0.05948,0.00006,0.0892,0.00082
				c0.46819-0.00401,0.92955,0.11234,1.33985,0.33789c0.06154,0.03584,0.09945,0.10164,0.0996,0.17287v1.15918
				c-0.00025,0.1106-0.09011,0.20004-0.2007,0.1998c-0.05739-0.00014-0.11196-0.02489-0.14988-0.06796
				c-0.28986-0.35854-0.72744-0.56528-1.18848-0.56152c-0.7679,0.03224-1.37056,0.66998-1.35937,1.43848
				c-0.04587,0.75893,0.53218,1.41135,1.2911,1.45721c0.04256,0.00258,0.08522,0.00317,0.12784,0.00179
				c0.44032-0.00562,0.85495-0.20827,1.12989-0.55225c0.07367-0.08249,0.20026-0.08963,0.28275-0.01596
				c0.04251,0.03798,0.06683,0.09227,0.06685,0.14926v1.14941c-0.00028,0.07362-0.04072,0.14122-0.10546,0.17627
				C13.80052,176.39053,13.32402,176.50536,12.8418,176.49609z M12.8916,171.51855c-1.26254-0.03949-2.31803,0.952-2.35751,2.21454
				c-0.00108,0.03459-0.00138,0.06921-0.00089,0.10382c0.00014,1.24792,1.01189,2.25946,2.25982,2.25932
				c0.01626,0,0.03252-0.00018,0.04878-0.00053c0.37595,0.00731,0.74853-0.07205,1.08886-0.23193v-0.57129
				c-0.79901,0.6012-1.9341,0.44083-2.5353-0.35818c-0.24617-0.32716-0.37418-0.72812-0.36313-1.13742
				c-0.00829-0.98842,0.77194-1.80373,1.75977-1.83888c0.41014-0.00453,0.81034,0.12624,1.13867,0.37207v-0.582
				C13.60602,171.59427,13.25082,171.51581,12.8916,171.51855z"/>
		</g>
		<g>
			<path fill="#AFAFAF" d="M17.19824,174.377l1.34961-2.918h1.00879l-2.3584,4.83691l-2.34863-4.83691h1.00977L17.19824,174.377z"/>
			<path fill="#AFAFAF" d="M17.19824,176.49609L17.19824,176.49609c-0.07656-0.00008-0.14634-0.04388-0.17969-0.11279
				l-2.34863-4.83691c-0.04852-0.09908-0.00755-0.21872,0.09152-0.26724c0.02745-0.01344,0.05761-0.0204,0.08817-0.02036h1.00977
				c0.07815,0.00008,0.14909,0.04565,0.18164,0.1167l1.1582,2.52344l1.167-2.52393c0.0328-0.07076,0.10365-0.11609,0.18164-0.11621
				h1.00879c0.11046-0.00008,0.20006,0.08942,0.20013,0.19987c0.00002,0.03058-0.00697,0.06076-0.02044,0.08821l-2.3584,4.83691
				C17.34433,176.45241,17.27465,176.49596,17.19824,176.49609z M15.169,171.65918l2.02929,4.17969l2.03809-4.17969h-0.56055
				l-1.2959,2.80176c-0.0328,0.07076-0.10365,0.11609-0.18164,0.11621l0,0c-0.07809-0.00027-0.14894-0.04579-0.18164-0.1167
				l-1.28515-2.80127H15.169z"/>
		</g>
		<g>
			<path fill="#AFAFAF" d="M12.50586,178.71387c-0.00515,0.34221-0.28674,0.61545-0.62895,0.61031
				c-0.33495-0.00504-0.60527-0.27536-0.61031-0.61031c-0.00515-0.34221,0.26809-0.62381,0.61031-0.62895
				c0.34221-0.00516,0.6238,0.2681,0.62895,0.61031C12.50595,178.70143,12.50595,178.70766,12.50586,178.71387z M12.33594,185.53027
				h-0.89942v-4.67676h0.89942V185.53027z"/>
			<path fill="#AFAFAF" d="M12.33594,185.73047h-0.89942c-0.1105-0.00015-0.20004-0.08969-0.20019-0.2002v-4.67676
				c0.00015-0.1105,0.08969-0.20004,0.20019-0.2002h0.89942c0.1105,0.00015,0.20004,0.08969,0.20019,0.2002v4.67676
				C12.53598,185.64078,12.44644,185.73032,12.33594,185.73047z M11.63672,185.33008h0.499v-4.27637h-0.499V185.33008z
				 M11.88672,179.52441c-0.45009,0.00204-0.81697-0.36047-0.82031-0.81055c-0.005-0.45277,0.35799-0.82388,0.81076-0.82887
				c0.45277-0.005,0.82388,0.35799,0.82888,0.81076c0.00007,0.00603,0.00007,0.01207,0,0.01811
				C12.70318,179.16376,12.33662,179.5264,11.88672,179.52441z M11.88672,178.28517
				c-0.23419,0.00279-0.42198,0.19452-0.41992,0.42871c0.00506,0.23164,0.19695,0.41533,0.4286,0.41026
				c0.22452-0.00491,0.40535-0.18575,0.41026-0.41026c0.00254-0.23401-0.18493-0.42587-0.41894-0.42873L11.88672,178.28517z"/>
		</g>
		<g>
			<path fill="#AFAFAF" d="M15.17383,181.48242h0.01953c0.2975-0.49091,0.83536-0.78462,1.40918-0.76953
				c1.31934,0,1.65918,0.88965,1.65918,2.0293v2.78809H17.3623v-2.67871c0-0.79883-0.11035-1.33887-1.02929-1.33887
				c-1.15918,0-1.15918,1.01953-1.15918,1.86914v2.14844h-0.89942v-4.67676h0.89942L15.17383,181.48242z"/>
			<path fill="#AFAFAF" d="M18.26172,185.73047H17.3623c-0.1105-0.00015-0.20004-0.08969-0.20019-0.2002v-2.67871
				c0-0.84033-0.125-1.13867-0.8291-1.13867c-0.89258,0-0.959,0.66064-0.959,1.66901v2.14844
				c-0.00015,0.1105-0.08969,0.20004-0.20019,0.2002H14.2744c-0.1105-0.00015-0.20004-0.08969-0.20019-0.2002v-4.67676
				c0.00015-0.1105,0.08969-0.20004,0.20019-0.2002h0.89942c0.1105,0.00015,0.20004,0.08969,0.20019,0.2002v0.09961
				c0.34376-0.28882,0.77955-0.44505,1.22852-0.44043c1.251,0,1.85937,0.72949,1.85937,2.22949v2.78809
				C18.46172,185.64081,18.3722,185.73032,18.26172,185.73047z M17.5625,185.33008h0.499v-2.58789
				c0-1.28223-0.43652-1.8291-1.459-1.8291c-0.50167-0.01619-0.97325,0.23882-1.23438,0.66748
				c-0.07493,0.09705-0.21434,0.11499-0.31139,0.04005c-0.04406-0.03401-0.07373-0.08334-0.08314-0.1382v-0.42871h-0.499v4.27637
				h0.499v-1.94824c0-0.82373,0-2.06934,1.35938-2.06934c1.13476,0,1.22949,0.79443,1.22949,1.53906L17.5625,185.33008z"/>
		</g>
	</g>
	<path fill="#AFAFAF" d="M6.13366,0.00062h47.73268l0,0v5.40259c0,3.91436-3.17322,7.08758-7.08758,7.08758l0,0H13.22124
		c-3.91436,0-7.08758-3.17322-7.08758-7.08758l0,0V0.00062L6.13366,0.00062z"/>
	<g>
		<g>
			<g>
				<path fill="#CC4C4C" d="M12.51363,372.71753h-1.35635l-1.39539-2.31754H9.74628v2.3175H8.62607v-5.74792h1.51736
					c1.13582,0,1.92036,0.50299,1.92036,1.73056c0.0558,0.74802-0.44288,1.42474-1.17388,1.59299L12.51363,372.71753z
					 M9.74628,369.61499h0.14539c0.61768,0,1.05191-0.18301,1.05191-0.88455c0-0.70892-0.44984-0.84601-1.0441-0.84601h-0.1532
					V369.61499z"/>
				<path fill="#CC4C4C" d="M12.51367,372.918h-1.35644c-0.07009-0.00009-0.13497-0.03699-0.1709-0.09717l-1.04-1.72705v1.62399
					c-0.00015,0.1105-0.0897,0.20004-0.2002,0.2002H8.626c-0.1105-0.00015-0.20005-0.08969-0.2002-0.2002v-5.74799
					c0.00016-0.1105,0.0897-0.20004,0.2002-0.2002h1.51757c1.36719,0,2.12012,0.68555,2.12012,1.93066
					c0.03289,0.73264-0.38422,1.41132-1.05273,1.71289l1.46875,2.19336c0.0617,0.09149,0.03756,0.21567-0.05392,0.27737
					c-0.03311,0.02231-0.07215,0.03421-0.11208,0.03415L12.51367,372.918z M11.27051,372.51761h0.86816l-1.415-2.11328
					c-0.03816-0.05624-0.0448-0.12814-0.01758-0.19043c0.02702-0.06223,0.08356-0.10663,0.1504-0.11816
					c0.63109-0.15729,1.05657-0.74701,1.00683-1.39551c0-1.01563-0.57812-1.53027-1.71973-1.53027H8.82617v5.34766H9.5459v-2.11771
					c0.00015-0.1105,0.08969-0.20004,0.20019-0.2002c0.07436-0.00021,0.14408,0.03613,0.18653,0.09717L11.27051,372.51761z
					 M9.8916,369.81543H9.74609c-0.1105-0.00015-0.20004-0.08969-0.20019-0.2002v-1.73099
					c0.00015-0.1105,0.08969-0.20004,0.20019-0.2002h0.15332c0.33985,0,1.24414,0,1.24414,1.04639
					c0.02367,0.58487-0.43127,1.07816-1.01613,1.10184C10.04843,369.83548,9.96933,369.82983,9.8916,369.81543z M9.94629,368.08444
					v1.33008c0.58008-0.01074,0.79687-0.19971,0.79687-0.68408c0-0.47116-0.20216-0.63766-0.79687-0.64597V368.08444z"/>
			</g>
			<g>
				<path fill="#CC4C4C" d="M15.521,367.9454v1.26511h1.78375v0.9758H15.521v1.55542h1.853v0.9758h-2.97318v-5.74792h2.97324v0.9758
					H15.521z"/>
				<path fill="#CC4C4C" d="M17.374,372.918h-2.97361c-0.1105-0.00015-0.20004-0.08969-0.20019-0.2002v-5.74799
					c0.00015-0.1105,0.08969-0.20004,0.20019-0.2002H17.374c0.1105,0.00015,0.20005,0.08969,0.2002,0.2002v0.97559
					c-0.00015,0.1105-0.08969,0.20004-0.2002,0.2002h-1.65232v0.86475h1.583c0.1105,0.00015,0.20004,0.08969,0.20019,0.2002v0.97607
					c-0.00014,0.1105-0.08969,0.20004-0.20019,0.2002h-1.583v1.15479H17.374c0.1105,0.00015,0.20005,0.08969,0.2002,0.2002v0.97607
					C17.57401,372.82834,17.48448,372.91785,17.374,372.918z M14.60057,372.51761h2.57324v-0.57568h-1.65233
					c-0.1105-0.00015-0.20004-0.08969-0.20019-0.2002v-1.55518c0.00015-0.1105,0.08969-0.20004,0.20019-0.2002h1.583v-0.57568
					h-1.583c-0.1105-0.00015-0.20004-0.08969-0.20019-0.2002v-1.26514c0.00015-0.1105,0.08969-0.20004,0.20019-0.2002h1.65235
					v-0.5752h-2.57324L14.60057,372.51761z"/>
			</g>
			<g>
				<path fill="#D8BB44" d="M20.763,372.71753h-1.12022v-5.74792H21.167c1.20511,0,1.98965,0.4801,1.98965,1.78375
					c0.11013,0.89337-0.5248,1.70688-1.41817,1.81699c-0.13896,0.01715-0.27954,0.0163-0.41828-0.0025H20.763V372.71753z
					 M20.763,369.63791h0.22932c0.66256,0,1.02165-0.1449,1.02165-0.89236c0-0.73917-0.4274-0.84601-1.05288-0.84601H20.763
					V369.63791z"/>
				<path fill="#D8BB44" d="M20.7627,372.86768h-1.12012c-0.08284,0.00021-0.15018-0.06677-0.15039-0.1496
					c0-0.00012,0-0.00021,0-0.00031v-5.74799c0.00005-0.08286,0.06726-0.14996,0.1501-0.1499c0.0001,0,0.0002,0,0.00029,0H21.167
					c1.41992,0,2.13965,0.65039,2.13965,1.93359c0.10779,0.97836-0.59793,1.85886-1.57628,1.96664
					c-0.13631,0.01501-0.27391,0.01425-0.41005-0.00229H20.9131v2c-0.00009,0.08286-0.06732,0.14993-0.15016,0.14984
					C20.76286,372.86768,20.76278,372.86768,20.7627,372.86768z M19.79297,372.56787h0.81933v-2
					c0.00005-0.08286,0.06726-0.14996,0.1501-0.1499c0.0001,0,0.0002,0,0.0003,0h0.55761
					c0.81132,0.11816,1.56482-0.44376,1.68298-1.25507c0.01977-0.13574,0.02063-0.27353,0.00257-0.40948
					c0-1.11475-0.584-1.63379-1.83887-1.63379H19.793L19.79297,372.56787z M20.99219,369.7876H20.7627
					c-0.08284,0.00021-0.15018-0.06674-0.1504-0.1496c0-0.00009,0-0.00021,0-0.00031v-1.73828
					c0.00005-0.08286,0.06726-0.14996,0.1501-0.1499c0.0001,0,0.0002,0,0.0003,0h0.19824c0.582,0,1.20312,0.07666,1.20312,0.99609
					C22.16406,369.61035,21.69531,369.7876,20.99219,369.7876z M20.91309,369.48779h0.0791c0.61426,0,0.87109-0.103,0.87109-0.74219
					c0-0.5957-0.27832-0.69629-0.90234-0.69629h-0.04785V369.48779z"/>
			</g>
			<g>
				<path fill="#D8BB44" d="M26.30941,367.9454v1.26511h1.78375v0.9758h-1.78375v1.55542h1.853v0.9758H25.1892v-5.74792h2.97324
					v0.9758H26.30941z"/>
				<path fill="#D8BB44" d="M28.16211,372.86768h-2.97266c-0.08284,0.00021-0.15018-0.06677-0.15039-0.1496
					c0-0.00012,0-0.00021,0-0.00031v-5.74799c0.00005-0.08286,0.06726-0.14996,0.1501-0.1499c0.0001,0,0.0002,0,0.00029,0h2.97266
					c0.08284-0.00021,0.15018,0.06677,0.15039,0.1496c0,0.00012,0,0.00021,0,0.00031v0.97559
					c-0.00005,0.08286-0.06726,0.14996-0.1501,0.1499c-0.0001,0-0.0002,0-0.00029,0H26.46v0.96533h1.63281
					c0.08284-0.00021,0.15018,0.06677,0.15039,0.1496c0,0.00012,0,0.00021,0,0.00031v0.97607
					c-0.00005,0.08286-0.06726,0.14996-0.1501,0.1499c-0.0001,0-0.0002,0-0.00029,0H26.46v1.25537h1.70215
					c0.08284-0.00021,0.15018,0.06677,0.15039,0.1496c0,0.00012,0,0.00021,0,0.00031v0.97607
					c-0.00009,0.08286-0.06732,0.14993-0.15016,0.14984C28.16229,372.86768,28.1622,372.86768,28.16211,372.86768z
					 M25.33984,372.56787h2.67188v-0.67627h-1.70215c-0.08284,0.00021-0.15018-0.06677-0.15039-0.1496
					c0-0.00012,0-0.00021,0-0.00031v-1.55518c0.00005-0.08286,0.06726-0.14996,0.1501-0.1499c0.0001,0,0.0002,0,0.00029,0h1.63281
					v-0.67627h-1.63281c-0.08284,0.00021-0.15018-0.06677-0.15039-0.1496c0-0.00012,0-0.00021,0-0.00031v-1.26514
					c0.00005-0.08286,0.06726-0.14996,0.1501-0.1499c0.0001,0,0.0002,0,0.00029,0h1.70215v-0.67578h-2.67188V372.56787z"/>
			</g>
			<g>
				<path fill="#10A687" d="M31.55138,371.74173H33.137v0.9758h-2.70584v-5.74792h1.12022V371.74173z"/>
				<path fill="#10A687" d="M33.13672,372.86768h-2.70508c-0.08284,0.00021-0.15018-0.06677-0.15039-0.1496
					c0-0.00012,0-0.00021,0-0.00031v-5.74799c0.00005-0.08286,0.06726-0.14996,0.1501-0.1499c0.0001,0,0.0002,0,0.00029,0h1.12012
					c0.08284-0.00021,0.15018,0.06677,0.15039,0.1496c0,0.00012,0,0.00021,0,0.00031v4.62207h1.43457
					c0.08284-0.00021,0.15017,0.06677,0.15039,0.1496c0,0.00012,0,0.00021,0,0.00031v0.97607
					c-0.00009,0.08286-0.06731,0.14993-0.15016,0.14984C33.13688,372.86768,33.1368,372.86768,33.13672,372.86768z
					 M30.58203,372.56787h2.4043v-0.67627h-1.43457c-0.08284,0.00021-0.15018-0.06677-0.15039-0.1496c0-0.00012,0-0.00021,0-0.00031
					v-4.62207H30.582L30.58203,372.56787z"/>
			</g>
			<g>
				<path fill="#10A687" d="M38.81519,371.74173v0.9758h-4.17055l2.53121-4.77213H35.033v-0.9758h3.9188l-2.52341,4.77213H38.81519z
					"/>
				<path fill="#10A687" d="M38.81543,372.86768h-4.1709c-0.05276,0.00009-0.1017-0.02753-0.1289-0.07275
					c-0.02661-0.0452-0.02809-0.10092-0.00391-0.14746l2.415-4.55225H35.0332c-0.08284,0.00021-0.15017-0.06677-0.15039-0.1496
					c0-0.00012,0-0.00021,0-0.00031v-0.97559c0.00005-0.08286,0.06725-0.14996,0.1501-0.1499c0.0001,0,0.00019,0,0.00029,0h3.919
					c0.05264-0.00006,0.10149,0.02731,0.1289,0.07227c0.02661,0.04538,0.02809,0.10123,0.00391,0.14795l-2.40723,4.55176h2.1377
					c0.08284-0.00021,0.15017,0.06677,0.15039,0.1496c0,0.00012,0,0.00021,0,0.00031v0.97607
					c-0.00005,0.08286-0.06725,0.14996-0.1501,0.1499C38.81565,372.86768,38.81554,372.86768,38.81543,372.86768z
					 M34.89355,372.56787H38.665v-0.67627h-2.23629c-0.05264,0.00006-0.1015-0.02731-0.12891-0.07227
					c-0.02663-0.04538-0.0281-0.10129-0.0039-0.14801l2.40723-4.55176h-3.51954v0.67578h1.99219
					c0.05277-0.00009,0.10171,0.02753,0.12891,0.07275c0.0266,0.0452,0.02807,0.10092,0.0039,0.14746L34.89355,372.56787z"/>
			</g>
			<g>
				<path fill="#098EB7" d="M42.04311,367.9454v1.26511h1.78376v0.9758h-1.78376v1.55542h1.853v0.9758H40.9229v-5.74792h2.97325
					v0.9758H42.04311z"/>
				<path fill="#098EB7" d="M43.89648,372.86768h-2.97363c-0.08284,0.00021-0.15017-0.06677-0.15039-0.1496
					c0-0.00012,0-0.00021,0-0.00031v-5.74799c0.00005-0.08286,0.06725-0.14996,0.1501-0.1499c0.0001,0,0.00019,0,0.00029,0h2.97363
					c0.08287-0.00018,0.1502,0.06683,0.1504,0.14969c0,0.00009,0,0.00015,0,0.00021v0.97559
					c-0.00005,0.08286-0.06725,0.14996-0.1501,0.1499c-0.0001,0-0.0002,0-0.0003,0h-1.70312v0.96533h1.63379
					c0.08284-0.00021,0.15017,0.06677,0.15039,0.1496c0,0.00012,0,0.00021,0,0.00031v0.97607
					c-0.00005,0.08286-0.06725,0.14996-0.1501,0.1499c-0.0001,0-0.00019,0-0.00029,0h-1.63379v1.25537h1.70312
					c0.08284-0.00021,0.15018,0.06677,0.1504,0.1496c0,0.00009,0,0.00021,0,0.00031v0.97607
					c-0.00011,0.08286-0.06739,0.14996-0.15026,0.14984C43.89657,372.86768,43.89653,372.86768,43.89648,372.86768z
					 M41.07324,372.56787h2.67285v-0.67627H42.043c-0.08284,0.00021-0.15017-0.06677-0.15039-0.1496c0-0.00012,0-0.00021,0-0.00031
					v-1.55518c0.00005-0.08286,0.06725-0.14996,0.1501-0.1499c0.0001,0,0.00019,0,0.00029,0h1.63379v-0.67627H42.043
					c-0.08284,0.00021-0.15017-0.06677-0.15039-0.1496c0-0.00012,0-0.00021,0-0.00031v-1.26514
					c0.00005-0.08286,0.06725-0.14996,0.1501-0.1499c0.0001,0,0.00019,0,0.00029,0h1.70312v-0.67578h-2.67288L41.07324,372.56787z"
					/>
			</g>
			<g>
				<path fill="#098EB7" d="M46.16487,366.81689h0.808l3.02691,4.01785h0.01464v-3.86511h1.12118v5.86209h-0.80795l-3.02692-4.01736
					h-0.01561v3.90317h-1.12025V366.81689z"/>
				<path fill="#098EB7" d="M51.13574,372.98145h-0.80859c-0.04715,0-0.09159-0.02203-0.12012-0.05957l-2.77148-3.67969v3.47559
					c-0.00005,0.08286-0.06725,0.14996-0.1501,0.1499c-0.0001,0-0.00019,0-0.00029,0H46.165
					c-0.08284,0.00021-0.15017-0.06677-0.15039-0.1496c0-0.00012,0-0.00021,0-0.00031v-5.90088
					c0.00005-0.08286,0.06725-0.14996,0.1501-0.1499c0.0001,0,0.00019,0,0.00029,0h0.80762
					c0.04715-0.00003,0.09159,0.02203,0.12011,0.05957l2.77149,3.67969v-3.43652c0.00005-0.08286,0.06725-0.14996,0.1501-0.1499
					c0.0001,0,0.00019,0,0.00029,0h1.12109c0.08284-0.00021,0.15017,0.06677,0.15039,0.1496c0,0.00012,0,0.00021,0,0.00031v5.86182
					c-0.00005,0.08286-0.06725,0.14996-0.1501,0.1499C51.13591,372.98145,51.13582,372.98145,51.13574,372.98145z
					 M50.40234,372.68164h0.583v-5.56201H50.165v3.71536c-0.00005,0.08286-0.06725,0.14996-0.1501,0.1499
					c-0.0001,0-0.00019,0-0.00029,0c-0.05135,0.00021-0.10036-0.02145-0.13477-0.05957l-2.98242-3.9585h-0.582v5.60107h0.81934
					v-3.75342c0.00005-0.08286,0.06725-0.14996,0.1501-0.1499c0.0001,0,0.00019,0,0.00029,0
					c0.05163-0.00021,0.10094,0.02142,0.13574,0.05957L50.40234,372.68164z"/>
			</g>
		</g>
		<g>
			<rect x="8.48689" y="364.82104" fill="#E6E6E6" width="42.88704" height="0.89929"/>
			<path fill="#E6E6E6" d="M51.374,365.87012H8.4873c-0.08284,0.00021-0.15017-0.06677-0.15039-0.1496
				c0-0.00012,0-0.00021,0-0.00031v-0.89941c0.00005-0.08286,0.06725-0.14996,0.1501-0.1499c0.0001,0,0.0002,0,0.00029,0H51.374
				c0.08284-0.00021,0.15017,0.06677,0.15039,0.1496c0,0.00012,0,0.00021,0,0.00031v0.89941
				c-0.00005,0.08286-0.06725,0.14996-0.1501,0.1499C51.3742,365.87012,51.3741,365.87012,51.374,365.87012z M8.6377,365.57031
				h42.58593v-0.59961H8.6377V365.57031z"/>
		</g>
		<g>
			<rect x="8.62607" y="374.27966" fill="#E6E6E6" width="42.88704" height="0.89929"/>
			<path fill="#E6E6E6" d="M51.5127,375.3291H8.626c-0.08284,0.00021-0.15017-0.06677-0.15039-0.1496c0-0.00012,0-0.00021,0-0.00031
				v-0.89941c0.00005-0.08286,0.06725-0.14996,0.1501-0.1499c0.0001,0,0.0002,0,0.00029,0h42.8867
				c0.08284-0.00021,0.15017,0.06677,0.15039,0.1496c0,0.00012,0,0.00021,0,0.00031v0.89941
				c-0.00005,0.08286-0.06725,0.14996-0.1501,0.1499C51.51289,375.3291,51.5128,375.3291,51.5127,375.3291z M8.77637,375.0293
				H51.3623v-0.59961H8.77637L8.77637,375.0293z"/>
		</g>
	</g>
	<g>
		<g>
			<path fill="#313131" d="M16.11133,8.98633h-1.35449l-1.39356-2.31445h-0.01562v2.31445h-1.11914V3.24512h1.51562
				c1.13379,0,1.918,0.50293,1.918,1.72851c0.05576,0.7471-0.44193,1.42314-1.17188,1.5918L16.11133,8.98633z M13.34766,5.8877
				h0.14453c0.61719,0,1.05078-0.18262,1.05078-0.88379c0-0.708-0.44922-0.84473-1.043-0.84473h-0.15234L13.34766,5.8877z"/>
			<path fill="#313131" d="M16.11133,9.13623h-1.35449c-0.05277,0.00009-0.10171-0.02753-0.12891-0.07275L13.49805,7.186v1.80033
				c-0.00005,0.08284-0.06726,0.14996-0.1501,0.1499c-0.0001,0-0.00019,0-0.00029,0h-1.11914
				c-0.08284,0.00022-0.15017-0.06677-0.15039-0.14961c0-0.0001,0-0.00019,0-0.00029V3.24512
				c0.00005-0.08284,0.06725-0.14996,0.15009-0.14991c0.0001,0,0.0002,0,0.0003,0h1.51562c1.334,0,2.06836,0.667,2.06836,1.87842
				c0.03605,0.73446-0.39706,1.41115-1.0791,1.686l1.50293,2.24316c0.03043,0.04628,0.03306,0.10551,0.00683,0.1543
				C16.21746,9.10603,16.16661,9.13656,16.11133,9.13623z M14.8418,8.83643h0.98828l-1.46485-2.1875
				c-0.04596-0.06922-0.0271-0.1626,0.04212-0.20856c0.01737-0.01153,0.03695-0.01933,0.05749-0.02289
				c0.65433-0.16165,1.09664-0.77169,1.04688-1.44385c0-1.04736-0.59473-1.57861-1.76758-1.57861h-1.36523v5.44141h0.81836V6.67188
				c0.00005-0.08284,0.06725-0.14996,0.15009-0.14991c0.0001,0,0.0002,0,0.0003,0c0.05707-0.00037,0.11084,0.0267,0.14453,0.07276
				L14.8418,8.83643z M13.49219,6.0376h-0.14453c-0.08284,0.00022-0.15017-0.06677-0.15039-0.14961c0-0.0001,0-0.00019,0-0.00029
				V4.15918c0.00006-0.08284,0.06726-0.14996,0.1501-0.1499c0.0001,0,0.00019,0,0.00029,0H13.5
				c0.55566,0,1.19336,0.11279,1.19336,0.99463C14.69336,6.0376,13.78906,6.0376,13.49219,6.0376z M13.49805,4.30908v1.42871
				c0.64355-0.00146,0.89453-0.20752,0.89453-0.73388c0-0.5127-0.2334-0.69483-0.89258-0.69483H13.49805z"/>
		</g>
		<g>
			<path fill="#313131" d="M19.12305,4.21973v1.26465h1.78222V6.459h-1.78222v1.55272h1.85058v0.97461h-2.96972V3.24512h2.96972
				v0.97461H19.12305z"/>
			<path fill="#313131" d="M20.97363,9.13623h-2.96972c-0.08284,0.00022-0.15018-0.06677-0.15039-0.14961
				c0-0.0001,0-0.00019,0-0.00029V3.24512c0.00005-0.08284,0.06725-0.14996,0.15009-0.14991c0.0001,0,0.0002,0,0.0003,0h2.96972
				c0.08284-0.00022,0.15018,0.06677,0.15039,0.14961c0,0.0001,0,0.0002,0,0.0003v0.97461
				c-0.00006,0.08284-0.06726,0.14996-0.1501,0.1499c-0.0001,0-0.00019,0-0.00029,0h-1.70019v0.96484h1.63183
				c0.08284-0.00022,0.15018,0.06677,0.15039,0.14961c0,0.0001,0,0.0002,0,0.0003V6.459
				c-0.00005,0.08284-0.06725,0.14996-0.15009,0.14991c-0.0001,0-0.0002,0-0.0003,0h-1.63183v1.25291h1.70019
				c0.08284-0.00022,0.15018,0.06677,0.15039,0.14961c0,0.0001,0,0.00019,0,0.00029v0.97461
				c-0.00006,0.08284-0.06726,0.14995-0.1501,0.1499C20.97382,9.13623,20.97373,9.13623,20.97363,9.13623z M18.1543,8.83643h2.66894
				V8.16162h-1.70019c-0.08284,0.00022-0.15018-0.06677-0.15039-0.14961c0-0.0001,0-0.00019,0-0.00029V6.459
				c0.00006-0.08284,0.06726-0.14996,0.1501-0.1499c0.0001,0,0.00019,0,0.00029,0h1.63183V5.6343h-1.63183
				c-0.08284,0.00022-0.15018-0.06677-0.15039-0.14961c0-0.0001,0-0.00019,0-0.00029V4.21973
				c0.00005-0.08284,0.06725-0.14996,0.15009-0.14991c0.0001,0,0.0002,0,0.0003,0h1.70019V3.395H18.1543V8.83643z"/>
		</g>
		<g>
			<path fill="#313131" d="M29.11035,8.98633h-1.11914v-4.7666H26.834V3.24512h3.4336v0.97461h-1.15725V8.98633z"/>
			<path fill="#313131" d="M29.11035,9.13623h-1.11914c-0.08284,0.00022-0.15018-0.06677-0.15039-0.14961
				c0-0.0001,0-0.00019,0-0.00029v-4.6167H26.834c-0.08284,0.00022-0.15018-0.06677-0.15039-0.14961c0-0.0001,0-0.00019,0-0.00029
				V3.24512c0.00005-0.08284,0.06725-0.14996,0.15009-0.14991c0.0001,0,0.0002,0,0.0003,0h3.4336
				c0.08284-0.00022,0.15018,0.06677,0.15039,0.14961c0,0.0001,0,0.0002,0,0.0003v0.97461
				c-0.00006,0.08284-0.06726,0.14996-0.1501,0.1499c-0.0001,0-0.00019,0-0.00029,0h-1.00686v4.6167
				c-0.00006,0.08284-0.06726,0.14996-0.1501,0.1499C29.11054,9.13623,29.11045,9.13623,29.11035,9.13623z M28.1416,8.83643H28.96
				v-4.6167c0.00005-0.08284,0.06725-0.14996,0.15009-0.14991c0.0001,0,0.0002,0,0.0003,0h1.00684V3.395h-3.13285v0.6748h1.00683
				c0.08284-0.00022,0.15018,0.06677,0.15039,0.14961c0,0.0001,0,0.0002,0,0.0003L28.1416,8.83643z"/>
		</g>
		<g>
			<path fill="#313131" d="M36.08789,8.98633H34.7334l-1.39356-2.31445h-0.01562v2.31445h-1.11914V3.24512h1.51562
				c1.13379,0,1.918,0.50293,1.918,1.72851c0.05576,0.7471-0.44193,1.42313-1.17187,1.5918L36.08789,8.98633z M33.32422,5.8877
				h0.14453c0.61719,0,1.05078-0.18262,1.05078-0.88379c0-0.708-0.44922-0.84473-1.043-0.84473h-0.15234L33.32422,5.8877z"/>
			<path fill="#313131" d="M36.08789,9.13623H34.7334c-0.05277,0.00009-0.10171-0.02753-0.12891-0.07275L33.47461,7.186v1.80033
				c-0.00005,0.08284-0.06726,0.14996-0.1501,0.1499c-0.0001,0-0.00019,0-0.00029,0h-1.11914
				c-0.08284,0.00022-0.15017-0.06677-0.15039-0.14961c0-0.0001,0-0.00019,0-0.00029V3.24512
				c0.00005-0.08284,0.06725-0.14996,0.15009-0.14991c0.0001,0,0.0002,0,0.0003,0h1.51562c1.334,0,2.06836,0.667,2.06836,1.87842
				c0.03605,0.73446-0.39706,1.41115-1.0791,1.686l1.50293,2.24316c0.03043,0.04628,0.03306,0.10551,0.00684,0.1543
				C36.19402,9.10603,36.14317,9.13655,36.08789,9.13623z M34.81836,8.83643h0.98828l-1.46484-2.1875
				c-0.04596-0.06921-0.02711-0.16258,0.0421-0.20855c0.01738-0.01154,0.03696-0.01934,0.05751-0.0229
				c0.65432-0.16166,1.09663-0.77169,1.04687-1.44385c0-1.04736-0.59473-1.57861-1.76758-1.57861h-1.36523v5.44141h0.81836V6.67188
				c0.00005-0.08284,0.06725-0.14996,0.15009-0.14991c0.0001,0,0.0002,0,0.0003,0c0.05707-0.00037,0.11084,0.0267,0.14453,0.07276
				L34.81836,8.83643z M33.46875,6.0376h-0.14453c-0.08284,0.00022-0.15017-0.06677-0.15039-0.14961c0-0.0001,0-0.00019,0-0.00029
				V4.15918c0.00006-0.08284,0.06726-0.14996,0.1501-0.1499c0.0001,0,0.00019,0,0.00029,0h0.15234
				c0.55567,0,1.19336,0.11279,1.19336,0.99463C34.66992,6.0376,33.76563,6.0376,33.46875,6.0376z M33.47461,4.30908v1.42871
				c0.64355-0.00146,0.89453-0.20752,0.89453-0.73388c0-0.5127-0.2334-0.69483-0.89258-0.69483H33.47461z"/>
		</g>
		<g>
			<path fill="#313131" d="M39.09961,8.98633h-1.11914V3.24512h1.11914V8.98633z"/>
			<path fill="#313131" d="M39.09961,9.13623h-1.11914c-0.08284,0.00022-0.15017-0.06677-0.15039-0.14961
				c0-0.0001,0-0.00019,0-0.00029V3.24512c0.00005-0.08284,0.06725-0.14996,0.15009-0.14991c0.0001,0,0.0002,0,0.0003,0h1.11914
				c0.08284-0.00022,0.15017,0.06677,0.15039,0.14961c0,0.0001,0,0.0002,0,0.0003v5.74121
				c-0.00005,0.08284-0.06726,0.14996-0.1501,0.1499C39.0998,9.13623,39.0997,9.13623,39.09961,9.13623z M38.13086,8.83643h0.81836
				V3.395h-0.81836V8.83643z"/>
		</g>
		<g>
			<path fill="#313131" d="M46.51074,5.93359v0.14454c0,1.62207-0.83008,3.06054-2.6123,3.06054
				c-1.55371-0.04122-2.77983-1.33416-2.73861-2.88787c0.00099-0.03741,0.00273-0.07479,0.00521-0.11213
				c-0.10595-1.57288,1.08323-2.93385,2.65611-3.0398c0.04881-0.00329,0.0977-0.00532,0.14662-0.0061
				c0.95774-0.02027,1.84126,0.51372,2.26856,1.3711l-0.99024,0.5332c-0.21615-0.53781-0.73021-0.89662-1.30957-0.91407
				c-1.08105,0-1.61425,1.10449-1.61425,2.05566c-0.11299,0.99616,0.60297,1.8953,1.59912,2.00829
				c0.00764,0.00087,0.01529,0.00169,0.02295,0.00245c0.71091-0.02293,1.28292-0.59195,1.30957-1.30273h-1.21778V5.93359H46.51074z"
				/>
			<path fill="#313131" d="M43.89844,9.28857c-1.63388-0.03823-2.92741-1.39374-2.88918-3.02762
				c0.00095-0.04079,0.00275-0.08156,0.00539-0.12228c-0.10075-1.66147,1.16446-3.09003,2.82593-3.19078
				c0.04236-0.00257,0.08477-0.00424,0.12719-0.00502c1.01412-0.01936,1.94895,0.54629,2.40235,1.45361
				c0.03687,0.07235,0.00909,0.1609-0.0625,0.19922l-0.99024,0.53321c-0.03679,0.02032-0.08052,0.02388-0.12011,0.00976
				c-0.03946-0.01373-0.07157-0.04302-0.08887-0.08105c-0.19302-0.48257-0.65247-0.80592-1.17188-0.82471
				c-0.95117,0-1.46386,0.98193-1.46386,1.90576c0,0.90186,0.51562,1.86084,1.47168,1.86084
				c0.57161-0.01924,1.0504-0.43879,1.14453-1.00293h-1.05275c-0.08284,0.00022-0.15017-0.06677-0.15039-0.14961
				c0-0.0001,0-0.00019,0-0.00029V5.93359c0.00005-0.08284,0.06726-0.14996,0.1501-0.1499c0.0001,0,0.00019,0,0.00029,0h2.47461
				c0.08284-0.00022,0.15017,0.06677,0.15039,0.14961c0,0.0001,0,0.00019,0,0.00029v0.14454
				C46.66113,8.02832,45.57617,9.28857,43.89844,9.28857z M43.96777,3.24268c-1.4915,0.02292-2.68202,1.2506-2.6591,2.7421
				c0.00079,0.05135,0.00304,0.10267,0.00676,0.1539c-0.09591,1.47587,1.02278,2.75005,2.49865,2.84595
				c0.02809,0.00183,0.05621,0.00321,0.08435,0.00415c1.81543,0,2.46094-1.56348,2.46191-2.90527h-2.17382v0.61328h1.06739
				c0.04047,0.00002,0.07921,0.0164,0.10742,0.04541c0.02836,0.02925,0.04384,0.06863,0.043,0.10937
				c-0.03198,0.79066-0.66909,1.42244-1.46,1.44776c-1.08092-0.10089-1.8754-1.05893-1.77451-2.13985
				c0.00065-0.00694,0.00133-0.01387,0.00205-0.0208c-0.12346-1.09422,0.66351-2.08134,1.75773-2.20479
				c0.0023-0.00026,0.00461-0.00052,0.00691-0.00077c0.58048,0.0143,1.10725,0.34315,1.375,0.85839l0.72168-0.38867
				C45.60601,3.67022,44.81567,3.22629,43.96777,3.24268z"/>
		</g>
		<circle fill="#CC4C4C" cx="23.92622" cy="5.8877" r="1.15602"/>
	</g>
	<g>
		<g>
			<path fill="#AFAFAF" stroke="#AFAFAF" stroke-width="0.4" stroke-linejoin="round" stroke-miterlimit="10" d="M5.05273,92.25244
				c-0.11035-0.22998-0.33984-0.40967-0.59961-0.40967c-0.25,0-0.49023,0.19971-0.49023,0.45947
				c0,0.40967,0.54004,0.58984,1.08984,0.83984c0.54883,0.24951,1.0791,0.58936,1.0791,1.3291
				c0,0.88965-0.73926,1.54883-1.60938,1.54883c-0.67969,0-1.36914-0.38965-1.61914-1.04932l0.76953-0.34961
				c0.19043,0.34961,0.41992,0.59961,0.84961,0.59961c0.37988,0,0.70996-0.25977,0.70996-0.65967
				c0-0.25-0.12012-0.36963-0.33008-0.50977l-0.87988-0.46973c-0.51953-0.27979-0.89941-0.53955-0.89941-1.1792
				c0-0.75977,0.62012-1.35938,1.37988-1.35938c0.56934,0,1.0293,0.31006,1.2793,0.81982L5.05273,92.25244z"/>
			<path fill="#AFAFAF" stroke="#AFAFAF" stroke-width="0.4" stroke-linejoin="round" stroke-miterlimit="10" d="M11.89746,95.86035
				h-0.89941v-0.72949h-0.01953c-0.36035,0.52979-0.91992,0.88916-1.58887,0.88916c-1.42969,0-2.23926-1.18896-2.23926-2.52832
				c0-1.2793,0.84961-2.44873,2.20898-2.44873c0.68945,0,1.24902,0.35986,1.61914,0.91943h0.01953v-0.7793h0.89941V95.86035z
				 M11.04785,93.52148c0-0.90918-0.54883-1.67871-1.51855-1.67871c-0.92969,0-1.47949,0.80957-1.47949,1.67871
				c0,0.87988,0.53027,1.69922,1.47949,1.69922C10.50879,95.2207,11.04785,94.44092,11.04785,93.52148z"/>
			<path fill="#AFAFAF" stroke="#AFAFAF" stroke-width="0.4" stroke-linejoin="round" stroke-miterlimit="10" d="M14.43457,91.77246
				h0.01953c0.25977-0.40967,0.73047-0.72949,1.23926-0.72949c0.61035,0,1.0498,0.31006,1.34961,0.82959
				c0.29004-0.49951,0.84961-0.82959,1.43945-0.82959c1.22949,0,1.54883,0.95947,1.54883,2.01904v2.79834h-0.89941v-2.64844
				c0-0.59961-0.08008-1.36914-0.86914-1.36914c-0.95996,0-1.0293,0.99902-1.0293,1.71875v2.29883h-0.90039v-2.47852
				c0-0.60986-0.0293-1.53906-0.85938-1.53906c-0.95898,0-1.03906,0.98926-1.03906,1.71875v2.29883h-0.89941v-4.67725h0.89941
				V91.77246z"/>
			<path fill="#AFAFAF" stroke="#AFAFAF" stroke-width="0.4" stroke-linejoin="round" stroke-miterlimit="10" d="M22.55859,91.9624
				h0.01953c0.37012-0.55957,0.92969-0.91943,1.62988-0.91943c1.34863,0,2.19824,1.16943,2.19824,2.44873
				c0,1.33936-0.7998,2.52832-2.23828,2.52832c-0.66016,0-1.22949-0.35938-1.58984-0.88916h-0.01953v3.4082h-0.89941v-7.35596
				h0.89941V91.9624z M25.50684,93.52148c0-0.90918-0.5498-1.67871-1.51953-1.67871c-0.92871,0-1.47852,0.80957-1.47852,1.67871
				c0,0.87988,0.5293,1.69922,1.47852,1.69922C24.9668,95.2207,25.50684,94.44092,25.50684,93.52148z"/>
			<path fill="#AFAFAF" stroke="#AFAFAF" stroke-width="0.4" stroke-linejoin="round" stroke-miterlimit="10" d="M28.72363,95.86035
				h-0.90039v-8.67529h0.90039V95.86035z"/>
			<path fill="#AFAFAF" stroke="#AFAFAF" stroke-width="0.4" stroke-linejoin="round" stroke-miterlimit="10" d="M31.04102,93.67139
				c0.00977,0.7998,0.5498,1.54932,1.40918,1.54932c0.68945,0,1.05957-0.34961,1.39941-0.90967l0.75977,0.42969
				c-0.43945,0.80957-1.25977,1.2793-2.16895,1.2793c-1.42969,0-2.29883-1.0791-2.29883-2.4585
				c0-1.43896,0.76953-2.51855,2.2793-2.51855c1.48828,0,2.18848,1.09961,2.18848,2.48877v0.13965H31.04102z M33.70996,92.9917
				c-0.11035-0.69922-0.57031-1.16895-1.28906-1.16895c-0.7002,0-1.21973,0.49951-1.33008,1.16895H33.70996z"/>
			<path fill="#AFAFAF" stroke="#AFAFAF" stroke-width="0.4" stroke-linejoin="round" stroke-miterlimit="10" d="M40.22363,91.94238
				h0.03027c0.21973-0.5498,0.67969-0.89941,1.2793-0.89941c0.25977,0,0.51953,0.08984,0.73926,0.22998l-0.41016,0.81934
				c-0.15918-0.13965-0.33984-0.18994-0.54883-0.18994c-0.96973,0-1.08984,0.8999-1.08984,1.65918v2.29883h-0.89941v-4.67725
				h0.89941V91.94238z"/>
			<path fill="#AFAFAF" stroke="#AFAFAF" stroke-width="0.4" stroke-linejoin="round" stroke-miterlimit="10" d="M47.6582,95.86035
				h-0.89941v-0.72949h-0.01953c-0.36035,0.52979-0.91992,0.88916-1.58887,0.88916c-1.42969,0-2.23926-1.18896-2.23926-2.52832
				c0-1.2793,0.84961-2.44873,2.20898-2.44873c0.68945,0,1.24902,0.35986,1.61914,0.91943h0.01953v-0.7793h0.89941V95.86035z
				 M46.80957,93.52148c0-0.90918-0.5498-1.67871-1.51953-1.67871c-0.92969,0-1.47949,0.80957-1.47949,1.67871
				c0,0.87988,0.53027,1.69922,1.47949,1.69922C46.26953,95.2207,46.80957,94.44092,46.80957,93.52148z"/>
			<path fill="#AFAFAF" stroke="#AFAFAF" stroke-width="0.4" stroke-linejoin="round" stroke-miterlimit="10" d="M50.35645,95.86035
				h-0.89941v-3.83789H48.9668v-0.83936h0.49023v-1.78906h0.89941v1.78906h0.87891v0.83936h-0.87891V95.86035z"/>
			<path fill="#AFAFAF" stroke="#AFAFAF" stroke-width="0.4" stroke-linejoin="round" stroke-miterlimit="10" d="M52.76367,93.67139
				c0.00977,0.7998,0.5498,1.54932,1.40918,1.54932c0.68945,0,1.05957-0.34961,1.39941-0.90967l0.75977,0.42969
				c-0.43945,0.80957-1.25977,1.2793-2.16895,1.2793c-1.42969,0-2.29883-1.0791-2.29883-2.4585
				c0-1.43896,0.76953-2.51855,2.2793-2.51855c1.48828,0,2.18848,1.09961,2.18848,2.48877v0.13965H52.76367z M55.43262,92.9917
				c-0.11035-0.69922-0.57031-1.16895-1.28906-1.16895c-0.7002,0-1.21973,0.49951-1.33008,1.16895H55.43262z"/>
		</g>
	</g>
</g>
</svg>
