<?xml version="1.0" encoding="UTF-8" standalone="no"?>
<svg
   xmlns:dc="http://purl.org/dc/elements/1.1/"
   xmlns:cc="http://creativecommons.org/ns#"
   xmlns:rdf="http://www.w3.org/1999/02/22-rdf-syntax-ns#"
   xmlns:svg="http://www.w3.org/2000/svg"
   xmlns="http://www.w3.org/2000/svg"
   xmlns:sodipodi="http://sodipodi.sourceforge.net/DTD/sodipodi-0.dtd"
   xmlns:inkscape="http://www.inkscape.org/namespaces/inkscape"
   inkscape:version="0.92.2 (5c3e80d, 2017-08-06)"
   height="128.5mm"
   width="30.48mm"
   sodipodi:docname="Aux-M-1-8-GrpsJr.svg"
   id="svg1007"
   version="1.1"
   viewBox="0 0 115.2 485.66928">
  <metadata
     id="metadata1011">
    <rdf:RDF>
      <cc:Work
         rdf:about="">
        <dc:format>image/svg+xml</dc:format>
        <dc:type
           rdf:resource="http://purl.org/dc/dcmitype/StillImage" />
        <dc:title />
      </cc:Work>
    </rdf:RDF>
  </metadata>
  <sodipodi:namedview
     inkscape:current-layer="svg1007"
     inkscape:window-maximized="0"
     inkscape:window-y="23"
     inkscape:window-x="0"
     inkscape:cy="242.83597"
     inkscape:cx="57.599998"
     inkscape:zoom="1.1489362"
     units="mm"
     inkscape:document-units="mm"
     showgrid="false"
     id="namedview1009"
     inkscape:window-height="768"
     inkscape:window-width="1366"
     inkscape:pageshadow="2"
     inkscape:pageopacity="0"
     guidetolerance="10"
     gridtolerance="10"
     objecttolerance="10"
     borderopacity="1"
     bordercolor="#666666"
     pagecolor="#ffffff" />
  <defs
     id="defs840">
    <style
       id="style833">.cls-1{fill:#353535;}.cls-2{fill:url(#linear-gradient);}.cls-3{fill:gray;}.cls-4{fill:#b3b3b3;}.cls-5{fill:#ccc;}.cls-6{fill:#121212;}.cls-7{fill:#fff;}</style>
    <linearGradient
       gradientUnits="userSpaceOnUse"
       y2="349.56"
       x2="40.939999"
       y1="349.56"
       x1="21.09"
       id="linear-gradient"
       gradientTransform="scale(1.3333333)">
      <stop
         id="stop835"
         stop-color="#3fa9f5"
         offset="0" />
      <stop
         id="stop837"
         stop-color="#ed1e79"
         offset="1" />
    </linearGradient>
  </defs>
  <g
     id="Layer_2-2"
     data-name="Layer 2"
     transform="scale(1.3333333)">
    <g
       id="background">
      <path
         style="fill:#353535"
         inkscape:connector-curvature="0"
         id="rect4155"
         class="cls-1"
         d="M 0,0 H 86.4 V 364.25 H 0 Z" />
    </g>
  </g>
  <path
     style="fill:url(#linear-gradient);stroke-width:1.33333325"
     id="path845"
     d="m 28.799999,474.31999 a 0.62666665,0.62666665 0 0 1 -0.333333,-0.0933 0.67999998,0.67999998 0 0 1 -0.266667,-0.93333 l 8.36,-15.09333 a 0.69333332,0.69333332 0 0 1 1.333333,0.33333 v 12.44 l 7.08,-12.77333 a 0.67999998,0.67999998 0 0 1 0.773334,-0.33333 0.69333332,0.69333332 0 0 1 0.506666,0.66666 v 12.44 l 7.08,-12.77333 a 0.67999998,0.67999998 0 0 1 0.773333,-0.33333 0.67999998,0.67999998 0 0 1 0.52,0.66666 v 15.09333 a 0.69333332,0.69333332 0 0 1 -0.693333,0.69334 0.67999998,0.67999998 0 0 1 -0.68,-0.69334 V 461.1867 l -7.08,12.77333 a 0.69333332,0.69333332 0 0 1 -1.333333,-0.33334 V 461.1867 l -7.08,12.77333 a 0.67999998,0.67999998 0 0 1 -0.773333,0.33333 0.69333332,0.69333332 0 0 1 -0.506667,-0.66667 V 461.1867 l -7.08,12.77333 a 0.67999998,0.67999998 0 0 1 -0.6,0.36 z"
     class="cls-2"
     inkscape:connector-curvature="0" />
  <path
     id="path847"
     d="m 57.906665,458.53332 a 0.66666665,0.66666665 0 0 1 0.666667,-0.66666 h 0.09333 a 0.71999998,0.71999998 0 0 1 0.626667,0.34666 l 2.28,3.57334 2.293333,-3.58667 a 0.67999998,0.67999998 0 0 1 0.613333,-0.33333 h 0.133334 a 0.66666665,0.66666665 0 0 1 0.68,0.66666 v 6.29334 a 0.65333332,0.65333332 0 0 1 -0.68,0.65333 0.66666665,0.66666665 0 0 1 -0.653334,-0.65333 v -4.52 l -1.84,2.77333 a 0.62666665,0.62666665 0 0 1 -1.12,0 l -1.826666,-2.74667 v 4.50667 a 0.63999998,0.63999998 0 0 1 -0.666667,0.64 0.62666665,0.62666665 0 0 1 -0.64,-0.64 z"
     class="cls-3"
     inkscape:connector-curvature="0"
     style="fill:#808080;stroke-width:1.33333325" />
  <path
     id="path849"
     d="m 64.653332,457.86666 h -0.133334 a 0.67999998,0.67999998 0 0 0 -0.613333,0.33333 l -2.293333,3.58667 -2.28,-3.57334 a 0.71999998,0.71999998 0 0 0 -0.626667,-0.34666 h -0.133333 a 0.66666665,0.66666665 0 0 0 -0.666667,0.66666 v 6.30667 a 0.62666665,0.62666665 0 0 0 0.64,0.64 0.63999998,0.63999998 0 0 0 0.666667,-0.64 v -4.50667 l 1.826666,2.74667 a 0.62666665,0.62666665 0 0 0 1.12,0 l 1.84,-2.77333 v 4.52 a 0.66666665,0.66666665 0 0 0 0.653334,0.65333 0.65333332,0.65333332 0 0 0 0.68,-0.65333 v -6.29334 a 0.66666665,0.66666665 0 0 0 -0.68,-0.66666 z"
     class="cls-4"
     inkscape:connector-curvature="0"
     style="fill:#b3b3b3;stroke-width:1.33333325" />
  <path
     id="path851"
     d="m 66.813332,458.50666 a 0.66666665,0.66666665 0 0 1 1.333333,0 v 6.32 a 0.66666665,0.66666665 0 0 1 -1.333333,0 z"
     class="cls-3"
     inkscape:connector-curvature="0"
     style="fill:#808080;stroke-width:1.33333325" />
  <path
     id="path853"
     d="m 67.479998,457.85332 a 0.65333332,0.65333332 0 0 0 -0.666666,0.65334 v 6.32 a 0.66666665,0.66666665 0 0 0 1.333333,0 v -6.32 a 0.65333332,0.65333332 0 0 0 -0.653333,-0.65334 z"
     class="cls-4"
     inkscape:connector-curvature="0"
     style="fill:#b3b3b3;stroke-width:1.33333325" />
  <path
     id="path855"
     d="m 69.613332,458.53332 a 0.66666665,0.66666665 0 0 1 0.666666,-0.66666 h 0.146667 a 0.85333331,0.85333331 0 0 1 0.693333,0.38666 l 3.773333,4.86667 v -4.62667 a 0.666667,0.666667 0 0 1 1.333334,0 v 6.32 a 0.65333332,0.65333332 0 0 1 -0.653334,0.66667 v 0 a 0.87999998,0.87999998 0 0 1 -0.693333,-0.4 l -3.88,-5.01333 v 4.77333 a 0.66666665,0.66666665 0 0 1 -1.333333,0 z"
     class="cls-3"
     inkscape:connector-curvature="0"
     style="fill:#808080;stroke-width:1.33333325" />
  <path
     id="path857"
     d="m 75.533331,457.85332 a 0.65333332,0.65333332 0 0 0 -0.64,0.64 v 4.62667 l -3.773333,-4.86667 a 0.85333331,0.85333331 0 0 0 -0.693333,-0.38666 h -0.146667 a 0.66666665,0.66666665 0 0 0 -0.666666,0.66666 v 6.30667 a 0.66666665,0.66666665 0 0 0 1.333333,0 v -4.77333 l 3.88,5.01333 a 0.87999998,0.87999998 0 0 0 0.693333,0.4 v 0 a 0.65333332,0.65333332 0 0 0 0.653333,-0.66667 v -6.32 a 0.65333332,0.65333332 0 0 0 -0.666666,-0.64 z"
     class="cls-4"
     inkscape:connector-curvature="0"
     style="fill:#b3b3b3;stroke-width:1.33333325" />
  <path
     id="path859"
     d="m 77.599998,458.57332 a 0.66666665,0.66666665 0 0 1 0.68,-0.66666 h 2.146667 a 3.7599999,3.7599999 0 0 1 4,3.73333 v 0 a 3.7733332,3.7733332 0 0 1 -4,3.76 h -2.146667 a 0.65333332,0.65333332 0 0 1 -0.68,-0.66667 z m 2.826667,5.65334 a 2.4533333,2.4533333 0 0 0 2.666666,-2.53334 v 0 a 2.4666666,2.4666666 0 0 0 -2.666666,-2.56 h -1.493334 v 5.12 z"
     class="cls-3"
     inkscape:connector-curvature="0"
     style="fill:#808080;stroke-width:1.33333325" />
  <path
     id="path861"
     d="m 80.426665,457.90666 h -2.146667 a 0.66666665,0.66666665 0 0 0 -0.68,0.66666 v 6.18667 a 0.65333332,0.65333332 0 0 0 0.68,0.66667 h 2.146667 a 3.7733332,3.7733332 0 0 0 4,-3.76 v 0 a 3.7599999,3.7599999 0 0 0 -4,-3.73334 z m -1.493334,6.32 v -5.12 h 1.493334 a 2.4666666,2.4666666 0 0 1 2.666666,2.56 v 0 a 2.4533333,2.4533333 0 0 1 -2.666666,2.53333 z"
     class="cls-4"
     inkscape:connector-curvature="0"
     style="fill:#b3b3b3;stroke-width:1.33333325" />
  <path
     id="path863"
     d="m 57.906665,467.34665 a 0.66666665,0.66666665 0 0 1 0.666667,-0.66666 h 0.09333 a 0.71999998,0.71999998 0 0 1 0.626667,0.34666 l 2.32,3.64 2.293333,-3.57333 a 0.69333332,0.69333332 0 0 1 0.613333,-0.34667 h 0.133334 a 0.66666665,0.66666665 0 0 1 0.68,0.66667 v 6.29333 a 0.66666665,0.66666665 0 0 1 -0.68,0.66667 0.67999998,0.67999998 0 0 1 -0.653334,-0.66667 v -4.50666 l -1.84,2.76 a 0.62666665,0.62666665 0 0 1 -1.12,0 l -1.826666,-2.74667 v 4.50667 a 0.65333332,0.65333332 0 0 1 -0.666667,0.65333 0.63999998,0.63999998 0 0 1 -0.64,-0.65333 z"
     class="cls-3"
     inkscape:connector-curvature="0"
     style="fill:#808080;stroke-width:1.33333325" />
  <path
     id="path865"
     d="m 64.653332,466.66665 h -0.133334 a 0.69333332,0.69333332 0 0 0 -0.613333,0.34667 l -2.293333,3.65333 -2.28,-3.57333 a 0.71999998,0.71999998 0 0 0 -0.666667,-0.42667 h -0.133333 a 0.66666665,0.66666665 0 0 0 -0.666667,0.66667 v 6.30667 a 0.63999998,0.63999998 0 0 0 0.64,0.65333 0.65333332,0.65333332 0 0 0 0.666667,-0.65333 v -4.50667 l 1.826666,2.74667 a 0.62666665,0.62666665 0 0 0 1.12,0 l 1.88,-2.74667 v 4.50667 a 0.67999998,0.67999998 0 0 0 0.653334,0.66666 0.66666665,0.66666665 0 0 0 0.68,-0.66666 v -6.29334 a 0.66666665,0.66666665 0 0 0 -0.68,-0.66666 z"
     class="cls-4"
     inkscape:connector-curvature="0"
     style="fill:#b3b3b3;stroke-width:1.33333325" />
  <path
     id="path867"
     d="m 66.733332,473.58665 v -6.2 a 0.66666665,0.66666665 0 0 1 0.666666,-0.66666 h 4.4 a 0.59999999,0.59999999 0 0 1 0,1.18666 h -3.733333 v 1.94667 h 3.24 a 0.61333332,0.61333332 0 0 1 0.6,0.61333 0.58666665,0.58666665 0 0 1 -0.6,0.57334 h -3.24 v 2.02666 h 3.786667 a 0.59999999,0.59999999 0 0 1 0,1.18667 h -4.453334 a 0.66666665,0.66666665 0 0 1 -0.666666,-0.66667 z"
     class="cls-3"
     inkscape:connector-curvature="0"
     style="fill:#808080;stroke-width:1.33333325" />
  <path
     id="path869"
     d="m 71.799998,466.66665 h -4.4 a 0.66666665,0.66666665 0 0 0 -0.666666,0.66667 v 6.2 a 0.66666665,0.66666665 0 0 0 0.666666,0.66667 h 4.453334 a 0.59999999,0.59999999 0 0 0 0,-1.18667 h -3.786667 v -2.02667 h 3.24 a 0.58666665,0.58666665 0 0 0 0.6,-0.57333 0.61333332,0.61333332 0 0 0 -0.6,-0.61333 h -3.24 v -1.94667 h 3.733333 a 0.59999999,0.59999999 0 0 0 0,-1.18667 z"
     class="cls-4"
     inkscape:connector-curvature="0"
     style="fill:#b3b3b3;stroke-width:1.33333325" />
  <path
     id="path871"
     d="m 73.426665,467.31999 a 0.66666665,0.66666665 0 0 1 1.333333,0 v 5.72 h 3.413333 a 0.59999999,0.59999999 0 0 1 0.6,0.6 0.61333332,0.61333332 0 0 1 -0.6,0.61333 h -4.08 a 0.66666665,0.66666665 0 0 1 -0.666666,-0.66667 z"
     class="cls-3"
     inkscape:connector-curvature="0"
     style="fill:#808080;stroke-width:1.33333325" />
  <path
     id="path873"
     d="m 74.093331,466.66665 a 0.65333332,0.65333332 0 0 0 -0.666666,0.65334 v 6.26666 a 0.66666665,0.66666665 0 0 0 0.666666,0.66667 h 4.08 a 0.61333332,0.61333332 0 0 0 0.6,-0.61333 0.59999999,0.59999999 0 0 0 -0.6,-0.6 h -3.413333 v -5.72 a 0.65333332,0.65333332 0 0 0 -0.666667,-0.65334 z"
     class="cls-4"
     inkscape:connector-curvature="0"
     style="fill:#b3b3b3;stroke-width:1.33333325" />
  <path
     id="path875"
     d="m 79.573331,467.38665 a 0.66666665,0.66666665 0 0 1 0.666667,-0.66666 h 2.146667 a 3.7599999,3.7599999 0 0 1 4,3.74666 v 0 a 3.7866666,3.7866666 0 0 1 -4,3.77334 h -2.146667 a 0.66666665,0.66666665 0 0 1 -0.666667,-0.66667 z m 2.813334,5.65334 a 2.4666666,2.4666666 0 0 0 2.666666,-2.53334 v 0 a 2.4799999,2.4799999 0 0 0 -2.666666,-2.56 h -1.493334 v 5.12 z"
     class="cls-3"
     inkscape:connector-curvature="0"
     style="fill:#808080;stroke-width:1.33333325" />
  <path
     id="path877"
     d="m 82.386665,466.66665 h -2.146667 a 0.66666665,0.66666665 0 0 0 -0.666667,0.66667 v 6.2 a 0.66666665,0.66666665 0 0 0 0.666667,0.66667 h 2.146667 a 3.7866666,3.7866666 0 0 0 4,-3.77334 v 0 a 3.7599999,3.7599999 0 0 0 -4,-3.74666 z m -1.493334,6.32 v -5.12 h 1.493334 a 2.4799999,2.4799999 0 0 1 2.666666,2.56 v 0 a 2.4666666,2.4666666 0 0 1 -2.666666,2.53334 z"
     class="cls-4"
     inkscape:connector-curvature="0"
     style="fill:#b3b3b3;stroke-width:1.33333325" />
  <path
     id="path879"
     d="M 47.439999,13.333333 V 24.519999 H 45.253332 V 17.24 l -3.146666,5.186666 h -0.266667 l -3.173333,-5.173333 v 7.24 h -2.173334 v -11.16 h 2.266667 l 3.213333,5.333333 3.2,-5.333333 z"
     class="cls-5"
     inkscape:connector-curvature="0"
     style="fill:#cccccc;stroke-width:1.33333325" />
  <path
     id="path881"
     d="m 52.639999,22.386666 h 4.693333 v 2.106667 h -6.893333 v -11.16 h 6.893333 V 15.44 h -4.693333 v 2.386666 h 4.24 v 2.04 h -4.24 z"
     class="cls-5"
     inkscape:connector-curvature="0"
     style="fill:#cccccc;stroke-width:1.33333325" />
  <path
     id="path883"
     d="m 62.039998,22.386666 h 4.266667 v 2.106667 h -6.48 v -11.16 h 2.213333 z"
     class="cls-5"
     inkscape:connector-curvature="0"
     style="fill:#cccccc;stroke-width:1.33333325" />
  <path
     id="path885"
     d="m 72.919998,13.333333 a 5.0799999,5.0799999 0 0 1 3.84,1.613333 5.4666665,5.4666665 0 0 1 1.546667,4 5.4799999,5.4799999 0 0 1 -1.546667,4 5.1199999,5.1199999 0 0 1 -3.84,1.613333 H 68.466665 V 13.333333 Z m 0,9.08 a 3.0799999,3.0799999 0 0 0 2.36,-0.96 3.5466666,3.5466666 0 0 0 0.92,-2.533333 3.4533332,3.4533332 0 0 0 -0.92,-2.506667 3.0533333,3.0533333 0 0 0 -2.36,-0.973333 h -2.253333 v 6.973333 z"
     class="cls-5"
     inkscape:connector-curvature="0"
     style="fill:#cccccc;stroke-width:1.33333325" />
  <g
     id="EQ_bgs_copy"
     data-name="EQ bgs copy"
     transform="scale(1.3333333)">
    <rect
       style="fill:#121212"
       class="cls-6"
       x="53.049999"
       y="28.35"
       width="27.92"
       height="36.849998"
       rx="1.42"
       id="rect888" />
  </g>
  <path
     id="path891"
     d="m 22.013333,42.026666 h 1.253333 v 6.533333 h -1.253333 z"
     class="cls-5"
     inkscape:connector-curvature="0"
     style="fill:#cccccc;stroke-width:1.33333325" />
  <path
     id="path893"
     d="m 28.439999,42.026666 h 1.24 v 6.533333 h -0.946666 l -2.666667,-4 v 4 h -1.253333 v -6.533333 h 0.946666 l 2.666667,4 z"
     class="cls-5"
     inkscape:connector-curvature="0"
     style="fill:#cccccc;stroke-width:1.33333325" />
  <path
     id="path895"
     d="m 83.519998,48.693332 a 3.1333333,3.1333333 0 0 1 -2.32,-0.986667 3.3333333,3.3333333 0 0 1 -0.946667,-2.373333 3.2933333,3.2933333 0 0 1 0.946667,-2.413333 3.2399999,3.2399999 0 0 1 4.653333,0 3.2933333,3.2933333 0 0 1 0.946667,2.413333 3.3333333,3.3333333 0 0 1 -0.946667,2.413333 3.1599999,3.1599999 0 0 1 -2.333333,0.946667 z m 0,-1.333333 a 1.9066666,1.9066666 0 0 0 1.453333,-0.6 2.1066666,2.1066666 0 0 0 0.586667,-1.426667 2.1466666,2.1466666 0 0 0 -0.586667,-1.546666 2.0666666,2.0666666 0 0 0 -2.906666,0 2.1466666,2.1466666 0 0 0 -0.586667,1.546666 2.1066666,2.1066666 0 0 0 0.586667,1.533333 1.9066666,1.9066666 0 0 0 1.453333,0.56 z"
     class="cls-5"
     inkscape:connector-curvature="0"
     style="fill:#cccccc;stroke-width:1.33333325" />
  <path
     id="path897"
     d="m 88.653331,48.079999 a 2.1466666,2.1466666 0 0 1 -0.653333,-1.653333 v -4.4 h 1.24 v 4.293333 a 1.1733333,1.1733333 0 0 0 2.346666,0 v -4.293333 h 1.24 v 4.4 a 2.1466666,2.1466666 0 0 1 -0.68,1.653333 2.7599999,2.7599999 0 0 1 -3.466666,0 z"
     class="cls-5"
     inkscape:connector-curvature="0"
     style="fill:#cccccc;stroke-width:1.33333325" />
  <path
     id="path899"
     d="m 98.439998,42.026666 v 1.226666 h -1.693334 v 5.333333 h -1.253333 v -5.333333 h -1.693333 v -1.226666 z"
     class="cls-5"
     inkscape:connector-curvature="0"
     style="fill:#cccccc;stroke-width:1.33333325" />
  <g
     id="Aux_M_1-8_Grps"
     data-name="Aux M 1-8 Grps"
     transform="scale(1.3333333)">
    <path
       style="fill:#ffffff"
       inkscape:connector-curvature="0"
       class="cls-7"
       d="m 16.67,80.31 -0.33,-1 h -2.23 l -0.34,1 h -1.19 l 2,-5.6 h 1.37 l 2,5.6 z m -2.21,-2 H 16 L 15.23,76 Z"
       id="path902" />
    <path
       style="fill:#ffffff"
       inkscape:connector-curvature="0"
       class="cls-7"
       d="m 21.37,76.31 h 1 v 4 h -1 V 79.86 A 1.32,1.32 0 0 1 20.18,80.42 1.44,1.44 0 0 1 19.09,80 1.66,1.66 0 0 1 18.67,78.79 v -2.48 h 1 v 2.33 a 0.73,0.73 0 0 0 0.79,0.82 c 0.54,0 0.88,-0.32 0.88,-1 z"
       id="path904" />
    <path
       style="fill:#ffffff"
       inkscape:connector-curvature="0"
       class="cls-7"
       d="m 27.43,80.31 h -1.19 l -0.86,-1.21 -0.87,1.21 h -1.19 l 1.46,-2 -1.4,-2 h 1.19 l 0.81,1.13 0.81,-1.13 h 1.18 l -1.4,2 z"
       id="path906" />
    <path
       style="fill:#ffffff"
       inkscape:connector-curvature="0"
       class="cls-7"
       d="m 36.27,74.71 v 5.6 h -1.09 v -3.63 l -1.58,2.6 H 33.48 L 31.9,76.69 v 3.62 h -1.1 v -5.6 h 1.13 l 1.61,2.65 1.6,-2.65 z"
       id="path908" />
    <path
       style="fill:#ffffff"
       inkscape:connector-curvature="0"
       class="cls-7"
       d="m 41.16,74.71 h 1 v 5.6 H 41 v -4.43 l -1,0.3 -0.28,-1 z"
       id="path910" />
    <path
       style="fill:#ffffff"
       inkscape:connector-curvature="0"
       class="cls-7"
       d="m 43.61,78.39 v -1 h 3 v 1 z"
       id="path912" />
    <path
       style="fill:#ffffff"
       inkscape:connector-curvature="0"
       class="cls-7"
       d="m 51.81,78.75 c 0,1 -0.77,1.67 -2,1.67 -1.23,0 -2,-0.64 -2,-1.67 A 1.48,1.48 0 0 1 48.57,77.4 1.35,1.35 0 0 1 48,76.24 1.51,1.51 0 0 1 48.5,75 a 2.18,2.18 0 0 1 2.6,0 1.51,1.51 0 0 1 0.52,1.21 1.32,1.32 0 0 1 -0.62,1.19 1.48,1.48 0 0 1 0.81,1.35 z m -2,-0.91 c -0.54,0 -0.91,0.29 -0.91,0.77 0,0.48 0.37,0.77 0.91,0.77 0.54,0 0.91,-0.28 0.91,-0.77 0,-0.49 -0.37,-0.77 -0.92,-0.77 z m 0,-2.2 a 0.77,0.77 0 0 0 -0.52,0.18 0.63,0.63 0 0 0 -0.2,0.48 0.65,0.65 0 0 0 0.2,0.49 0.81,0.81 0 0 0 0.52,0.17 0.77,0.77 0 0 0 0.52,-0.17 0.61,0.61 0 0 0 0.2,-0.49 0.59,0.59 0 0 0 -0.2,-0.48 0.73,0.73 0 0 0 -0.53,-0.18 z"
       id="path914" />
    <path
       style="fill:#ffffff"
       inkscape:connector-curvature="0"
       class="cls-7"
       d="m 60.89,77.3 v 0.44 a 2.59,2.59 0 0 1 -0.77,1.94 2.7,2.7 0 0 1 -2,0.74 3,3 0 0 1 -2.12,-0.84 2.78,2.78 0 0 1 -0.85,-2.06 2.89,2.89 0 0 1 2.93,-2.92 2.8,2.8 0 0 1 2.44,1.31 l -0.94,0.54 a 1.71,1.71 0 0 0 -1.5,-0.78 1.87,1.87 0 0 0 -1.31,3.16 1.86,1.86 0 0 0 1.39,0.51 1.55,1.55 0 0 0 1.63,-1.06 h -1.7 v -1 z"
       id="path916" />
    <path
       style="fill:#ffffff"
       inkscape:connector-curvature="0"
       class="cls-7"
       d="m 63.06,77 a 1.22,1.22 0 0 1 1.21,-0.77 v 1.15 a 1.17,1.17 0 0 0 -0.84,0.2 0.9,0.9 0 0 0 -0.37,0.82 v 1.91 H 62 v -4 h 1 z"
       id="path918" />
    <path
       style="fill:#ffffff"
       inkscape:connector-curvature="0"
       class="cls-7"
       d="m 69,76.82 a 2.09,2.09 0 0 1 0.57,1.49 2.15,2.15 0 0 1 -0.57,1.51 1.83,1.83 0 0 1 -1.38,0.6 1.53,1.53 0 0 1 -1.29,-0.58 v 2.07 h -1 v -5.6 h 1 v 0.48 A 1.51,1.51 0 0 1 67.62,76.2 1.82,1.82 0 0 1 69,76.82 Z m -1.57,2.62 a 1.06,1.06 0 0 0 0.79,-0.31 1.1,1.1 0 0 0 0.32,-0.82 1.12,1.12 0 0 0 -1.9,-0.81 1.09,1.09 0 0 0 -0.31,0.81 1.13,1.13 0 0 0 0.31,0.82 1.06,1.06 0 0 0 0.77,0.31 z"
       id="path920" />
    <path
       style="fill:#ffffff"
       inkscape:connector-curvature="0"
       class="cls-7"
       d="m 72.27,77.89 c 0.59,0.12 1.35,0.4 1.34,1.25 a 1.12,1.12 0 0 1 -0.46,1 2,2 0 0 1 -1.15,0.32 1.69,1.69 0 0 1 -1.68,-1 l 0.9,-0.5 A 0.74,0.74 0 0 0 72,79.48 c 0.37,0 0.55,-0.11 0.55,-0.35 0,-0.24 -0.32,-0.33 -0.72,-0.44 -0.59,-0.15 -1.34,-0.4 -1.34,-1.23 a 1.15,1.15 0 0 1 0.43,-0.93 1.73,1.73 0 0 1 1.08,-0.33 1.69,1.69 0 0 1 1.52,0.85 l -0.88,0.48 A 0.66,0.66 0 0 0 72,77.12 c -0.26,0 -0.46,0.13 -0.46,0.33 0,0.2 0.33,0.33 0.73,0.44 z"
       id="path922" />
  </g>
  <path
     id="path925"
     d="M 9.5466664,127.30666 H 10.48 V 133.84 H 9.4133331 v -5.33334 L 8.0799998,128.88 7.8266665,127.96 Z"
     class="cls-5"
     inkscape:connector-curvature="0"
     style="fill:#cccccc;stroke-width:1.33333325" />
  <path
     id="path927"
     d="M 18.093333,127.30666 V 133.84 h -1.066667 v -4.65334 l -2,3.28 h -0.12 l -2,-3.29333 V 133.84 H 11.84 v -6.53334 H 13 l 1.96,3.26667 1.986666,-3.26667 z"
     class="cls-5"
     inkscape:connector-curvature="0"
     style="fill:#cccccc;stroke-width:1.33333325" />
  <path
     id="path929"
     d="M 96.093331,133.84 V 133 l 2.28,-2.33334 a 2.3333333,2.3333333 0 0 0 0.826667,-1.44 0.94666664,0.94666664 0 0 0 -1.013334,-1.01333 1.3333333,1.3333333 0 0 0 -1.213333,0.81333 l -0.906667,-0.53333 a 2.2666666,2.2666666 0 0 1 2.106667,-1.33333 2.1733333,2.1733333 0 0 1 1.48,0.53333 1.88,1.88 0 0 1 0.613329,1.48 3.2266666,3.2266666 0 0 1 -1.106662,2.13333 l -1.48,1.46667 h 2.666662 v 1.04 z"
     class="cls-5"
     inkscape:connector-curvature="0"
     style="fill:#cccccc;stroke-width:1.33333325" />
  <path
     id="path931"
     d="M 107.64,127.30666 V 133.84 h -1.06667 v -4.65334 l -1.98667,3.28 h -0.13333 l -1.98667,-3.29333 V 133.84 h -1.13333 v -6.53334 h 1.16 l 1.97333,3.26667 1.97334,-3.26667 z"
     class="cls-5"
     inkscape:connector-curvature="0"
     style="fill:#cccccc;stroke-width:1.33333325" />
  <path
     id="path933"
     d="m 100.81333,172.76 v 1 h -0.74667 v 1.17333 H 98.986664 V 173.76 h -3.213333 v -1 l 2.253333,-4.36 h 1.16 l -2.24,4.36 h 2.04 v -1.69334 h 1.079996 V 172.76 Z"
     class="cls-5"
     inkscape:connector-curvature="0"
     style="fill:#cccccc;stroke-width:1.33333325" />
  <path
     id="path935"
     d="m 107.88,168.4 v 6.53333 h -1.06667 V 170.28 l -1.98667,3.28 h -0.13333 l -2.02667,-3.29334 v 4.66667 h -1.08 V 168.4 h 1.16 l 1.97334,3.26666 1.97333,-3.26666 z"
     class="cls-5"
     inkscape:connector-curvature="0"
     style="fill:#cccccc;stroke-width:1.33333325" />
  <path
     id="path937"
     d="m 9.4666664,212.38666 a 2.3333333,2.3333333 0 0 1 1.5866666,0.56 2.1199999,2.1199999 0 0 1 0,3.06667 2.3733333,2.3733333 0 0 1 -1.6133332,0.56 2.2266666,2.2266666 0 0 1 -2.2266666,-1.4 l 0.9199999,-0.53334 a 1.2133333,1.2133333 0 0 0 1.3333333,0.89334 1.0666666,1.0666666 0 1 0 0,-2.10667 H 7.5199998 l 0.2533333,-3.50667 h 3.6399999 v 1.01334 H 8.7466664 l -0.1066666,1.45333 z"
     class="cls-5"
     inkscape:connector-curvature="0"
     style="fill:#cccccc;stroke-width:1.33333325" />
  <path
     id="path939"
     d="m 18.906666,209.91999 v 6.53334 h -1.08 v -4.65334 l -1.986666,3.28 H 15.706666 L 13.72,211.78666 v 4.66667 h -1.08 v -6.53334 h 1.16 l 1.973333,3.26667 1.973333,-3.26667 z"
     class="cls-5"
     inkscape:connector-curvature="0"
     style="fill:#cccccc;stroke-width:1.33333325" />
  <path
     id="path941"
     d="m 98.279998,212.11999 a 2.2266666,2.2266666 0 0 1 1.653333,0.62667 2.0933333,2.0933333 0 0 1 0.653329,1.6 2.1466666,2.1466666 0 0 1 -0.586662,1.65333 2.2666666,2.2666666 0 0 1 -1.653334,0.61334 2.3066666,2.3066666 0 0 1 -1.68,-0.61334 2.1333333,2.1333333 0 0 1 -0.64,-1.61333 2.3599999,2.3599999 0 0 1 0.386667,-1.33333 l 2.08,-3.10667 h 1.213333 l -1.493333,2.2 z m 1.226666,2.22667 a 1.24,1.24 0 1 0 -1.226666,1.21333 1.16,1.16 0 0 0 1.226666,-1.21333 z"
     class="cls-5"
     inkscape:connector-curvature="0"
     style="fill:#cccccc;stroke-width:1.33333325" />
  <path
     id="path943"
     d="m 107.72,209.91999 v 6.53334 h -1.05334 v -4.65334 l -2,3.28 h -0.13333 l -2,-3.29333 v 4.66667 h -1.06667 v -6.53334 h 1.2 l 1.96,3.26667 1.98667,-3.26667 z"
     class="cls-5"
     inkscape:connector-curvature="0"
     style="fill:#cccccc;stroke-width:1.33333325" />
  <path
     id="path945"
     d="m 7.3066665,250.77333 h 4.1466665 v 0.93333 l -2.2933332,5.62667 h -1.16 l 2.2666662,-5.50667 H 7.3066665 Z"
     class="cls-5"
     inkscape:connector-curvature="0"
     style="fill:#cccccc;stroke-width:1.33333325" />
  <path
     id="path947"
     d="m 18.666666,250.77333 v 6.56 H 17.6 v -4.65334 l -2.013334,3.32 h -0.133333 l -1.986667,-3.29333 v 4.62667 h -1.08 v -6.53334 h 1.16 l 1.973334,3.26667 1.973333,-3.26667 z"
     class="cls-5"
     inkscape:connector-curvature="0"
     style="fill:#cccccc;stroke-width:1.33333325" />
  <path
     id="path949"
     d="m 100.56,255.49333 c 0,1.2 -0.906669,1.93333 -2.280002,1.93333 a 2.5733333,2.5733333 0 0 1 -1.68,-0.50667 1.7733333,1.7733333 0 0 1 -0.626667,-1.42666 1.8,1.8 0 0 1 0.96,-1.58667 1.5466666,1.5466666 0 0 1 -0.733333,-1.33333 1.68,1.68 0 0 1 0.6,-1.33334 2.1999999,2.1999999 0 0 1 1.48,-0.49333 2.2399999,2.2399999 0 0 1 1.466666,0.49333 1.68,1.68 0 0 1 0.599996,1.33334 1.56,1.56 0 0 1 -0.746662,1.33333 1.72,1.72 0 0 1 0.960002,1.58667 z m -1.066669,-0.0933 c 0,-0.65333 -0.493333,-1.02666 -1.213333,-1.02666 -0.72,0 -1.226667,0.37333 -1.226667,1.02666 0,0.65334 0.48,1.01334 1.226667,1.01334 0.746666,0 1.213333,-0.41334 1.213333,-1.01334 z m -2.16,-2.82666 a 0.99999998,0.99999998 0 1 0 1,-0.90667 0.87999998,0.87999998 0 0 0 -1,0.90667 z"
     class="cls-5"
     inkscape:connector-curvature="0"
     style="fill:#cccccc;stroke-width:1.33333325" />
  <path
     id="path951"
     d="m 107.8,250.77333 v 6.56 h -1.13334 v -4.65334 l -1.93333,3.32 H 104.6 l -1.93334,-3.36 v 4.69334 h -1.08 v -6.53334 h 1.08 l 1.97334,3.26667 2.02666,-3.29333 z"
     class="cls-5"
     inkscape:connector-curvature="0"
     style="fill:#cccccc;stroke-width:1.33333325" />
  <path
     id="path953"
     d="m 14.88,288.86666 v 0.46667 a 2.9466666,2.9466666 0 0 1 -0.88,2.2 3.1733333,3.1733333 0 0 1 -2.32,0.85333 3.4266666,3.4266666 0 0 1 -2.5066669,-0.98667 3.4666666,3.4666666 0 0 1 0,-4.81333 3.3733332,3.3733332 0 0 1 2.4533329,-0.98667 3.2666666,3.2666666 0 0 1 2.84,1.54667 l -0.92,0.53333 a 2.1466666,2.1466666 0 0 0 -1.92,-1.01333 2.2666666,2.2666666 0 0 0 -1.6933329,0.68 2.3199999,2.3199999 0 0 0 -0.6666667,1.68 2.2666666,2.2666666 0 0 0 0.6666667,1.66667 2.4266666,2.4266666 0 0 0 1.7599999,0.66666 A 1.9466666,1.9466666 0 0 0 13.8,289.86666 h -2.186667 v -0.96 z"
     class="cls-5"
     inkscape:connector-curvature="0"
     style="fill:#cccccc;stroke-width:1.33333325" />
  <path
     id="path955"
     d="m 16.96,285.70666 h 0.933333 v 6.53333 h -1.08 v -5.33333 L 15.48,287.27999 15.226666,286.37333 Z"
     class="cls-5"
     inkscape:connector-curvature="0"
     style="fill:#cccccc;stroke-width:1.33333325" />
  <path
     id="path957"
     d="m 16.36,296.37333 v 6.53333 h -1.08 v -4.65333 l -1.946667,3.28 H 13.2 l -1.986667,-3.29334 v 4.66667 h -1.066667 v -6.53333 h 1.16 l 1.96,3.26666 1.986667,-3.26666 z"
     class="cls-5"
     inkscape:connector-curvature="0"
     style="fill:#cccccc;stroke-width:1.33333325" />
  <path
     id="path959"
     d="m 103.01333,288.86666 v 0.46667 a 2.9466666,2.9466666 0 0 1 -0.88,2.2 3.1999999,3.1999999 0 0 1 -2.319999,0.85333 3.4266666,3.4266666 0 0 1 -2.506667,-0.98667 3.4666666,3.4666666 0 0 1 0,-4.81333 3.3733332,3.3733332 0 0 1 2.453334,-0.98667 3.2666666,3.2666666 0 0 1 2.906662,1.53334 l -0.92,0.53333 a 2.1466666,2.1466666 0 0 0 -1.919996,-1.02667 2.2666666,2.2666666 0 0 0 -1.693333,0.66667 2.3199999,2.3199999 0 0 0 -0.666667,1.68 2.2266666,2.2266666 0 0 0 0.666667,1.66667 2.4266666,2.4266666 0 0 0 1.76,0.66666 A 1.9466666,1.9466666 0 0 0 102,289.82666 h -2.253336 v -0.96 z"
     class="cls-5"
     inkscape:connector-curvature="0"
     style="fill:#cccccc;stroke-width:1.33333325" />
  <path
     id="path961"
     d="m 103.44,292.23999 v -0.84 l 2.28,-2.32 a 2.2933333,2.2933333 0 0 0 0.82666,-1.44 0.93333331,0.93333331 0 0 0 -1,-1 1.3333333,1.3333333 0 0 0 -1.21333,0.8 l -0.90667,-0.52 a 2.2399999,2.2399999 0 0 1 2.10667,-1.33333 2.1199999,2.1199999 0 0 1 1.48,0.54667 1.8266666,1.8266666 0 0 1 0.61333,1.46666 3.2266666,3.2266666 0 0 1 -1.10666,2.13334 l -1.48,1.48 h 2.66666 v 1.02666 z"
     class="cls-5"
     inkscape:connector-curvature="0"
     style="fill:#cccccc;stroke-width:1.33333325" />
  <path
     id="path963"
     d="m 105.17333,296.37333 v 6.53333 h -1.06667 v -4.65333 l -1.98666,3.29333 h -0.13334 l -1.986662,-3.30667 v 4.66667 h -1.08 v -6.53333 H 100.08 l 1.97333,3.26666 L 104,296.37333 Z"
     class="cls-5"
     inkscape:connector-curvature="0"
     style="fill:#cccccc;stroke-width:1.33333325" />
  <path
     id="path965"
     d="m 8.7466664,331.81333 h 1.0666667 v 6.53333 h -0.84 l -3.0799999,-4.44 v 4.44 h -1.08 v -6.53333 h 0.84 l 3.0933332,4.43999 z"
     class="cls-5"
     inkscape:connector-curvature="0"
     style="fill:#cccccc;stroke-width:1.33333325" />
  <path
     id="path967"
     d="m 11.306666,339.27999 h -0.52 l 3.746667,-8.4 H 15.04 Z"
     class="cls-5"
     inkscape:connector-curvature="0"
     style="fill:#cccccc;stroke-width:1.33333325" />
  <path
     id="path969"
     d="M 19.573333,338.34666 19.12,337.01332 H 16.333333 L 15.88,338.34666 H 14.666666 L 17.04,331.81333 h 1.333333 l 2.36,6.53333 z m -2.88,-2.34667 H 18.76 l -1.026667,-2.96 z"
     class="cls-5"
     inkscape:connector-curvature="0"
     style="fill:#cccccc;stroke-width:1.33333325" />
  <path
     id="path971"
     d="m 98.853331,331.81333 h 1.146667 v 6.53333 h -0.84 l -3.16,-4.44 v 4.44 h -1.066667 v -6.53333 h 0.84 l 3.08,4.43999 z"
     class="cls-5"
     inkscape:connector-curvature="0"
     style="fill:#cccccc;stroke-width:1.33333325" />
  <path
     id="path973"
     d="m 101.42666,339.27999 h -0.52 l 3.73334,-8.4 h 0.52 z"
     class="cls-5"
     inkscape:connector-curvature="0"
     style="fill:#cccccc;stroke-width:1.33333325" />
  <path
     id="path975"
     d="M 109.69333,338.34666 109.24,337.01332 h -2.78667 L 106,338.34666 h -1.17334 L 107.2,331.81333 h 1.33333 l 2.36,6.53333 z m -2.88,-2.34667 H 108.88 l -1.04,-2.96 z"
     class="cls-5"
     inkscape:connector-curvature="0"
     style="fill:#cccccc;stroke-width:1.33333325" />
  <path
     id="path977"
     d="m 8.7466664,372.81332 h 1.0666667 v 6.54667 h -0.84 l -3.0799999,-4.44 v 4.44 h -1.08 v -6.54667 h 0.84 l 3.0933332,4.44 z"
     class="cls-5"
     inkscape:connector-curvature="0"
     style="fill:#cccccc;stroke-width:1.33333325" />
  <path
     id="path979"
     d="m 11.306666,380.29332 h -0.52 l 3.746667,-8.41333 H 15.04 Z"
     class="cls-5"
     inkscape:connector-curvature="0"
     style="fill:#cccccc;stroke-width:1.33333325" />
  <path
     id="path981"
     d="M 19.573333,379.35999 19.12,378.02666 H 16.333333 L 15.88,379.35999 H 14.666666 L 17.04,372.81332 h 1.333333 l 2.36,6.54667 z m -2.88,-2.33333 H 18.76 l -1.026667,-2.94667 z"
     class="cls-5"
     inkscape:connector-curvature="0"
     style="fill:#cccccc;stroke-width:1.33333325" />
  <path
     id="path983"
     d="m 98.853331,372.81332 h 1.146667 v 6.54667 h -0.84 l -3.16,-4.44 v 4.44 h -1.066667 v -6.54667 h 0.84 l 3.08,4.44 z"
     class="cls-5"
     inkscape:connector-curvature="0"
     style="fill:#cccccc;stroke-width:1.33333325" />
  <path
     id="path985"
     d="m 101.42666,380.29332 h -0.52 l 3.73334,-8.41333 h 0.52 z"
     class="cls-5"
     inkscape:connector-curvature="0"
     style="fill:#cccccc;stroke-width:1.33333325" />
  <path
     id="path987"
     d="M 109.69333,379.35999 109.24,378.02666 h -2.78667 L 106,379.35999 h -1.17334 L 107.2,372.81332 h 1.33333 l 2.36,6.54667 z m -2.88,-2.33333 H 108.88 l -1.04,-2.94667 z"
     class="cls-5"
     inkscape:connector-curvature="0"
     style="fill:#cccccc;stroke-width:1.33333325" />
  <path
     id="path989"
     d="m 8.7466664,414.01332 h 1.0666667 v 6.54667 h -0.84 l -3.0799999,-4.44 v 4.44 h -1.08 v -6.54667 h 0.8533333 l 3.0799999,4.44 z"
     class="cls-5"
     inkscape:connector-curvature="0"
     style="fill:#cccccc;stroke-width:1.33333325" />
  <path
     id="path991"
     d="m 11.306666,421.49332 h -0.52 l 3.746667,-8.41333 H 15.04 Z"
     class="cls-5"
     inkscape:connector-curvature="0"
     style="fill:#cccccc;stroke-width:1.33333325" />
  <path
     id="path993"
     d="M 19.573333,420.55999 19.12,419.22666 H 16.333333 L 15.88,420.55999 H 14.666666 L 17.04,414.01332 h 1.333333 l 2.36,6.54667 z m -2.88,-2.33333 H 18.76 l -1.026667,-2.94667 z"
     class="cls-5"
     inkscape:connector-curvature="0"
     style="fill:#cccccc;stroke-width:1.33333325" />
  <path
     id="path995"
     d="M 99.119998,414.01332 H 100.2 v 6.54667 h -0.840002 l -3.08,-4.44 v 4.44 h -1.08 v -6.54667 h 0.8 l 3.08,4.44 z"
     class="cls-5"
     inkscape:connector-curvature="0"
     style="fill:#cccccc;stroke-width:1.33333325" />
  <path
     id="path997"
     d="m 101.69333,421.49332 h -0.52 l 3.73333,-8.41333 h 0.52 z"
     class="cls-5"
     inkscape:connector-curvature="0"
     style="fill:#cccccc;stroke-width:1.33333325" />
  <path
     id="path999"
     d="m 109.96,420.55999 -0.45334,-1.33333 h -2.84 l -0.45333,1.33333 H 105.04 l 2.37333,-6.54667 h 1.33333 l 2.36,6.54667 z m -2.88,-2.33333 h 2.06666 l -1.04,-2.94667 z"
     class="cls-5"
     inkscape:connector-curvature="0"
     style="fill:#cccccc;stroke-width:1.33333325" />
  <path
     id="path1001"
     d="M 9.7866664,171.06666 A 1.9333333,1.9333333 0 0 1 11.386666,172.96 1.9466666,1.9466666 0 0 1 10.72,174.50666 2.4266666,2.4266666 0 0 1 9.0933331,175.05333 2.2399999,2.2399999 0 0 1 6.8933332,173.72 l 0.9199999,-0.53334 a 1.2133333,1.2133333 0 0 0 1.3333333,0.84 c 0.7466667,0 1.2133336,-0.41333 1.2133336,-1.05333 0,-0.64 -0.4666669,-1.04 -1.2133336,-1.04 H 8.8533331 l -0.44,-0.65333 1.4133333,-1.85334 H 7.1599998 v -1.01333 H 11.16 v 0.92 z"
     class="cls-5"
     inkscape:connector-curvature="0"
     style="fill:#cccccc;stroke-width:1.33333325" />
  <path
     id="path1003"
     d="m 18.666666,168.4 v 6.53333 H 17.6 V 170.28 l -2,3.28 h -0.12 l -2,-3.29334 v 4.66667 H 12.413333 V 168.4 h 1.16 l 1.96,3.26666 L 17.52,168.4 Z"
     class="cls-5"
     inkscape:connector-curvature="0"
     style="fill:#cccccc;stroke-width:1.33333325" />
</svg>
