<?xml version="1.0" encoding="UTF-8" standalone="no"?>
<svg
   xmlns:dc="http://purl.org/dc/elements/1.1/"
   xmlns:cc="http://creativecommons.org/ns#"
   xmlns:rdf="http://www.w3.org/1999/02/22-rdf-syntax-ns#"
   xmlns:svg="http://www.w3.org/2000/svg"
   xmlns="http://www.w3.org/2000/svg"
   xmlns:sodipodi="http://sodipodi.sourceforge.net/DTD/sodipodi-0.dtd"
   xmlns:inkscape="http://www.inkscape.org/namespaces/inkscape"
   viewBox="0 0 30.23622 30.23622"
   version="1.1"
   id="svg37"
   sodipodi:docname="jack-darker.svg"
   width="8mm"
   height="8mm"
   inkscape:version="0.92.2 5c3e80d, 2017-08-06">
  <metadata
     id="metadata41">
    <rdf:RDF>
      <cc:Work
         rdf:about="">
        <dc:format>image/svg+xml</dc:format>
        <dc:type
           rdf:resource="http://purl.org/dc/dcmitype/StillImage" />
        <dc:title>Asset 2</dc:title>
      </cc:Work>
    </rdf:RDF>
  </metadata>
  <sodipodi:namedview
     pagecolor="#ffffff"
     bordercolor="#666666"
     borderopacity="1"
     objecttolerance="10"
     gridtolerance="10"
     guidetolerance="10"
     inkscape:pageopacity="0"
     inkscape:pageshadow="2"
     inkscape:window-width="1035"
     inkscape:window-height="790"
     id="namedview39"
     showgrid="false"
     inkscape:document-units="mm"
     units="mm"
     inkscape:zoom="10.405644"
     inkscape:cx="11.34"
     inkscape:cy="11.34"
     inkscape:window-x="0"
     inkscape:window-y="0"
     inkscape:window-maximized="0"
     inkscape:current-layer="svg37" />
  <defs
     id="defs9">
    <style
       id="style2">.cls-1{fill:url(#linear-gradient);}.cls-2{fill:#828282;}.cls-3{fill:#1e1e1e;}.cls-4{fill:#878787;}.cls-5{fill:#646464;}</style>
    <linearGradient
       id="linear-gradient"
       x1="11.34"
       y1="0.14"
       x2="11.34"
       y2="22.540001"
       gradientUnits="userSpaceOnUse">
      <stop
         offset="0"
         stop-color="#c8c8c8"
         id="stop4" />
      <stop
         offset="1"
         stop-color="#969696"
         id="stop6" />
    </linearGradient>
  </defs>
  <title
     id="title11">Asset 2</title>
  <g
     id="Layer_2"
     data-name="Layer 2"
     transform="scale(1.3331666)">
    <g
       id="New_Jacks"
       data-name="New Jacks">
      <circle
         class="cls-1"
         cx="11.34"
         cy="11.34"
         r="11.2"
         id="circle13"
         style="fill:url(#linear-gradient)" />
      <path
         class="cls-2"
         d="M 11.34,0.28 A 11.06,11.06 0 1 1 0.28,11.34 11.07,11.07 0 0 1 11.34,0.28 M 11.34,0 A 11.34,11.34 0 1 0 22.68,11.34 11.34,11.34 0 0 0 11.34,0 Z"
         id="path15"
         inkscape:connector-curvature="0"
         style="fill:#828282" />
      <path
         class="cls-3"
         d="M 11.34,19.7 A 8.36,8.36 0 1 1 19.7,11.34 8.37,8.37 0 0 1 11.34,19.7 Z"
         id="path17"
         inkscape:connector-curvature="0"
         style="fill:#1e1e1e" />
      <path
         class="cls-4"
         d="m 11.34,3.12 a 8.22,8.22 0 1 1 -8.22,8.22 8.23,8.23 0 0 1 8.22,-8.22 m 0,-0.29 a 8.51,8.51 0 1 0 8.5,8.51 8.51,8.51 0 0 0 -8.5,-8.51 z"
         id="path19"
         inkscape:connector-curvature="0"
         style="fill:#878787" />
      <path
         d="m 11.34,17.22 a 5.88,5.88 0 1 1 5.88,-5.88 5.89,5.89 0 0 1 -5.88,5.88 z"
         id="path21"
         inkscape:connector-curvature="0" />
      <path
         class="cls-5"
         d="m 11.34,6.87 a 4.47,4.47 0 1 1 -4.47,4.47 4.47,4.47 0 0 1 4.47,-4.47 m 0,-2.83 a 7.3,7.3 0 1 0 7.3,7.3 A 7.3,7.3 0 0 0 11.34,4 Z"
         id="path23"
         inkscape:connector-curvature="0"
         style="fill:#646464" />
      <circle
         cx="11.34"
         cy="11.34"
         r="5.0999999"
         id="circle25" />
      <rect
         class="cls-2"
         x="21.190001"
         y="10.79"
         width="0.69999999"
         height="1.2"
         id="rect27"
         style="fill:#828282" />
      <polygon
         class="cls-2"
         points="20.66,12.53 22.42,12.53 22.42,10.26 20.66,10.26 "
         id="polygon29"
         style="fill:#828282" />
      <rect
         class="cls-2"
         x="0.81"
         y="10.79"
         width="0.69999999"
         height="1.2"
         id="rect31"
         style="fill:#828282" />
      <polygon
         class="cls-2"
         points="0.28,12.53 2.04,12.53 2.04,10.26 0.28,10.26 "
         id="polygon33"
         style="fill:#828282" />
    </g>
  </g>
</svg>
