<?xml version="1.0" encoding="UTF-8" standalone="no"?>
<svg
   xmlns:dc="http://purl.org/dc/elements/1.1/"
   xmlns:cc="http://creativecommons.org/ns#"
   xmlns:rdf="http://www.w3.org/1999/02/22-rdf-syntax-ns#"
   xmlns:svg="http://www.w3.org/2000/svg"
   xmlns="http://www.w3.org/2000/svg"
   xmlns:sodipodi="http://sodipodi.sourceforge.net/DTD/sodipodi-0.dtd"
   xmlns:inkscape="http://www.inkscape.org/namespaces/inkscape"
   version="1.0"
   id="svg16908"
   x="0px"
   y="0px"
   width="20"
   height="20"
   viewBox="0 0 20 20.000001"
   enable-background="new 0 0 36 36.0016"
   xml:space="preserve"
   sodipodi:docname="Davies1900hWhite20.svg"
   inkscape:version="1.0.2 (e86c8708, 2021-01-15)"><metadata
   id="metadata849"><rdf:RDF><cc:Work
       rdf:about=""><dc:format>image/svg+xml</dc:format><dc:type
         rdf:resource="http://purl.org/dc/dcmitype/StillImage" /><dc:title></dc:title></cc:Work></rdf:RDF></metadata><defs
   id="defs847" />
<sodipodi:namedview
   bordercolor="#666666"
   borderopacity="1.0"
   fit-margin-bottom="0"
   fit-margin-left="0"
   fit-margin-right="0"
   fit-margin-top="0"
   id="base"
   inkscape:current-layer="svg16908"
   inkscape:cx="-91.947964"
   inkscape:cy="8.8255993"
   inkscape:document-units="mm"
   inkscape:pageopacity="0.0"
   inkscape:pageshadow="2"
   inkscape:window-height="847"
   inkscape:window-maximized="0"
   inkscape:window-width="1440"
   inkscape:window-x="2466"
   inkscape:window-y="312"
   inkscape:zoom="1.979899"
   pagecolor="#ffffff"
   showgrid="false"
   units="px"
   inkscape:document-rotation="0">
	</sodipodi:namedview>




<g
   id="g860"
   transform="scale(0.55555549)"><rect
     style="fill:none;stroke-width:2.91786"
     id="rect851"
     width="36"
     height="36"
     x="0"
     y="1.7763568e-15"
     ry="1.763261" /><path
     opacity="0.49"
     fill="#c4c4c4"
     enable-background="new    "
     d="m 31.26635,28.45262 c 0.93884,-1.19196 2.5792,-1.87889 3.18775,-3.35014 0.6026,-1.45668 0.14837,-3.59276 0.31776,-5.08902 0.04287,-0.14134 0.07395,-0.28706 0.08797,-0.43569 0.10079,-1.0664 0.09812,-2.13086 -0.0021,-3.17977 -0.01245,-0.13042 -0.04262,-0.25719 -0.07741,-0.38226 3.7e-4,0.0015 0.0014,0.0027 0.0018,0.0039 C 34.60307,14.51317 35.16254,12.57593 34.5526,11.1054 33.94958,9.65139 32.23567,8.75518 31.2981,7.57925 31.22901,7.45005 31.1488,7.32595 31.05457,7.21156 30.38385,6.39846 29.63329,5.64389 28.80793,4.96049 28.69366,4.86602 28.56938,4.78539 28.43994,4.71593 27.26,3.78213 26.79902,2.25061 25.34258,1.64807 23.89701,1.05015 21.55897,1.40914 20.07193,1.24302 19.92178,1.19542 19.76617,1.16288 19.60764,1.14782 18.541,1.04703 17.47666,1.0497 16.42756,1.15001 16.29138,1.16288 16.15859,1.19348 16.0283,1.23088 14.52542,1.40841 12.6285,0.83609 11.16259,1.44397 9.70664,2.04796 8.77503,3.77897 7.59739,4.71739 7.47262,4.78515 7.3521,4.86189 7.24154,4.95321 6.42844,5.62375 5.67363,6.37443 4.99034,7.19967 4.89745,7.31187 4.81882,7.43427 4.75015,7.56129 c -0.9409,1.1871 -2.73669,2.27351 -3.3436,3.74063 -0.60849,1.47101 0.01993,3.22704 -0.15754,4.73399 -0.03315,0.12192 -0.05938,0.23728 -0.0714,0.36405 -0.10079,1.06664 -0.09812,2.13086 0.00213,3.18002 0.01263,0.13236 0.04098,0.25573 0.07668,0.38275 0.1779,1.51375 -0.36958,3.46796 0.24328,4.94577 0.60994,1.47052 2.33699,2.36579 3.27693,3.55678 0.06521,0.11706 0.12022,0.19672 0.20631,0.3009 0.67072,0.8131 1.42122,1.56791 2.24658,2.25108 0.10868,0.0901 0.20534,0.15495 0.32786,0.22222 1.19621,0.94448 1.86602,2.57203 3.34419,3.18356 1.47113,0.60861 3.6505,0.16209 5.15727,0.33962 0.13029,0.03716 0.23503,0.05465 0.37109,0.06752 1.06652,0.10078 2.13086,0.09811 3.1799,-0.0022 0.13546,-0.01287 0.24608,-0.03595 0.37577,-0.07286 1.51381,-0.17802 3.40228,0.39571 4.8799,-0.21727 1.47052,-0.60983 2.43178,-2.36312 3.62277,-3.303 0.11839,-0.06557 0.20243,-0.12313 0.30783,-0.21008 0.81304,-0.67078 1.56779,-1.42122 2.25101,-2.2467 0.08736,-0.10543 0.15324,-0.20695 0.21924,-0.32546 z M 8.23466,4.50073 c -1.8e-4,0 -3.6e-4,0 -6.1e-4,0 1.9e-4,0 4.3e-4,0 6.1e-4,0 z"
     id="path834" /><path
     opacity="0.32"
     fill="#9c9c9c"
     enable-background="new    "
     d="M 35.90357,16.15523 C 35.82996,15.44818 35.40378,14.85659 34.83405,14.43146 34.2151,13.9696 33.52484,12.9294 32.97499,11.63653 32.42478,10.34245 32.15451,9.12273 32.25181,8.3566 32.34135,7.65156 32.21149,6.93429 31.75367,6.3907 31.03748,5.54032 30.23842,4.75176 29.36185,4.03863 28.80929,3.5891 28.08763,3.46994 27.38282,3.57311 26.61868,3.68497 25.39363,3.43735 24.08913,2.91146 22.78382,2.38492 21.72932,1.71281 21.25684,1.10175 20.82106,0.53816 20.21882,0.12288 19.50892,0.06303 18.38307,-0.03189 17.26066,-0.01868 16.15506,0.09641 15.44796,0.17002 14.8564,0.59632 14.43124,1.1661 13.96939,1.78504 12.92941,2.47531 11.6364,3.02489 10.34243,3.57512 9.12277,3.8454 8.35668,3.74825 7.65162,3.65884 6.93432,3.78858 6.39073,4.24642 5.54035,4.96266 4.75173,5.76167 4.03861,6.63817 3.5891,7.19067 3.46989,7.91228 3.57306,8.61703 c 0.11186,0.76415 -0.13561,1.9892 -0.66171,3.29384 -0.52652,1.30541 -1.19883,2.3602 -1.80989,2.83256 -0.56343,0.43554 -0.97863,1.03749 -1.03844,1.74712 -0.09491,1.12597 -0.0817,2.24858 0.03345,3.35436 0.07363,0.70707 0.49988,1.29863 1.06962,1.7238 0.61889,0.46184 1.30912,1.50186 1.85894,2.79489 0.5502,1.29385 0.82051,2.5137 0.72324,3.27988 -0.08951,0.70504 0.0403,1.42231 0.49813,1.96589 0.71613,0.85026 1.51513,1.63887 2.39162,2.35188 0.5526,0.44954 1.2743,0.56875 1.97914,0.46561 0.76419,-0.11182 1.98924,0.13566 3.29371,0.6618 1.3056,0.52645 2.36037,1.19888 2.83273,1.80995 0.43551,0.56341 1.03745,0.97859 1.74704,1.03843 1.12602,0.09496 2.24863,0.08175 3.35437,-0.03349 0.70696,-0.07368 1.29852,-0.49973 1.72354,-1.06945 0.46177,-0.61897 1.50192,-1.30924 2.79504,-1.85913 1.2939,-0.55021 2.5135,-0.82048 3.27964,-0.72324 0.70521,0.08952 1.42269,-0.04021 1.96637,-0.4982 0.85029,-0.71627 1.63881,-1.51539 2.35187,-2.39191 0.44946,-0.55249 0.56865,-1.27406 0.46548,-1.97877 -0.11187,-0.76414 0.1356,-1.98916 0.66171,-3.2936 0.52645,-1.30538 1.19873,-2.36014 1.8098,-2.83266 0.56349,-0.43573 0.97872,-1.03787 1.03854,-1.74766 0.09489,-1.12571 0.08168,-2.24806 -0.03343,-3.3537 z m -0.75874,3.3003 c -0.03778,0.4441 -0.26189,0.84652 -0.59933,1.07659 -0.76952,0.52408 -1.56887,1.71213 -2.19307,3.25983 -0.62362,1.54641 -0.87236,2.95595 -0.68247,3.86751 0.08327,0.39955 -0.03467,0.84465 -0.31572,1.19049 -0.67815,0.83517 -1.44105,1.61091 -2.26751,2.30584 -0.26963,0.22685 -0.59977,0.35347 -0.92951,0.35656 -0.08353,7.8e-4 -0.16682,-0.0067 -0.2476,-0.02198 -0.1923,-0.03671 -0.40678,-0.05408 -0.63754,-0.05193 -0.87313,0.0082 -2.01639,0.29437 -3.21898,0.80596 -1.5346,0.65219 -2.70716,1.47313 -3.21707,2.25219 -0.22193,0.33908 -0.61765,0.56918 -1.05824,0.61569 -0.53955,0.05674 -1.08767,0.08797 -1.62899,0.09303 -0.53344,0.005 -1.07326,-0.01528 -1.60433,-0.06045 -0.44403,-0.03797 -0.84652,-0.26189 -1.07653,-0.59959 -0.52428,-0.76965 -1.71252,-1.569 -3.26015,-2.19313 -1.21234,-0.489 -2.36075,-0.75375 -3.23362,-0.74558 -0.22967,0.0021 -0.44288,0.02353 -0.63362,0.0633 C 8.26007,31.68664 8.17687,31.69543 8.09314,31.69621 7.76042,31.69932 7.42545,31.57789 7.14986,31.35407 6.31456,30.67572 5.53882,29.91283 4.84401,29.08637 4.55894,28.7474 4.434,28.30741 4.50968,27.90948 4.68377,26.99478 4.40888,25.5891 3.75564,24.05257 3.103,22.51811 2.282,21.34549 1.5032,20.83563 1.16405,20.6137 0.93395,20.21811 0.88771,19.77764 0.775,18.70409 0.76404,17.61616 0.85525,16.54406 0.89303,16.09996 1.11708,15.69754 1.45452,15.46773 2.2241,14.94365 3.02346,13.75534 3.64765,12.20764 4.27127,10.66123 4.52001,9.25169 4.33012,8.34039 4.24685,7.94084 4.36492,7.49574 4.64584,7.14964 5.32483,6.31369 6.08779,5.53794 6.91361,4.84405 7.18324,4.61721 7.51324,4.49058 7.84279,4.4875 7.92645,4.48672 8.00974,4.49421 8.09052,4.50948 8.28263,4.54619 8.49704,4.56356 8.72768,4.5614 9.60056,4.55323 10.74381,4.26704 11.94704,3.75543 13.48183,3.10272 14.65438,2.28179 15.16405,1.50324 15.38611,1.1639 15.78163,0.9338 16.22223,0.88755 c 0.53961,-0.05674 1.08773,-0.08797 1.62912,-0.09304 0.53357,-0.00499 1.07339,0.01528 1.60439,0.06045 0.44416,0.03797 0.84659,0.26189 1.07653,0.59959 0.52408,0.76939 1.71232,1.56874 3.25989,2.19287 1.2124,0.489 2.36088,0.75401 3.23388,0.74584 0.22967,-0.00215 0.44281,-0.02353 0.63356,-0.0633 0.08048,-0.01678 0.16368,-0.02557 0.2474,-0.02635 0.33272,-0.00311 0.66776,0.11832 0.94315,0.34188 0.8353,0.6786 1.61118,1.4415 2.30585,2.2677 0.28513,0.33899 0.41014,0.77924 0.33445,1.17717 -0.17403,0.9147 0.1008,2.32038 0.75397,3.85665 0.65245,1.53447 1.47345,2.70709 2.25245,3.21694 0.33915,0.22193 0.56924,0.61752 0.61549,1.05824 0.11279,1.07357 0.12368,2.16125 0.03247,3.23334 z"
     id="path836" /><path
     opacity="0.46"
     fill="#ffffff"
     enable-background="new    "
     d="M 34.06219,15.82835 C 33.14167,15.22575 32.23669,13.95777 31.51382,12.25779 30.79015,10.55575 30.5049,9.02301 30.71052,7.94209 30.74162,7.77846 30.67954,7.58004 30.54841,7.42414 29.88621,6.63666 29.1464,5.90909 28.34957,5.26166 28.21747,5.15461 28.0629,5.0961 27.91443,5.09749 c -0.03146,2.9e-4 -0.0627,0.00343 -0.09288,0.00966 -0.24182,0.05033 -0.50698,0.07737 -0.78808,0.08 C 26.05891,5.19627 24.80234,4.91082 23.49519,4.38368 21.78074,3.69237 20.49547,2.8107 19.87613,1.90162 19.78075,1.7614 19.59375,1.66365 19.38806,1.64594 18.88279,1.60311 18.36812,1.58364 17.85877,1.5884 17.3418,1.59324 16.81913,1.6232 16.3052,1.67711 16.10233,1.69839 15.91971,1.79831 15.82836,1.93795 15.22601,2.85821 13.95791,3.76299 12.25773,4.486 10.9608,5.0375 9.70979,5.34616 8.7351,5.35528 8.45162,5.35792 8.18457,5.33561 7.94153,5.2893 7.91279,5.28388 7.88156,5.28107 7.85023,5.28137 7.70461,5.28273 7.55353,5.34307 7.42468,5.45153 6.63706,6.11327 5.90956,6.85302 5.26206,7.65017 5.13214,7.81032 5.07279,8.01272 5.10729,8.17832 5.33168,9.25521 5.07476,10.79147 4.38388,12.50469 3.69237,14.2192 2.81071,15.50467 1.90136,16.12388 1.76147,16.21926 1.66371,16.406 1.64625,16.61136 1.55929,17.63353 1.5697,18.67082 1.67724,19.6948 c 0.02128,0.20268 0.12113,0.38524 0.26064,0.47645 0.92026,0.6026 1.82524,1.87058 2.54831,3.57056 0.7238,1.70256 1.00906,3.23529 0.80337,4.31621 -0.0311,0.16337 0.03104,0.36153 0.16204,0.51744 0.66259,0.78799 1.40227,1.51556 2.19871,2.16248 0.13236,0.10731 0.287,0.16582 0.4354,0.16443 0.0314,-2.9e-4 0.06258,-0.0034 0.09276,-0.0097 0.24195,-0.05033 0.50711,-0.07737 0.78827,-0.08 0.97482,-0.0091 2.23132,0.27607 3.53802,0.80321 1.71445,0.69131 2.99979,1.57298 3.61932,2.48232 0.09532,0.14022 0.28238,0.23796 0.488,0.25568 0.50533,0.04282 1.02001,0.0623 1.52929,0.05754 0.5169,-0.0048 1.03958,-0.0348 1.55337,-0.08871 0.2028,-0.02154 0.38569,-0.12146 0.47697,-0.26084 0.6026,-0.92078 1.87071,-1.82556 3.57082,-2.54805 1.29603,-0.55149 2.54691,-0.86015 3.52212,-0.86928 0.28349,-0.0026 0.55054,0.01966 0.79378,0.06597 0.02887,0.0054 0.0601,0.0082 0.09137,0.0079 0.14575,-0.0014 0.29702,-0.0617 0.42581,-0.17016 0.78838,-0.66304 1.51582,-1.40279 2.16229,-2.1989 0.13011,-0.1599 0.18941,-0.3623 0.15484,-0.52789 -0.22433,-1.07715 0.0326,-2.61341 0.7234,-4.32662 0.69144,-1.71425 1.57304,-2.99972 2.48245,-3.61893 0.13983,-0.09538 0.23771,-0.28238 0.25517,-0.48774 0.08696,-1.02217 0.07655,-2.05946 -0.03098,-3.08318 -0.02129,-0.20294 -0.12114,-0.3855 -0.26059,-0.47672 z"
     id="path838" /><g
     opacity="0.6"
     enable-background="new    "
     id="g842">
	<path
   fill="#ffffff"
   d="m 17.85875,1.58839 c 0.50938,-0.00477 1.02404,0.01471 1.52934,0.05754 0.20568,0.01772 0.39264,0.11547 0.48802,0.25568 0.61935,0.90909 1.90463,1.79075 3.61907,2.48207 1.30716,0.52714 2.56374,0.81259 3.53827,0.80347 0.28111,-0.00263 0.5463,-0.02966 0.78808,-0.08 0.03021,-0.00623 0.06145,-0.00936 0.09288,-0.00966 0.14846,-0.00139 0.30307,0.05712 0.43514,0.16417 0.79686,0.64743 1.53664,1.375 2.19888,2.16248 0.13108,0.15591 0.19319,0.35433 0.16209,0.51795 -0.20565,1.08092 0.07962,2.61365 0.80329,4.3157 0.72289,1.69998 1.62788,2.96796 2.54836,3.57056 0.13948,0.09122 0.23933,0.27378 0.26062,0.47671 0.10753,1.02372 0.11795,2.061 0.03097,3.08318 -0.01748,0.20537 -0.11537,0.39236 -0.25518,0.48774 -0.9094,0.61921 -1.79101,1.90468 -2.48246,3.61893 -0.69081,1.71321 -0.94771,3.24947 -0.72339,4.32662 0.03453,0.1656 -0.02471,0.36799 -0.15483,0.52789 -0.64647,0.79611 -1.37391,1.53585 -2.1623,2.1989 -0.12882,0.10846 -0.28006,0.1688 -0.42584,0.17016 -0.03127,2.9e-4 -0.06247,-0.0025 -0.09134,-0.0079 -0.24322,-0.04631 -0.51029,-0.06862 -0.79381,-0.06597 -0.97516,0.0091 -2.22609,0.31778 -3.52207,0.86928 -1.70012,0.72249 -2.96826,1.62727 -3.57084,2.54805 -0.0913,0.13938 -0.27418,0.2393 -0.47697,0.26084 -0.51383,0.05391 -1.03647,0.08387 -1.55341,0.08871 -0.50928,0.0048 -1.02392,-0.01471 -1.52924,-0.05754 -0.20568,-0.01775 -0.39268,-0.1155 -0.48805,-0.25571 -0.61948,-0.90935 -1.90487,-1.79101 -3.61932,-2.48232 -1.30669,-0.52714 -2.56319,-0.81233 -3.53802,-0.80321 -0.28113,0.0026 -0.54633,0.02966 -0.78824,0.08 -0.03018,0.0062 -0.06139,0.0094 -0.09279,0.0097 C 7.93726,30.90375 7.78265,30.84524 7.65028,30.73793 6.85388,30.09101 6.11415,29.36344 5.45157,28.57545 5.32055,28.41954 5.25846,28.22138 5.28953,28.05801 5.49525,26.97709 5.20994,25.44436 4.48616,23.7418 3.76309,22.04182 2.85812,20.77384 1.93787,20.17124 1.79836,20.08002 1.69849,19.89746 1.67721,19.69479 1.56971,18.67082 1.55929,17.63353 1.64624,16.61135 1.6637,16.40598 1.76147,16.21925 1.90135,16.12387 2.81068,15.50466 3.69233,14.21919 4.38388,12.50468 5.0747,10.79147 5.33163,9.25521 5.10727,8.17832 5.07274,8.01272 5.13209,7.81033 5.26203,7.65017 5.90954,6.85302 6.63703,6.11327 7.42466,5.45153 7.5535,5.34306 7.70463,5.28273 7.8502,5.28136 7.88153,5.28107 7.91277,5.28388 7.94152,5.2893 8.1846,5.33561 8.4516,5.35792 8.73508,5.35527 9.7098,5.34615 10.96081,5.03749 12.25771,4.48599 13.95794,3.76298 15.22599,2.8582 15.82834,1.93794 15.91968,1.7983 16.10236,1.69838 16.30521,1.6771 16.81911,1.62319 17.34179,1.59323 17.85875,1.58839 M 17.85133,0.79453 C 17.30994,0.7996 16.76182,0.83083 16.22221,0.88757 15.78161,0.93382 15.38609,1.16392 15.16403,1.50326 14.65437,2.2818 13.48181,3.10273 11.94702,3.75545 10.74379,4.26705 9.60053,4.55325 8.72766,4.56142 8.49702,4.56356 8.28261,4.54619 8.0905,4.50948 8.00972,4.49421 7.92643,4.48672 7.84277,4.4875 7.51322,4.49058 7.18321,4.61721 6.91358,4.84406 6.08777,5.53795 5.3248,6.31369 4.64582,7.14964 4.3649,7.49574 4.24682,7.94085 4.3301,8.3404 c 0.18989,0.9113 -0.05885,2.32084 -0.68247,3.86725 -0.62419,1.5477 -1.42355,2.736 -2.19313,3.26009 -0.33744,0.22981 -0.56149,0.63223 -0.59927,1.07633 -0.09121,1.07209 -0.08026,2.16003 0.03246,3.23358 0.04625,0.44047 0.27634,0.83606 0.61549,1.05799 0.7788,0.50985 1.5998,1.68247 2.25244,3.21694 0.65325,1.53653 0.92814,2.9422 0.75404,3.85691 -0.07568,0.39793 0.04926,0.83792 0.33432,1.17692 0.6948,0.82646 1.47055,1.58935 2.30585,2.2677 0.27559,0.22382 0.61057,0.34525 0.94328,0.34214 0.08373,-7.8e-4 0.16693,-0.0096 0.24741,-0.02635 0.19075,-0.03978 0.40395,-0.06115 0.63362,-0.0633 0.87288,-0.0082 2.02128,0.25658 3.23362,0.74558 1.54764,0.62413 2.73588,1.42348 3.26015,2.19313 0.23001,0.3377 0.63249,0.56162 1.07653,0.59959 0.53107,0.04517 1.07088,0.06544 1.60433,0.06045 0.54132,-0.0051 1.08945,-0.0363 1.62899,-0.09303 0.4406,-0.04651 0.83631,-0.27661 1.05824,-0.61569 0.50992,-0.77906 1.68247,-1.59999 3.21707,-2.25219 1.20259,-0.51159 2.34584,-0.79779 3.21898,-0.80596 0.23077,-0.0022 0.44524,0.01521 0.63754,0.05192 0.08078,0.01527 0.16406,0.02276 0.2476,0.02198 0.32974,-0.0031 0.65988,-0.12971 0.92951,-0.35656 0.82645,-0.69493 1.58935,-1.47067 2.26751,-2.30584 0.28105,-0.34584 0.399,-0.79095 0.31572,-1.19049 -0.18989,-0.91156 0.05885,-2.3211 0.68247,-3.86751 0.62419,-1.5477 1.42355,-2.73575 2.19307,-3.25983 0.33744,-0.23007 0.56155,-0.63249 0.59933,-1.07659 0.09121,-1.07209 0.08032,-2.15977 -0.03245,-3.23332 C 35.0661,15.78151 34.836,15.38592 34.49685,15.164 33.71785,14.65415 32.89686,13.48153 32.2444,11.94706 31.59122,10.41079 31.3164,9.00511 31.49043,8.09041 31.56611,7.69248 31.44111,7.25223 31.15597,6.91324 30.4613,6.08704 29.68543,5.32414 28.85012,4.64554 28.57473,4.42198 28.23968,4.30055 27.90697,4.30366 27.82324,4.30444 27.74004,4.31323 27.65956,4.33001 27.46881,4.36979 27.25567,4.39116 27.026,4.39331 26.153,4.40148 25.00452,4.13647 23.79212,3.64747 22.24455,3.02334 21.05631,2.22399 20.53223,1.4546 20.30229,1.1169 19.89987,0.89298 19.4557,0.85501 18.92471,0.80981 18.3849,0.78953 17.85133,0.79453 Z"
   id="path840" />
</g><path
     fill="#383838"
     d="m 17.98332,2.51392 h -0.12289 c -0.38496,0 -0.69703,0.31207 -0.69703,0.69703 v 14.41034 c 0,0.38496 0.31207,0.69703 0.69703,0.69703 h 0.12289 c 0.38496,0 0.69702,-0.31207 0.69702,-0.69703 V 3.21095 c 10e-6,-0.38496 -0.31206,-0.69703 -0.69702,-0.69703 z"
     id="path844" /></g>
</svg>
